<svg width="1280" height="832" viewBox="0 0 1280 832" fill="none" xmlns="http://www.w3.org/2000/svg">
<g clip-path="url(#clip0_249_218)">
<path opacity="0.2" d="M709.465 834.199L724.359 834.593C719.464 836.315 714.495 836.085 709.465 834.199L-19.8845 814.894L-19.8835 752.404V711.289L-20.5574 711.578L-22 712.155L-21.2303 702.43L-19.7876 683.655L-18.1523 662.182C-18.1523 662.182 64.281 604.506 166.143 598.536C232.417 594.685 313.215 647.161 372.562 644.657C431.911 642.154 458.555 581.204 521.461 564.643C579.539 549.353 648.963 811.516 709.465 834.199Z" fill="#5A2489"/>
<path opacity="0.2" d="M755.995 835.457L773.526 835.921C768.05 837.848 762.183 837.568 755.995 835.457L-19.8845 814.893L-19.8835 752.404L-16.7097 710.133L-15.94 699.253L-14.8817 685.195C-14.8817 685.195 78.1322 619.623 179.994 625.304C263.486 629.926 315.523 682.691 374.872 680.188C434.219 677.684 467.212 614.616 530.215 598.151C587.719 583.012 690.118 812.983 755.995 835.457Z" fill="#5A2878"/>
<path d="M510.976 830.781C510.976 830.781 578.009 831.359 569.449 829.048C644.379 791.688 456.869 838.388 439.46 836.847C358.277 829.722 61.614 836.217 -19.8835 835.788C-19.8835 835.788 -16.8606 815.851 -1.69706 811.901C8.12895 809.341 23.2232 835.639 23.2232 835.639L-19.8835 835.788L-19.8835 814.597L-19.8835 752.403V711.289L-16.7098 710.132C18.9765 698.194 60.0489 713.792 80.4403 729.391C115.837 756.447 128.918 780.134 162.681 784.563C168.838 785.333 175.053 785.526 181.245 785.141C229.82 782.444 219.527 750.478 265.794 725.924C268.102 724.673 270.507 723.613 272.912 722.65C317.254 704.741 364.194 734.782 364.194 734.782L508.091 829.048L510.976 830.781Z" fill="url(#paint0_linear_249_218)"/>
<path d="M1550 792.074V844.935L36.0203 833.476C281.203 775.607 536.756 758.469 789.538 750.189C837.728 748.648 885.918 747.782 934.205 747.878C957.097 747.878 979.798 748.07 1002.5 748.359C1162.56 750.767 1317.41 761.84 1464.88 780.423C1493.54 783.986 1521.92 787.837 1550 792.074Z" fill="url(#paint1_linear_249_218)"/>
<path opacity="0.18" d="M1198.27 227.605C1198.27 248.38 1181.49 265.192 1160.75 265.192C1157.68 265.192 1154.68 264.85 1151.75 264.099C1131.63 259.11 1119.35 238.744 1124.33 218.583C1129.31 198.423 1149.64 186.121 1169.76 191.11C1186.47 195.279 1198.2 210.314 1198.27 227.605V227.605Z" fill="#BA3687"/>
<path opacity="0.54" d="M1198.27 227.604C1198.27 248.38 1181.49 265.192 1160.75 265.192C1157.68 265.192 1154.68 264.85 1151.75 264.099C1134.97 251.934 1131.15 228.424 1143.29 211.613C1147.66 205.531 1153.74 200.9 1160.75 198.317C1167.77 195.734 1175.4 195.319 1182.65 197.124C1192.4 204.163 1198.27 215.507 1198.27 227.604V227.604Z" fill="#0E0C30"/>
<path opacity="0.38" d="M1314.23 504.455C1314.23 512.929 1313.62 521.403 1312.46 529.877C1311.57 536.439 1310.27 542.999 1308.63 549.491C1283.81 647.219 1184.63 706.198 1087.15 681.321C1045.71 670.748 1009.29 645.903 984.288 611.136C969.008 589.881 958.436 565.62 953.388 539.924C953.319 539.65 953.251 539.309 953.183 539.035L952.774 536.78L952.433 534.661L952.364 534.32C952.228 533.636 952.159 532.953 952.023 532.269C951.887 531.586 951.819 530.971 951.751 530.288C951.751 530.151 951.682 529.946 951.682 529.809C951.614 529.467 951.546 529.126 951.546 528.784C951.546 528.442 951.478 528.101 951.409 527.759L951.205 525.914C951.205 525.709 951.137 525.504 951.137 525.299C951.068 524.752 951.001 524.137 950.932 523.59C950.796 522.634 950.727 521.677 950.659 520.652C950.659 520.31 950.591 519.9 950.591 519.558C950.523 518.328 950.386 517.098 950.318 515.868C950.25 515.321 950.25 514.706 950.182 514.091V513.612C950.182 512.861 950.113 512.109 950.113 511.357V509.034C950.113 508.282 950.113 507.53 950.046 506.778C949.977 506.026 950.046 505.275 950.046 504.523C950.046 497.415 950.454 490.24 951.273 483.2C951.819 478.485 952.569 473.837 953.456 469.259C953.661 468.097 953.933 466.867 954.206 465.705C954.674 463.534 955.174 461.369 955.707 459.213C956.662 455.522 957.685 451.9 958.844 448.346C959.322 446.775 959.868 445.271 960.413 443.767C962.665 437.343 965.325 431.056 968.258 424.905C969.417 422.513 970.646 420.19 971.873 417.866C1003.66 358.888 1065.25 322.12 1132.17 322.12C1133.4 322.12 1134.56 322.12 1135.78 322.188C1146.22 322.393 1156.66 323.487 1166.89 325.469C1181.15 328.203 1195.07 332.713 1208.23 338.795C1227.67 347.748 1245.41 360.118 1260.61 375.289C1262.39 377.067 1264.09 378.844 1265.8 380.689C1269.44 384.606 1272.9 388.688 1276.16 392.922C1277.67 394.835 1279.17 396.817 1280.53 398.799C1282.85 402.079 1285.04 405.359 1287.15 408.777L1287.42 409.255C1288.52 411.032 1289.61 412.809 1290.63 414.654C1294.16 420.854 1297.3 427.268 1300.04 433.858C1300.99 436.25 1301.95 438.574 1302.84 441.034C1303.59 443.016 1304.27 444.998 1304.95 446.98C1305.84 449.781 1306.73 452.583 1307.54 455.386C1308.09 457.436 1308.63 459.486 1309.11 461.536C1309.38 462.698 1309.66 463.928 1309.93 465.09C1310.41 467.277 1310.88 469.532 1311.3 471.788L1311.5 472.949C1311.57 473.291 1311.64 473.701 1311.7 474.043C1311.84 474.863 1311.98 475.683 1312.11 476.503C1313.62 485.524 1314.29 494.955 1314.23 504.455Z" fill="#662D91"/>
<path opacity="0.57" d="M1316.21 504.865C1316.21 513.339 1315.59 521.813 1314.43 530.288C1313.55 536.848 1312.25 543.409 1310.61 549.901C1294.99 611.136 1248.95 659.931 1188.85 678.998C1103.25 677.289 1030.4 616.125 1013.76 531.996C1013.69 531.723 1013.62 531.381 1013.55 531.108L1013.14 528.853L1012.8 526.734L1012.73 526.392C1012.6 525.709 1012.53 525.026 1012.39 524.342C1012.25 523.658 1012.19 523.044 1012.12 522.36C1012.12 522.223 1012.05 522.018 1012.05 521.882C1011.98 521.54 1011.91 521.199 1011.91 520.856C1011.91 520.515 1011.85 520.173 1011.78 519.831L1011.57 517.986C1011.57 517.781 1011.5 517.576 1011.5 517.371C1011.44 516.824 1011.37 516.21 1011.3 515.663C1011.16 514.706 1011.1 513.749 1011.03 512.724C1011.03 512.383 1010.96 511.972 1010.96 511.631C1010.89 510.4 1010.75 509.17 1010.69 507.94C1010.62 507.394 1010.62 506.778 1010.55 506.163V505.685C1010.55 504.933 1010.48 504.181 1010.48 503.429V501.106C1010.48 500.354 1010.48 499.602 1010.41 498.85C1010.34 498.099 1010.41 497.347 1010.41 496.596C1010.41 489.488 1010.82 482.312 1011.64 475.273C1012.19 470.557 1012.94 465.91 1013.82 461.332C1014.03 460.17 1014.3 458.94 1014.57 457.778C1015.04 455.606 1015.54 453.442 1016.07 451.285C1017.03 447.594 1018.05 443.973 1019.21 440.419C1019.69 438.847 1020.24 437.343 1020.78 435.84C1023.03 429.416 1025.69 423.129 1028.63 416.978C1029.79 414.586 1031.01 412.262 1032.24 409.939C1054.75 368.182 1092.61 336.882 1137.77 322.531C1148.2 322.735 1158.64 323.829 1168.87 325.811C1183.13 328.544 1197.04 333.055 1210.2 339.137C1229.65 348.09 1247.38 360.46 1262.59 375.631C1264.37 377.408 1266.07 379.185 1267.77 381.03C1271.41 384.948 1274.87 389.03 1278.14 393.263C1279.64 395.177 1281.15 397.159 1282.51 399.141C1284.82 402.398 1287.02 405.726 1289.13 409.119L1289.4 409.597C1290.49 411.374 1291.58 413.151 1292.61 414.996C1296.08 421.215 1299.22 427.639 1301.95 434.2C1302.91 436.592 1303.86 438.916 1304.75 441.375C1305.5 443.358 1306.18 445.34 1306.86 447.321C1307.75 450.124 1308.63 452.925 1309.45 455.727C1310 457.778 1310.55 459.828 1311.02 461.878C1311.3 463.04 1311.57 464.27 1311.84 465.432C1312.32 467.618 1312.8 469.874 1313.2 472.129L1313.41 473.291C1313.48 473.633 1313.55 474.043 1313.62 474.385C1313.75 475.205 1313.89 476.025 1314.02 476.845C1315.47 486.114 1316.21 495.482 1316.21 504.865V504.865Z" fill="#0E0C30"/>
<path opacity="0.18" d="M1316.07 483.474C1268.32 488.189 1209.8 495.707 1146.77 505.411C1073.37 516.756 1006.73 529.263 956.526 540.471C956.458 540.197 956.39 539.856 956.39 539.582L955.98 537.327C955.844 536.575 955.708 535.891 955.64 535.208L955.571 534.866C955.435 534.183 955.366 533.499 955.23 532.816C955.094 532.133 955.025 531.518 954.957 530.834C954.957 530.698 954.889 530.493 954.889 530.356C954.821 530.014 954.752 529.672 954.752 529.331C954.752 528.989 954.685 528.648 954.616 528.306L954.411 526.461C954.411 526.256 954.344 526.05 954.344 525.845C954.275 525.299 954.207 524.683 954.139 524.137C954.002 523.18 953.934 522.223 953.866 521.198C953.866 520.856 953.797 520.447 953.797 520.104C953.661 518.875 953.593 517.645 953.525 516.415C953.525 515.867 953.456 515.253 953.456 514.637V514.159C953.456 513.407 953.389 512.656 953.389 511.904C953.389 511.426 953.389 511.015 953.32 510.537V509.648C953.32 508.896 953.32 508.145 953.252 507.394C953.184 506.642 953.252 505.89 953.252 505.138V503.908C1006.46 491.538 1068.33 479.647 1134.56 469.396C1186.88 461.263 1236.88 454.975 1282.38 450.533C1289.19 449.85 1295.88 449.235 1302.43 448.688L1308.43 448.141C1309.25 450.67 1310 453.199 1310.75 455.796C1311.3 457.846 1311.84 459.896 1312.32 461.946C1312.59 463.108 1312.86 464.338 1313.14 465.5C1314.36 471.378 1315.32 477.323 1316.07 483.474V483.474Z" fill="#A738E8"/>
<g opacity="0.08">
<path opacity="0.08" d="M1292.2 394.357L1302.15 414.996C1299.22 412.604 1293.83 410.964 1286.47 410.076C1228.07 402.9 1043.7 439.394 952.433 470.147C952.637 468.986 952.91 467.755 953.183 466.594C953.651 464.422 954.151 462.258 954.683 460.101C955.638 456.41 956.662 452.789 957.822 449.235C1067.57 414.313 1174.12 391.213 1275.14 393.673C1280.87 393.879 1286.53 394.084 1292.2 394.357V394.357Z" fill="url(#paint2_linear_249_218)"/>
</g>
<path d="M1304.27 448.552C1252.08 452.994 1192.88 460.033 1130.4 469.737C1064.16 479.989 1002.29 491.88 949.089 504.25C838.244 529.946 764.712 557.42 766.622 575.666V576.008C766.963 578.263 768.532 580.314 771.123 582.159L771.738 582.569C771.942 582.706 772.147 582.842 772.352 582.911C772.556 582.979 772.761 583.184 773.033 583.321L773.375 583.526C773.511 583.594 773.716 583.731 773.852 583.799C773.988 583.868 774.193 584.004 774.398 584.073L774.943 584.346C775.489 584.62 776.171 584.893 776.786 585.166H776.853C778.15 585.713 779.582 586.191 781.151 586.669L781.833 586.874L782.583 587.079L783.333 587.285C783.607 587.353 783.811 587.421 784.084 587.49L784.834 587.695L785.585 587.9C786.676 588.173 787.767 588.447 788.927 588.652L789.813 588.925H789.882C790.564 589.061 791.315 589.198 792.065 589.335L792.542 589.403L793.633 589.608L795.68 589.95L795.953 590.018C796.976 590.155 798 590.36 799.091 590.497C800.318 590.701 801.546 590.839 802.842 591.044L804.07 591.18L805.298 591.317C807.412 591.59 809.595 591.795 811.846 592L814.166 592.205C849.977 595.28 903.864 594.05 968.802 588.652H968.938C968.597 588.036 968.324 587.353 967.983 586.738C967.779 586.396 967.642 586.055 967.438 585.713L967.096 585.029V584.824C966.072 582.761 965.117 580.664 964.232 578.537C963.463 576.8 962.735 575.046 962.049 573.274L961.913 573.001L959.252 573.206L955.705 573.548L953.386 573.753C950.111 574.026 946.906 574.3 943.768 574.505L939.198 574.847C930.535 575.461 922.486 576.008 915.051 576.35C905.569 576.828 897.111 577.033 889.881 577.101H883.196L881.627 577.033H880.672L878.626 576.965C877.671 576.897 876.716 576.897 875.829 576.828L875.147 576.76L874.465 576.692L873.169 576.623C871.872 576.487 870.645 576.418 869.485 576.282L868.599 576.145C867.712 576.008 866.894 575.94 866.143 575.735L865.665 575.666H865.529L864.984 575.53C864.642 575.461 864.301 575.393 864.029 575.325L863.278 575.12C863.074 575.052 862.801 574.983 862.596 574.915C862.391 574.847 862.119 574.778 861.914 574.71L861.436 574.505L861.027 574.3L860.617 574.095L860.277 573.89C860.14 573.821 860.004 573.753 859.867 573.616C859.799 573.548 859.731 573.548 859.662 573.479C859.594 573.411 859.526 573.343 859.458 573.274C859.39 573.206 859.322 573.138 859.254 573.069C859.185 573.001 859.117 572.933 859.117 572.865C859.117 572.865 859.049 572.796 859.049 572.728C858.981 572.591 858.912 572.523 858.912 572.386C858.912 572.318 858.912 572.25 858.844 572.25V572.113C858.504 570.063 862.05 567.466 868.871 564.458L869.349 564.253C884.015 557.898 913.278 549.765 952.568 540.949C1002.77 529.673 1069.42 517.235 1142.81 505.89C1205.84 496.118 1264.37 488.668 1312.11 483.953C1325.07 482.654 1337.21 481.561 1348.47 480.74V445.34C1334.35 446.16 1319.55 447.254 1304.27 448.552V448.552ZM1312.73 520.037C1312.39 524.41 1311.9 528.716 1311.23 533.022C1311.16 533.5 1311.09 533.91 1311.02 534.388C1310.88 535.072 1310.81 535.755 1310.68 536.37L1312.46 535.961L1314.5 535.482L1316 535.14C1327.12 532.612 1337.9 530.083 1348.34 527.554V512.177C1337.35 514.706 1325.41 517.372 1312.73 520.037Z" fill="url(#paint3_linear_249_218)"/>
<path d="M1308.56 453.883C1256.39 458.324 1197.18 465.364 1134.69 475.068C1068.46 485.319 1006.59 497.279 953.387 509.58C845.134 534.662 772.557 561.452 770.92 579.698C770.852 580.245 770.852 580.792 770.988 581.339L771.192 582.159L771.807 582.569C772.011 582.706 772.216 582.842 772.421 582.911C772.625 582.979 772.83 583.184 773.102 583.321L773.443 583.525C773.58 583.594 773.785 583.731 773.921 583.799C774.057 583.868 774.262 584.004 774.467 584.072L775.012 584.346C775.558 584.619 776.24 584.893 776.855 585.166H776.922C778.218 585.712 779.651 586.191 781.22 586.669L781.902 586.874L782.652 587.079L783.402 587.285C783.676 587.353 783.88 587.421 784.153 587.49L784.903 587.695L785.653 587.9C786.745 588.173 787.836 588.447 788.996 588.652L789.815 588.856H789.882C790.565 588.993 791.315 589.13 792.066 589.266L792.543 589.335L793.635 589.54L795.681 589.882L795.953 589.949C796.977 590.087 798 590.292 799.091 590.428C800.319 590.633 801.547 590.77 802.843 590.975L804.071 591.111L805.299 591.248C807.413 591.522 809.596 591.727 811.847 591.932L814.166 592.136C849.977 595.212 903.865 593.982 968.803 588.583H968.939C968.598 587.968 968.325 587.285 967.984 586.669C967.779 586.328 967.643 585.986 967.438 585.644L967.097 584.961V584.756C966.073 582.693 965.118 580.596 964.232 578.468L961.572 578.674C939.062 580.587 919.622 581.817 904.069 582.227C896.02 582.432 889.063 582.432 883.265 582.227C879.036 582.09 875.489 581.749 872.555 581.339L871.805 581.202C866.416 580.382 863.415 579.084 863.142 577.375C863.074 576.555 863.415 575.735 864.029 575.188C869.964 568.49 904.479 558.034 956.797 546.28C1007 535.004 1073.64 522.565 1147.04 511.221C1210.07 501.448 1268.59 493.999 1316.34 489.283C1327.66 488.19 1338.37 487.164 1348.4 486.413V451.081C1335.65 451.764 1322.35 452.721 1308.56 453.883V453.883ZM1317.02 525.367C1316.82 528.647 1316.48 531.928 1316 535.14C1315.87 536.216 1315.72 537.287 1315.52 538.352L1315.32 539.719C1315.18 540.402 1315.12 541.086 1314.98 541.701C1321.05 540.334 1327.05 538.967 1332.99 537.601L1335.03 537.122L1336.54 536.78C1340.49 535.823 1344.44 534.935 1348.34 533.978V518.533C1338.58 520.72 1328.14 523.044 1317.02 525.367V525.367Z" fill="url(#paint4_linear_249_218)"/>
<path d="M1348.13 461.4C1295.95 465.842 1236.74 472.881 1174.25 482.586C1108.02 492.837 1046.15 504.729 992.949 517.098C887.834 541.428 816.28 567.397 810.755 585.576V585.644C810.414 586.669 810.345 587.763 810.482 588.856V588.993C810.619 589.676 810.823 590.428 811.164 591.044C811.3 591.317 811.505 591.59 811.641 591.863L811.71 592L814.029 592.205C849.84 595.28 903.728 594.05 968.665 588.652C954.204 589.54 941.79 589.949 931.694 589.949C925.078 589.949 919.484 589.676 914.983 589.266C910.344 588.788 906.934 588.105 904.887 587.216C903.455 586.601 902.704 585.849 902.568 584.961C902.432 584.072 902.909 583.252 903.932 582.295C905.842 580.519 909.525 578.537 914.846 576.35C905.365 576.828 896.906 577.033 889.676 577.101H883.128L881.559 577.033H880.604L878.558 576.965C877.603 576.897 876.648 576.897 875.761 576.828L875.079 576.76L874.397 576.692L873.1 576.623C871.804 576.487 870.576 576.418 869.417 576.282L868.53 576.145C867.644 576.008 866.825 575.94 866.075 575.735L865.597 575.666H865.461L864.915 575.53C864.574 575.461 864.233 575.393 863.96 575.325L863.21 575.12L862.528 574.914C862.323 574.847 862.05 574.778 861.845 574.709L861.368 574.505L860.959 574.3L860.549 574.095L860.209 573.89C860.072 573.821 859.935 573.753 859.799 573.616C859.731 573.548 859.663 573.548 859.594 573.479L859.39 573.274L859.185 573.069C859.117 573.001 859.049 572.933 859.049 572.865C859.049 572.865 858.98 572.796 858.98 572.728C858.913 572.591 858.844 572.523 858.844 572.386C858.844 572.317 858.844 572.25 858.776 572.25V572.113C858.435 570.063 861.982 567.466 868.803 564.458L869.28 564.253C883.946 557.898 913.209 549.765 952.499 540.949C1002.7 529.673 1069.35 517.234 1142.74 505.89C1205.77 496.118 1264.3 488.668 1312.04 483.953C1325 482.654 1337.14 481.561 1348.4 480.74V461.4H1348.13V461.4Z" fill="url(#paint5_linear_249_218)"/>
<path d="M831.083 572.387C831.247 572.391 831.41 572.362 831.562 572.302C831.715 572.241 831.853 572.151 831.971 572.037C832.088 571.922 832.181 571.785 832.244 571.634C832.308 571.483 832.341 571.32 832.341 571.156C832.34 570.992 832.308 570.83 832.244 570.678C832.18 570.527 832.087 570.39 831.97 570.276C831.853 570.161 831.714 570.071 831.562 570.011C831.409 569.951 831.246 569.922 831.083 569.926C830.762 569.934 830.457 570.067 830.233 570.297C830.009 570.527 829.884 570.836 829.884 571.157C829.884 571.478 830.01 571.787 830.234 572.016C830.458 572.246 830.763 572.379 831.083 572.387Z" fill="white"/>
<path d="M904.342 560.905C904.541 560.905 904.732 560.826 904.872 560.685C905.013 560.544 905.092 560.353 905.092 560.153C905.092 559.954 905.013 559.763 904.872 559.622C904.732 559.481 904.541 559.401 904.342 559.401C904.143 559.401 903.952 559.481 903.811 559.622C903.671 559.763 903.592 559.954 903.592 560.153C903.592 560.353 903.671 560.544 903.811 560.685C903.952 560.826 904.143 560.905 904.342 560.905V560.905ZM953.25 538.694C953.485 538.694 953.711 538.601 953.877 538.434C954.043 538.267 954.137 538.041 954.137 537.806C954.137 537.57 954.043 537.344 953.877 537.178C953.711 537.011 953.485 536.918 953.25 536.918C953.015 536.918 952.789 537.011 952.623 537.178C952.457 537.344 952.364 537.57 952.364 537.806C952.364 538.041 952.457 538.267 952.623 538.434C952.789 538.601 953.015 538.694 953.25 538.694V538.694ZM869.009 564.664C869.082 564.664 869.151 564.635 869.203 564.584C869.254 564.533 869.283 564.463 869.283 564.39C869.283 564.318 869.254 564.248 869.203 564.197C869.151 564.146 869.082 564.117 869.009 564.117C868.937 564.117 868.868 564.146 868.816 564.197C868.765 564.248 868.736 564.318 868.736 564.39C868.736 564.463 868.765 564.533 868.816 564.584C868.868 564.635 868.937 564.664 869.009 564.664V564.664ZM939.675 573.753C939.82 573.753 939.959 573.696 940.061 573.593C940.163 573.491 940.221 573.351 940.221 573.206C940.221 573.061 940.163 572.922 940.061 572.82C939.959 572.717 939.82 572.66 939.675 572.66C939.53 572.66 939.392 572.717 939.289 572.82C939.187 572.922 939.13 573.061 939.13 573.206C939.13 573.351 939.187 573.491 939.289 573.593C939.392 573.696 939.53 573.753 939.675 573.753V573.753ZM980.671 521.472C980.78 521.472 980.884 521.429 980.961 521.351C981.038 521.274 981.081 521.17 981.08 521.061C981.08 520.952 981.037 520.847 980.96 520.77C980.883 520.693 980.778 520.65 980.67 520.65C980.561 520.651 980.457 520.694 980.38 520.771C980.303 520.849 980.26 520.953 980.26 521.062C980.26 521.171 980.304 521.276 980.381 521.352C980.458 521.429 980.562 521.473 980.671 521.472ZM1108.91 514.707C1109.36 514.707 1109.73 514.339 1109.73 513.886C1109.73 513.433 1109.36 513.066 1108.91 513.066C1108.45 513.066 1108.09 513.433 1108.09 513.886C1108.09 514.339 1108.45 514.707 1108.91 514.707ZM1132.65 499.74C1132.87 499.74 1133.06 499.556 1133.06 499.329C1133.06 499.22 1133.01 499.116 1132.94 499.039C1132.86 498.963 1132.76 498.919 1132.65 498.919C1132.42 498.919 1132.23 499.103 1132.23 499.329C1132.23 499.556 1132.42 499.74 1132.65 499.74ZM1308.16 485.115C1308.31 485.115 1308.43 484.993 1308.43 484.842C1308.43 484.769 1308.4 484.7 1308.35 484.649C1308.3 484.598 1308.23 484.568 1308.16 484.567C1308.01 484.567 1307.89 484.691 1307.89 484.842C1307.89 484.993 1308.01 485.115 1308.16 485.115Z" fill="white" stroke="white" stroke-width="0.613" stroke-miterlimit="10"/>
<path d="M941.382 577.307C941.69 577.312 941.996 577.256 942.282 577.141C942.568 577.027 942.828 576.857 943.048 576.641C943.268 576.424 943.442 576.166 943.561 575.882C943.68 575.597 943.742 575.292 943.742 574.983C943.742 574.675 943.681 574.369 943.562 574.084C943.443 573.8 943.268 573.542 943.049 573.325C942.829 573.109 942.569 572.939 942.283 572.824C941.997 572.71 941.691 572.654 941.383 572.659C940.775 572.67 940.195 572.919 939.769 573.353C939.342 573.788 939.103 574.373 939.103 574.982C939.103 575.592 939.342 576.177 939.768 576.612C940.194 577.046 940.774 577.296 941.382 577.307V577.307ZM873.101 537.601C873.217 537.601 873.332 537.578 873.44 537.533C873.548 537.489 873.645 537.423 873.728 537.341C873.81 537.259 873.875 537.161 873.92 537.053C873.965 536.945 873.988 536.83 873.988 536.713C873.988 536.596 873.965 536.481 873.921 536.373C873.876 536.265 873.811 536.167 873.729 536.085C873.646 536.002 873.549 535.937 873.441 535.892C873.334 535.847 873.218 535.824 873.102 535.824C872.867 535.824 872.641 535.917 872.475 536.084C872.309 536.25 872.215 536.476 872.215 536.712C872.215 536.947 872.308 537.173 872.474 537.34C872.64 537.507 872.866 537.601 873.101 537.601V537.601ZM954.478 575.12C954.642 575.124 954.805 575.095 954.957 575.035C955.11 574.975 955.248 574.885 955.366 574.77C955.483 574.656 955.576 574.519 955.639 574.367C955.703 574.216 955.736 574.054 955.736 573.89C955.735 573.726 955.703 573.563 955.639 573.412C955.575 573.261 955.482 573.124 955.365 573.009C955.248 572.895 955.109 572.805 954.957 572.745C954.804 572.685 954.641 572.656 954.478 572.66C954.157 572.668 953.852 572.801 953.628 573.031C953.404 573.261 953.279 573.569 953.279 573.89C953.279 574.212 953.405 574.52 953.629 574.75C953.853 574.98 954.158 575.113 954.478 575.12Z" fill="white" stroke="white" stroke-width="0.613" stroke-miterlimit="10"/>
<path d="M1303.72 448.894C1319.48 447.527 1334.55 446.502 1348.88 445.613V493.179C1344.65 493.588 1340.35 493.999 1335.92 494.409C1288.17 499.124 1229.65 506.642 1166.62 516.346C1093.22 527.691 1026.58 540.197 976.374 551.405C931.491 561.52 899.704 570.609 887.835 577.239H895.406L898.476 577.17C903.799 577.018 909.12 576.813 914.438 576.555C928.08 575.871 943.837 574.709 961.299 573.206L961.913 574.642C962.459 576.008 963.005 577.375 963.619 578.742L964.233 580.177L964.847 581.612C964.983 581.954 965.188 582.296 965.324 582.637C965.665 583.321 966.006 584.072 966.347 584.756C966.415 584.961 966.552 585.098 966.62 585.303C966.824 585.712 967.029 586.055 967.165 586.464L968.393 588.925H967.984C956.851 589.853 945.709 590.673 934.56 591.385C928.08 591.795 921.805 592.205 915.665 592.479C874.329 594.597 839.541 594.666 813.962 592.479L811.301 592.274H811.029C810.256 592.208 809.482 592.14 808.71 592.068H808.505C803.525 591.522 798.887 590.975 794.726 590.223C793.839 590.087 792.884 589.882 791.997 589.745H791.588C789.948 589.417 788.311 589.075 786.677 588.72H786.541C784.512 588.281 782.508 587.733 780.538 587.079H780.47L779.72 586.806L779.515 586.738H779.446C778.491 586.396 777.537 586.055 776.65 585.712L776.513 585.644L775.49 585.234L775.353 585.166C774.808 584.961 774.331 584.687 773.853 584.482C773.648 584.414 773.512 584.277 773.307 584.209L773.239 584.277L772.421 583.868L772.216 583.731C772.011 583.594 771.738 583.458 771.534 583.321L771.397 583.252L771.33 583.184C771.056 583.047 770.783 582.842 770.579 582.706C769.193 581.795 768.009 580.609 767.1 579.22C766.562 578.421 766.213 577.509 766.077 576.555C763.28 558.308 837.017 530.63 948.544 504.865C1001.75 492.495 1063.62 480.604 1129.85 470.353C1192.33 460.443 1251.47 453.336 1303.72 448.894Z" fill="url(#paint6_linear_249_218)"/>
<path d="M972.624 593.709C943.292 595.69 845.135 599.176 813.144 591.932C810.893 591.727 808.71 591.522 806.595 591.249L805.299 591.112L804.072 590.975C802.775 590.839 801.548 590.633 800.32 590.428C799.229 590.292 798.205 590.087 797.182 589.95L796.909 589.882L794.863 589.54L793.772 589.335L793.294 589.266L791.112 588.857H791.043L790.156 588.652C788.997 588.378 787.905 588.173 786.814 587.9L786.064 587.695L785.313 587.49C785.04 587.421 784.768 587.353 784.563 587.285L783.813 587.079L783.063 586.874L782.38 586.669C780.811 586.191 779.379 585.644 778.083 585.166H778.015C777.078 584.836 776.146 584.494 775.218 584.141L775.081 584.073L774.058 583.663L773.922 583.594C773.376 583.389 772.899 583.116 772.421 582.911L773.649 582.979C779.379 583.458 785.859 584.004 792.339 584.482C798.88 585.009 805.429 585.42 811.984 585.713C817.441 585.918 822.284 585.986 826.172 585.713C840.974 584.825 858.573 583.799 873.034 581.271C878.696 580.382 884.221 579.015 889.609 577.102C890.701 576.692 892.065 576.282 893.566 575.804C908.367 568.423 943.497 563.092 958.435 561.042C961.71 570.882 967.916 584.687 972.624 593.709V593.709Z" fill="url(#paint7_linear_249_218)"/>
<path d="M466.953 693.932V756.584C466.953 763.61 461.271 769.382 454.169 769.382H394.423C387.404 769.382 381.638 763.694 381.638 756.584V693.179C381.638 681.301 386.568 670.008 395.258 661.895C396.428 660.724 397.766 659.72 399.102 658.717C403.698 655.287 408.962 652.944 414.477 651.606C415.647 651.355 416.817 651.104 418.07 650.937C418.571 650.853 419.073 650.77 419.574 650.77C420.327 650.686 421.078 650.602 421.747 650.602H422.332C423 650.602 423.669 650.519 424.338 650.519H425.089C425.508 650.519 425.842 650.519 426.176 650.602H426.677C427.095 650.602 427.597 650.686 428.014 650.686C428.432 650.686 428.766 650.77 429.184 650.77C429.351 650.77 429.518 650.77 429.685 650.853L431.44 651.104C432.025 651.188 432.86 651.355 433.529 651.522C438.208 652.61 442.721 654.45 446.816 657.044C448.177 657.887 449.488 658.809 450.743 659.804C461.021 668.252 466.953 680.716 466.953 693.932V693.932Z" fill="#C197F2"/>
<path d="M407.96 669.172L400.104 639.478C401.608 637.805 401.44 635.211 399.77 633.706C398.099 632.2 395.508 632.367 394.004 634.04C392.5 635.713 392.667 638.307 394.337 639.813C394.672 640.147 395.091 640.398 395.508 640.565L403.446 670.343L407.958 669.172H407.96Z" fill="url(#paint8_linear_249_218)"/>
<path d="M455.589 635.044C455.17 632.786 452.998 631.196 450.742 631.615C448.486 632.033 446.898 634.208 447.316 636.467C447.483 637.22 447.734 637.889 448.235 638.474L439.211 670.259L443.723 671.514L452.748 639.645C454.67 638.976 455.923 637.052 455.589 635.044V635.044Z" fill="url(#paint9_linear_249_218)"/>
<path d="M400.437 668.754C400.734 668.754 401.027 668.696 401.301 668.583C401.574 668.469 401.823 668.303 402.033 668.093C402.242 667.884 402.408 667.635 402.522 667.361C402.635 667.087 402.694 666.793 402.694 666.497C402.694 666.2 402.635 665.906 402.522 665.632C402.409 665.358 402.243 665.109 402.033 664.9C401.824 664.69 401.575 664.524 401.301 664.41C401.028 664.296 400.734 664.238 400.438 664.238C399.84 664.238 399.266 664.476 398.843 664.899C398.42 665.323 398.182 665.897 398.182 666.496C398.182 667.095 398.42 667.669 398.843 668.093C399.266 668.516 399.84 668.754 400.438 668.754H400.437ZM407.623 661.811C407.832 661.811 408.038 661.77 408.231 661.69C408.423 661.61 408.599 661.493 408.746 661.346C408.893 661.198 409.01 661.023 409.09 660.83C409.17 660.638 409.211 660.431 409.211 660.222C409.211 660.014 409.17 659.807 409.091 659.614C409.011 659.421 408.894 659.246 408.747 659.098C408.599 658.951 408.424 658.834 408.232 658.754C408.039 658.674 407.833 658.633 407.624 658.633C407.203 658.633 406.799 658.8 406.502 659.098C406.204 659.396 406.037 659.8 406.037 660.222C406.037 660.643 406.204 661.048 406.502 661.346C406.799 661.644 407.203 661.811 407.624 661.811H407.623Z" fill="white"/>
<path d="M568.813 710.076V763.61C568.813 769.633 563.967 774.484 557.95 774.484H506.978C505.55 774.487 504.137 774.208 502.817 773.662C501.498 773.117 500.3 772.316 499.291 771.306C498.281 770.295 497.481 769.095 496.936 767.775C496.391 766.454 496.112 765.039 496.115 763.61V709.491C496.115 699.369 500.293 689.749 507.73 682.807C508.733 681.803 509.819 680.967 510.989 680.13C514.916 677.203 519.345 675.195 524.108 674.108C525.111 673.857 526.113 673.69 527.2 673.522L528.537 673.355C529.122 673.271 529.79 673.188 530.375 673.188H534.47C534.887 673.188 535.222 673.271 535.639 673.271L536.642 673.355L537.06 673.439L538.564 673.69C539.065 673.773 539.734 673.857 540.319 674.024C544.33 674.944 548.173 676.534 551.599 678.792C552.746 679.525 553.861 680.306 554.942 681.134C563.716 688.16 568.813 698.784 568.813 710.076V710.076Z" fill="#C197F2"/>
<path d="M518.427 688.913L511.657 663.568C512.911 662.146 512.827 659.888 511.324 658.633C509.903 657.379 507.647 657.462 506.393 658.968C505.14 660.39 505.224 662.648 506.728 663.903C507.062 664.154 507.396 664.405 507.73 664.572L514.499 690L518.427 688.913Z" fill="url(#paint10_linear_249_218)"/>
<path d="M559.036 659.72C558.702 657.797 556.864 656.458 554.941 656.793C553.02 657.128 551.683 658.968 552.017 660.891C552.184 661.477 552.435 662.062 552.853 662.564L545.165 689.749L549.009 690.837L556.697 663.652C558.368 663.15 559.37 661.477 559.036 659.72Z" fill="url(#paint11_linear_249_218)"/>
<path d="M511.992 688.578C512.244 688.578 512.494 688.529 512.727 688.432C512.96 688.336 513.172 688.194 513.35 688.015C513.529 687.837 513.67 687.625 513.767 687.392C513.863 687.158 513.913 686.908 513.913 686.656C513.913 686.403 513.864 686.153 513.767 685.92C513.671 685.686 513.529 685.474 513.351 685.296C513.172 685.117 512.961 684.975 512.728 684.879C512.495 684.782 512.245 684.732 511.992 684.732C511.483 684.732 510.994 684.934 510.634 685.295C510.273 685.656 510.071 686.145 510.071 686.655C510.071 687.165 510.273 687.654 510.633 688.015C510.993 688.376 511.482 688.578 511.992 688.578V688.578ZM518.173 682.556C518.527 682.556 518.867 682.415 519.118 682.164C519.369 681.913 519.51 681.573 519.51 681.218C519.51 680.863 519.369 680.523 519.118 680.272C518.867 680.021 518.527 679.88 518.173 679.88C517.818 679.88 517.478 680.021 517.228 680.272C516.977 680.523 516.836 680.863 516.836 681.218C516.836 681.573 516.977 681.913 517.228 682.164C517.478 682.415 517.818 682.556 518.173 682.556Z" fill="white"/>
<path d="M457.592 693.932V756.584C457.592 763.61 451.911 769.382 444.808 769.382H394.505C387.485 769.382 381.72 763.694 381.72 756.584V693.179C381.72 681.301 386.649 670.009 395.34 661.895C396.51 660.724 397.847 659.721 399.184 658.717C403.779 655.287 409.044 652.944 414.559 651.606C415.728 651.355 416.899 651.104 418.153 650.937C418.654 650.853 419.154 650.77 419.656 650.77H419.907C420.074 650.77 420.241 650.77 420.408 650.853L422.163 651.104C422.915 651.188 423.584 651.355 424.252 651.522C428.931 652.61 433.443 654.451 437.538 657.044C438.9 657.887 440.211 658.809 441.466 659.804C451.576 668.252 457.592 680.716 457.592 693.932V693.932ZM560.791 710.076V763.61C560.791 769.633 555.945 774.484 549.929 774.484H506.978C505.551 774.487 504.137 774.208 502.818 773.662C501.498 773.117 500.3 772.316 499.291 771.306C498.281 770.295 497.481 769.095 496.936 767.775C496.392 766.454 496.113 765.039 496.115 763.61V709.491C496.115 699.369 500.293 689.749 507.73 682.807C508.733 681.803 509.819 680.967 510.989 680.13C514.916 677.203 519.345 675.195 524.108 674.108C525.111 673.857 526.113 673.69 527.2 673.522L528.537 673.355H528.703L529.122 673.439L530.626 673.69C531.127 673.773 531.795 673.857 532.381 674.024C536.416 674.942 540.261 676.556 543.745 678.792C544.892 679.525 546.007 680.306 547.087 681.134C555.694 688.076 560.791 698.784 560.791 710.076V710.076Z" fill="#8B4FD1"/>
<path d="M421.077 759.845V783.686C421.161 788.453 418.487 792.886 414.309 795.145C412.736 795.971 410.987 796.401 409.212 796.399C402.61 796.399 397.346 790.712 397.346 783.686V759.845H421.077ZM449.572 759.845V783.686C449.656 788.453 446.981 792.886 442.804 795.145C441.231 795.971 439.482 796.401 437.707 796.399C431.105 796.399 425.841 790.712 425.841 783.686V759.845H449.572ZM529.705 766.371V786.697C529.788 790.795 527.533 794.559 523.939 796.483C522.602 797.152 521.098 797.57 519.594 797.487C513.996 797.487 509.483 792.636 509.483 786.613V766.287H529.705V766.371ZM554.022 766.371V786.697C554.106 790.795 551.767 794.559 548.173 796.483C546.836 797.152 545.333 797.487 543.828 797.487C538.23 797.487 533.717 792.636 533.717 786.613V766.287H554.022V766.371Z" fill="#F78F08"/>
<path d="M466.953 733.581V758.507C466.953 764.53 461.271 769.382 454.169 769.382H394.423C393.42 769.382 392.334 769.298 391.331 769.047C385.733 767.876 381.638 763.61 381.638 758.507V733.581H466.953ZM568.813 743.869V765.116C568.813 770.218 563.967 774.4 557.95 774.4H506.978C506.059 774.4 505.224 774.317 504.387 774.15C499.625 773.146 496.115 769.466 496.115 765.116V743.869H568.813V743.869Z" fill="#F78F08"/>
<path d="M415.145 773.552V803.164C415.145 805.088 414.894 807.012 414.309 808.852C412.736 809.677 410.987 810.108 409.212 810.106C402.61 810.106 397.346 804.419 397.346 797.392V773.552H415.145V773.552ZM443.639 773.636V803.248C443.639 805.171 443.389 807.095 442.804 808.935C441.231 809.761 439.482 810.192 437.707 810.19C431.105 810.19 425.841 804.502 425.841 797.475V773.636H443.639Z" fill="#B8306F"/>
<path d="M460.937 733.581V758.507C460.937 764.53 455.254 769.382 448.151 769.382H391.332V769.047C385.733 767.876 381.638 763.61 381.638 758.507V733.581H460.938H460.937ZM524.608 766.371V791.632C524.602 793.272 524.377 794.903 523.939 796.483C522.603 797.152 521.098 797.57 519.595 797.487C513.996 797.487 509.483 792.636 509.483 786.613V766.287H524.608V766.371V766.371ZM548.926 766.371V791.632C548.92 793.272 548.695 794.903 548.257 796.483C546.92 797.152 545.416 797.487 543.912 797.487C538.314 797.487 533.801 792.636 533.801 786.613V766.287H548.926V766.371V766.371Z" fill="#B8306F"/>
<path d="M563.716 743.869V765.116C563.716 770.218 558.869 774.4 552.853 774.4H504.387V774.15C499.625 773.146 496.115 769.466 496.115 765.116V743.869H563.716V743.869Z" fill="#B8306F"/>
<path d="M466.953 711.247V716.098C463.444 711.08 459.349 706.06 451.577 706.98C443.723 707.901 436.704 720.113 436.704 720.113L424.337 715.262C424.337 715.262 434.615 702.631 449.572 702.631C458.931 702.631 463.109 707.985 466.953 711.247V711.247ZM568.813 724.797V728.98C565.805 724.714 562.296 720.364 555.694 721.201C549.01 722.037 542.993 732.41 542.993 732.41L532.464 728.228C532.464 728.228 541.238 717.437 554.023 717.437C561.961 717.437 565.554 722.121 568.813 724.797Z" fill="#5A2489"/>
<path d="M439.21 711.164H386.231V753.322H439.209V711.164H439.21Z" fill="#8342BD"/>
<path d="M420.326 711.164H364.674V753.322H420.326V711.164Z" fill="#5A2489"/>
<path d="M441.284 670.475C441.325 670 441.27 669.522 441.125 669.068C440.979 668.613 440.745 668.193 440.435 667.83C440.125 667.468 439.747 667.17 439.322 666.956C438.896 666.741 438.433 666.613 437.957 666.579C437.482 666.545 437.005 666.606 436.553 666.759C436.102 666.911 435.685 667.152 435.328 667.467C434.97 667.782 434.679 668.166 434.47 668.594C434.262 669.023 434.141 669.489 434.114 669.966C434.061 670.909 434.381 671.836 435.005 672.545C435.629 673.255 436.506 673.69 437.448 673.757C438.39 673.824 439.32 673.517 440.038 672.903C440.756 672.289 441.203 671.417 441.284 670.475Z" fill="#6A2AA1"/>
<path d="M413.976 666.579C414.286 666.579 414.584 666.456 414.803 666.236C415.022 666.017 415.146 665.719 415.146 665.408C415.146 665.098 415.022 664.8 414.803 664.58C414.584 664.36 414.286 664.237 413.976 664.237C413.665 664.237 413.368 664.36 413.149 664.58C412.929 664.8 412.806 665.098 412.806 665.408C412.806 665.719 412.929 666.017 413.149 666.236C413.368 666.456 413.665 666.579 413.976 666.579Z" fill="#8836CF"/>
<path d="M419.49 695.02C420.576 695.02 421.618 694.588 422.386 693.819C423.154 693.05 423.585 692.008 423.585 690.921C423.585 689.833 423.154 688.791 422.386 688.022C421.618 687.253 420.576 686.821 419.49 686.821C418.404 686.821 417.363 687.253 416.595 688.022C415.827 688.791 415.396 689.833 415.396 690.921C415.396 692.008 415.827 693.05 416.595 693.819C417.363 694.588 418.404 695.02 419.49 695.02Z" fill="#6A2AA1"/>
<path d="M369.605 716.099H383.476C383.81 716.099 384.144 716.433 384.144 716.768V718.273C384.144 718.608 383.81 718.943 383.476 718.943H369.688C369.355 718.943 369.02 718.608 369.02 718.273V716.768C368.936 716.433 369.271 716.099 369.605 716.099ZM370.271 721.954H382.806C383.558 721.954 384.06 722.539 384.06 723.208V728.06C384.06 728.813 383.474 729.315 382.806 729.315H370.272C369.52 729.315 368.935 728.73 368.935 728.06V723.208C368.935 722.539 369.52 721.954 370.272 721.954H370.271Z" fill="#8836CF"/>
<path d="M545.166 724.714H499.959V760.682H545.166V724.714Z" fill="#8342BD"/>
<path d="M529.121 724.714H481.576V760.682H529.121V724.714Z" fill="#5A2489"/>
<path d="M517.255 694.601C517.65 694.601 518.041 694.523 518.406 694.372C518.771 694.221 519.103 693.999 519.382 693.719C519.661 693.44 519.883 693.108 520.034 692.743C520.186 692.377 520.264 691.986 520.264 691.59C520.264 691.195 520.186 690.803 520.035 690.438C519.884 690.073 519.663 689.741 519.383 689.461C519.104 689.181 518.772 688.959 518.408 688.808C518.043 688.657 517.652 688.579 517.256 688.578C516.459 688.578 515.693 688.895 515.129 689.46C514.565 690.024 514.248 690.79 514.248 691.589C514.247 692.387 514.564 693.153 515.128 693.718C515.692 694.283 516.457 694.601 517.255 694.601V694.601ZM523.607 686.738C523.873 686.738 524.128 686.633 524.316 686.444C524.504 686.256 524.609 686.001 524.609 685.735C524.609 685.469 524.504 685.214 524.316 685.026C524.128 684.838 523.873 684.732 523.607 684.732C523.341 684.732 523.087 684.838 522.899 685.026C522.711 685.214 522.605 685.469 522.605 685.735C522.605 686.001 522.711 686.256 522.899 686.444C523.087 686.633 523.341 686.738 523.607 686.738ZM548.675 702.715C549.606 702.715 550.498 702.345 551.156 701.686C551.815 701.027 552.184 700.134 552.184 699.202C552.184 698.27 551.815 697.377 551.156 696.718C550.498 696.059 549.606 695.689 548.675 695.689C547.744 695.689 546.851 696.059 546.193 696.718C545.535 697.377 545.165 698.27 545.165 699.202C545.165 700.134 545.535 701.027 546.193 701.686C546.851 702.345 547.744 702.715 548.675 702.715V702.715Z" fill="#722DAD"/>
<path d="M485.837 728.981H497.452C497.787 728.981 498.12 729.315 498.12 729.65V730.737C498.12 731.072 497.787 731.406 497.452 731.406H485.837C485.503 731.406 485.169 731.072 485.169 730.737V729.65C485.168 729.561 485.184 729.474 485.217 729.392C485.25 729.31 485.3 729.236 485.362 729.174C485.424 729.111 485.498 729.062 485.58 729.029C485.662 728.996 485.749 728.979 485.837 728.981ZM486.422 733.999H496.784C497.536 733.999 498.037 734.584 498.037 735.254V739.018C498.037 739.77 497.452 740.272 496.784 740.272H486.422C485.671 740.272 485.169 739.687 485.169 739.018V735.254C485.169 734.584 485.754 733.999 486.422 733.999Z" fill="#8836CF"/>
<path d="M414.475 651.69C415.645 651.439 416.815 651.188 418.068 651.021C418.57 650.937 419.071 650.853 419.573 650.853C420.324 650.77 421.076 650.686 421.745 650.686H422.33C422.998 650.686 423.667 650.602 424.335 650.602H425.087C425.505 650.602 425.84 650.602 426.174 650.686H426.675C427.092 650.686 427.594 650.77 428.012 650.77C428.43 650.77 428.765 650.853 429.182 650.853C429.349 650.853 429.516 650.853 429.683 650.937L431.437 651.188C432.023 651.272 432.858 651.439 433.527 651.606C438.207 652.694 442.718 654.534 446.813 657.128C448.174 657.971 449.486 658.893 450.74 659.888C461.018 668.168 466.951 680.632 466.951 693.849V756.5C466.951 763.526 461.269 769.298 454.167 769.298M528.453 673.271C529.037 673.188 529.707 673.104 530.291 673.104H534.386C534.804 673.104 535.137 673.188 535.556 673.188L536.558 673.271L536.976 673.355L538.48 673.606C538.981 673.69 539.65 673.773 540.235 673.941C544.245 674.861 548.09 676.45 551.515 678.708C552.662 679.441 553.778 680.222 554.858 681.05C563.631 688.16 568.729 698.783 568.645 710.076V763.61C568.648 765.038 568.369 766.454 567.824 767.775C567.28 769.095 566.48 770.295 565.47 771.306C564.461 772.316 563.262 773.117 561.943 773.662C560.623 774.208 559.21 774.487 557.782 774.484" stroke="white" stroke-width="0.613" stroke-linecap="round" stroke-linejoin="round"/>
<path d="M470.045 754.744L468.792 755.245L467.538 755.58C463.695 756.5 459.851 754.158 458.932 750.394C458.932 750.31 458.932 750.227 458.848 750.143L450.993 717.353C449.99 713.506 452.246 709.49 456.09 708.403L457.093 708.152L457.511 708.068C461.271 707.148 465.032 709.407 465.951 713.171C465.951 713.255 465.951 713.338 466.035 713.422L473.973 746.212C474.808 749.474 473.221 753.071 470.045 754.744V754.744Z" fill="#C197F2"/>
<path d="M470.044 754.744L468.79 755.245L467.537 755.58C463.693 756.5 459.849 754.158 458.93 750.394C458.93 750.31 458.93 750.227 458.847 750.143L449.655 717.939C448.736 714.008 452.245 709.407 456.006 708.403L457.009 708.152C459.348 708.989 461.103 710.913 461.688 713.338L470.462 749.725C470.963 751.398 470.796 753.154 470.044 754.744V754.744Z" fill="#8B4FD1"/>
<path d="M571.486 761.937C571.152 762.104 570.734 762.271 570.4 762.355L569.398 762.606C566.139 763.443 562.88 761.435 562.044 758.173C562.044 758.089 562.044 758.006 561.961 758.006L555.192 729.984C554.356 726.721 556.278 723.292 559.537 722.288L560.372 722.037L560.791 721.954C563.966 721.201 567.225 723.125 567.977 726.303C567.977 726.387 567.977 726.47 568.06 726.554L574.829 754.576C575.498 757.42 574.16 760.515 571.486 761.937Z" fill="#C197F2"/>
<path d="M571.486 761.937C571.152 762.104 570.734 762.271 570.4 762.355L569.398 762.606C566.139 763.443 562.88 761.435 562.044 758.173C562.044 758.089 562.044 758.005 561.96 758.005L554.106 730.486C553.27 727.14 556.361 723.208 559.537 722.372L560.372 722.121C562.378 722.79 563.882 724.463 564.384 726.554L571.904 757.587C572.231 759.045 572.085 760.569 571.486 761.937V761.937Z" fill="#8B4FD1"/>
<path d="M457.344 708.068C461.105 707.148 464.865 709.407 465.784 713.171C465.784 713.255 465.784 713.338 465.868 713.422L473.806 746.212C474.641 749.641 473.054 753.238 469.962 754.827L468.708 755.329M559.371 722.455L560.206 722.204L560.624 722.121C563.8 721.368 567.059 723.292 567.811 726.47C567.811 726.554 567.811 726.638 567.894 726.638L574.662 754.66C575.415 757.587 574.078 760.598 571.404 762.02C571.057 762.196 570.693 762.337 570.318 762.439L569.315 762.69" stroke="white" stroke-width="0.613" stroke-linecap="round" stroke-linejoin="round"/>
<path d="M508.86 831.846C508.86 831.846 575.893 832.423 567.333 830.113C642.262 792.752 454.752 839.452 437.343 837.911C356.161 830.787 59.4975 837.282 -22 836.853C-22 836.853 -18.9771 816.915 -3.81352 812.965C6.0125 810.405 21.1068 836.703 21.1068 836.703L-22 836.853L-22 815.662L-22 753.467V712.354L-18.8262 711.197C16.86 699.258 57.9324 714.857 78.3238 730.455C113.721 757.512 126.802 781.198 160.564 785.628C166.721 786.398 172.936 786.591 179.129 786.205C227.704 783.509 217.411 751.543 263.678 726.989C265.986 725.737 268.391 724.678 270.796 723.714C315.138 705.805 362.078 735.847 362.078 735.847L505.975 830.113L508.86 831.846Z" fill="url(#paint12_linear_249_218)"/>
<path d="M466.953 693.932V756.584C466.953 763.61 461.271 769.382 454.169 769.382H394.423C387.404 769.382 381.638 763.694 381.638 756.584V693.179C381.638 681.301 386.568 670.008 395.258 661.895C396.428 660.724 397.766 659.72 399.102 658.717C403.698 655.287 408.962 652.944 414.477 651.606C415.647 651.355 416.817 651.104 418.07 650.937C418.571 650.853 419.073 650.77 419.574 650.77C420.327 650.686 421.078 650.602 421.747 650.602H422.332C423 650.602 423.669 650.519 424.338 650.519H425.089C425.508 650.519 425.842 650.519 426.176 650.602H426.677C427.095 650.602 427.597 650.686 428.014 650.686C428.432 650.686 428.766 650.77 429.184 650.77C429.351 650.77 429.518 650.77 429.685 650.853L431.44 651.104C432.025 651.188 432.86 651.355 433.529 651.522C438.208 652.61 442.721 654.45 446.816 657.044C448.177 657.887 449.488 658.809 450.743 659.804C461.021 668.252 466.953 680.716 466.953 693.932V693.932Z" fill="#C197F2"/>
<path d="M407.96 669.172L400.104 639.478C401.608 637.805 401.44 635.211 399.77 633.706C398.099 632.2 395.508 632.367 394.004 634.04C392.5 635.713 392.667 638.307 394.337 639.813C394.672 640.147 395.091 640.398 395.508 640.565L403.446 670.343L407.958 669.172H407.96Z" fill="url(#paint13_linear_249_218)"/>
<path d="M455.589 635.044C455.17 632.786 452.998 631.196 450.742 631.615C448.486 632.033 446.898 634.208 447.316 636.467C447.483 637.22 447.734 637.889 448.235 638.474L439.211 670.259L443.723 671.514L452.748 639.645C454.67 638.976 455.923 637.052 455.589 635.044V635.044Z" fill="url(#paint14_linear_249_218)"/>
<path d="M400.437 668.754C400.734 668.754 401.027 668.696 401.301 668.583C401.574 668.469 401.823 668.303 402.033 668.093C402.242 667.884 402.408 667.635 402.522 667.361C402.635 667.087 402.694 666.793 402.694 666.497C402.694 666.2 402.635 665.906 402.522 665.632C402.409 665.358 402.243 665.109 402.033 664.9C401.824 664.69 401.575 664.524 401.301 664.41C401.028 664.296 400.734 664.238 400.438 664.238C399.84 664.238 399.266 664.476 398.843 664.899C398.42 665.323 398.182 665.897 398.182 666.496C398.182 667.095 398.42 667.669 398.843 668.093C399.266 668.516 399.84 668.754 400.438 668.754H400.437ZM407.623 661.811C407.832 661.811 408.038 661.77 408.231 661.69C408.423 661.61 408.599 661.493 408.746 661.346C408.893 661.198 409.01 661.023 409.09 660.83C409.17 660.638 409.211 660.431 409.211 660.222C409.211 660.014 409.17 659.807 409.091 659.614C409.011 659.421 408.894 659.246 408.747 659.098C408.599 658.951 408.424 658.834 408.232 658.754C408.039 658.674 407.833 658.633 407.624 658.633C407.203 658.633 406.799 658.8 406.502 659.098C406.204 659.396 406.037 659.8 406.037 660.222C406.037 660.643 406.204 661.048 406.502 661.346C406.799 661.644 407.203 661.811 407.624 661.811H407.623Z" fill="white"/>
<path d="M568.813 710.076V763.61C568.813 769.633 563.967 774.484 557.95 774.484H506.978C505.55 774.487 504.137 774.208 502.817 773.662C501.498 773.117 500.3 772.316 499.291 771.306C498.281 770.295 497.481 769.095 496.936 767.775C496.391 766.454 496.112 765.039 496.115 763.61V709.491C496.115 699.369 500.293 689.749 507.73 682.807C508.733 681.803 509.819 680.967 510.989 680.13C514.916 677.203 519.345 675.195 524.108 674.108C525.111 673.857 526.113 673.69 527.2 673.522L528.537 673.355C529.122 673.271 529.79 673.188 530.375 673.188H534.47C534.887 673.188 535.222 673.271 535.639 673.271L536.642 673.355L537.06 673.439L538.564 673.69C539.065 673.773 539.734 673.857 540.319 674.024C544.33 674.944 548.173 676.534 551.599 678.792C552.746 679.525 553.861 680.306 554.942 681.134C563.716 688.16 568.813 698.784 568.813 710.076V710.076Z" fill="#C197F2"/>
<path d="M518.427 688.913L511.657 663.568C512.911 662.146 512.827 659.888 511.324 658.633C509.903 657.379 507.647 657.462 506.393 658.968C505.14 660.39 505.224 662.648 506.728 663.903C507.062 664.154 507.396 664.405 507.73 664.572L514.499 690L518.427 688.913Z" fill="url(#paint15_linear_249_218)"/>
<path d="M559.036 659.72C558.702 657.797 556.864 656.458 554.941 656.793C553.02 657.128 551.683 658.968 552.017 660.891C552.184 661.477 552.435 662.062 552.853 662.564L545.165 689.749L549.009 690.837L556.697 663.652C558.368 663.15 559.37 661.477 559.036 659.72Z" fill="url(#paint16_linear_249_218)"/>
<path d="M511.992 688.578C512.244 688.578 512.494 688.529 512.727 688.432C512.96 688.336 513.172 688.194 513.35 688.015C513.529 687.837 513.67 687.625 513.767 687.392C513.863 687.158 513.913 686.908 513.913 686.656C513.913 686.403 513.864 686.153 513.767 685.92C513.671 685.686 513.529 685.474 513.351 685.296C513.172 685.117 512.961 684.975 512.728 684.879C512.495 684.782 512.245 684.732 511.992 684.732C511.483 684.732 510.994 684.934 510.634 685.295C510.273 685.656 510.071 686.145 510.071 686.655C510.071 687.165 510.273 687.654 510.633 688.015C510.993 688.376 511.482 688.578 511.992 688.578V688.578ZM518.173 682.556C518.527 682.556 518.867 682.415 519.118 682.164C519.369 681.913 519.51 681.573 519.51 681.218C519.51 680.863 519.369 680.523 519.118 680.272C518.867 680.021 518.527 679.88 518.173 679.88C517.818 679.88 517.478 680.021 517.228 680.272C516.977 680.523 516.836 680.863 516.836 681.218C516.836 681.573 516.977 681.913 517.228 682.164C517.478 682.415 517.818 682.556 518.173 682.556Z" fill="white"/>
<path d="M457.592 693.932V756.584C457.592 763.61 451.911 769.382 444.808 769.382H394.505C387.485 769.382 381.72 763.694 381.72 756.584V693.179C381.72 681.301 386.649 670.009 395.34 661.895C396.51 660.724 397.847 659.721 399.184 658.717C403.779 655.287 409.044 652.944 414.559 651.606C415.728 651.355 416.899 651.104 418.153 650.937C418.654 650.853 419.154 650.77 419.656 650.77H419.907C420.074 650.77 420.241 650.77 420.408 650.853L422.163 651.104C422.915 651.188 423.584 651.355 424.252 651.522C428.931 652.61 433.443 654.451 437.538 657.044C438.9 657.887 440.211 658.809 441.466 659.804C451.576 668.252 457.592 680.716 457.592 693.932V693.932ZM560.791 710.076V763.61C560.791 769.633 555.945 774.484 549.929 774.484H506.978C505.551 774.487 504.137 774.208 502.818 773.662C501.498 773.117 500.3 772.316 499.291 771.306C498.281 770.295 497.481 769.095 496.936 767.775C496.392 766.454 496.113 765.039 496.115 763.61V709.491C496.115 699.369 500.293 689.749 507.73 682.807C508.733 681.803 509.819 680.967 510.989 680.13C514.916 677.203 519.345 675.195 524.108 674.108C525.111 673.857 526.113 673.69 527.2 673.522L528.537 673.355H528.703L529.122 673.439L530.626 673.69C531.127 673.773 531.795 673.857 532.381 674.024C536.416 674.942 540.261 676.556 543.745 678.792C544.892 679.525 546.007 680.306 547.087 681.134C555.694 688.076 560.791 698.784 560.791 710.076V710.076Z" fill="#8B4FD1"/>
<path d="M421.077 759.845V783.686C421.161 788.453 418.487 792.886 414.309 795.145C412.736 795.971 410.987 796.401 409.212 796.399C402.61 796.399 397.346 790.712 397.346 783.686V759.845H421.077ZM449.572 759.845V783.686C449.656 788.453 446.981 792.886 442.804 795.145C441.231 795.971 439.482 796.401 437.707 796.399C431.105 796.399 425.841 790.712 425.841 783.686V759.845H449.572ZM529.705 766.371V786.697C529.788 790.795 527.533 794.559 523.939 796.483C522.602 797.152 521.098 797.57 519.594 797.487C513.996 797.487 509.483 792.636 509.483 786.613V766.287H529.705V766.371ZM554.022 766.371V786.697C554.106 790.795 551.767 794.559 548.173 796.483C546.836 797.152 545.333 797.487 543.828 797.487C538.23 797.487 533.717 792.636 533.717 786.613V766.287H554.022V766.371Z" fill="#F78F08"/>
<path d="M466.953 733.581V758.507C466.953 764.53 461.271 769.382 454.169 769.382H394.423C393.42 769.382 392.334 769.298 391.331 769.047C385.733 767.876 381.638 763.61 381.638 758.507V733.581H466.953ZM568.813 743.869V765.116C568.813 770.218 563.967 774.4 557.95 774.4H506.978C506.059 774.4 505.224 774.317 504.387 774.15C499.625 773.146 496.115 769.466 496.115 765.116V743.869H568.813V743.869Z" fill="#F78F08"/>
<path d="M415.145 773.552V803.164C415.145 805.088 414.894 807.012 414.309 808.852C412.736 809.677 410.987 810.108 409.212 810.106C402.61 810.106 397.346 804.419 397.346 797.392V773.552H415.145V773.552ZM443.639 773.636V803.248C443.639 805.171 443.389 807.095 442.804 808.935C441.231 809.761 439.482 810.192 437.707 810.19C431.105 810.19 425.841 804.502 425.841 797.475V773.636H443.639Z" fill="#B8306F"/>
<path d="M460.937 733.581V758.507C460.937 764.53 455.254 769.382 448.151 769.382H391.332V769.047C385.733 767.876 381.638 763.61 381.638 758.507V733.581H460.938H460.937ZM524.608 766.371V791.632C524.602 793.272 524.377 794.903 523.939 796.483C522.603 797.152 521.098 797.57 519.595 797.487C513.996 797.487 509.483 792.636 509.483 786.613V766.287H524.608V766.371V766.371ZM548.926 766.371V791.632C548.92 793.272 548.695 794.903 548.257 796.483C546.92 797.152 545.416 797.487 543.912 797.487C538.314 797.487 533.801 792.636 533.801 786.613V766.287H548.926V766.371V766.371Z" fill="#B8306F"/>
<path d="M563.716 743.869V765.116C563.716 770.218 558.869 774.4 552.853 774.4H504.387V774.15C499.625 773.146 496.115 769.466 496.115 765.116V743.869H563.716V743.869Z" fill="#B8306F"/>
<path d="M466.953 711.247V716.098C463.444 711.08 459.349 706.06 451.577 706.98C443.723 707.901 436.704 720.113 436.704 720.113L424.337 715.262C424.337 715.262 434.615 702.631 449.572 702.631C458.931 702.631 463.109 707.985 466.953 711.247V711.247ZM568.813 724.797V728.98C565.805 724.714 562.296 720.364 555.694 721.201C549.01 722.037 542.993 732.41 542.993 732.41L532.464 728.228C532.464 728.228 541.238 717.437 554.023 717.437C561.961 717.437 565.554 722.121 568.813 724.797Z" fill="#5A2489"/>
<path d="M439.21 711.164H386.231V753.322H439.209V711.164H439.21Z" fill="#8342BD"/>
<path d="M420.326 711.164H364.674V753.322H420.326V711.164Z" fill="#5A2489"/>
<path d="M441.284 670.475C441.325 670 441.27 669.522 441.125 669.068C440.979 668.613 440.745 668.193 440.435 667.83C440.125 667.468 439.747 667.17 439.322 666.956C438.896 666.741 438.433 666.613 437.957 666.579C437.482 666.545 437.005 666.606 436.553 666.759C436.102 666.911 435.685 667.152 435.328 667.467C434.97 667.782 434.679 668.166 434.47 668.594C434.262 669.023 434.141 669.489 434.114 669.966C434.061 670.909 434.381 671.836 435.005 672.545C435.629 673.255 436.506 673.69 437.448 673.757C438.39 673.824 439.32 673.517 440.038 672.903C440.756 672.289 441.203 671.417 441.284 670.475Z" fill="#6A2AA1"/>
<path d="M413.976 666.579C414.286 666.579 414.584 666.456 414.803 666.236C415.022 666.017 415.146 665.719 415.146 665.408C415.146 665.098 415.022 664.8 414.803 664.58C414.584 664.36 414.286 664.237 413.976 664.237C413.665 664.237 413.368 664.36 413.149 664.58C412.929 664.8 412.806 665.098 412.806 665.408C412.806 665.719 412.929 666.017 413.149 666.236C413.368 666.456 413.665 666.579 413.976 666.579Z" fill="#8836CF"/>
<path d="M419.49 695.02C420.576 695.02 421.618 694.588 422.386 693.819C423.154 693.05 423.585 692.008 423.585 690.921C423.585 689.833 423.154 688.791 422.386 688.022C421.618 687.253 420.576 686.821 419.49 686.821C418.404 686.821 417.363 687.253 416.595 688.022C415.827 688.791 415.396 689.833 415.396 690.921C415.396 692.008 415.827 693.05 416.595 693.819C417.363 694.588 418.404 695.02 419.49 695.02Z" fill="#6A2AA1"/>
<path d="M369.605 716.099H383.476C383.81 716.099 384.144 716.433 384.144 716.768V718.273C384.144 718.608 383.81 718.943 383.476 718.943H369.688C369.355 718.943 369.02 718.608 369.02 718.273V716.768C368.936 716.433 369.271 716.099 369.605 716.099ZM370.271 721.954H382.806C383.558 721.954 384.06 722.539 384.06 723.208V728.06C384.06 728.813 383.474 729.315 382.806 729.315H370.272C369.52 729.315 368.935 728.73 368.935 728.06V723.208C368.935 722.539 369.52 721.954 370.272 721.954H370.271Z" fill="#8836CF"/>
<path d="M545.166 724.714H499.959V760.682H545.166V724.714Z" fill="#8342BD"/>
<path d="M529.121 724.714H481.576V760.682H529.121V724.714Z" fill="#5A2489"/>
<path d="M517.255 694.601C517.65 694.601 518.041 694.523 518.406 694.372C518.771 694.221 519.103 693.999 519.382 693.719C519.661 693.44 519.883 693.108 520.034 692.743C520.186 692.377 520.264 691.986 520.264 691.59C520.264 691.195 520.186 690.803 520.035 690.438C519.884 690.073 519.663 689.741 519.383 689.461C519.104 689.181 518.772 688.959 518.408 688.808C518.043 688.657 517.652 688.579 517.256 688.578C516.459 688.578 515.693 688.895 515.129 689.46C514.565 690.024 514.248 690.79 514.248 691.589C514.247 692.387 514.564 693.153 515.128 693.718C515.692 694.283 516.457 694.601 517.255 694.601V694.601ZM523.607 686.738C523.873 686.738 524.128 686.633 524.316 686.444C524.504 686.256 524.609 686.001 524.609 685.735C524.609 685.469 524.504 685.214 524.316 685.026C524.128 684.838 523.873 684.732 523.607 684.732C523.341 684.732 523.087 684.838 522.899 685.026C522.711 685.214 522.605 685.469 522.605 685.735C522.605 686.001 522.711 686.256 522.899 686.444C523.087 686.633 523.341 686.738 523.607 686.738ZM548.675 702.715C549.606 702.715 550.498 702.345 551.156 701.686C551.815 701.027 552.184 700.134 552.184 699.202C552.184 698.27 551.815 697.377 551.156 696.718C550.498 696.059 549.606 695.689 548.675 695.689C547.744 695.689 546.851 696.059 546.193 696.718C545.535 697.377 545.165 698.27 545.165 699.202C545.165 700.134 545.535 701.027 546.193 701.686C546.851 702.345 547.744 702.715 548.675 702.715V702.715Z" fill="#722DAD"/>
<path d="M485.837 728.981H497.452C497.787 728.981 498.12 729.315 498.12 729.65V730.737C498.12 731.072 497.787 731.406 497.452 731.406H485.837C485.503 731.406 485.169 731.072 485.169 730.737V729.65C485.168 729.561 485.184 729.474 485.217 729.392C485.25 729.31 485.3 729.236 485.362 729.174C485.424 729.111 485.498 729.062 485.58 729.029C485.662 728.996 485.749 728.979 485.837 728.981ZM486.422 733.999H496.784C497.536 733.999 498.037 734.584 498.037 735.254V739.018C498.037 739.77 497.452 740.272 496.784 740.272H486.422C485.671 740.272 485.169 739.687 485.169 739.018V735.254C485.169 734.584 485.754 733.999 486.422 733.999Z" fill="#8836CF"/>
<path d="M414.475 651.69C415.645 651.439 416.815 651.188 418.068 651.021C418.57 650.937 419.071 650.853 419.573 650.853C420.324 650.77 421.076 650.686 421.745 650.686H422.33C422.998 650.686 423.667 650.602 424.335 650.602H425.087C425.505 650.602 425.84 650.602 426.174 650.686H426.675C427.092 650.686 427.594 650.77 428.012 650.77C428.43 650.77 428.765 650.853 429.182 650.853C429.349 650.853 429.516 650.853 429.683 650.937L431.437 651.188C432.023 651.272 432.858 651.439 433.527 651.606C438.207 652.694 442.718 654.534 446.813 657.128C448.174 657.971 449.486 658.893 450.74 659.888C461.018 668.168 466.951 680.632 466.951 693.849V756.5C466.951 763.526 461.269 769.298 454.167 769.298M528.453 673.271C529.037 673.188 529.707 673.104 530.291 673.104H534.386C534.804 673.104 535.137 673.188 535.556 673.188L536.558 673.271L536.976 673.355L538.48 673.606C538.981 673.69 539.65 673.773 540.235 673.941C544.245 674.861 548.09 676.45 551.515 678.708C552.662 679.441 553.778 680.222 554.858 681.05C563.631 688.16 568.729 698.783 568.645 710.076V763.61C568.648 765.038 568.369 766.454 567.824 767.775C567.28 769.095 566.48 770.295 565.47 771.306C564.461 772.316 563.262 773.117 561.943 773.662C560.623 774.208 559.21 774.487 557.782 774.484" stroke="white" stroke-width="0.613" stroke-linecap="round" stroke-linejoin="round"/>
<path d="M470.045 754.744L468.792 755.245L467.538 755.58C463.695 756.5 459.851 754.158 458.932 750.394C458.932 750.31 458.932 750.227 458.848 750.143L450.993 717.353C449.99 713.506 452.246 709.49 456.09 708.403L457.093 708.152L457.511 708.068C461.271 707.148 465.032 709.407 465.951 713.171C465.951 713.255 465.951 713.338 466.035 713.422L473.973 746.212C474.808 749.474 473.221 753.071 470.045 754.744V754.744Z" fill="#C197F2"/>
<path d="M470.044 754.744L468.79 755.245L467.537 755.58C463.693 756.5 459.849 754.158 458.93 750.394C458.93 750.31 458.93 750.227 458.847 750.143L449.655 717.939C448.736 714.008 452.245 709.407 456.006 708.403L457.009 708.152C459.348 708.989 461.103 710.913 461.688 713.338L470.462 749.725C470.963 751.398 470.796 753.154 470.044 754.744V754.744Z" fill="#8B4FD1"/>
<path d="M571.486 761.937C571.152 762.104 570.734 762.271 570.4 762.355L569.398 762.606C566.139 763.443 562.88 761.435 562.044 758.173C562.044 758.089 562.044 758.006 561.961 758.006L555.192 729.984C554.356 726.721 556.278 723.292 559.537 722.288L560.372 722.037L560.791 721.954C563.966 721.201 567.225 723.125 567.977 726.303C567.977 726.387 567.977 726.47 568.06 726.554L574.829 754.576C575.498 757.42 574.16 760.515 571.486 761.937Z" fill="#C197F2"/>
<path d="M571.486 761.937C571.152 762.104 570.734 762.271 570.4 762.355L569.398 762.606C566.139 763.443 562.88 761.435 562.044 758.173C562.044 758.089 562.044 758.005 561.96 758.005L554.106 730.486C553.27 727.14 556.361 723.208 559.537 722.372L560.372 722.121C562.378 722.79 563.882 724.463 564.384 726.554L571.904 757.587C572.231 759.045 572.085 760.569 571.486 761.937V761.937Z" fill="#8B4FD1"/>
<path d="M457.344 708.068C461.105 707.148 464.865 709.407 465.784 713.171C465.784 713.255 465.784 713.338 465.868 713.422L473.806 746.212C474.641 749.641 473.054 753.238 469.962 754.827L468.708 755.329M559.371 722.455L560.206 722.204L560.624 722.121C563.8 721.368 567.059 723.292 567.811 726.47C567.811 726.554 567.811 726.638 567.894 726.638L574.662 754.66C575.415 757.587 574.078 760.598 571.404 762.02C571.057 762.196 570.693 762.337 570.318 762.439L569.315 762.69" stroke="white" stroke-width="0.613" stroke-linecap="round" stroke-linejoin="round"/>
</g>
<defs>
<linearGradient id="paint0_linear_249_218" x1="189.671" y1="584.93" x2="339.56" y2="1278.09" gradientUnits="userSpaceOnUse">
<stop offset="0.05" stop-color="#9133C2"/>
<stop offset="0.37" stop-color="#26163A"/>
</linearGradient>
<linearGradient id="paint1_linear_249_218" x1="780.324" y1="209.93" x2="803.93" y2="1334.24" gradientUnits="userSpaceOnUse">
<stop offset="0.43" stop-color="#9133C2"/>
<stop offset="0.54" stop-color="#26163A"/>
</linearGradient>
<linearGradient id="paint2_linear_249_218" x1="953.807" y1="426.91" x2="1301.45" y2="437.783" gradientUnits="userSpaceOnUse">
<stop offset="0.05" stop-color="#F973E4"/>
<stop offset="0.45" stop-color="#743495"/>
<stop offset="0.51" stop-color="#5A2878"/>
<stop offset="0.58" stop-color="#3F1C59"/>
<stop offset="0.66" stop-color="#2C1343"/>
<stop offset="0.73" stop-color="#200E36"/>
<stop offset="0.79" stop-color="#1C0C31"/>
</linearGradient>
<linearGradient id="paint3_linear_249_218" x1="766.518" y1="519.569" x2="1348.4" y2="519.569" gradientUnits="userSpaceOnUse">
<stop offset="0.05" stop-color="#F9730A"/>
<stop offset="0.45" stop-color="#743495"/>
<stop offset="0.51" stop-color="#5A2878"/>
<stop offset="0.58" stop-color="#3F1C59"/>
<stop offset="0.66" stop-color="#2C1343"/>
<stop offset="0.73" stop-color="#200E36"/>
<stop offset="0.79" stop-color="#1C0C31"/>
</linearGradient>
<linearGradient id="paint4_linear_249_218" x1="770.874" y1="522.389" x2="1348.41" y2="522.389" gradientUnits="userSpaceOnUse">
<stop offset="0.05" stop-color="#F973BE"/>
<stop offset="0.45" stop-color="#743495"/>
<stop offset="0.51" stop-color="#5A2878"/>
<stop offset="0.58" stop-color="#3F1C59"/>
<stop offset="0.66" stop-color="#2C1343"/>
<stop offset="0.73" stop-color="#200E36"/>
<stop offset="0.79" stop-color="#1C0C31"/>
</linearGradient>
<linearGradient id="paint5_linear_249_218" x1="810.403" y1="527.606" x2="1348.37" y2="527.606" gradientUnits="userSpaceOnUse">
<stop offset="0.05" stop-color="#F97B45"/>
<stop offset="0.45" stop-color="#743495"/>
<stop offset="0.51" stop-color="#5A2878"/>
<stop offset="0.58" stop-color="#3F1C59"/>
<stop offset="0.66" stop-color="#2C1343"/>
<stop offset="0.73" stop-color="#200E36"/>
<stop offset="0.79" stop-color="#1C0C31"/>
</linearGradient>
<linearGradient id="paint6_linear_249_218" x1="765.967" y1="606.207" x2="1373.3" y2="435.265" gradientUnits="userSpaceOnUse">
<stop offset="0.05" stop-color="#F97B45" stop-opacity="0"/>
<stop offset="0.37" stop-color="#743495" stop-opacity="0.3"/>
<stop offset="0.45" stop-color="#572774" stop-opacity="0.53"/>
<stop offset="0.79" stop-color="#1C0C31"/>
</linearGradient>
<linearGradient id="paint7_linear_249_218" x1="778.81" y1="614.787" x2="971.952" y2="560.421" gradientUnits="userSpaceOnUse">
<stop offset="0.05" stop-color="#F97B45" stop-opacity="0"/>
<stop offset="0.37" stop-color="#743495" stop-opacity="0.3"/>
<stop offset="0.45" stop-color="#572774" stop-opacity="0.53"/>
<stop offset="0.79" stop-color="#1C0C31"/>
</linearGradient>
<linearGradient id="paint8_linear_249_218" x1="396.489" y1="634.94" x2="405.924" y2="670.435" gradientUnits="userSpaceOnUse">
<stop stop-color="white"/>
<stop offset="0.1" stop-color="#F0E6FC"/>
<stop offset="0.24" stop-color="#DFCAF8"/>
<stop offset="0.39" stop-color="#D2B3F6"/>
<stop offset="0.56" stop-color="#C8A3F4"/>
<stop offset="0.74" stop-color="#C39AF2"/>
<stop offset="1" stop-color="#C197F2"/>
</linearGradient>
<linearGradient id="paint9_linear_249_218" x1="451.113" y1="634.126" x2="443.802" y2="671.682" gradientUnits="userSpaceOnUse">
<stop stop-color="white"/>
<stop offset="0.02" stop-color="#FDFBFF"/>
<stop offset="0.21" stop-color="#E7D7FA"/>
<stop offset="0.4" stop-color="#D7BBF7"/>
<stop offset="0.59" stop-color="#CBA7F4"/>
<stop offset="0.78" stop-color="#C39BF3"/>
<stop offset="0.97" stop-color="#C197F2"/>
</linearGradient>
<linearGradient id="paint10_linear_249_218" x1="508.673" y1="659.682" x2="516.728" y2="689.984" gradientUnits="userSpaceOnUse">
<stop stop-color="white"/>
<stop offset="0.1" stop-color="#F0E6FC"/>
<stop offset="0.24" stop-color="#DFCAF8"/>
<stop offset="0.39" stop-color="#D2B3F6"/>
<stop offset="0.56" stop-color="#C8A3F4"/>
<stop offset="0.74" stop-color="#C39AF2"/>
<stop offset="1" stop-color="#C197F2"/>
</linearGradient>
<linearGradient id="paint11_linear_249_218" x1="555.283" y1="658.998" x2="549.047" y2="691.053" gradientUnits="userSpaceOnUse">
<stop stop-color="white"/>
<stop offset="0.02" stop-color="#FDFBFF"/>
<stop offset="0.21" stop-color="#E7D7FA"/>
<stop offset="0.4" stop-color="#D7BBF7"/>
<stop offset="0.59" stop-color="#CBA7F4"/>
<stop offset="0.78" stop-color="#C39BF3"/>
<stop offset="0.97" stop-color="#C197F2"/>
</linearGradient>
<linearGradient id="paint12_linear_249_218" x1="187.555" y1="585.995" x2="337.443" y2="1279.15" gradientUnits="userSpaceOnUse">
<stop offset="0.05" stop-color="#9133C2"/>
<stop offset="0.37" stop-color="#26163A"/>
</linearGradient>
<linearGradient id="paint13_linear_249_218" x1="396.489" y1="634.94" x2="405.924" y2="670.435" gradientUnits="userSpaceOnUse">
<stop stop-color="white"/>
<stop offset="0.1" stop-color="#F0E6FC"/>
<stop offset="0.24" stop-color="#DFCAF8"/>
<stop offset="0.39" stop-color="#D2B3F6"/>
<stop offset="0.56" stop-color="#C8A3F4"/>
<stop offset="0.74" stop-color="#C39AF2"/>
<stop offset="1" stop-color="#C197F2"/>
</linearGradient>
<linearGradient id="paint14_linear_249_218" x1="451.113" y1="634.126" x2="443.802" y2="671.682" gradientUnits="userSpaceOnUse">
<stop stop-color="white"/>
<stop offset="0.02" stop-color="#FDFBFF"/>
<stop offset="0.21" stop-color="#E7D7FA"/>
<stop offset="0.4" stop-color="#D7BBF7"/>
<stop offset="0.59" stop-color="#CBA7F4"/>
<stop offset="0.78" stop-color="#C39BF3"/>
<stop offset="0.97" stop-color="#C197F2"/>
</linearGradient>
<linearGradient id="paint15_linear_249_218" x1="508.673" y1="659.682" x2="516.728" y2="689.984" gradientUnits="userSpaceOnUse">
<stop stop-color="white"/>
<stop offset="0.1" stop-color="#F0E6FC"/>
<stop offset="0.24" stop-color="#DFCAF8"/>
<stop offset="0.39" stop-color="#D2B3F6"/>
<stop offset="0.56" stop-color="#C8A3F4"/>
<stop offset="0.74" stop-color="#C39AF2"/>
<stop offset="1" stop-color="#C197F2"/>
</linearGradient>
<linearGradient id="paint16_linear_249_218" x1="555.283" y1="658.998" x2="549.047" y2="691.053" gradientUnits="userSpaceOnUse">
<stop stop-color="white"/>
<stop offset="0.02" stop-color="#FDFBFF"/>
<stop offset="0.21" stop-color="#E7D7FA"/>
<stop offset="0.4" stop-color="#D7BBF7"/>
<stop offset="0.59" stop-color="#CBA7F4"/>
<stop offset="0.78" stop-color="#C39BF3"/>
<stop offset="0.97" stop-color="#C197F2"/>
</linearGradient>
<clipPath id="clip0_249_218">
<rect width="1280" height="832" fill="white"/>
</clipPath>
</defs>
</svg>
