<svg width="1280" height="832" viewBox="0 0 1280 832" fill="none" xmlns="http://www.w3.org/2000/svg">
<g clip-path="url(#clip0_288_263)">
<path opacity="0.2" d="M709.465 834.198L724.359 834.592C719.464 836.314 714.495 836.084 709.465 834.198L-19.8845 814.893L-19.8835 752.403V711.288L-20.5574 711.577L-22 712.154L-21.2303 702.429L-19.7876 683.654L-18.1523 662.181C-18.1523 662.181 64.281 604.505 166.143 598.535C232.417 594.684 313.215 647.16 372.562 644.656C431.911 642.153 458.555 581.203 521.461 564.642C579.539 549.352 648.963 811.515 709.465 834.198Z" fill="#5A2489"/>
<path opacity="0.2" d="M755.995 835.456L773.526 835.92C768.05 837.847 762.183 837.567 755.995 835.456L-19.8845 814.893L-19.8835 752.403L-16.7097 710.132L-15.94 699.252L-14.8817 685.194C-14.8817 685.194 78.1322 619.622 179.994 625.303C263.486 629.925 315.523 682.69 374.872 680.187C434.219 677.683 467.212 614.615 530.215 598.15C587.719 583.011 690.118 812.982 755.995 835.456Z" fill="#5A2878"/>
<path d="M510.976 830.78C510.976 830.78 578.009 831.358 569.449 829.047C644.379 791.687 456.869 838.387 439.46 836.846C358.277 829.721 61.614 836.216 -19.8835 835.787C-19.8835 835.787 -16.8606 815.85 -1.69706 811.9C8.12895 809.34 23.2232 835.638 23.2232 835.638L-19.8835 835.787L-19.8835 814.596L-19.8835 752.402V711.288L-16.7098 710.132C18.9765 698.193 60.0489 713.791 80.4403 729.39C115.837 756.446 128.918 780.133 162.681 784.562C168.838 785.332 175.053 785.525 181.245 785.14C229.82 782.443 219.527 750.477 265.794 725.923C268.102 724.672 270.507 723.612 272.912 722.649C317.254 704.74 364.194 734.782 364.194 734.782L508.091 829.047L510.976 830.78Z" fill="url(#paint0_linear_288_263)"/>
<path d="M1550 792.073V844.934L36.0203 833.475C281.203 775.606 536.756 758.468 789.538 750.188C837.728 748.647 885.918 747.781 934.205 747.877C957.097 747.877 979.798 748.069 1002.5 748.358C1162.56 750.766 1317.41 761.839 1464.88 780.422C1493.54 783.985 1521.92 787.836 1550 792.073Z" fill="url(#paint1_linear_288_263)"/>
<path d="M1314.23 504.455C1314.23 512.929 1313.62 521.403 1312.46 529.877C1311.57 536.439 1310.27 542.999 1308.63 549.491C1283.81 647.219 1184.63 706.198 1087.15 681.321C1045.71 670.748 1009.29 645.903 984.288 611.135C969.008 589.881 958.436 565.62 953.388 539.924C953.319 539.65 953.251 539.309 953.183 539.035L952.774 536.78L952.433 534.661L952.364 534.32C952.228 533.636 952.159 532.953 952.023 532.269C951.887 531.586 951.819 530.971 951.751 530.287C951.751 530.151 951.682 529.946 951.682 529.809C951.614 529.467 951.546 529.125 951.546 528.784C951.546 528.442 951.478 528.101 951.409 527.759L951.205 525.914C951.205 525.709 951.137 525.504 951.137 525.298C951.068 524.752 951.001 524.137 950.932 523.59C950.796 522.633 950.727 521.677 950.659 520.652C950.659 520.309 950.591 519.9 950.591 519.558C950.523 518.328 950.386 517.098 950.318 515.868C950.25 515.321 950.25 514.706 950.182 514.09V513.612C950.182 512.86 950.113 512.109 950.113 511.357V509.033C950.113 508.282 950.113 507.53 950.046 506.778C949.977 506.026 950.046 505.274 950.046 504.523C950.046 497.415 950.454 490.239 951.273 483.2C951.819 478.485 952.569 473.837 953.456 469.258C953.661 468.097 953.933 466.866 954.206 465.705C954.674 463.534 955.174 461.369 955.707 459.212C956.662 455.522 957.685 451.9 958.844 448.346C959.322 446.775 959.868 445.271 960.413 443.767C962.665 437.343 965.325 431.056 968.258 424.905C969.417 422.513 970.646 420.19 971.873 417.866C1003.66 358.888 1065.25 322.12 1132.17 322.12C1133.4 322.12 1134.56 322.12 1135.78 322.188C1146.22 322.393 1156.66 323.487 1166.89 325.469C1181.15 328.203 1195.07 332.713 1208.23 338.795C1227.67 347.748 1245.41 360.118 1260.61 375.289C1262.39 377.067 1264.09 378.843 1265.8 380.689C1269.44 384.606 1272.9 388.688 1276.16 392.921C1277.67 394.835 1279.17 396.817 1280.53 398.799C1282.85 402.079 1285.04 405.359 1287.15 408.777L1287.42 409.255C1288.52 411.032 1289.61 412.809 1290.63 414.654C1294.16 420.854 1297.3 427.267 1300.04 433.858C1300.99 436.25 1301.95 438.574 1302.84 441.034C1303.59 443.015 1304.27 444.998 1304.95 446.98C1305.84 449.781 1306.73 452.583 1307.54 455.385C1308.09 457.436 1308.63 459.486 1309.11 461.536C1309.38 462.698 1309.66 463.928 1309.93 465.09C1310.41 467.277 1310.88 469.532 1311.3 471.788L1311.5 472.949C1311.57 473.291 1311.64 473.701 1311.7 474.042C1311.84 474.863 1311.98 475.683 1312.11 476.503C1313.62 485.524 1314.29 494.955 1314.23 504.455Z" fill="#381956"/>
<path d="M1316.21 504.865C1316.21 513.339 1315.59 521.813 1314.43 530.287C1313.55 536.848 1312.25 543.409 1310.61 549.901C1294.99 611.135 1248.95 659.931 1188.86 678.998C1103.25 677.289 1030.4 616.124 1013.76 531.996C1013.69 531.723 1013.62 531.381 1013.55 531.108L1013.14 528.852L1012.8 526.733L1012.73 526.392C1012.6 525.709 1012.53 525.025 1012.39 524.342C1012.25 523.658 1012.19 523.044 1012.12 522.36C1012.12 522.223 1012.05 522.018 1012.05 521.882C1011.98 521.54 1011.91 521.198 1011.91 520.856C1011.91 520.515 1011.85 520.173 1011.78 519.831L1011.57 517.986C1011.57 517.781 1011.5 517.576 1011.5 517.371C1011.44 516.824 1011.37 516.209 1011.3 515.663C1011.16 514.706 1011.1 513.749 1011.03 512.724C1011.03 512.382 1010.96 511.972 1010.96 511.631C1010.89 510.4 1010.75 509.17 1010.69 507.94C1010.62 507.393 1010.62 506.778 1010.55 506.163V505.685C1010.55 504.933 1010.48 504.181 1010.48 503.429V501.106C1010.48 500.354 1010.48 499.602 1010.41 498.85C1010.35 498.099 1010.41 497.347 1010.41 496.596C1010.41 489.488 1010.82 482.312 1011.64 475.273C1012.19 470.557 1012.94 465.91 1013.82 461.331C1014.03 460.169 1014.3 458.939 1014.57 457.777C1015.04 455.606 1015.54 453.441 1016.07 451.285C1017.03 447.594 1018.05 443.972 1019.21 440.419C1019.69 438.847 1020.24 437.343 1020.78 435.84C1023.03 429.416 1025.69 423.129 1028.63 416.978C1029.79 414.586 1031.01 412.262 1032.24 409.939C1054.75 368.182 1092.61 336.881 1137.77 322.53C1148.2 322.735 1158.64 323.829 1168.87 325.811C1183.13 328.544 1197.04 333.054 1210.2 339.137C1229.65 348.089 1247.38 360.459 1262.59 375.631C1264.37 377.408 1266.07 379.185 1267.77 381.03C1271.41 384.948 1274.87 389.03 1278.14 393.263C1279.64 395.177 1281.15 397.159 1282.51 399.14C1284.82 402.398 1287.02 405.725 1289.13 409.118L1289.4 409.597C1290.49 411.374 1291.58 413.151 1292.61 414.996C1296.08 421.215 1299.22 427.639 1301.95 434.199C1302.91 436.591 1303.86 438.915 1304.75 441.375C1305.5 443.358 1306.18 445.34 1306.86 447.321C1307.75 450.123 1308.63 452.925 1309.45 455.727C1310 457.777 1310.55 459.828 1311.02 461.878C1311.3 463.039 1311.57 464.27 1311.84 465.431C1312.32 467.618 1312.8 469.874 1313.2 472.129L1313.41 473.291C1313.48 473.633 1313.55 474.042 1313.62 474.385C1313.75 475.204 1313.89 476.025 1314.02 476.845C1315.47 486.114 1316.21 495.482 1316.21 504.865Z" fill="#201240"/>
<path opacity="0.18" d="M1316.07 483.474C1268.32 488.189 1209.8 495.707 1146.77 505.411C1073.37 516.756 1006.73 529.263 956.526 540.471C956.458 540.197 956.39 539.855 956.39 539.582L955.98 537.327C955.844 536.575 955.708 535.891 955.639 535.208L955.571 534.866C955.435 534.183 955.366 533.499 955.23 532.816C955.094 532.133 955.025 531.517 954.957 530.834C954.957 530.698 954.889 530.493 954.889 530.356C954.821 530.014 954.752 529.672 954.752 529.331C954.752 528.989 954.684 528.647 954.616 528.306L954.411 526.461C954.411 526.255 954.343 526.05 954.343 525.845C954.275 525.298 954.206 524.683 954.139 524.136C954.002 523.18 953.934 522.223 953.866 521.198C953.866 520.856 953.797 520.447 953.797 520.104C953.661 518.874 953.593 517.644 953.525 516.415C953.525 515.867 953.456 515.253 953.456 514.637V514.159C953.456 513.407 953.388 512.655 953.388 511.904C953.388 511.426 953.388 511.015 953.32 510.536V509.648C953.32 508.896 953.32 508.145 953.252 507.393C953.184 506.642 953.252 505.89 953.252 505.138V503.908C1006.46 491.538 1068.33 479.647 1134.56 469.396C1186.88 461.263 1236.88 454.975 1282.38 450.533C1289.19 449.85 1295.88 449.234 1302.43 448.688L1308.43 448.141C1309.25 450.67 1310 453.199 1310.75 455.796C1311.3 457.845 1311.84 459.896 1312.32 461.946C1312.59 463.108 1312.86 464.338 1313.14 465.5C1314.36 471.377 1315.32 477.323 1316.07 483.474V483.474Z" fill="#A738E8"/>
<g opacity="0.08">
<path opacity="0.08" d="M1292.2 394.356L1302.15 414.996C1299.22 412.604 1293.83 410.964 1286.47 410.075C1228.07 402.9 1043.7 439.394 952.433 470.147C952.637 468.985 952.91 467.755 953.183 466.594C953.651 464.422 954.151 462.257 954.683 460.101C955.638 456.41 956.662 452.788 957.822 449.234C1067.57 414.313 1174.12 391.213 1275.14 393.673C1280.87 393.878 1286.53 394.083 1292.2 394.356V394.356Z" fill="url(#paint2_linear_288_263)"/>
</g>
<path d="M1304.27 448.552C1252.08 452.994 1192.88 460.033 1130.4 469.737C1064.16 479.988 1002.29 491.88 949.089 504.25C838.244 529.946 764.712 557.42 766.622 575.666V576.008C766.963 578.263 768.532 580.314 771.123 582.159L771.738 582.569C771.942 582.706 772.147 582.842 772.352 582.911C772.556 582.979 772.761 583.184 773.033 583.321L773.375 583.526C773.511 583.594 773.716 583.73 773.852 583.799C773.988 583.868 774.193 584.004 774.398 584.073L774.943 584.346C775.489 584.619 776.171 584.892 776.786 585.166H776.853C778.15 585.713 779.582 586.191 781.151 586.669L781.833 586.874L782.583 587.079L783.333 587.284C783.607 587.353 783.811 587.421 784.084 587.49L784.834 587.695L785.585 587.9C786.676 588.173 787.767 588.446 788.927 588.652L789.813 588.925H789.882C790.564 589.061 791.315 589.198 792.065 589.335L792.542 589.403L793.633 589.608L795.68 589.949L795.953 590.018C796.976 590.154 798 590.36 799.091 590.497C800.318 590.701 801.546 590.838 802.842 591.043L804.07 591.18L805.298 591.317C807.412 591.59 809.595 591.795 811.846 592L814.166 592.205C849.977 595.28 903.864 594.05 968.802 588.652H968.938C968.597 588.036 968.324 587.353 967.983 586.738C967.779 586.396 967.642 586.054 967.438 585.713L967.096 585.029V584.824C966.072 582.76 965.117 580.664 964.232 578.537C963.463 576.8 962.735 575.046 962.049 573.274L961.913 573.001L959.252 573.206L955.705 573.548L953.386 573.753C950.111 574.026 946.906 574.3 943.768 574.505L939.198 574.846C930.535 575.461 922.486 576.008 915.051 576.35C905.569 576.828 897.111 577.033 889.881 577.101H883.196L881.627 577.033H880.672L878.626 576.965C877.671 576.897 876.716 576.897 875.829 576.828L875.147 576.76L874.465 576.692L873.169 576.623C871.872 576.487 870.645 576.418 869.485 576.281L868.599 576.145C867.712 576.008 866.894 575.94 866.143 575.735L865.665 575.666H865.529L864.984 575.53C864.642 575.461 864.301 575.393 864.029 575.325L863.278 575.119C863.074 575.052 862.801 574.983 862.596 574.914C862.391 574.846 862.119 574.778 861.914 574.71L861.436 574.505L861.027 574.3L860.617 574.095L860.277 573.89C860.14 573.821 860.004 573.753 859.867 573.616C859.799 573.548 859.731 573.548 859.662 573.479C859.594 573.411 859.526 573.343 859.458 573.274C859.39 573.206 859.322 573.138 859.254 573.069C859.185 573.001 859.117 572.933 859.117 572.865C859.117 572.865 859.049 572.796 859.049 572.728C858.981 572.591 858.912 572.522 858.912 572.386C858.912 572.318 858.912 572.249 858.844 572.249V572.113C858.504 570.063 862.05 567.465 868.871 564.458L869.349 564.253C884.015 557.898 913.278 549.765 952.568 540.949C1002.77 529.673 1069.42 517.235 1142.81 505.89C1205.84 496.117 1264.37 488.668 1312.11 483.953C1325.07 482.654 1337.21 481.561 1348.47 480.74V445.34C1334.35 446.16 1319.55 447.253 1304.27 448.552V448.552ZM1312.73 520.036C1312.39 524.41 1311.9 528.716 1311.23 533.022C1311.16 533.5 1311.09 533.91 1311.02 534.388C1310.88 535.071 1310.81 535.755 1310.68 536.37L1312.46 535.96L1314.5 535.482L1316 535.14C1327.12 532.612 1337.9 530.083 1348.34 527.554V512.177C1337.35 514.706 1325.41 517.371 1312.73 520.036Z" fill="url(#paint3_linear_288_263)"/>
<path d="M1308.57 453.883C1256.39 458.324 1197.18 465.364 1134.69 475.068C1068.46 485.319 1006.59 497.279 953.387 509.58C845.135 534.662 772.557 561.452 770.92 579.698C770.852 580.245 770.852 580.792 770.988 581.338L771.193 582.159L771.807 582.569C772.011 582.706 772.216 582.842 772.421 582.911C772.625 582.979 772.83 583.184 773.103 583.321L773.444 583.525C773.58 583.594 773.785 583.73 773.921 583.799C774.058 583.868 774.262 584.004 774.467 584.072L775.013 584.346C775.558 584.619 776.241 584.892 776.855 585.165H776.923C778.218 585.712 779.651 586.191 781.22 586.669L781.902 586.874L782.652 587.079L783.403 587.284C783.676 587.353 783.88 587.421 784.153 587.489L784.903 587.695L785.653 587.9C786.745 588.173 787.837 588.446 788.996 588.651L789.815 588.856H789.883C790.565 588.993 791.316 589.13 792.066 589.266L792.543 589.335L793.635 589.54L795.681 589.881L795.953 589.949C796.977 590.087 798 590.292 799.092 590.428C800.32 590.633 801.547 590.77 802.843 590.975L804.071 591.111L805.299 591.248C807.413 591.522 809.596 591.727 811.847 591.932L814.166 592.136C849.977 595.212 903.865 593.981 968.803 588.583H968.939C968.598 587.968 968.325 587.284 967.984 586.669C967.779 586.327 967.643 585.986 967.439 585.644L967.098 584.961V584.756C966.073 582.692 965.118 580.595 964.233 578.468L961.572 578.673C939.063 580.587 919.622 581.817 904.07 582.227C896.021 582.432 889.063 582.432 883.265 582.227C879.036 582.09 875.489 581.749 872.556 581.338L871.805 581.202C866.416 580.382 863.415 579.084 863.142 577.375C863.074 576.554 863.415 575.735 864.029 575.188C869.964 568.49 904.479 558.034 956.798 546.279C1007 535.003 1073.64 522.565 1147.04 511.22C1210.07 501.447 1268.59 493.999 1316.34 489.283C1327.66 488.19 1338.37 487.164 1348.4 486.412V451.08C1335.65 451.764 1322.35 452.721 1308.57 453.883V453.883ZM1317.03 525.367C1316.82 528.647 1316.48 531.928 1316 535.14C1315.87 536.215 1315.72 537.286 1315.52 538.352L1315.32 539.719C1315.18 540.402 1315.12 541.086 1314.98 541.701C1321.05 540.334 1327.05 538.967 1332.99 537.601L1335.03 537.122L1336.54 536.78C1340.49 535.823 1344.44 534.935 1348.34 533.978V518.533C1338.58 520.72 1328.14 523.044 1317.03 525.367V525.367Z" fill="url(#paint4_linear_288_263)"/>
<path d="M1348.13 461.4C1295.95 465.842 1236.74 472.881 1174.25 482.585C1108.02 492.836 1046.15 504.728 992.949 517.098C887.834 541.428 816.28 567.397 810.755 585.576V585.644C810.414 586.669 810.346 587.762 810.482 588.856V588.993C810.619 589.676 810.824 590.428 811.164 591.043C811.301 591.316 811.505 591.59 811.642 591.863L811.71 592L814.029 592.205C849.84 595.28 903.728 594.05 968.665 588.652C954.204 589.54 941.79 589.949 931.695 589.949C925.078 589.949 919.485 589.676 914.983 589.266C910.344 588.788 906.934 588.105 904.888 587.216C903.455 586.601 902.705 585.849 902.568 584.961C902.432 584.072 902.909 583.252 903.933 582.295C905.843 580.519 909.526 578.537 914.846 576.35C905.365 576.828 896.906 577.033 889.676 577.101H883.128L881.559 577.033H880.604L878.558 576.965C877.603 576.897 876.648 576.897 875.761 576.828L875.079 576.76L874.397 576.692L873.101 576.623C871.805 576.487 870.577 576.418 869.418 576.281L868.53 576.145C867.644 576.008 866.825 575.94 866.075 575.735L865.598 575.666H865.461L864.915 575.53C864.574 575.461 864.233 575.393 863.96 575.325L863.21 575.119L862.528 574.914C862.323 574.846 862.05 574.778 861.846 574.709L861.368 574.505L860.959 574.3L860.55 574.095L860.209 573.89C860.073 573.821 859.936 573.753 859.799 573.616C859.731 573.548 859.663 573.548 859.595 573.479L859.39 573.274L859.185 573.069C859.118 573.001 859.049 572.933 859.049 572.865C859.049 572.865 858.981 572.796 858.981 572.728C858.913 572.591 858.844 572.522 858.844 572.386C858.844 572.317 858.844 572.249 858.776 572.249V572.113C858.435 570.063 861.983 567.465 868.804 564.458L869.281 564.253C883.946 557.898 913.209 549.765 952.499 540.949C1002.7 529.673 1069.35 517.234 1142.74 505.89C1205.77 496.117 1264.3 488.668 1312.04 483.953C1325 482.654 1337.14 481.561 1348.4 480.74V461.4H1348.13V461.4Z" fill="url(#paint5_linear_288_263)"/>
<path d="M831.083 572.387C831.247 572.39 831.41 572.361 831.562 572.301C831.714 572.241 831.853 572.151 831.97 572.037C832.087 571.922 832.181 571.785 832.244 571.634C832.308 571.482 832.34 571.32 832.34 571.156C832.34 570.992 832.307 570.829 832.244 570.678C832.18 570.527 832.087 570.39 831.97 570.276C831.853 570.161 831.714 570.071 831.561 570.011C831.409 569.951 831.246 569.922 831.083 569.926C830.762 569.934 830.457 570.067 830.233 570.297C830.009 570.527 829.884 570.835 829.884 571.157C829.884 571.478 830.01 571.786 830.234 572.016C830.458 572.246 830.763 572.379 831.083 572.387Z" fill="white"/>
<path d="M904.342 560.905C904.541 560.905 904.732 560.826 904.872 560.685C905.013 560.544 905.092 560.352 905.092 560.153C905.092 559.954 905.013 559.762 904.872 559.621C904.732 559.48 904.541 559.401 904.342 559.401C904.143 559.401 903.952 559.48 903.811 559.621C903.671 559.762 903.592 559.954 903.592 560.153C903.592 560.352 903.671 560.544 903.811 560.685C903.952 560.826 904.143 560.905 904.342 560.905V560.905ZM953.25 538.694C953.485 538.694 953.711 538.6 953.877 538.434C954.043 538.267 954.137 538.041 954.137 537.806C954.137 537.57 954.043 537.344 953.877 537.178C953.711 537.011 953.485 536.917 953.25 536.917C953.015 536.917 952.789 537.011 952.623 537.178C952.457 537.344 952.364 537.57 952.364 537.806C952.364 538.041 952.457 538.267 952.623 538.434C952.789 538.6 953.015 538.694 953.25 538.694V538.694ZM869.009 564.664C869.082 564.664 869.151 564.635 869.203 564.584C869.254 564.532 869.283 564.463 869.283 564.39C869.283 564.318 869.254 564.248 869.203 564.197C869.151 564.145 869.082 564.117 869.009 564.117C868.937 564.117 868.868 564.145 868.816 564.197C868.765 564.248 868.736 564.318 868.736 564.39C868.736 564.463 868.765 564.532 868.816 564.584C868.868 564.635 868.937 564.664 869.009 564.664V564.664ZM939.675 573.753C939.82 573.753 939.959 573.695 940.061 573.593C940.163 573.49 940.221 573.351 940.221 573.206C940.221 573.061 940.163 572.922 940.061 572.82C939.959 572.717 939.82 572.66 939.675 572.66C939.53 572.66 939.392 572.717 939.289 572.82C939.187 572.922 939.13 573.061 939.13 573.206C939.13 573.351 939.187 573.49 939.289 573.593C939.392 573.695 939.53 573.753 939.675 573.753V573.753ZM980.671 521.472C980.78 521.472 980.884 521.429 980.961 521.351C981.038 521.274 981.081 521.17 981.08 521.061C981.08 520.952 981.037 520.847 980.96 520.77C980.883 520.693 980.778 520.65 980.67 520.65C980.561 520.651 980.457 520.694 980.38 520.771C980.303 520.848 980.26 520.953 980.26 521.062C980.26 521.171 980.304 521.275 980.381 521.352C980.458 521.429 980.562 521.472 980.671 521.472ZM1108.91 514.706C1109.36 514.706 1109.73 514.339 1109.73 513.886C1109.73 513.433 1109.36 513.066 1108.91 513.066C1108.45 513.066 1108.09 513.433 1108.09 513.886C1108.09 514.339 1108.45 514.706 1108.91 514.706ZM1132.65 499.739C1132.87 499.739 1133.06 499.556 1133.06 499.329C1133.06 499.22 1133.01 499.116 1132.94 499.039C1132.86 498.963 1132.76 498.919 1132.65 498.919C1132.42 498.919 1132.23 499.102 1132.23 499.329C1132.23 499.556 1132.42 499.739 1132.65 499.739ZM1308.16 485.115C1308.31 485.115 1308.43 484.993 1308.43 484.842C1308.43 484.769 1308.4 484.7 1308.35 484.649C1308.3 484.597 1308.23 484.568 1308.16 484.567C1308.01 484.567 1307.89 484.69 1307.89 484.842C1307.89 484.993 1308.01 485.115 1308.16 485.115Z" fill="white" stroke="white" stroke-width="0.613" stroke-miterlimit="10"/>
<path d="M941.382 577.306C941.69 577.312 941.996 577.256 942.282 577.141C942.568 577.027 942.828 576.857 943.048 576.64C943.267 576.424 943.442 576.166 943.561 575.882C943.68 575.597 943.742 575.292 943.742 574.983C943.742 574.674 943.68 574.369 943.561 574.084C943.442 573.8 943.268 573.542 943.048 573.325C942.829 573.109 942.568 572.939 942.282 572.824C941.996 572.71 941.69 572.654 941.382 572.659C940.774 572.669 940.195 572.919 939.768 573.353C939.342 573.788 939.103 574.373 939.103 574.982C939.103 575.592 939.342 576.177 939.768 576.611C940.194 577.046 940.774 577.296 941.382 577.306V577.306ZM873.1 537.601C873.217 537.601 873.332 537.578 873.44 537.533C873.547 537.489 873.645 537.423 873.727 537.341C873.81 537.259 873.875 537.161 873.92 537.053C873.965 536.945 873.988 536.83 873.988 536.713C873.988 536.596 873.965 536.481 873.92 536.373C873.876 536.265 873.811 536.167 873.728 536.085C873.646 536.002 873.549 535.937 873.441 535.892C873.333 535.847 873.218 535.824 873.102 535.824C872.867 535.824 872.641 535.917 872.475 536.084C872.308 536.25 872.215 536.476 872.215 536.712C872.214 536.947 872.308 537.173 872.474 537.34C872.64 537.507 872.865 537.6 873.1 537.601V537.601ZM954.478 575.12C954.642 575.124 954.805 575.095 954.957 575.035C955.109 574.975 955.248 574.885 955.365 574.77C955.482 574.656 955.576 574.519 955.639 574.367C955.703 574.216 955.735 574.054 955.735 573.89C955.735 573.725 955.702 573.563 955.639 573.412C955.575 573.261 955.482 573.124 955.365 573.009C955.248 572.895 955.109 572.805 954.956 572.745C954.804 572.685 954.641 572.656 954.477 572.66C954.157 572.667 953.852 572.8 953.628 573.03C953.404 573.26 953.279 573.569 953.279 573.89C953.279 574.212 953.405 574.52 953.629 574.75C953.853 574.98 954.158 575.113 954.478 575.12Z" fill="white" stroke="white" stroke-width="0.613" stroke-miterlimit="10"/>
<path d="M1303.72 448.894C1319.48 447.526 1334.55 446.502 1348.88 445.613V493.179C1344.65 493.588 1340.35 493.999 1335.92 494.409C1288.17 499.124 1229.65 506.642 1166.62 516.346C1093.22 527.691 1026.58 540.197 976.374 551.405C931.491 561.52 899.704 570.609 887.835 577.238H895.406L898.476 577.17C903.799 577.018 909.12 576.812 914.438 576.555C928.08 575.871 943.837 574.709 961.299 573.206L961.913 574.641C962.459 576.008 963.005 577.375 963.619 578.741L964.233 580.177L964.847 581.612C964.983 581.954 965.188 582.295 965.324 582.637C965.665 583.321 966.006 584.072 966.347 584.756C966.415 584.961 966.552 585.098 966.62 585.303C966.824 585.712 967.029 586.055 967.165 586.464L968.393 588.925H967.984C956.851 589.853 945.709 590.673 934.56 591.385C928.08 591.795 921.805 592.205 915.665 592.479C874.329 594.597 839.541 594.665 813.962 592.479L811.301 592.273H811.029C810.256 592.208 809.482 592.14 808.71 592.068H808.505C803.525 591.522 798.887 590.975 794.726 590.223C793.839 590.087 792.884 589.882 791.997 589.745H791.588C789.948 589.416 788.311 589.075 786.677 588.719H786.541C784.512 588.28 782.508 587.733 780.538 587.079H780.47L779.72 586.806L779.515 586.738H779.446C778.491 586.396 777.537 586.055 776.65 585.712L776.513 585.644L775.49 585.234L775.353 585.165C774.808 584.961 774.331 584.687 773.853 584.482C773.648 584.414 773.512 584.277 773.307 584.209L773.239 584.277L772.421 583.868L772.216 583.73C772.011 583.594 771.738 583.457 771.534 583.321L771.397 583.252L771.33 583.184C771.056 583.047 770.783 582.842 770.579 582.706C769.193 581.795 768.009 580.609 767.1 579.22C766.562 578.421 766.213 577.509 766.077 576.555C763.28 558.308 837.017 530.63 948.544 504.865C1001.75 492.495 1063.62 480.604 1129.85 470.353C1192.33 460.443 1251.47 453.336 1303.72 448.894Z" fill="url(#paint6_linear_288_263)"/>
<path d="M972.623 593.708C943.292 595.69 845.135 599.176 813.143 591.932C810.893 591.727 808.709 591.522 806.595 591.249L805.299 591.111L804.072 590.975C802.775 590.838 801.548 590.633 800.319 590.428C799.228 590.292 798.205 590.087 797.182 589.95L796.909 589.881L794.863 589.54L793.772 589.335L793.294 589.266L791.111 588.857H791.043L790.156 588.652C788.997 588.378 787.905 588.173 786.814 587.9L786.063 587.695L785.313 587.49C785.04 587.421 784.768 587.353 784.563 587.284L783.813 587.079L783.062 586.874L782.38 586.669C780.811 586.191 779.379 585.644 778.083 585.166H778.014C777.078 584.835 776.146 584.494 775.218 584.141L775.081 584.073L774.058 583.662L773.922 583.594C773.376 583.389 772.898 583.116 772.421 582.911L773.649 582.979C779.379 583.457 785.859 584.004 792.339 584.482C798.879 585.009 805.429 585.42 811.984 585.713C817.441 585.918 822.284 585.986 826.172 585.713C840.974 584.825 858.573 583.799 873.033 581.271C878.695 580.382 884.221 579.015 889.609 577.102C890.701 576.692 892.065 576.281 893.566 575.803C908.367 568.422 943.496 563.092 958.435 561.041C961.709 570.882 967.916 584.687 972.623 593.708V593.708Z" fill="url(#paint7_linear_288_263)"/>
<path d="M466.953 693.931V756.583C466.953 763.61 461.271 769.381 454.169 769.381H394.423C387.404 769.381 381.638 763.693 381.638 756.583V693.178C381.638 681.3 386.568 670.008 395.258 661.894C396.428 660.723 397.766 659.719 399.102 658.716C403.698 655.286 408.962 652.944 414.477 651.606C415.647 651.355 416.817 651.104 418.07 650.937C418.571 650.853 419.073 650.77 419.574 650.77C420.327 650.686 421.078 650.602 421.747 650.602H422.332C423 650.602 423.669 650.519 424.338 650.519H425.089C425.508 650.519 425.842 650.519 426.176 650.602H426.677C427.095 650.602 427.597 650.686 428.014 650.686C428.432 650.686 428.766 650.77 429.184 650.77C429.351 650.77 429.518 650.77 429.685 650.853L431.44 651.104C432.025 651.188 432.86 651.355 433.529 651.522C438.208 652.61 442.721 654.45 446.816 657.043C448.177 657.886 449.488 658.808 450.743 659.803C461.021 668.252 466.953 680.715 466.953 693.931V693.931Z" fill="#C197F2"/>
<path d="M407.96 669.172L400.104 639.477C401.608 637.804 401.44 635.211 399.77 633.706C398.099 632.2 395.508 632.367 394.004 634.04C392.5 635.713 392.667 638.306 394.337 639.812C394.672 640.146 395.091 640.397 395.508 640.564L403.446 670.343L407.958 669.172H407.96Z" fill="url(#paint8_linear_288_263)"/>
<path d="M455.589 635.044C455.171 632.786 452.999 631.196 450.742 631.614C448.486 632.033 446.899 634.208 447.316 636.466C447.483 637.219 447.734 637.888 448.235 638.473L439.211 670.259L443.723 671.514L452.748 639.644C454.67 638.975 455.923 637.051 455.589 635.044V635.044Z" fill="url(#paint9_linear_288_263)"/>
<path d="M400.438 668.754C400.734 668.754 401.027 668.695 401.301 668.582C401.575 668.468 401.823 668.302 402.033 668.092C402.242 667.883 402.409 667.634 402.522 667.36C402.635 667.086 402.694 666.792 402.694 666.496C402.694 666.199 402.636 665.906 402.522 665.632C402.409 665.358 402.243 665.109 402.033 664.899C401.824 664.689 401.575 664.523 401.302 664.409C401.028 664.296 400.735 664.237 400.438 664.237C399.84 664.237 399.266 664.475 398.843 664.899C398.42 665.322 398.183 665.897 398.183 666.495C398.183 667.094 398.42 667.669 398.843 668.092C399.266 668.516 399.84 668.754 400.438 668.754H400.438ZM407.624 661.81C407.832 661.81 408.038 661.769 408.231 661.689C408.424 661.61 408.599 661.493 408.746 661.345C408.894 661.198 409.011 661.022 409.09 660.83C409.17 660.637 409.211 660.43 409.211 660.222C409.212 660.013 409.171 659.806 409.091 659.613C409.011 659.421 408.894 659.245 408.747 659.098C408.599 658.95 408.424 658.833 408.232 658.753C408.039 658.673 407.833 658.632 407.624 658.632C407.203 658.632 406.8 658.799 406.502 659.098C406.204 659.396 406.037 659.8 406.037 660.221C406.037 660.643 406.204 661.047 406.502 661.345C406.8 661.643 407.203 661.81 407.624 661.81H407.624Z" fill="white"/>
<path d="M568.813 710.075V763.61C568.813 769.632 563.967 774.483 557.95 774.483H506.978C505.551 774.486 504.137 774.207 502.818 773.661C501.499 773.116 500.3 772.315 499.291 771.305C498.282 770.295 497.481 769.095 496.937 767.774C496.392 766.454 496.113 765.038 496.115 763.61V709.49C496.115 699.368 500.293 689.749 507.73 682.806C508.733 681.802 509.819 680.966 510.989 680.129C514.916 677.202 519.345 675.194 524.108 674.107C525.111 673.856 526.113 673.689 527.2 673.521L528.537 673.354C529.122 673.271 529.79 673.187 530.375 673.187H534.47C534.887 673.187 535.222 673.271 535.64 673.271L536.642 673.354L537.06 673.438L538.564 673.689C539.065 673.772 539.734 673.856 540.319 674.023C544.33 674.943 548.173 676.533 551.599 678.791C552.746 679.524 553.861 680.305 554.942 681.133C563.716 688.16 568.813 698.783 568.813 710.075V710.075Z" fill="#C197F2"/>
<path d="M518.426 688.913L511.657 663.567C512.911 662.145 512.827 659.887 511.324 658.632C509.903 657.378 507.647 657.461 506.393 658.967C505.14 660.389 505.223 662.647 506.728 663.902C507.062 664.153 507.396 664.404 507.73 664.571L514.498 690L518.426 688.913Z" fill="url(#paint10_linear_288_263)"/>
<path d="M559.037 659.719C558.702 657.796 556.864 656.457 554.942 656.792C553.021 657.127 551.683 658.967 552.018 660.89C552.185 661.476 552.435 662.061 552.853 662.563L545.165 689.749L549.01 690.836L556.697 663.651C558.368 663.149 559.371 661.476 559.037 659.719Z" fill="url(#paint11_linear_288_263)"/>
<path d="M511.992 688.578C512.244 688.578 512.494 688.528 512.727 688.432C512.96 688.335 513.172 688.193 513.35 688.015C513.529 687.836 513.67 687.624 513.767 687.391C513.864 687.158 513.913 686.908 513.913 686.655C513.914 686.402 513.864 686.152 513.767 685.919C513.671 685.686 513.529 685.474 513.351 685.295C513.173 685.116 512.961 684.975 512.728 684.878C512.495 684.781 512.245 684.731 511.993 684.731C511.483 684.731 510.994 684.934 510.634 685.294C510.274 685.655 510.071 686.144 510.071 686.654C510.071 687.164 510.273 687.653 510.633 688.014C510.994 688.375 511.482 688.578 511.992 688.578V688.578ZM518.173 682.555C518.528 682.555 518.868 682.414 519.118 682.163C519.369 681.913 519.51 681.572 519.51 681.217C519.51 680.862 519.369 680.522 519.118 680.271C518.868 680.02 518.528 679.879 518.173 679.879C517.819 679.879 517.479 680.02 517.228 680.271C516.977 680.522 516.836 680.862 516.836 681.217C516.836 681.572 516.977 681.913 517.228 682.163C517.479 682.414 517.819 682.555 518.173 682.555Z" fill="white"/>
<path d="M457.593 693.931V756.583C457.593 763.61 451.911 769.381 444.808 769.381H394.505C387.485 769.381 381.72 763.693 381.72 756.583V693.178C381.72 681.3 386.649 670.009 395.34 661.894C396.51 660.723 397.847 659.72 399.184 658.716C403.779 655.286 409.044 652.944 414.559 651.606C415.729 651.355 416.899 651.104 418.153 650.937C418.654 650.853 419.154 650.77 419.657 650.77H419.907C420.074 650.77 420.241 650.77 420.408 650.853L422.163 651.104C422.915 651.188 423.584 651.355 424.252 651.522C428.932 652.61 433.443 654.45 437.538 657.043C438.9 657.886 440.211 658.808 441.466 659.803C451.576 668.252 457.593 680.715 457.593 693.931V693.931ZM560.791 710.075V763.61C560.791 769.632 555.945 774.483 549.929 774.483H506.978C505.551 774.486 504.137 774.207 502.818 773.661C501.499 773.116 500.3 772.315 499.291 771.305C498.281 770.295 497.481 769.095 496.937 767.774C496.392 766.454 496.113 765.038 496.115 763.61V709.49C496.115 699.368 500.293 689.749 507.73 682.806C508.733 681.802 509.819 680.966 510.989 680.129C514.916 677.202 519.345 675.194 524.108 674.107C525.111 673.856 526.113 673.689 527.2 673.521L528.537 673.354H528.704L529.122 673.438L530.626 673.689C531.127 673.772 531.796 673.856 532.381 674.023C536.416 674.942 540.261 676.555 543.745 678.791C544.892 679.524 546.007 680.305 547.087 681.133C555.694 688.076 560.791 698.783 560.791 710.075V710.075Z" fill="#8B4FD1"/>
<path d="M421.077 759.845V783.685C421.161 788.452 418.487 792.885 414.309 795.144C412.737 795.97 410.987 796.4 409.212 796.399C402.61 796.399 397.346 790.711 397.346 783.685V759.845H421.077ZM449.572 759.845V783.685C449.656 788.452 446.982 792.885 442.804 795.144C441.231 795.97 439.482 796.4 437.707 796.399C431.105 796.399 425.841 790.711 425.841 783.685V759.845H449.572ZM529.705 766.37V786.696C529.789 790.794 527.533 794.558 523.939 796.483C522.603 797.152 521.098 797.57 519.595 797.487C513.996 797.487 509.484 792.635 509.484 786.612V766.286H529.705V766.37ZM554.023 766.37V786.696C554.107 790.794 551.767 794.558 548.173 796.483C546.837 797.152 545.333 797.487 543.829 797.487C538.23 797.487 533.718 792.635 533.718 786.612V766.286H554.023V766.37Z" fill="#F78F08"/>
<path d="M466.953 733.58V758.507C466.953 764.53 461.271 769.381 454.169 769.381H394.423C393.42 769.381 392.334 769.297 391.331 769.046C385.733 767.875 381.638 763.609 381.638 758.507V733.58H466.953ZM568.813 743.869V765.115C568.813 770.217 563.967 774.399 557.95 774.399H506.978C506.059 774.399 505.224 774.316 504.387 774.149C499.625 773.145 496.115 769.465 496.115 765.115V743.869H568.813V743.869Z" fill="#F78F08"/>
<path d="M415.145 773.551V803.163C415.145 805.087 414.894 807.011 414.309 808.851C412.737 809.677 410.987 810.107 409.212 810.105C402.61 810.105 397.346 804.418 397.346 797.392V773.551H415.145V773.551ZM443.639 773.635V803.247C443.639 805.17 443.389 807.094 442.804 808.934C441.232 809.76 439.482 810.191 437.707 810.189C431.105 810.189 425.841 804.501 425.841 797.475V773.635H443.639Z" fill="#B8306F"/>
<path d="M460.937 733.58V758.507C460.937 764.53 455.254 769.381 448.152 769.381H391.332V769.046C385.733 767.875 381.639 763.609 381.639 758.507V733.58H460.938H460.937ZM524.608 766.37V791.631C524.602 793.271 524.378 794.903 523.939 796.483C522.603 797.152 521.098 797.57 519.595 797.487C513.996 797.487 509.484 792.635 509.484 786.612V766.286H524.608V766.37V766.37ZM548.926 766.37V791.631C548.92 793.271 548.695 794.903 548.257 796.483C546.921 797.152 545.416 797.487 543.912 797.487C538.314 797.487 533.801 792.635 533.801 786.612V766.286H548.926V766.37V766.37Z" fill="#B8306F"/>
<path d="M563.716 743.869V765.115C563.716 770.217 558.869 774.399 552.853 774.399H504.387V774.149C499.625 773.145 496.115 769.465 496.115 765.115V743.869H563.716V743.869Z" fill="#B8306F"/>
<path d="M466.953 711.246V716.097C463.444 711.079 459.349 706.06 451.577 706.98C443.723 707.9 436.704 720.113 436.704 720.113L424.337 715.261C424.337 715.261 434.615 702.63 449.572 702.63C458.931 702.63 463.109 707.984 466.953 711.246V711.246ZM568.813 724.797V728.979C565.805 724.714 562.296 720.364 555.694 721.2C549.01 722.037 542.993 732.409 542.993 732.409L532.464 728.227C532.464 728.227 541.238 717.436 554.023 717.436C561.961 717.436 565.554 722.121 568.813 724.797Z" fill="#5A2489"/>
<path d="M439.21 711.163H386.232V753.321H439.21V711.163H439.21Z" fill="#8342BD"/>
<path d="M420.326 711.163H364.674V753.321H420.326V711.163Z" fill="#5A2489"/>
<path d="M441.284 670.475C441.325 669.999 441.271 669.521 441.125 669.067C440.979 668.613 440.745 668.192 440.435 667.83C440.126 667.467 439.747 667.17 439.322 666.955C438.896 666.74 438.433 666.612 437.957 666.578C437.482 666.544 437.005 666.606 436.554 666.758C436.102 666.911 435.686 667.151 435.328 667.467C434.97 667.782 434.679 668.165 434.47 668.594C434.262 669.023 434.141 669.489 434.114 669.965C434.061 670.908 434.381 671.835 435.005 672.545C435.629 673.254 436.506 673.689 437.448 673.756C438.39 673.823 439.32 673.516 440.038 672.902C440.756 672.288 441.203 671.416 441.284 670.475Z" fill="#6A2AA1"/>
<path d="M413.976 666.578C414.286 666.578 414.584 666.455 414.803 666.235C415.022 666.016 415.146 665.718 415.146 665.407C415.146 665.097 415.022 664.799 414.803 664.579C414.584 664.36 414.286 664.236 413.976 664.236C413.666 664.236 413.368 664.36 413.149 664.579C412.929 664.799 412.806 665.097 412.806 665.407C412.806 665.718 412.929 666.016 413.149 666.235C413.368 666.455 413.666 666.578 413.976 666.578Z" fill="#8836CF"/>
<path d="M419.491 695.019C420.577 695.019 421.618 694.587 422.386 693.818C423.154 693.05 423.585 692.007 423.585 690.92C423.585 689.833 423.154 688.79 422.386 688.021C421.618 687.253 420.577 686.821 419.491 686.821C418.405 686.821 417.363 687.253 416.595 688.021C415.827 688.79 415.396 689.833 415.396 690.92C415.396 692.007 415.827 693.05 416.595 693.818C417.363 694.587 418.405 695.019 419.491 695.019Z" fill="#6A2AA1"/>
<path d="M369.605 716.098H383.476C383.81 716.098 384.144 716.432 384.144 716.767V718.272C384.144 718.607 383.81 718.942 383.476 718.942H369.688C369.355 718.942 369.02 718.607 369.02 718.272V716.767C368.936 716.432 369.271 716.098 369.605 716.098ZM370.271 721.953H382.806C383.558 721.953 384.06 722.539 384.06 723.208V728.059C384.06 728.812 383.474 729.314 382.806 729.314H370.272C369.52 729.314 368.935 728.729 368.935 728.059V723.208C368.935 722.539 369.52 721.953 370.272 721.953H370.271Z" fill="#8836CF"/>
<path d="M545.166 724.714H499.96V760.682H545.166V724.714Z" fill="#8342BD"/>
<path d="M529.121 724.714H481.576V760.682H529.121V724.714Z" fill="#5A2489"/>
<path d="M517.255 694.6C517.65 694.6 518.041 694.522 518.406 694.371C518.771 694.22 519.103 693.998 519.382 693.719C519.662 693.439 519.883 693.107 520.035 692.742C520.186 692.377 520.264 691.985 520.264 691.59C520.264 691.194 520.186 690.803 520.035 690.437C519.884 690.072 519.663 689.74 519.384 689.46C519.104 689.181 518.773 688.959 518.408 688.807C518.043 688.656 517.652 688.578 517.257 688.578C516.459 688.577 515.694 688.894 515.129 689.459C514.565 690.024 514.248 690.789 514.248 691.588C514.248 692.387 514.564 693.153 515.128 693.717C515.692 694.282 516.457 694.6 517.255 694.6V694.6ZM523.607 686.737C523.873 686.737 524.128 686.632 524.316 686.444C524.504 686.256 524.61 686 524.61 685.734C524.61 685.468 524.504 685.213 524.316 685.025C524.128 684.837 523.873 684.731 523.607 684.731C523.342 684.731 523.087 684.837 522.899 685.025C522.711 685.213 522.605 685.468 522.605 685.734C522.605 686 522.711 686.256 522.899 686.444C523.087 686.632 523.342 686.737 523.607 686.737ZM548.675 702.714C549.606 702.714 550.498 702.344 551.157 701.685C551.815 701.027 552.185 700.133 552.185 699.201C552.185 698.269 551.815 697.376 551.157 696.717C550.498 696.058 549.606 695.688 548.675 695.688C547.744 695.688 546.852 696.058 546.193 696.717C545.535 697.376 545.165 698.269 545.165 699.201C545.165 700.133 545.535 701.027 546.193 701.685C546.852 702.344 547.744 702.714 548.675 702.714V702.714Z" fill="#722DAD"/>
<path d="M485.838 728.98H497.452C497.787 728.98 498.121 729.314 498.121 729.649V730.736C498.121 731.071 497.787 731.405 497.452 731.405H485.838C485.503 731.405 485.169 731.071 485.169 730.736V729.649C485.168 729.561 485.184 729.473 485.217 729.391C485.251 729.31 485.3 729.235 485.362 729.173C485.424 729.111 485.499 729.061 485.58 729.028C485.662 728.995 485.749 728.979 485.838 728.98ZM486.422 733.998H496.784C497.536 733.998 498.038 734.583 498.038 735.253V739.017C498.038 739.77 497.452 740.272 496.784 740.272H486.422C485.671 740.272 485.169 739.686 485.169 739.017V735.253C485.169 734.583 485.754 733.998 486.422 733.998Z" fill="#8836CF"/>
<path d="M414.475 651.69C415.645 651.439 416.815 651.188 418.068 651.021C418.57 650.937 419.071 650.853 419.573 650.853C420.324 650.77 421.076 650.686 421.745 650.686H422.33C422.998 650.686 423.667 650.602 424.335 650.602H425.087C425.505 650.602 425.84 650.602 426.174 650.686H426.675C427.092 650.686 427.594 650.77 428.012 650.77C428.43 650.77 428.765 650.853 429.182 650.853C429.349 650.853 429.516 650.853 429.683 650.937L431.437 651.188C432.023 651.272 432.858 651.439 433.527 651.606C438.207 652.694 442.718 654.534 446.813 657.127C448.174 657.97 449.486 658.892 450.74 659.887C461.018 668.168 466.951 680.631 466.951 693.848V756.499C466.951 763.526 461.269 769.297 454.167 769.297M528.453 673.27C529.037 673.187 529.707 673.103 530.291 673.103H534.386C534.804 673.103 535.137 673.187 535.556 673.187L536.558 673.27L536.976 673.354L538.48 673.605C538.981 673.689 539.65 673.772 540.235 673.94C544.245 674.86 548.09 676.449 551.515 678.707C552.662 679.44 553.778 680.221 554.858 681.049C563.631 688.16 568.729 698.782 568.645 710.075V763.609C568.648 765.038 568.369 766.453 567.824 767.774C567.28 769.095 566.48 770.294 565.47 771.305C564.461 772.315 563.262 773.116 561.943 773.662C560.623 774.207 559.21 774.486 557.782 774.483" stroke="white" stroke-width="0.613" stroke-linecap="round" stroke-linejoin="round"/>
<path d="M470.045 754.743L468.792 755.244L467.538 755.579C463.695 756.499 459.851 754.157 458.932 750.393C458.932 750.309 458.932 750.226 458.848 750.142L450.994 717.352C449.991 713.505 452.246 709.49 456.091 708.403L457.094 708.152L457.511 708.068C461.272 707.148 465.032 709.406 465.951 713.17C465.951 713.254 465.951 713.337 466.035 713.421L473.973 746.211C474.808 749.473 473.221 753.07 470.045 754.743V754.743Z" fill="#C197F2"/>
<path d="M470.044 754.743L468.79 755.244L467.538 755.579C463.693 756.499 459.849 754.157 458.93 750.393C458.93 750.309 458.93 750.226 458.847 750.142L449.655 717.938C448.736 714.007 452.246 709.406 456.006 708.403L457.009 708.152C459.349 708.988 461.103 710.912 461.688 713.337L470.462 749.724C470.963 751.397 470.796 753.153 470.044 754.743V754.743Z" fill="#8B4FD1"/>
<path d="M571.487 761.937C571.152 762.104 570.734 762.271 570.4 762.355L569.398 762.606C566.139 763.442 562.88 761.435 562.044 758.172C562.044 758.088 562.044 758.005 561.961 758.005L555.193 729.983C554.356 726.721 556.279 723.291 559.537 722.287L560.373 722.036L560.791 721.953C563.966 721.2 567.225 723.124 567.977 726.303C567.977 726.387 567.977 726.47 568.06 726.554L574.829 754.575C575.498 757.419 574.16 760.515 571.487 761.937Z" fill="#C197F2"/>
<path d="M571.487 761.937C571.152 762.104 570.734 762.271 570.4 762.355L569.398 762.606C566.139 763.442 562.88 761.435 562.044 758.172C562.044 758.088 562.044 758.005 561.96 758.005L554.106 730.485C553.27 727.139 556.362 723.208 559.537 722.371L560.373 722.12C562.379 722.79 563.882 724.463 564.384 726.554L571.904 757.587C572.232 759.044 572.085 760.568 571.487 761.937V761.937Z" fill="#8B4FD1"/>
<path d="M457.344 708.068C461.105 707.148 464.865 709.406 465.784 713.17C465.784 713.254 465.784 713.337 465.868 713.421L473.806 746.211C474.641 749.64 473.054 753.237 469.962 754.826L468.708 755.328M559.371 722.455L560.207 722.204L560.624 722.12C563.8 721.367 567.059 723.292 567.811 726.47C567.811 726.554 567.811 726.637 567.894 726.637L574.662 754.659C575.415 757.586 574.078 760.598 571.404 762.02C571.057 762.196 570.693 762.336 570.318 762.439L569.315 762.689" stroke="white" stroke-width="0.613" stroke-linecap="round" stroke-linejoin="round"/>
<path d="M508.86 831.845C508.86 831.845 575.893 832.422 567.333 830.112C642.262 792.751 454.752 839.451 437.343 837.91C356.161 830.786 59.4975 837.281 -22 836.851C-22 836.851 -18.9771 816.914 -3.81352 812.964C6.0125 810.404 21.1068 836.702 21.1068 836.702L-22 836.851L-22 815.661L-22 753.466V712.352L-18.8262 711.196C16.86 699.257 57.9324 714.856 78.3238 730.454C113.721 757.511 126.802 781.197 160.564 785.627C166.721 786.396 172.936 786.59 179.129 786.204C227.704 783.508 217.411 751.542 263.678 726.987C265.986 725.736 268.391 724.677 270.796 723.713C315.138 705.804 362.078 735.846 362.078 735.846L505.975 830.112L508.86 831.845Z" fill="url(#paint12_linear_288_263)"/>
<path d="M466.953 693.931V756.583C466.953 763.61 461.271 769.381 454.169 769.381H394.423C387.404 769.381 381.638 763.693 381.638 756.583V693.178C381.638 681.3 386.568 670.008 395.258 661.894C396.428 660.723 397.766 659.719 399.102 658.716C403.698 655.286 408.962 652.944 414.477 651.606C415.647 651.355 416.817 651.104 418.07 650.937C418.571 650.853 419.073 650.77 419.574 650.77C420.327 650.686 421.078 650.602 421.747 650.602H422.332C423 650.602 423.669 650.519 424.338 650.519H425.089C425.508 650.519 425.842 650.519 426.176 650.602H426.677C427.095 650.602 427.597 650.686 428.014 650.686C428.432 650.686 428.766 650.77 429.184 650.77C429.351 650.77 429.518 650.77 429.685 650.853L431.44 651.104C432.025 651.188 432.86 651.355 433.529 651.522C438.208 652.61 442.721 654.45 446.816 657.043C448.177 657.886 449.488 658.808 450.743 659.803C461.021 668.252 466.953 680.715 466.953 693.931V693.931Z" fill="#C197F2"/>
<path d="M407.96 669.172L400.104 639.477C401.608 637.804 401.44 635.211 399.77 633.706C398.099 632.2 395.508 632.367 394.004 634.04C392.5 635.713 392.667 638.306 394.337 639.812C394.672 640.146 395.091 640.397 395.508 640.564L403.446 670.343L407.958 669.172H407.96Z" fill="url(#paint13_linear_288_263)"/>
<path d="M455.589 635.044C455.171 632.786 452.999 631.196 450.742 631.614C448.486 632.033 446.899 634.208 447.316 636.466C447.483 637.219 447.734 637.888 448.235 638.473L439.211 670.259L443.723 671.514L452.748 639.644C454.67 638.975 455.923 637.051 455.589 635.044V635.044Z" fill="url(#paint14_linear_288_263)"/>
<path d="M400.438 668.754C400.734 668.754 401.027 668.695 401.301 668.582C401.575 668.468 401.823 668.302 402.033 668.092C402.242 667.883 402.409 667.634 402.522 667.36C402.635 667.086 402.694 666.792 402.694 666.496C402.694 666.199 402.636 665.906 402.522 665.632C402.409 665.358 402.243 665.109 402.033 664.899C401.824 664.689 401.575 664.523 401.302 664.409C401.028 664.296 400.735 664.237 400.438 664.237C399.84 664.237 399.266 664.475 398.843 664.899C398.42 665.322 398.183 665.897 398.183 666.495C398.183 667.094 398.42 667.669 398.843 668.092C399.266 668.516 399.84 668.754 400.438 668.754H400.438ZM407.624 661.81C407.832 661.81 408.038 661.769 408.231 661.689C408.424 661.61 408.599 661.493 408.746 661.345C408.894 661.198 409.011 661.022 409.09 660.83C409.17 660.637 409.211 660.43 409.211 660.222C409.212 660.013 409.171 659.806 409.091 659.613C409.011 659.421 408.894 659.245 408.747 659.098C408.599 658.95 408.424 658.833 408.232 658.753C408.039 658.673 407.833 658.632 407.624 658.632C407.203 658.632 406.8 658.799 406.502 659.098C406.204 659.396 406.037 659.8 406.037 660.221C406.037 660.643 406.204 661.047 406.502 661.345C406.8 661.643 407.203 661.81 407.624 661.81H407.624Z" fill="white"/>
<path d="M568.813 710.075V763.61C568.813 769.632 563.967 774.483 557.95 774.483H506.978C505.551 774.486 504.137 774.207 502.818 773.661C501.499 773.116 500.3 772.315 499.291 771.305C498.282 770.295 497.481 769.095 496.937 767.774C496.392 766.454 496.113 765.038 496.115 763.61V709.49C496.115 699.368 500.293 689.749 507.73 682.806C508.733 681.802 509.819 680.966 510.989 680.129C514.916 677.202 519.345 675.194 524.108 674.107C525.111 673.856 526.113 673.689 527.2 673.521L528.537 673.354C529.122 673.271 529.79 673.187 530.375 673.187H534.47C534.887 673.187 535.222 673.271 535.64 673.271L536.642 673.354L537.06 673.438L538.564 673.689C539.065 673.772 539.734 673.856 540.319 674.023C544.33 674.943 548.173 676.533 551.599 678.791C552.746 679.524 553.861 680.305 554.942 681.133C563.716 688.16 568.813 698.783 568.813 710.075V710.075Z" fill="#C197F2"/>
<path d="M518.426 688.913L511.657 663.567C512.911 662.145 512.827 659.887 511.324 658.632C509.903 657.378 507.647 657.461 506.393 658.967C505.14 660.389 505.223 662.647 506.728 663.902C507.062 664.153 507.396 664.404 507.73 664.571L514.498 690L518.426 688.913Z" fill="url(#paint15_linear_288_263)"/>
<path d="M559.037 659.719C558.702 657.796 556.864 656.457 554.942 656.792C553.021 657.127 551.683 658.967 552.018 660.89C552.185 661.476 552.435 662.061 552.853 662.563L545.165 689.749L549.01 690.836L556.697 663.651C558.368 663.149 559.371 661.476 559.037 659.719Z" fill="url(#paint16_linear_288_263)"/>
<path d="M511.992 688.578C512.244 688.578 512.494 688.528 512.727 688.432C512.96 688.335 513.172 688.193 513.35 688.015C513.529 687.836 513.67 687.624 513.767 687.391C513.864 687.158 513.913 686.908 513.913 686.655C513.914 686.402 513.864 686.152 513.767 685.919C513.671 685.686 513.529 685.474 513.351 685.295C513.173 685.116 512.961 684.975 512.728 684.878C512.495 684.781 512.245 684.731 511.993 684.731C511.483 684.731 510.994 684.934 510.634 685.294C510.274 685.655 510.071 686.144 510.071 686.654C510.071 687.164 510.273 687.653 510.633 688.014C510.994 688.375 511.482 688.578 511.992 688.578V688.578ZM518.173 682.555C518.528 682.555 518.868 682.414 519.118 682.163C519.369 681.913 519.51 681.572 519.51 681.217C519.51 680.862 519.369 680.522 519.118 680.271C518.868 680.02 518.528 679.879 518.173 679.879C517.819 679.879 517.479 680.02 517.228 680.271C516.977 680.522 516.836 680.862 516.836 681.217C516.836 681.572 516.977 681.913 517.228 682.163C517.479 682.414 517.819 682.555 518.173 682.555Z" fill="white"/>
<path d="M457.593 693.931V756.583C457.593 763.61 451.911 769.381 444.808 769.381H394.505C387.485 769.381 381.72 763.693 381.72 756.583V693.178C381.72 681.3 386.649 670.009 395.34 661.894C396.51 660.723 397.847 659.72 399.184 658.716C403.779 655.286 409.044 652.944 414.559 651.606C415.729 651.355 416.899 651.104 418.153 650.937C418.654 650.853 419.154 650.77 419.657 650.77H419.907C420.074 650.77 420.241 650.77 420.408 650.853L422.163 651.104C422.915 651.188 423.584 651.355 424.252 651.522C428.932 652.61 433.443 654.45 437.538 657.043C438.9 657.886 440.211 658.808 441.466 659.803C451.576 668.252 457.593 680.715 457.593 693.931V693.931ZM560.791 710.075V763.61C560.791 769.632 555.945 774.483 549.929 774.483H506.978C505.551 774.486 504.137 774.207 502.818 773.661C501.499 773.116 500.3 772.315 499.291 771.305C498.281 770.295 497.481 769.095 496.937 767.774C496.392 766.454 496.113 765.038 496.115 763.61V709.49C496.115 699.368 500.293 689.749 507.73 682.806C508.733 681.802 509.819 680.966 510.989 680.129C514.916 677.202 519.345 675.194 524.108 674.107C525.111 673.856 526.113 673.689 527.2 673.521L528.537 673.354H528.704L529.122 673.438L530.626 673.689C531.127 673.772 531.796 673.856 532.381 674.023C536.416 674.942 540.261 676.555 543.745 678.791C544.892 679.524 546.007 680.305 547.087 681.133C555.694 688.076 560.791 698.783 560.791 710.075V710.075Z" fill="#8B4FD1"/>
<path d="M421.077 759.845V783.685C421.161 788.452 418.487 792.885 414.309 795.144C412.737 795.97 410.987 796.4 409.212 796.399C402.61 796.399 397.346 790.711 397.346 783.685V759.845H421.077ZM449.572 759.845V783.685C449.656 788.452 446.982 792.885 442.804 795.144C441.231 795.97 439.482 796.4 437.707 796.399C431.105 796.399 425.841 790.711 425.841 783.685V759.845H449.572ZM529.705 766.37V786.696C529.789 790.794 527.533 794.558 523.939 796.483C522.603 797.152 521.098 797.57 519.595 797.487C513.996 797.487 509.484 792.635 509.484 786.612V766.286H529.705V766.37ZM554.023 766.37V786.696C554.107 790.794 551.767 794.558 548.173 796.483C546.837 797.152 545.333 797.487 543.829 797.487C538.23 797.487 533.718 792.635 533.718 786.612V766.286H554.023V766.37Z" fill="#F78F08"/>
<path d="M466.953 733.58V758.507C466.953 764.53 461.271 769.381 454.169 769.381H394.423C393.42 769.381 392.334 769.297 391.331 769.046C385.733 767.875 381.638 763.609 381.638 758.507V733.58H466.953ZM568.813 743.869V765.115C568.813 770.217 563.967 774.399 557.95 774.399H506.978C506.059 774.399 505.224 774.316 504.387 774.149C499.625 773.145 496.115 769.465 496.115 765.115V743.869H568.813V743.869Z" fill="#F78F08"/>
<path d="M415.145 773.551V803.163C415.145 805.087 414.894 807.011 414.309 808.851C412.737 809.677 410.987 810.107 409.212 810.105C402.61 810.105 397.346 804.418 397.346 797.392V773.551H415.145V773.551ZM443.639 773.635V803.247C443.639 805.17 443.389 807.094 442.804 808.934C441.232 809.76 439.482 810.191 437.707 810.189C431.105 810.189 425.841 804.501 425.841 797.475V773.635H443.639Z" fill="#B8306F"/>
<path d="M460.937 733.58V758.507C460.937 764.53 455.254 769.381 448.152 769.381H391.332V769.046C385.733 767.875 381.639 763.609 381.639 758.507V733.58H460.938H460.937ZM524.608 766.37V791.631C524.602 793.271 524.378 794.903 523.939 796.483C522.603 797.152 521.098 797.57 519.595 797.487C513.996 797.487 509.484 792.635 509.484 786.612V766.286H524.608V766.37V766.37ZM548.926 766.37V791.631C548.92 793.271 548.695 794.903 548.257 796.483C546.921 797.152 545.416 797.487 543.912 797.487C538.314 797.487 533.801 792.635 533.801 786.612V766.286H548.926V766.37V766.37Z" fill="#B8306F"/>
<path d="M563.716 743.869V765.115C563.716 770.217 558.869 774.399 552.853 774.399H504.387V774.149C499.625 773.145 496.115 769.465 496.115 765.115V743.869H563.716V743.869Z" fill="#B8306F"/>
<path d="M466.953 711.246V716.097C463.444 711.079 459.349 706.06 451.577 706.98C443.723 707.9 436.704 720.113 436.704 720.113L424.337 715.261C424.337 715.261 434.615 702.63 449.572 702.63C458.931 702.63 463.109 707.984 466.953 711.246V711.246ZM568.813 724.797V728.979C565.805 724.714 562.296 720.364 555.694 721.2C549.01 722.037 542.993 732.409 542.993 732.409L532.464 728.227C532.464 728.227 541.238 717.436 554.023 717.436C561.961 717.436 565.554 722.121 568.813 724.797Z" fill="#5A2489"/>
<path d="M439.21 711.163H386.232V753.321H439.21V711.163H439.21Z" fill="#8342BD"/>
<path d="M420.326 711.163H364.674V753.321H420.326V711.163Z" fill="#5A2489"/>
<path d="M441.284 670.475C441.325 669.999 441.271 669.521 441.125 669.067C440.979 668.613 440.745 668.192 440.435 667.83C440.126 667.467 439.747 667.17 439.322 666.955C438.896 666.74 438.433 666.612 437.957 666.578C437.482 666.544 437.005 666.606 436.554 666.758C436.102 666.911 435.686 667.151 435.328 667.467C434.97 667.782 434.679 668.165 434.47 668.594C434.262 669.023 434.141 669.489 434.114 669.965C434.061 670.908 434.381 671.835 435.005 672.545C435.629 673.254 436.506 673.689 437.448 673.756C438.39 673.823 439.32 673.516 440.038 672.902C440.756 672.288 441.203 671.416 441.284 670.475Z" fill="#6A2AA1"/>
<path d="M413.976 666.578C414.286 666.578 414.584 666.455 414.803 666.235C415.022 666.016 415.146 665.718 415.146 665.407C415.146 665.097 415.022 664.799 414.803 664.579C414.584 664.36 414.286 664.236 413.976 664.236C413.666 664.236 413.368 664.36 413.149 664.579C412.929 664.799 412.806 665.097 412.806 665.407C412.806 665.718 412.929 666.016 413.149 666.235C413.368 666.455 413.666 666.578 413.976 666.578Z" fill="#8836CF"/>
<path d="M419.491 695.019C420.577 695.019 421.618 694.587 422.386 693.818C423.154 693.05 423.585 692.007 423.585 690.92C423.585 689.833 423.154 688.79 422.386 688.021C421.618 687.253 420.577 686.821 419.491 686.821C418.405 686.821 417.363 687.253 416.595 688.021C415.827 688.79 415.396 689.833 415.396 690.92C415.396 692.007 415.827 693.05 416.595 693.818C417.363 694.587 418.405 695.019 419.491 695.019Z" fill="#6A2AA1"/>
<path d="M369.605 716.098H383.476C383.81 716.098 384.144 716.432 384.144 716.767V718.272C384.144 718.607 383.81 718.942 383.476 718.942H369.688C369.355 718.942 369.02 718.607 369.02 718.272V716.767C368.936 716.432 369.271 716.098 369.605 716.098ZM370.271 721.953H382.806C383.558 721.953 384.06 722.539 384.06 723.208V728.059C384.06 728.812 383.474 729.314 382.806 729.314H370.272C369.52 729.314 368.935 728.729 368.935 728.059V723.208C368.935 722.539 369.52 721.953 370.272 721.953H370.271Z" fill="#8836CF"/>
<path d="M545.166 724.714H499.96V760.682H545.166V724.714Z" fill="#8342BD"/>
<path d="M529.121 724.714H481.576V760.682H529.121V724.714Z" fill="#5A2489"/>
<path d="M517.255 694.6C517.65 694.6 518.041 694.522 518.406 694.371C518.771 694.22 519.103 693.998 519.382 693.719C519.662 693.439 519.883 693.107 520.035 692.742C520.186 692.377 520.264 691.985 520.264 691.59C520.264 691.194 520.186 690.803 520.035 690.437C519.884 690.072 519.663 689.74 519.384 689.46C519.104 689.181 518.773 688.959 518.408 688.807C518.043 688.656 517.652 688.578 517.257 688.578C516.459 688.577 515.694 688.894 515.129 689.459C514.565 690.024 514.248 690.789 514.248 691.588C514.248 692.387 514.564 693.153 515.128 693.717C515.692 694.282 516.457 694.6 517.255 694.6V694.6ZM523.607 686.737C523.873 686.737 524.128 686.632 524.316 686.444C524.504 686.256 524.61 686 524.61 685.734C524.61 685.468 524.504 685.213 524.316 685.025C524.128 684.837 523.873 684.731 523.607 684.731C523.342 684.731 523.087 684.837 522.899 685.025C522.711 685.213 522.605 685.468 522.605 685.734C522.605 686 522.711 686.256 522.899 686.444C523.087 686.632 523.342 686.737 523.607 686.737ZM548.675 702.714C549.606 702.714 550.498 702.344 551.157 701.685C551.815 701.027 552.185 700.133 552.185 699.201C552.185 698.269 551.815 697.376 551.157 696.717C550.498 696.058 549.606 695.688 548.675 695.688C547.744 695.688 546.852 696.058 546.193 696.717C545.535 697.376 545.165 698.269 545.165 699.201C545.165 700.133 545.535 701.027 546.193 701.685C546.852 702.344 547.744 702.714 548.675 702.714V702.714Z" fill="#722DAD"/>
<path d="M485.838 728.98H497.452C497.787 728.98 498.121 729.314 498.121 729.649V730.736C498.121 731.071 497.787 731.405 497.452 731.405H485.838C485.503 731.405 485.169 731.071 485.169 730.736V729.649C485.168 729.561 485.184 729.473 485.217 729.391C485.251 729.31 485.3 729.235 485.362 729.173C485.424 729.111 485.499 729.061 485.58 729.028C485.662 728.995 485.749 728.979 485.838 728.98ZM486.422 733.998H496.784C497.536 733.998 498.038 734.583 498.038 735.253V739.017C498.038 739.77 497.452 740.272 496.784 740.272H486.422C485.671 740.272 485.169 739.686 485.169 739.017V735.253C485.169 734.583 485.754 733.998 486.422 733.998Z" fill="#8836CF"/>
<path d="M414.475 651.69C415.645 651.439 416.815 651.188 418.068 651.021C418.57 650.937 419.071 650.853 419.573 650.853C420.324 650.77 421.076 650.686 421.745 650.686H422.33C422.998 650.686 423.667 650.602 424.335 650.602H425.087C425.505 650.602 425.84 650.602 426.174 650.686H426.675C427.092 650.686 427.594 650.77 428.012 650.77C428.43 650.77 428.765 650.853 429.182 650.853C429.349 650.853 429.516 650.853 429.683 650.937L431.437 651.188C432.023 651.272 432.858 651.439 433.527 651.606C438.207 652.694 442.718 654.534 446.813 657.127C448.174 657.97 449.486 658.892 450.74 659.887C461.018 668.168 466.951 680.631 466.951 693.848V756.499C466.951 763.526 461.269 769.297 454.167 769.297M528.453 673.27C529.037 673.187 529.707 673.103 530.291 673.103H534.386C534.804 673.103 535.137 673.187 535.556 673.187L536.558 673.27L536.976 673.354L538.48 673.605C538.981 673.689 539.65 673.772 540.235 673.94C544.245 674.86 548.09 676.449 551.515 678.707C552.662 679.44 553.778 680.221 554.858 681.049C563.631 688.16 568.729 698.782 568.645 710.075V763.609C568.648 765.038 568.369 766.453 567.824 767.774C567.28 769.095 566.48 770.294 565.47 771.305C564.461 772.315 563.262 773.116 561.943 773.662C560.623 774.207 559.21 774.486 557.782 774.483" stroke="white" stroke-width="0.613" stroke-linecap="round" stroke-linejoin="round"/>
<path d="M470.045 754.743L468.792 755.244L467.538 755.579C463.695 756.499 459.851 754.157 458.932 750.393C458.932 750.309 458.932 750.226 458.848 750.142L450.994 717.352C449.991 713.505 452.246 709.49 456.091 708.403L457.094 708.152L457.511 708.068C461.272 707.148 465.032 709.406 465.951 713.17C465.951 713.254 465.951 713.337 466.035 713.421L473.973 746.211C474.808 749.473 473.221 753.07 470.045 754.743V754.743Z" fill="#C197F2"/>
<path d="M470.044 754.743L468.79 755.244L467.538 755.579C463.693 756.499 459.849 754.157 458.93 750.393C458.93 750.309 458.93 750.226 458.847 750.142L449.655 717.938C448.736 714.007 452.246 709.406 456.006 708.403L457.009 708.152C459.349 708.988 461.103 710.912 461.688 713.337L470.462 749.724C470.963 751.397 470.796 753.153 470.044 754.743V754.743Z" fill="#8B4FD1"/>
<path d="M571.487 761.937C571.152 762.104 570.734 762.271 570.4 762.355L569.398 762.606C566.139 763.442 562.88 761.435 562.044 758.172C562.044 758.088 562.044 758.005 561.961 758.005L555.193 729.983C554.356 726.721 556.279 723.291 559.537 722.287L560.373 722.036L560.791 721.953C563.966 721.2 567.225 723.124 567.977 726.303C567.977 726.387 567.977 726.47 568.06 726.554L574.829 754.575C575.498 757.419 574.16 760.515 571.487 761.937Z" fill="#C197F2"/>
<path d="M571.487 761.937C571.152 762.104 570.734 762.271 570.4 762.355L569.398 762.606C566.139 763.442 562.88 761.435 562.044 758.172C562.044 758.088 562.044 758.005 561.96 758.005L554.106 730.485C553.27 727.139 556.362 723.208 559.537 722.371L560.373 722.12C562.379 722.79 563.882 724.463 564.384 726.554L571.904 757.587C572.232 759.044 572.085 760.568 571.487 761.937V761.937Z" fill="#8B4FD1"/>
<path d="M457.344 708.068C461.105 707.148 464.865 709.406 465.784 713.17C465.784 713.254 465.784 713.337 465.868 713.421L473.806 746.211C474.641 749.64 473.054 753.237 469.962 754.826L468.708 755.328M559.371 722.455L560.207 722.204L560.624 722.12C563.8 721.367 567.059 723.292 567.811 726.47C567.811 726.554 567.811 726.637 567.894 726.637L574.662 754.659C575.415 757.586 574.078 760.598 571.404 762.02C571.057 762.196 570.693 762.336 570.318 762.439L569.315 762.689" stroke="white" stroke-width="0.613" stroke-linecap="round" stroke-linejoin="round"/>
</g>
<defs>
<linearGradient id="paint0_linear_288_263" x1="189.671" y1="584.929" x2="339.56" y2="1278.09" gradientUnits="userSpaceOnUse">
<stop offset="0.05" stop-color="#9133C2"/>
<stop offset="0.37" stop-color="#26163A"/>
</linearGradient>
<linearGradient id="paint1_linear_288_263" x1="780.324" y1="209.929" x2="803.93" y2="1334.24" gradientUnits="userSpaceOnUse">
<stop offset="0.43" stop-color="#9133C2"/>
<stop offset="0.54" stop-color="#26163A"/>
</linearGradient>
<linearGradient id="paint2_linear_288_263" x1="953.807" y1="426.91" x2="1301.45" y2="437.782" gradientUnits="userSpaceOnUse">
<stop offset="0.05" stop-color="#F973E4"/>
<stop offset="0.45" stop-color="#743495"/>
<stop offset="0.51" stop-color="#5A2878"/>
<stop offset="0.58" stop-color="#3F1C59"/>
<stop offset="0.66" stop-color="#2C1343"/>
<stop offset="0.73" stop-color="#200E36"/>
<stop offset="0.79" stop-color="#1C0C31"/>
</linearGradient>
<linearGradient id="paint3_linear_288_263" x1="766.518" y1="519.569" x2="1348.4" y2="519.569" gradientUnits="userSpaceOnUse">
<stop offset="0.05" stop-color="#F9730A"/>
<stop offset="0.45" stop-color="#743495"/>
<stop offset="0.51" stop-color="#5A2878"/>
<stop offset="0.58" stop-color="#3F1C59"/>
<stop offset="0.66" stop-color="#2C1343"/>
<stop offset="0.73" stop-color="#200E36"/>
<stop offset="0.79" stop-color="#1C0C31"/>
</linearGradient>
<linearGradient id="paint4_linear_288_263" x1="770.874" y1="522.388" x2="1348.41" y2="522.388" gradientUnits="userSpaceOnUse">
<stop offset="0.05" stop-color="#F973BE"/>
<stop offset="0.45" stop-color="#743495"/>
<stop offset="0.51" stop-color="#5A2878"/>
<stop offset="0.58" stop-color="#3F1C59"/>
<stop offset="0.66" stop-color="#2C1343"/>
<stop offset="0.73" stop-color="#200E36"/>
<stop offset="0.79" stop-color="#1C0C31"/>
</linearGradient>
<linearGradient id="paint5_linear_288_263" x1="810.404" y1="527.606" x2="1348.37" y2="527.606" gradientUnits="userSpaceOnUse">
<stop offset="0.05" stop-color="#F97B45"/>
<stop offset="0.45" stop-color="#743495"/>
<stop offset="0.51" stop-color="#5A2878"/>
<stop offset="0.58" stop-color="#3F1C59"/>
<stop offset="0.66" stop-color="#2C1343"/>
<stop offset="0.73" stop-color="#200E36"/>
<stop offset="0.79" stop-color="#1C0C31"/>
</linearGradient>
<linearGradient id="paint6_linear_288_263" x1="765.967" y1="606.207" x2="1373.3" y2="435.265" gradientUnits="userSpaceOnUse">
<stop offset="0.05" stop-color="#F97B45" stop-opacity="0"/>
<stop offset="0.37" stop-color="#743495" stop-opacity="0.3"/>
<stop offset="0.45" stop-color="#572774" stop-opacity="0.53"/>
<stop offset="0.79" stop-color="#1C0C31"/>
</linearGradient>
<linearGradient id="paint7_linear_288_263" x1="778.81" y1="614.787" x2="971.951" y2="560.421" gradientUnits="userSpaceOnUse">
<stop offset="0.05" stop-color="#F97B45" stop-opacity="0"/>
<stop offset="0.37" stop-color="#743495" stop-opacity="0.3"/>
<stop offset="0.45" stop-color="#572774" stop-opacity="0.53"/>
<stop offset="0.79" stop-color="#1C0C31"/>
</linearGradient>
<linearGradient id="paint8_linear_288_263" x1="396.489" y1="634.939" x2="405.924" y2="670.435" gradientUnits="userSpaceOnUse">
<stop stop-color="white"/>
<stop offset="0.1" stop-color="#F0E6FC"/>
<stop offset="0.24" stop-color="#DFCAF8"/>
<stop offset="0.39" stop-color="#D2B3F6"/>
<stop offset="0.56" stop-color="#C8A3F4"/>
<stop offset="0.74" stop-color="#C39AF2"/>
<stop offset="1" stop-color="#C197F2"/>
</linearGradient>
<linearGradient id="paint9_linear_288_263" x1="451.113" y1="634.125" x2="443.802" y2="671.681" gradientUnits="userSpaceOnUse">
<stop stop-color="white"/>
<stop offset="0.02" stop-color="#FDFBFF"/>
<stop offset="0.21" stop-color="#E7D7FA"/>
<stop offset="0.4" stop-color="#D7BBF7"/>
<stop offset="0.59" stop-color="#CBA7F4"/>
<stop offset="0.78" stop-color="#C39BF3"/>
<stop offset="0.97" stop-color="#C197F2"/>
</linearGradient>
<linearGradient id="paint10_linear_288_263" x1="508.673" y1="659.681" x2="516.728" y2="689.984" gradientUnits="userSpaceOnUse">
<stop stop-color="white"/>
<stop offset="0.1" stop-color="#F0E6FC"/>
<stop offset="0.24" stop-color="#DFCAF8"/>
<stop offset="0.39" stop-color="#D2B3F6"/>
<stop offset="0.56" stop-color="#C8A3F4"/>
<stop offset="0.74" stop-color="#C39AF2"/>
<stop offset="1" stop-color="#C197F2"/>
</linearGradient>
<linearGradient id="paint11_linear_288_263" x1="555.283" y1="658.997" x2="549.048" y2="691.052" gradientUnits="userSpaceOnUse">
<stop stop-color="white"/>
<stop offset="0.02" stop-color="#FDFBFF"/>
<stop offset="0.21" stop-color="#E7D7FA"/>
<stop offset="0.4" stop-color="#D7BBF7"/>
<stop offset="0.59" stop-color="#CBA7F4"/>
<stop offset="0.78" stop-color="#C39BF3"/>
<stop offset="0.97" stop-color="#C197F2"/>
</linearGradient>
<linearGradient id="paint12_linear_288_263" x1="187.555" y1="585.994" x2="337.443" y2="1279.15" gradientUnits="userSpaceOnUse">
<stop offset="0.05" stop-color="#9133C2"/>
<stop offset="0.37" stop-color="#26163A"/>
</linearGradient>
<linearGradient id="paint13_linear_288_263" x1="396.489" y1="634.939" x2="405.924" y2="670.435" gradientUnits="userSpaceOnUse">
<stop stop-color="white"/>
<stop offset="0.1" stop-color="#F0E6FC"/>
<stop offset="0.24" stop-color="#DFCAF8"/>
<stop offset="0.39" stop-color="#D2B3F6"/>
<stop offset="0.56" stop-color="#C8A3F4"/>
<stop offset="0.74" stop-color="#C39AF2"/>
<stop offset="1" stop-color="#C197F2"/>
</linearGradient>
<linearGradient id="paint14_linear_288_263" x1="451.113" y1="634.125" x2="443.802" y2="671.681" gradientUnits="userSpaceOnUse">
<stop stop-color="white"/>
<stop offset="0.02" stop-color="#FDFBFF"/>
<stop offset="0.21" stop-color="#E7D7FA"/>
<stop offset="0.4" stop-color="#D7BBF7"/>
<stop offset="0.59" stop-color="#CBA7F4"/>
<stop offset="0.78" stop-color="#C39BF3"/>
<stop offset="0.97" stop-color="#C197F2"/>
</linearGradient>
<linearGradient id="paint15_linear_288_263" x1="508.673" y1="659.681" x2="516.728" y2="689.984" gradientUnits="userSpaceOnUse">
<stop stop-color="white"/>
<stop offset="0.1" stop-color="#F0E6FC"/>
<stop offset="0.24" stop-color="#DFCAF8"/>
<stop offset="0.39" stop-color="#D2B3F6"/>
<stop offset="0.56" stop-color="#C8A3F4"/>
<stop offset="0.74" stop-color="#C39AF2"/>
<stop offset="1" stop-color="#C197F2"/>
</linearGradient>
<linearGradient id="paint16_linear_288_263" x1="555.283" y1="658.997" x2="549.048" y2="691.052" gradientUnits="userSpaceOnUse">
<stop stop-color="white"/>
<stop offset="0.02" stop-color="#FDFBFF"/>
<stop offset="0.21" stop-color="#E7D7FA"/>
<stop offset="0.4" stop-color="#D7BBF7"/>
<stop offset="0.59" stop-color="#CBA7F4"/>
<stop offset="0.78" stop-color="#C39BF3"/>
<stop offset="0.97" stop-color="#C197F2"/>
</linearGradient>
<clipPath id="clip0_288_263">
<rect width="1280" height="832" fill="white"/>
</clipPath>
</defs>
</svg>
