<svg width="1280" height="829" viewBox="0 0 1280 829" fill="none" xmlns="http://www.w3.org/2000/svg">
<path opacity="0.18" d="M468.054 227.605C468.054 248.38 451.273 265.192 430.532 265.192C427.466 265.192 424.462 264.85 421.528 264.099C401.408 259.11 389.127 238.744 394.108 218.583C399.089 198.423 419.418 186.121 439.537 191.11C456.247 195.279 467.984 210.314 468.054 227.605V227.605Z" fill="#BA3687"/>
<path opacity="0.54" d="M468.054 227.604C468.054 248.38 451.274 265.192 430.533 265.192C427.466 265.192 424.462 264.85 421.528 264.099C404.748 251.934 400.933 228.424 413.075 211.613C417.437 205.531 423.52 200.9 430.536 198.317C437.552 195.734 445.179 195.319 452.433 197.124C462.186 204.163 468.054 215.507 468.054 227.604V227.604Z" fill="#0E0C30"/>
</svg>
