<svg width="211" height="179" viewBox="0 0 211 179" fill="none" xmlns="http://www.w3.org/2000/svg">
<path d="M102.279 62.3842V125.036C102.279 132.062 96.597 137.834 89.495 137.834H29.749C22.73 137.834 16.964 132.146 16.964 125.036V61.6312C16.964 49.7532 21.894 38.4602 30.584 30.3472C31.754 29.1762 33.092 28.1722 34.428 27.1692C39.024 23.7392 44.288 21.3962 49.803 20.0582C50.973 19.8072 52.143 19.5562 53.396 19.3892C53.897 19.3052 54.399 19.2222 54.9 19.2222C55.653 19.1382 56.404 19.0542 57.073 19.0542H57.658C58.326 19.0542 58.995 18.9712 59.664 18.9712H60.415C60.834 18.9712 61.168 18.9712 61.502 19.0542H62.003C62.421 19.0542 62.923 19.1382 63.34 19.1382C63.758 19.1382 64.092 19.2222 64.51 19.2222C64.677 19.2222 64.844 19.2222 65.011 19.3052L66.766 19.5562C67.351 19.6402 68.186 19.8072 68.855 19.9742C73.534 21.0622 78.047 22.9022 82.142 25.4962C83.503 26.3392 84.814 27.2612 86.069 28.2562C96.347 36.7042 102.279 49.1682 102.279 62.3842Z" fill="#C197F2"/>
<path d="M43.2859 37.6241L35.43 7.93017C36.934 6.25717 36.7659 3.66313 35.0959 2.15813C33.4249 0.652134 30.8339 0.819119 29.3299 2.49212C27.8259 4.16512 27.993 6.75913 29.663 8.26513C29.998 8.59913 30.4169 8.85014 30.8339 9.01714L38.772 38.7952L43.284 37.6241H43.2859Z" fill="url(#paint0_linear_18_580)"/>
<path d="M90.915 3.49616C90.497 1.23816 88.325 -0.351854 86.068 0.067146C83.812 0.485146 82.225 2.66014 82.642 4.91914C82.809 5.67214 83.06 6.34115 83.561 6.92615L74.537 38.7111L79.049 39.9661L88.074 8.09718C89.996 7.42818 91.249 5.50416 90.915 3.49616Z" fill="url(#paint1_linear_18_580)"/>
<path d="M35.7629 37.2062C36.0599 37.2062 36.3529 37.1482 36.6269 37.0352C36.8999 36.9212 37.1489 36.7552 37.3589 36.5452C37.5679 36.3362 37.7339 36.0872 37.8479 35.8132C37.9609 35.5392 38.0199 35.2452 38.0199 34.9492C38.0199 34.6522 37.9609 34.3582 37.8479 34.0842C37.7349 33.8102 37.5689 33.5612 37.3589 33.3522C37.1499 33.1422 36.9009 32.9762 36.6269 32.8622C36.3539 32.7482 36.0599 32.6902 35.7639 32.6902C35.1659 32.6902 34.5919 32.9282 34.1689 33.3512C33.7459 33.7752 33.5079 34.3492 33.5079 34.9482C33.5079 35.5472 33.7459 36.1212 34.1689 36.5452C34.5919 36.9682 35.1649 37.2062 35.7629 37.2062ZM42.9489 30.2632C43.1579 30.2632 43.3639 30.2222 43.5569 30.1422C43.7489 30.0622 43.9249 29.9452 44.0719 29.7982C44.2189 29.6502 44.3359 29.4752 44.4159 29.2822C44.4959 29.0902 44.5369 28.8832 44.5369 28.6742C44.5369 28.4662 44.4959 28.2592 44.4169 28.0662C44.3369 27.8732 44.2199 27.6982 44.0729 27.5512C43.9249 27.4032 43.7499 27.2862 43.5579 27.2062C43.3649 27.1262 43.1589 27.0852 42.9499 27.0852C42.5289 27.0852 42.1249 27.2522 41.8279 27.5502C41.5299 27.8482 41.3629 28.2522 41.3629 28.6742C41.3629 29.0952 41.5299 29.5002 41.8279 29.7982C42.1249 30.0962 42.5289 30.2632 42.9499 30.2632H42.9489Z" fill="white"/>
<path d="M204.139 78.5281V132.062C204.139 138.085 199.293 142.936 193.276 142.936H142.304C140.876 142.939 139.463 142.66 138.143 142.114C136.824 141.569 135.626 140.768 134.617 139.758C133.607 138.747 132.807 137.547 132.262 136.227C131.717 134.906 131.438 133.491 131.441 132.062V77.9432C131.441 67.8212 135.619 58.2012 143.056 51.2592C144.059 50.2552 145.145 49.4192 146.315 48.5822C150.242 45.6552 154.671 43.6471 159.434 42.5601C160.437 42.3091 161.439 42.1421 162.526 41.9741L163.863 41.8071C164.448 41.7231 165.116 41.6401 165.701 41.6401H169.796C170.213 41.6401 170.548 41.7231 170.965 41.7231L171.968 41.8071L172.386 41.8912L173.89 42.1422C174.391 42.2252 175.06 42.3091 175.645 42.4761C179.656 43.3961 183.499 44.9861 186.925 47.2441C188.072 47.9771 189.187 48.7581 190.268 49.5861C199.042 56.6121 204.139 67.2361 204.139 78.5281Z" fill="#C197F2"/>
<path d="M153.752 57.3653L146.983 32.0202C148.237 30.5982 148.153 28.3402 146.649 27.0852C145.229 25.8312 142.973 25.9142 141.719 27.4202C140.466 28.8422 140.549 31.1002 142.054 32.3552C142.388 32.6062 142.722 32.8572 143.056 33.0242L149.824 58.4522L153.752 57.3653Z" fill="url(#paint2_linear_18_580)"/>
<path d="M194.363 28.1721C194.028 26.2491 192.19 24.9102 190.268 25.2452C188.346 25.5802 187.009 27.4201 187.344 29.3431C187.51 29.9291 187.761 30.5142 188.179 31.0162L180.491 58.2011L184.335 59.2891L192.023 32.1041C193.694 31.6021 194.696 29.9291 194.363 28.1721Z" fill="url(#paint3_linear_18_580)"/>
<path d="M147.318 57.0302C147.57 57.0302 147.82 56.9812 148.053 56.8842C148.286 56.7882 148.498 56.6462 148.676 56.4672C148.855 56.2892 148.996 56.0772 149.093 55.8442C149.19 55.6102 149.239 55.3602 149.239 55.1082C149.24 54.8552 149.19 54.6051 149.093 54.3721C148.997 54.1381 148.855 53.9262 148.677 53.7482C148.499 53.5692 148.287 53.4272 148.054 53.3312C147.821 53.2342 147.571 53.1841 147.319 53.1841C146.809 53.1841 146.32 53.3861 145.96 53.7471C145.6 54.1081 145.397 54.5972 145.397 55.1072C145.397 55.6172 145.599 56.1062 145.959 56.4672C146.32 56.8282 146.808 57.0302 147.318 57.0302ZM153.499 51.0082C153.854 51.0082 154.194 50.8671 154.444 50.6161C154.695 50.3651 154.836 50.0252 154.836 49.6702C154.836 49.3152 154.695 48.9751 154.444 48.7241C154.194 48.4731 153.854 48.3322 153.499 48.3322C153.145 48.3322 152.805 48.4731 152.554 48.7241C152.303 48.9751 152.162 49.3152 152.162 49.6702C152.162 50.0252 152.303 50.3651 152.554 50.6161C152.805 50.8671 153.145 51.0082 153.499 51.0082Z" fill="white"/>
<path d="M92.9179 62.3842V125.036C92.9179 132.062 87.2369 137.834 80.1339 137.834H29.8309C22.8109 137.834 17.0459 132.146 17.0459 125.036V61.6312C17.0459 49.7532 21.9749 38.4612 30.6659 30.3472C31.8359 29.1762 33.1729 28.1731 34.5099 27.1691C39.1049 23.7391 44.3699 21.3972 49.8849 20.0582C51.0539 19.8072 52.2249 19.5562 53.4789 19.3892C53.9799 19.3052 54.4799 19.2222 54.9819 19.2222H55.2329C55.3999 19.2222 55.5669 19.2222 55.7339 19.3052L57.4889 19.5562C58.2409 19.6402 58.9099 19.8071 59.5779 19.9741C64.2569 21.0621 68.7689 22.9032 72.8639 25.4962C74.2259 26.3392 75.5369 27.2612 76.7919 28.2562C86.9019 36.7042 92.9179 49.1682 92.9179 62.3842ZM196.117 78.5281V132.062C196.117 138.085 191.271 142.936 185.255 142.936H142.304C140.877 142.939 139.463 142.66 138.144 142.114C136.824 141.569 135.626 140.768 134.617 139.758C133.607 138.747 132.807 137.548 132.262 136.227C131.718 134.906 131.439 133.491 131.441 132.062V77.9432C131.441 67.8212 135.619 58.2012 143.056 51.2592C144.059 50.2552 145.145 49.4192 146.315 48.5822C150.242 45.6552 154.671 43.6471 159.434 42.5601C160.437 42.3091 161.439 42.1421 162.526 41.9741L163.863 41.8071H164.029L164.448 41.8912L165.952 42.1422C166.453 42.2252 167.121 42.3091 167.707 42.4761C171.742 43.3951 175.587 45.0081 179.071 47.2441C180.218 47.9771 181.333 48.7581 182.413 49.5861C191.02 56.5281 196.117 67.2361 196.117 78.5281Z" fill="#8B4FD1"/>
<path d="M56.403 128.297V165.939C56.487 170.706 51.3291 178.652 44.538 178.652C37.7467 178.652 32.672 172.965 32.672 165.939V128.297H56.403ZM84.898 128.297V165.939C84.982 170.706 79.8241 178.652 73.033 178.652C66.2417 178.652 61.167 172.965 61.167 165.939V128.297H84.898ZM165.031 155.149C165.114 159.247 162.859 163.011 159.265 164.935C157.928 165.604 156.424 166.022 154.92 165.939C149.322 165.939 144.809 161.088 144.809 155.065V134.739H165.031V155.149ZM189.348 155.149C189.432 159.247 187.093 163.011 183.499 164.935C182.162 165.604 180.659 165.939 179.154 165.939C173.556 165.939 169.043 161.088 169.043 155.065V134.739H189.348V155.149Z" fill="#F78F08"/>
<path d="M102.279 102.033V126.959C102.279 132.982 96.597 137.834 89.495 137.834H29.749C28.746 137.834 27.66 137.75 26.657 137.499C21.059 136.328 16.964 132.062 16.964 126.959V102.033H102.279ZM204.139 112.321V133.568C204.139 138.67 199.293 142.852 193.276 142.852H142.304C141.385 142.852 140.55 142.769 139.713 142.602C134.951 141.598 131.441 137.918 131.441 133.568V112.321H204.139Z" fill="#F78F08"/>
<path d="M49.6863 137V170.946C49.6863 173.151 49.4369 175.357 48.8556 177.466C47.2926 178.412 45.5547 178.906 43.7909 178.904C37.2307 178.904 32 172.384 32 164.329V137H49.6863ZM78 137.096V171.042C78 173.246 77.7516 175.452 77.1703 177.561C75.6072 178.508 73.8693 179.002 72.1055 179C65.5453 179 60.3146 172.48 60.3146 164.424V137.096H78Z" fill="#B8306F"/>
<path d="M96.263 102.033V126.959C96.263 132.982 90.58 137.834 83.477 137.834H26.658V137.499C21.059 136.328 16.964 132.062 16.964 126.959V102.033H96.263ZM159.934 134.823V160.084C159.928 161.724 159.703 163.355 159.265 164.935C157.929 165.604 156.424 166.022 154.921 165.939C149.322 165.939 144.809 161.088 144.809 155.065V134.739H159.934V134.823ZM184.252 134.823V160.084C184.246 161.724 184.021 163.355 183.583 164.935C182.246 165.604 180.742 165.939 179.238 165.939C173.64 165.939 169.127 161.088 169.127 155.065V134.739H184.252V134.823Z" fill="#B8306F"/>
<path d="M199.042 112.321V133.568C199.042 138.67 194.195 142.852 188.179 142.852H139.713V142.602C134.951 141.598 131.441 137.918 131.441 133.568V112.321H199.042Z" fill="#B8306F"/>
<path d="M102.279 79.6992V84.5502C98.769 79.5322 94.674 74.5121 86.903 75.4321C79.049 76.3531 72.03 88.5651 72.03 88.5651L59.663 83.7142C59.663 83.7142 69.9409 71.0831 84.8979 71.0831C94.257 71.0831 98.435 76.4372 102.279 79.6992ZM204.139 93.2491V97.4321C201.131 93.1661 197.621 88.8161 191.02 89.6531C184.335 90.4891 178.318 100.862 178.318 100.862L167.79 96.6802C167.79 96.6802 176.564 85.8892 189.348 85.8892C197.287 85.8892 200.88 90.5731 204.139 93.2491Z" fill="#5A2489"/>
<path d="M74.5359 79.6162H21.5569V121.774H74.5349L74.5359 79.6162Z" fill="#8342BD"/>
<path d="M55.652 79.6162H0V121.774H55.652V79.6162Z" fill="#5A2489"/>
<path d="M76.61 38.9271C76.651 38.4521 76.596 37.9741 76.451 37.5201C76.305 37.0651 76.071 36.6452 75.761 36.2822C75.451 35.9202 75.073 35.6221 74.648 35.4081C74.222 35.1931 73.759 35.0651 73.283 35.0311C72.808 34.9971 72.331 35.0581 71.879 35.2111C71.428 35.3631 71.011 35.6041 70.654 35.9191C70.296 36.2341 70.005 36.6181 69.796 37.0461C69.588 37.4751 69.467 37.9411 69.44 38.4181C69.387 39.3611 69.707 40.2881 70.331 40.9971C70.955 41.7071 71.832 42.1422 72.774 42.2092C73.716 42.2762 74.646 41.9692 75.364 41.3552C76.082 40.7412 76.529 39.8691 76.61 38.9271Z" fill="#6A2AA1"/>
<path d="M49.302 35.0312C49.612 35.0312 49.91 34.9082 50.129 34.6882C50.348 34.4692 50.472 34.1712 50.472 33.8602C50.472 33.5502 50.348 33.2522 50.129 33.0322C49.91 32.8122 49.612 32.6892 49.302 32.6892C48.991 32.6892 48.6939 32.8122 48.4749 33.0322C48.2549 33.2522 48.132 33.5502 48.132 33.8602C48.132 34.1712 48.2549 34.4692 48.4749 34.6882C48.6939 34.9082 48.991 35.0312 49.302 35.0312Z" fill="#8836CF"/>
<path d="M54.8159 63.4722C55.9019 63.4722 56.9439 63.0402 57.7119 62.2712C58.4799 61.5022 58.9109 60.4602 58.9109 59.3732C58.9109 58.2852 58.4799 57.2432 57.7119 56.4742C56.9439 55.7052 55.9019 55.2732 54.8159 55.2732C53.7299 55.2732 52.6889 55.7052 51.9209 56.4742C51.1529 57.2432 50.7219 58.2852 50.7219 59.3732C50.7219 60.4602 51.1529 61.5022 51.9209 62.2712C52.6889 63.0402 53.7299 63.4722 54.8159 63.4722Z" fill="#6A2AA1"/>
<path d="M4.931 84.5511H18.802C19.136 84.5511 19.47 84.8852 19.47 85.2202V86.7252C19.47 87.0602 19.136 87.3951 18.802 87.3951H5.01398C4.68098 87.3951 4.34598 87.0602 4.34598 86.7252V85.2202C4.26198 84.8852 4.597 84.5511 4.931 84.5511ZM5.59698 90.4061H18.132C18.884 90.4061 19.386 90.9912 19.386 91.6602V96.5121C19.386 97.2651 18.8 97.7672 18.132 97.7672H5.59799C4.84599 97.7672 4.26099 97.1821 4.26099 96.5121V91.6602C4.26099 90.9912 4.84599 90.4061 5.59799 90.4061H5.59698Z" fill="#8836CF"/>
<path d="M180.492 93.1661H135.285V129.134H180.492V93.1661Z" fill="#8342BD"/>
<path d="M164.447 93.1661H116.902V129.134H164.447V93.1661Z" fill="#5A2489"/>
<path d="M152.581 63.0532C152.976 63.0532 153.367 62.9752 153.732 62.8242C154.097 62.6732 154.429 62.4512 154.708 62.1712C154.987 61.8922 155.209 61.5602 155.36 61.1952C155.512 60.8292 155.59 60.4382 155.59 60.0422C155.59 59.6472 155.512 59.2552 155.361 58.8902C155.21 58.5252 154.989 58.1932 154.709 57.9132C154.43 57.6332 154.098 57.4112 153.734 57.2602C153.369 57.1092 152.978 57.0312 152.582 57.0302C151.785 57.0302 151.019 57.3472 150.455 57.9122C149.891 58.4762 149.574 59.2422 149.574 60.0412C149.573 60.8392 149.89 61.6052 150.454 62.1702C151.018 62.7352 151.783 63.0532 152.581 63.0532ZM158.933 55.1902C159.199 55.1902 159.454 55.0852 159.642 54.8962C159.83 54.7082 159.935 54.4532 159.935 54.1872C159.935 53.9212 159.83 53.6662 159.642 53.4782C159.454 53.2902 159.199 53.1842 158.933 53.1842C158.667 53.1842 158.413 53.2902 158.225 53.4782C158.037 53.6662 157.931 53.9212 157.931 54.1872C157.931 54.4532 158.037 54.7082 158.225 54.8962C158.413 55.0852 158.667 55.1902 158.933 55.1902ZM184.001 71.1672C184.932 71.1672 185.824 70.7972 186.482 70.1382C187.141 69.4792 187.51 68.5862 187.51 67.6542C187.51 66.7222 187.141 65.8292 186.482 65.1702C185.824 64.5112 184.932 64.1412 184.001 64.1412C183.07 64.1412 182.177 64.5112 181.519 65.1702C180.861 65.8292 180.491 66.7222 180.491 67.6542C180.491 68.5862 180.861 69.4792 181.519 70.1382C182.177 70.7972 183.07 71.1672 184.001 71.1672Z" fill="#722DAD"/>
<path d="M121.163 97.4331H132.778C133.113 97.4331 133.446 97.7671 133.446 98.1021V99.1891C133.446 99.5241 133.113 99.8581 132.778 99.8581H121.163C120.829 99.8581 120.495 99.5241 120.495 99.1891V98.1021C120.494 98.0131 120.51 97.9262 120.543 97.8442C120.576 97.7622 120.626 97.6881 120.688 97.6261C120.75 97.5631 120.824 97.5141 120.906 97.4811C120.988 97.4481 121.075 97.4311 121.163 97.4331ZM121.748 102.451H132.11C132.862 102.451 133.363 103.036 133.363 103.706V107.47C133.363 108.222 132.778 108.724 132.11 108.724H121.748C120.997 108.724 120.495 108.139 120.495 107.47V103.706C120.495 103.036 121.08 102.451 121.748 102.451Z" fill="#8836CF"/>
<path d="M49.801 20.1422C50.971 19.8912 52.141 19.6402 53.394 19.4732C53.896 19.3892 54.397 19.3052 54.899 19.3052C55.65 19.2222 56.402 19.1382 57.071 19.1382H57.656C58.324 19.1382 58.993 19.0542 59.661 19.0542H60.413C60.831 19.0542 61.166 19.0542 61.5 19.1382H62.001C62.418 19.1382 62.92 19.2222 63.338 19.2222C63.756 19.2222 64.091 19.3052 64.508 19.3052C64.675 19.3052 64.842 19.3052 65.009 19.3892L66.763 19.6402C67.349 19.7242 68.184 19.8912 68.853 20.0582C73.533 21.1462 78.044 22.9862 82.139 25.5802C83.5 26.4232 84.812 27.3452 86.066 28.3402C96.344 36.6202 102.277 49.0842 102.277 62.3012V124.952C102.277 131.978 96.595 137.75 89.493 137.75M163.779 41.7232C164.363 41.6402 165.033 41.5562 165.617 41.5562H169.712C170.13 41.5562 170.463 41.6402 170.882 41.6402L171.884 41.7232L172.302 41.8072L173.806 42.0582C174.307 42.1422 174.976 42.2252 175.561 42.3932C179.571 43.3132 183.416 44.9022 186.841 47.1602C187.988 47.8932 189.104 48.6742 190.184 49.5022C198.957 56.6122 204.055 67.2352 203.971 78.5282V132.062C203.974 133.49 203.695 134.906 203.15 136.227C202.606 137.547 201.806 138.747 200.796 139.758C199.787 140.768 198.588 141.569 197.269 142.114C195.949 142.66 194.536 142.939 193.108 142.936" stroke="white" strokeWidth="0.613" strokeLinecap="round" strokeLinejoin="round"/>
<path d="M105.371 123.196L104.118 123.697L102.864 124.032C99.0209 124.952 95.1769 122.61 94.2579 118.846C94.2579 118.762 94.2579 118.679 94.1739 118.595L86.3189 85.8052C85.3159 81.9582 87.5719 77.9432 91.4159 76.8552L92.4189 76.6041L92.8369 76.5201C96.5969 75.6001 100.358 77.8592 101.277 81.6232C101.277 81.7072 101.277 81.7901 101.361 81.8741L109.299 114.664C110.134 117.926 108.547 121.523 105.371 123.196Z" fill="#C197F2"/>
<path d="M105.37 123.196L104.116 123.697L102.863 124.032C99.019 124.952 95.175 122.61 94.256 118.846C94.256 118.762 94.256 118.679 94.173 118.595L84.981 86.3912C84.062 82.4602 87.571 77.8592 91.332 76.8552L92.335 76.6041C94.674 77.4411 96.429 79.3652 97.014 81.7902L105.788 118.177C106.289 119.85 106.122 121.606 105.37 123.196Z" fill="#8B4FD1"/>
<path d="M206.812 130.389C206.478 130.556 206.06 130.723 205.726 130.807L204.724 131.058C201.465 131.895 198.206 129.887 197.37 126.625C197.37 126.541 197.37 126.458 197.287 126.458L190.518 98.4362C189.682 95.1732 191.604 91.7443 194.863 90.7403L195.698 90.4892L196.117 90.4062C199.292 89.6532 202.551 91.5772 203.303 94.7552C203.303 94.8392 203.303 94.9223 203.386 95.0063L210.155 123.028C210.824 125.872 209.486 128.967 206.812 130.389Z" fill="#C197F2"/>
<path d="M206.812 130.389C206.478 130.556 206.06 130.723 205.726 130.807L204.724 131.058C201.465 131.895 198.206 129.887 197.37 126.625C197.37 126.541 197.37 126.457 197.286 126.457L189.432 98.9382C188.596 95.5922 191.687 91.6602 194.863 90.8242L195.698 90.5731C197.704 91.2421 199.208 92.9152 199.71 95.0062L207.23 126.039C207.557 127.497 207.411 129.021 206.812 130.389Z" fill="#8B4FD1"/>
<path d="M92.6699 76.5201C96.4309 75.6001 100.191 77.8592 101.11 81.6232C101.11 81.7072 101.11 81.7901 101.194 81.8741L109.132 114.664C109.967 118.093 108.38 121.69 105.288 123.279L104.034 123.781M194.697 90.9072L195.532 90.6561L195.95 90.5731C199.126 89.8201 202.385 91.7441 203.137 94.9221C203.137 95.0061 203.137 95.0901 203.22 95.0901L209.988 123.112C210.741 126.039 209.404 129.05 206.73 130.472C206.383 130.648 206.019 130.789 205.644 130.891L204.641 131.142" stroke="white" strokeWidth="0.613" strokeLinecap="round" strokeLinejoin="round"/>
<defs>
<linearGradient id="paint0_linear_18_580" x1="31.8149" y1="3.39213" x2="41.25" y2="38.8872" gradientUnits="userSpaceOnUse">
<stop stopColor="white"/>
<stop offset="0.1" stopColor="#F0E6FC"/>
<stop offset="0.24" stopColor="#DFCAF8"/>
<stop offset="0.39" stopColor="#D2B3F6"/>
<stop offset="0.56" stopColor="#C8A3F4"/>
<stop offset="0.74" stopColor="#C39AF2"/>
<stop offset="1" stopColor="#C197F2"/>
</linearGradient>
<linearGradient id="paint1_linear_18_580" x1="86.439" y1="2.57815" x2="79.128" y2="40.1341" gradientUnits="userSpaceOnUse">
<stop stopColor="white"/>
<stop offset="0.02" stopColor="#FDFBFF"/>
<stop offset="0.21" stopColor="#E7D7FA"/>
<stop offset="0.4" stopColor="#D7BBF7"/>
<stop offset="0.59" stopColor="#CBA7F4"/>
<stop offset="0.78" stopColor="#C39BF3"/>
<stop offset="0.97" stopColor="#C197F2"/>
</linearGradient>
<linearGradient id="paint2_linear_18_580" x1="143.999" y1="28.1342" x2="152.054" y2="58.4362" gradientUnits="userSpaceOnUse">
<stop stopColor="white"/>
<stop offset="0.1" stopColor="#F0E6FC"/>
<stop offset="0.24" stopColor="#DFCAF8"/>
<stop offset="0.39" stopColor="#D2B3F6"/>
<stop offset="0.56" stopColor="#C8A3F4"/>
<stop offset="0.74" stopColor="#C39AF2"/>
<stop offset="1" stopColor="#C197F2"/>
</linearGradient>
<linearGradient id="paint3_linear_18_580" x1="190.609" y1="27.4502" x2="184.374" y2="59.5051" gradientUnits="userSpaceOnUse">
<stop stopColor="white"/>
<stop offset="0.02" stopColor="#FDFBFF"/>
<stop offset="0.21" stopColor="#E7D7FA"/>
<stop offset="0.4" stopColor="#D7BBF7"/>
<stop offset="0.59" stopColor="#CBA7F4"/>
<stop offset="0.78" stopColor="#C39BF3"/>
<stop offset="0.97" stopColor="#C197F2"/>
</linearGradient>
</defs>
</svg>
