<svg width="1280" height="832" viewBox="0 0 1280 832" fill="none" xmlns="http://www.w3.org/2000/svg">
<g clip-path="url(#clip0_299_2)">
<path d="M617.902 618.092C624.161 614.747 626.818 605.927 634.067 604.601C641.072 603.319 647.283 612.792 653.883 608.743C658.129 606.136 659.815 598.984 662.508 595.009C669.629 584.518 682.021 576.52 695.086 578.424C704.694 579.826 713.689 585.756 719.634 593.278C722.509 596.914 724.838 604.048 729.144 606.153C735.659 609.335 741.682 600.343 748.269 602.761C756.9 605.927 753.498 616.343 759.011 618.923C763.245 620.905 768.182 619.403 772.537 620.813C777.851 622.531 781.624 627.264 787.101 629.056C789.254 629.759 791.468 630.215 793.652 630.81C794.398 631.014 795.138 631.26 795.902 631.41C795.944 631.419 796.842 631.569 796.836 631.578C796.763 631.756 574.945 627.402 575 627.3C575.158 627.008 585.481 625.53 586.391 625.395C596.642 623.862 608.585 623.066 617.902 618.092Z" fill="white"/>
<path d="M1059.86 575.369C1066.13 572.025 1068.78 563.205 1076.03 561.878C1083.04 560.598 1089.25 570.072 1095.85 566.022C1100.09 563.415 1101.78 556.263 1104.48 552.289C1111.6 541.797 1123.99 533.798 1137.05 535.703C1146.66 537.106 1155.66 543.034 1161.6 550.558C1164.48 554.195 1166.8 561.327 1171.11 563.431C1177.62 566.613 1183.64 557.623 1190.23 560.039C1198.86 563.205 1195.46 573.622 1200.98 576.201C1205.21 578.183 1210.15 576.681 1214.51 578.091C1219.82 579.811 1223.59 584.542 1229.07 586.333C1231.22 587.038 1233.44 587.494 1235.62 588.088C1236.36 588.294 1237.11 588.54 1237.87 588.69C1237.92 588.698 1238.8 588.849 1238.8 588.857C1238.73 589.035 1016.91 584.681 1016.97 584.578C1017.12 584.288 1027.45 582.81 1028.36 582.676C1038.61 581.142 1050.55 580.346 1059.86 575.369Z" fill="white"/>
</g>
<defs>
<clipPath id="clip0_299_2">
<rect width="1280" height="832" fill="white"/>
</clipPath>
</defs>
</svg>
