<svg width="1280" height="832" viewBox="0 0 1280 832" fill="none" xmlns="http://www.w3.org/2000/svg">
<g clip-path="url(#clip0_257_1600)">
<path d="M740.012 629.843C749.339 621.77 761.574 610.203 774.408 608.297C803.965 603.907 887.784 662.849 913.805 676.633C924.475 682.281 939.268 693.022 952.185 690.567C977.434 685.766 1003.07 658.573 1022.51 643.609C1079.16 600.002 1172.54 516.914 1237.01 495.583C1280.56 481.169 1472.31 606.704 1509.09 629.76C1517.87 635.261 1629.36 691.442 1638.11 696.982C1676.66 723.805 1569.78 736.687 1562.72 786.274H1562.71C1560.97 798.498 1559.06 809.872 1557.56 819.637C1560.72 885.158 572.12 807.766 580.447 771.589C581.494 767.037 726.137 641.853 740.012 629.843Z" fill="#8ED0CB"/>
<path d="M1091.76 719.257C1101.08 711.21 1113.33 699.679 1126.16 697.779C1155.72 693.402 1239.53 752.162 1265.56 765.904C1276.22 771.534 1291.02 782.242 1303.94 779.795C1329.19 775.008 1354.82 747.899 1374.26 732.982C1430.91 689.509 1524.29 606.68 1588.76 585.411C1632.31 571.042 1824.06 696.19 1860.84 719.175C1869.62 724.66 1981.11 780.666 1989.87 786.19C2028.41 812.93 1921.53 825.771 1914.47 875.204H1914.47C1912.73 887.389 1910.81 898.729 1909.32 908.465C1912.47 973.784 923.869 896.632 932.198 860.564C933.243 856.027 1077.89 731.232 1091.76 719.257Z" fill="#8ED0CB"/>
<path d="M867.063 749.722C879.716 735.65 998.507 656.688 1017.94 641.765C1074.58 598.278 1167.93 515.417 1232.38 494.144C1239.23 491.885 1249.75 493.078 1262.74 496.778C1264.22 498.43 1265.43 500.109 1266.31 501.798C1275.33 519.134 1229.36 524.993 1237.1 544.328C1247.4 570.086 1317.94 568.854 1336.3 591.365C1347.49 605.085 1294.68 620.433 1326.86 646.127C1363.28 675.206 1415.3 690.151 1457.02 710.169C1461.19 712.171 1500.18 729.511 1496.05 735.994C1492.53 741.537 1357.08 739.122 1341.95 739.406C1286.7 740.446 1229.58 738.815 1174.78 747.514C1143 752.558 1113.17 768.361 1081.63 775.222C1032.68 785.869 985.28 782.625 935.776 781.911C912.559 781.575 805.983 798.397 797.18 763.183C795.164 755.113 862.485 754.81 867.063 749.722Z" fill="#61BDB7"/>
<path d="M1264.44 1139.92C1192.98 1142.04 827.918 1162.98 782.721 1117.17C757.585 1091.69 769.448 1008.12 780.241 945.554C780.402 927.675 783.733 905.074 792.68 886.742C799.255 873.266 808.863 862.097 822.475 856.8C856.275 843.73 890.167 830.952 924.105 818.48C1229.06 706.412 1509.13 672.374 1834.03 708.341C1863.45 711.597 1971.45 725.176 2047.6 743.855C2048.03 766.462 2048.86 788.987 2052.78 812.173C2053.74 817.007 2052.78 821.357 2053.26 826.19C2054.71 835.373 2057.13 844.556 2057.13 853.74C2058.09 873.073 2058.58 891.923 2059.06 911.256C2059.54 945.573 2065.34 980.856 2054.23 1013.72C2048.91 1030.16 2043.11 1046.11 2035.38 1062.06C2029.09 1075.11 2023.78 1088.16 2017.49 1101.69C2016.23 1104.33 2014.95 1106.95 2013.66 1109.54C1965.04 1113.58 1913.49 1111.93 1888.3 1112.68C1680.2 1118.88 1472.5 1133.77 1264.44 1139.92Z" fill="#459C75"/>
<path d="M1600.51 897.173C1661.69 921.898 1841.21 986.163 1866.94 1047.71C1877.06 1071.91 1854.92 1095.47 1826.35 1114.19C1708.45 1118.57 1590.65 1125.17 1472.8 1130.83C1443.81 1116.03 1413.72 1097.81 1380.41 1077.09C1303.25 1029.09 1224.54 983.648 1144.33 940.952C1135.53 931.36 1107.3 915.953 1072.98 898.213C1023.64 872.703 961.681 842.374 926.735 817.568C972.737 800.821 1018.17 785.841 1063.32 772.588C1244.19 786.45 1414.73 822.092 1600.51 897.173Z" fill="#3C8766"/>
<path d="M232.372 821.632C260.957 788.366 477.997 760.76 521.675 755.925C846.575 719.958 1126.65 753.997 1431.61 866.065C1465.54 878.535 1499.44 891.314 1533.23 904.384C1546.85 909.685 1556.46 920.855 1563.03 934.326H1563.03C1571.98 952.658 1575.31 975.259 1575.47 993.137C1586.27 1055.7 1598.13 1139.27 1572.99 1164.75C1527.79 1210.56 1162.74 1189.62 1091.27 1187.51C883.203 1181.35 675.511 1166.47 467.411 1160.26C418.633 1158.81 271.15 1166.38 237.22 1124.18C213.217 1094.33 222.928 894.48 226.13 849.907C226.753 841.217 226.264 828.732 232.372 821.632Z" fill="#64BA94"/>
<path d="M12.514 1212.86C11.061 1205.12 8.64441 1198.36 4.77478 1190.62C-7.79041 1163.07 -11.6526 1132.62 -21.8086 1103.62C-24.2252 1095.89 -27.6056 1088.64 -29.5404 1079.94C-36.3086 1049.49 -42.1056 1020.49 -44.0404 990.523C-47.3021 928.521 -47.5691 866.519 -46.2793 804.52C14.4635 799.199 74.4946 797.434 95.2735 797.127C420.515 792.316 693.331 858.872 981.685 1012.88C1013.77 1030.02 1045.78 1047.49 1077.66 1065.26C1090.5 1072.46 1098.7 1085.61 1103.63 1100.95H1103.63C1110.35 1121.83 1111.01 1146.75 1109.1 1166.2C1112.5 1235.35 1114.52 1327.45 1086.72 1352.49C1036.74 1397.52 678.416 1336.23 608.044 1326.39C413.05 1299.13 219.302 1263.31 24.412 1235.17C22.0695 1230.44 19.8677 1225.6 17.8291 1220.59C16.858 1217.69 12.9958 1215.76 12.514 1212.86Z" fill="#50B186"/>
<path d="M466.953 693.932V756.584C466.953 763.61 461.271 769.382 454.169 769.382H394.423C387.404 769.382 381.638 763.694 381.638 756.584V693.179C381.638 681.301 386.568 670.008 395.258 661.895C396.428 660.724 397.766 659.72 399.102 658.717C403.698 655.287 408.962 652.944 414.477 651.606C415.647 651.355 416.817 651.104 418.07 650.937C418.571 650.853 419.073 650.77 419.574 650.77C420.327 650.686 421.078 650.602 421.747 650.602H422.332C423 650.602 423.669 650.519 424.338 650.519H425.089C425.508 650.519 425.842 650.519 426.176 650.602H426.677C427.095 650.602 427.597 650.686 428.014 650.686C428.432 650.686 428.766 650.77 429.184 650.77C429.351 650.77 429.518 650.77 429.685 650.853L431.44 651.104C432.025 651.188 432.86 651.355 433.529 651.522C438.208 652.61 442.721 654.45 446.816 657.044C448.177 657.887 449.488 658.809 450.743 659.804C461.021 668.252 466.953 680.716 466.953 693.932Z" fill="#C197F2"/>
<path d="M407.96 669.172L400.104 639.478C401.608 637.805 401.44 635.211 399.77 633.706C398.099 632.2 395.508 632.367 394.004 634.04C392.5 635.713 392.667 638.307 394.337 639.813C394.672 640.147 395.091 640.398 395.508 640.565L403.446 670.343L407.958 669.172H407.96Z" fill="url(#paint0_linear_257_1600)"/>
<path d="M455.589 635.044C455.171 632.786 452.999 631.196 450.742 631.615C448.486 632.033 446.899 634.208 447.316 636.467C447.483 637.22 447.734 637.889 448.235 638.474L439.211 670.259L443.723 671.514L452.748 639.645C454.67 638.976 455.923 637.052 455.589 635.044Z" fill="url(#paint1_linear_257_1600)"/>
<path d="M400.437 668.754C400.734 668.754 401.027 668.696 401.301 668.583C401.574 668.469 401.823 668.303 402.033 668.093C402.242 667.884 402.408 667.635 402.522 667.361C402.635 667.087 402.694 666.793 402.694 666.497C402.694 666.2 402.635 665.906 402.522 665.632C402.409 665.358 402.243 665.109 402.033 664.9C401.824 664.69 401.575 664.524 401.301 664.41C401.028 664.296 400.734 664.238 400.438 664.238C399.84 664.238 399.266 664.476 398.843 664.899C398.42 665.323 398.182 665.897 398.182 666.496C398.182 667.095 398.42 667.669 398.843 668.093C399.266 668.516 399.84 668.754 400.438 668.754H400.437ZM407.623 661.811C407.832 661.811 408.038 661.77 408.231 661.69C408.423 661.61 408.599 661.493 408.746 661.346C408.893 661.198 409.01 661.023 409.09 660.83C409.17 660.638 409.211 660.431 409.211 660.222C409.211 660.014 409.17 659.807 409.091 659.614C409.011 659.421 408.894 659.246 408.747 659.099C408.599 658.951 408.424 658.834 408.232 658.754C408.039 658.674 407.833 658.633 407.624 658.633C407.203 658.633 406.799 658.8 406.502 659.098C406.204 659.396 406.037 659.8 406.037 660.222C406.037 660.643 406.204 661.048 406.502 661.346C406.799 661.644 407.203 661.811 407.624 661.811H407.623Z" fill="white"/>
<path d="M568.813 710.076V763.61C568.813 769.633 563.967 774.484 557.95 774.484H506.978C505.55 774.487 504.137 774.208 502.817 773.662C501.498 773.117 500.3 772.316 499.291 771.306C498.281 770.295 497.481 769.095 496.936 767.775C496.391 766.454 496.112 765.039 496.115 763.61V709.491C496.115 699.369 500.293 689.749 507.73 682.807C508.733 681.803 509.819 680.967 510.989 680.13C514.916 677.203 519.345 675.195 524.108 674.108C525.111 673.857 526.113 673.69 527.2 673.522L528.537 673.355C529.122 673.271 529.79 673.188 530.375 673.188H534.47C534.887 673.188 535.222 673.271 535.639 673.271L536.642 673.355L537.06 673.439L538.564 673.69C539.065 673.773 539.734 673.857 540.319 674.024C544.33 674.944 548.173 676.534 551.599 678.792C552.746 679.525 553.861 680.306 554.942 681.134C563.716 688.16 568.813 698.784 568.813 710.076Z" fill="#C197F2"/>
<path d="M518.426 688.913L511.657 663.568C512.911 662.146 512.827 659.888 511.323 658.633C509.903 657.379 507.647 657.462 506.393 658.968C505.14 660.39 505.223 662.648 506.728 663.903C507.062 664.154 507.396 664.405 507.73 664.572L514.498 690L518.426 688.913Z" fill="url(#paint2_linear_257_1600)"/>
<path d="M559.037 659.72C558.702 657.797 556.864 656.458 554.942 656.793C553.02 657.128 551.683 658.968 552.018 660.891C552.184 661.477 552.435 662.062 552.853 662.564L545.165 689.749L549.009 690.837L556.697 663.652C558.368 663.15 559.37 661.477 559.037 659.72Z" fill="url(#paint3_linear_257_1600)"/>
<path d="M511.992 688.578C512.244 688.578 512.494 688.529 512.727 688.432C512.96 688.336 513.172 688.194 513.35 688.015C513.529 687.837 513.67 687.625 513.767 687.392C513.864 687.158 513.913 686.908 513.913 686.656C513.914 686.403 513.864 686.153 513.767 685.92C513.671 685.686 513.529 685.474 513.351 685.296C513.173 685.117 512.961 684.975 512.728 684.879C512.495 684.782 512.245 684.732 511.993 684.732C511.483 684.732 510.994 684.934 510.634 685.295C510.274 685.656 510.071 686.145 510.071 686.655C510.071 687.165 510.273 687.654 510.633 688.015C510.994 688.376 511.482 688.578 511.992 688.578ZM518.173 682.556C518.528 682.556 518.868 682.415 519.118 682.164C519.369 681.913 519.51 681.573 519.51 681.218C519.51 680.863 519.369 680.523 519.118 680.272C518.868 680.021 518.528 679.88 518.173 679.88C517.819 679.88 517.479 680.021 517.228 680.272C516.977 680.523 516.836 680.863 516.836 681.218C516.836 681.573 516.977 681.913 517.228 682.164C517.479 682.415 517.819 682.556 518.173 682.556Z" fill="white"/>
<path d="M457.592 693.932V756.584C457.592 763.61 451.911 769.382 444.808 769.382H394.505C387.485 769.382 381.72 763.694 381.72 756.584V693.179C381.72 681.301 386.649 670.009 395.34 661.895C396.51 660.724 397.847 659.721 399.184 658.717C403.779 655.287 409.044 652.945 414.559 651.606C415.728 651.355 416.899 651.104 418.153 650.937C418.654 650.853 419.154 650.77 419.656 650.77H419.907C420.074 650.77 420.241 650.77 420.408 650.853L422.163 651.104C422.915 651.188 423.584 651.355 424.252 651.522C428.931 652.61 433.443 654.451 437.538 657.044C438.9 657.887 440.211 658.809 441.466 659.804C451.576 668.252 457.592 680.716 457.592 693.932ZM560.791 710.076V763.61C560.791 769.633 555.945 774.484 549.929 774.484H506.978C505.551 774.487 504.137 774.208 502.818 773.662C501.498 773.117 500.3 772.316 499.291 771.306C498.281 770.295 497.481 769.096 496.936 767.775C496.392 766.454 496.113 765.039 496.115 763.61V709.491C496.115 699.369 500.293 689.749 507.73 682.807C508.733 681.803 509.819 680.967 510.989 680.13C514.916 677.203 519.345 675.195 524.108 674.108C525.111 673.857 526.113 673.69 527.2 673.522L528.537 673.355H528.703L529.122 673.439L530.626 673.69C531.127 673.773 531.795 673.857 532.381 674.024C536.416 674.943 540.261 676.556 543.745 678.792C544.892 679.525 546.007 680.306 547.087 681.134C555.694 688.076 560.791 698.784 560.791 710.076Z" fill="#8B4FD1"/>
<path d="M421.077 759.845V783.686C421.161 788.453 418.487 792.886 414.309 795.145C412.736 795.971 410.987 796.401 409.212 796.399C402.61 796.399 397.346 790.712 397.346 783.686V759.845H421.077ZM449.572 759.845V783.686C449.656 788.453 446.981 792.886 442.804 795.145C441.231 795.971 439.482 796.401 437.707 796.399C431.105 796.399 425.841 790.712 425.841 783.686V759.845H449.572ZM529.705 766.371V786.697C529.788 790.795 527.533 794.559 523.939 796.483C522.602 797.152 521.098 797.57 519.594 797.487C513.996 797.487 509.483 792.636 509.483 786.613V766.287H529.705V766.371ZM554.022 766.371V786.697C554.106 790.795 551.767 794.559 548.173 796.483C546.836 797.152 545.333 797.487 543.828 797.487C538.23 797.487 533.717 792.636 533.717 786.613V766.287H554.022V766.371Z" fill="#F78F08"/>
<path d="M466.953 733.581V758.507C466.953 764.53 461.271 769.382 454.169 769.382H394.423C393.42 769.382 392.334 769.298 391.331 769.047C385.733 767.876 381.638 763.61 381.638 758.507V733.581H466.953ZM568.813 743.869V765.116C568.813 770.218 563.967 774.4 557.95 774.4H506.978C506.059 774.4 505.224 774.317 504.387 774.15C499.625 773.146 496.115 769.466 496.115 765.116V743.869H568.813Z" fill="#F78F08"/>
<path d="M415.145 773.552V803.164C415.145 805.088 414.894 807.012 414.309 808.852C412.736 809.677 410.987 810.108 409.212 810.106C402.61 810.106 397.346 804.419 397.346 797.392V773.552H415.145ZM443.639 773.636V803.248C443.639 805.171 443.389 807.095 442.804 808.935C441.231 809.761 439.482 810.192 437.707 810.19C431.105 810.19 425.841 804.502 425.841 797.475V773.636H443.639Z" fill="#B8306F"/>
<path d="M460.937 733.581V758.507C460.937 764.53 455.254 769.382 448.151 769.382H391.332V769.047C385.733 767.876 381.638 763.61 381.638 758.507V733.581H460.938H460.937ZM524.608 766.371V791.632C524.602 793.272 524.377 794.903 523.939 796.483C522.603 797.152 521.098 797.57 519.595 797.487C513.996 797.487 509.483 792.636 509.483 786.613V766.287H524.608V766.371ZM548.926 766.371V791.632C548.92 793.272 548.695 794.903 548.257 796.483C546.92 797.152 545.416 797.487 543.912 797.487C538.314 797.487 533.801 792.636 533.801 786.613V766.287H548.926V766.371Z" fill="#B8306F"/>
<path d="M563.716 743.869V765.116C563.716 770.218 558.869 774.4 552.853 774.4H504.387V774.15C499.625 773.146 496.115 769.466 496.115 765.116V743.869H563.716Z" fill="#B8306F"/>
<path d="M466.953 711.247V716.098C463.443 711.08 459.348 706.06 451.577 706.98C443.723 707.901 436.704 720.113 436.704 720.113L424.337 715.262C424.337 715.262 434.615 702.631 449.572 702.631C458.931 702.631 463.109 707.985 466.953 711.247ZM568.813 724.797V728.98C565.805 724.714 562.295 720.364 555.694 721.201C549.009 722.037 542.992 732.41 542.992 732.41L532.464 728.228C532.464 728.228 541.238 717.437 554.022 717.437C561.961 717.437 565.554 722.121 568.813 724.797Z" fill="#5A2489"/>
<path d="M439.21 711.164H386.231V753.322H439.209V711.164H439.21Z" fill="#8342BD"/>
<path d="M420.326 711.164H364.674V753.322H420.326V711.164Z" fill="#5A2489"/>
<path d="M441.284 670.475C441.325 670 441.27 669.522 441.125 669.068C440.979 668.613 440.745 668.193 440.435 667.83C440.125 667.468 439.747 667.17 439.322 666.956C438.896 666.741 438.433 666.613 437.957 666.579C437.482 666.545 437.005 666.606 436.553 666.759C436.102 666.911 435.685 667.152 435.328 667.467C434.97 667.782 434.679 668.166 434.47 668.594C434.262 669.023 434.141 669.489 434.114 669.966C434.061 670.909 434.381 671.836 435.005 672.545C435.629 673.255 436.506 673.69 437.448 673.757C438.39 673.824 439.32 673.517 440.038 672.903C440.756 672.289 441.203 671.417 441.284 670.475Z" fill="#6A2AA1"/>
<path d="M413.976 666.579C414.286 666.579 414.584 666.456 414.803 666.236C415.022 666.017 415.146 665.719 415.146 665.408C415.146 665.098 415.022 664.8 414.803 664.58C414.584 664.36 414.286 664.237 413.976 664.237C413.665 664.237 413.368 664.36 413.149 664.58C412.929 664.8 412.806 665.098 412.806 665.408C412.806 665.719 412.929 666.017 413.149 666.236C413.368 666.456 413.665 666.579 413.976 666.579Z" fill="#8836CF"/>
<path d="M419.49 695.02C420.576 695.02 421.618 694.588 422.386 693.819C423.154 693.05 423.585 692.008 423.585 690.921C423.585 689.833 423.154 688.791 422.386 688.022C421.618 687.253 420.576 686.821 419.49 686.821C418.404 686.821 417.363 687.253 416.595 688.022C415.827 688.791 415.396 689.833 415.396 690.921C415.396 692.008 415.827 693.05 416.595 693.819C417.363 694.588 418.404 695.02 419.49 695.02Z" fill="#6A2AA1"/>
<path d="M369.605 716.099H383.476C383.81 716.099 384.144 716.433 384.144 716.768V718.273C384.144 718.608 383.81 718.943 383.476 718.943H369.688C369.355 718.943 369.02 718.608 369.02 718.273V716.768C368.936 716.433 369.271 716.099 369.605 716.099ZM370.271 721.954H382.806C383.558 721.954 384.06 722.539 384.06 723.208V728.06C384.06 728.813 383.474 729.315 382.806 729.315H370.272C369.52 729.315 368.935 728.73 368.935 728.06V723.208C368.935 722.539 369.52 721.954 370.272 721.954H370.271Z" fill="#8836CF"/>
<path d="M545.166 724.714H499.959V760.682H545.166V724.714Z" fill="#8342BD"/>
<path d="M529.121 724.714H481.576V760.682H529.121V724.714Z" fill="#5A2489"/>
<path d="M517.255 694.601C517.65 694.601 518.041 694.523 518.406 694.372C518.771 694.221 519.103 693.999 519.382 693.719C519.661 693.44 519.883 693.108 520.034 692.743C520.186 692.377 520.264 691.986 520.264 691.59C520.264 691.195 520.186 690.803 520.035 690.438C519.884 690.073 519.663 689.741 519.383 689.461C519.104 689.181 518.772 688.959 518.408 688.808C518.043 688.657 517.652 688.579 517.256 688.578C516.459 688.578 515.693 688.895 515.129 689.46C514.565 690.024 514.248 690.79 514.248 691.589C514.247 692.387 514.564 693.153 515.128 693.718C515.692 694.283 516.457 694.601 517.255 694.601ZM523.607 686.738C523.873 686.738 524.128 686.633 524.316 686.444C524.504 686.256 524.609 686.001 524.609 685.735C524.609 685.469 524.504 685.214 524.316 685.026C524.128 684.838 523.873 684.732 523.607 684.732C523.341 684.732 523.087 684.838 522.899 685.026C522.711 685.214 522.605 685.469 522.605 685.735C522.605 686.001 522.711 686.256 522.899 686.444C523.087 686.633 523.341 686.738 523.607 686.738ZM548.675 702.715C549.606 702.715 550.498 702.345 551.156 701.686C551.815 701.027 552.184 700.134 552.184 699.202C552.184 698.27 551.815 697.377 551.156 696.718C550.498 696.059 549.606 695.689 548.675 695.689C547.744 695.689 546.851 696.059 546.193 696.718C545.535 697.377 545.165 698.27 545.165 699.202C545.165 700.134 545.535 701.027 546.193 701.686C546.851 702.345 547.744 702.715 548.675 702.715Z" fill="#722DAD"/>
<path d="M485.837 728.981H497.452C497.787 728.981 498.12 729.315 498.12 729.65V730.737C498.12 731.072 497.787 731.406 497.452 731.406H485.837C485.503 731.406 485.169 731.072 485.169 730.737V729.65C485.168 729.561 485.184 729.474 485.217 729.392C485.25 729.31 485.3 729.236 485.362 729.174C485.424 729.111 485.498 729.062 485.58 729.029C485.662 728.996 485.749 728.979 485.837 728.981ZM486.422 733.999H496.784C497.536 733.999 498.037 734.584 498.037 735.254V739.018C498.037 739.77 497.452 740.272 496.784 740.272H486.422C485.671 740.272 485.169 739.687 485.169 739.018V735.254C485.169 734.584 485.754 733.999 486.422 733.999Z" fill="#8836CF"/>
<path d="M414.475 651.69C415.645 651.439 416.815 651.188 418.068 651.021C418.57 650.937 419.071 650.853 419.573 650.853C420.324 650.77 421.076 650.686 421.745 650.686H422.33C422.998 650.686 423.667 650.602 424.335 650.602H425.087C425.505 650.602 425.84 650.602 426.174 650.686H426.675C427.092 650.686 427.594 650.77 428.012 650.77C428.43 650.77 428.765 650.853 429.182 650.853C429.349 650.853 429.516 650.853 429.683 650.937L431.437 651.188C432.023 651.272 432.858 651.439 433.527 651.606C438.207 652.694 442.718 654.534 446.813 657.128C448.174 657.971 449.486 658.893 450.74 659.888C461.018 668.168 466.951 680.632 466.951 693.849V756.5C466.951 763.526 461.269 769.298 454.167 769.298M528.453 673.271C529.037 673.188 529.707 673.104 530.291 673.104H534.386C534.804 673.104 535.137 673.188 535.556 673.188L536.558 673.271L536.976 673.355L538.48 673.606C538.981 673.69 539.65 673.773 540.235 673.941C544.245 674.861 548.09 676.45 551.515 678.708C552.662 679.441 553.778 680.222 554.858 681.05C563.631 688.16 568.729 698.783 568.645 710.076V763.61C568.648 765.038 568.369 766.454 567.824 767.775C567.28 769.095 566.48 770.295 565.47 771.306C564.461 772.316 563.262 773.117 561.943 773.662C560.623 774.208 559.21 774.487 557.782 774.484" stroke="white" stroke-width="0.613" stroke-linecap="round" stroke-linejoin="round"/>
<path d="M470.045 754.744L468.792 755.245L467.538 755.58C463.695 756.5 459.851 754.158 458.932 750.394C458.932 750.31 458.932 750.227 458.848 750.143L450.993 717.353C449.99 713.506 452.246 709.491 456.09 708.403L457.093 708.152L457.511 708.068C461.271 707.148 465.032 709.407 465.951 713.171C465.951 713.255 465.951 713.338 466.035 713.422L473.973 746.212C474.808 749.474 473.221 753.071 470.045 754.744Z" fill="#C197F2"/>
<path d="M470.044 754.744L468.79 755.245L467.537 755.58C463.693 756.5 459.849 754.158 458.93 750.394C458.93 750.31 458.93 750.227 458.847 750.143L449.655 717.939C448.736 714.008 452.245 709.407 456.006 708.403L457.009 708.152C459.348 708.989 461.103 710.913 461.688 713.338L470.462 749.725C470.963 751.398 470.796 753.154 470.044 754.744Z" fill="#8B4FD1"/>
<path d="M571.486 761.937C571.152 762.104 570.734 762.271 570.4 762.355L569.398 762.606C566.139 763.443 562.88 761.435 562.044 758.173C562.044 758.089 562.044 758.006 561.961 758.006L555.192 729.984C554.356 726.721 556.278 723.292 559.537 722.288L560.372 722.037L560.791 721.954C563.966 721.201 567.225 723.125 567.977 726.303C567.977 726.387 567.977 726.47 568.06 726.554L574.829 754.576C575.498 757.42 574.16 760.515 571.486 761.937Z" fill="#C197F2"/>
<path d="M571.486 761.937C571.152 762.104 570.734 762.271 570.4 762.355L569.398 762.606C566.139 763.443 562.88 761.435 562.044 758.173C562.044 758.089 562.044 758.005 561.96 758.005L554.106 730.486C553.27 727.14 556.361 723.208 559.537 722.372L560.372 722.121C562.378 722.79 563.882 724.463 564.384 726.554L571.904 757.587C572.231 759.045 572.085 760.569 571.486 761.937Z" fill="#8B4FD1"/>
<path d="M457.344 708.068C461.105 707.148 464.865 709.407 465.784 713.171C465.784 713.255 465.784 713.338 465.868 713.422L473.806 746.212C474.641 749.641 473.054 753.238 469.962 754.827L468.708 755.329M559.371 722.455L560.206 722.204L560.624 722.121C563.8 721.368 567.059 723.292 567.811 726.47C567.811 726.554 567.811 726.638 567.894 726.638L574.662 754.66C575.415 757.587 574.078 760.598 571.404 762.02C571.057 762.196 570.693 762.337 570.318 762.439L569.315 762.69" stroke="white" stroke-width="0.613" stroke-linecap="round" stroke-linejoin="round"/>
</g>
<defs>
<linearGradient id="paint0_linear_257_1600" x1="396.489" y1="634.94" x2="405.924" y2="670.435" gradientUnits="userSpaceOnUse">
<stop stop-color="white"/>
<stop offset="0.1" stop-color="#F0E6FC"/>
<stop offset="0.24" stop-color="#DFCAF8"/>
<stop offset="0.39" stop-color="#D2B3F6"/>
<stop offset="0.56" stop-color="#C8A3F4"/>
<stop offset="0.74" stop-color="#C39AF2"/>
<stop offset="1" stop-color="#C197F2"/>
</linearGradient>
<linearGradient id="paint1_linear_257_1600" x1="451.113" y1="634.126" x2="443.802" y2="671.682" gradientUnits="userSpaceOnUse">
<stop stop-color="white"/>
<stop offset="0.02" stop-color="#FDFBFF"/>
<stop offset="0.21" stop-color="#E7D7FA"/>
<stop offset="0.4" stop-color="#D7BBF7"/>
<stop offset="0.59" stop-color="#CBA7F4"/>
<stop offset="0.78" stop-color="#C39BF3"/>
<stop offset="0.97" stop-color="#C197F2"/>
</linearGradient>
<linearGradient id="paint2_linear_257_1600" x1="508.673" y1="659.682" x2="516.728" y2="689.984" gradientUnits="userSpaceOnUse">
<stop stop-color="white"/>
<stop offset="0.1" stop-color="#F0E6FC"/>
<stop offset="0.24" stop-color="#DFCAF8"/>
<stop offset="0.39" stop-color="#D2B3F6"/>
<stop offset="0.56" stop-color="#C8A3F4"/>
<stop offset="0.74" stop-color="#C39AF2"/>
<stop offset="1" stop-color="#C197F2"/>
</linearGradient>
<linearGradient id="paint3_linear_257_1600" x1="555.283" y1="658.998" x2="549.048" y2="691.053" gradientUnits="userSpaceOnUse">
<stop stop-color="white"/>
<stop offset="0.02" stop-color="#FDFBFF"/>
<stop offset="0.21" stop-color="#E7D7FA"/>
<stop offset="0.4" stop-color="#D7BBF7"/>
<stop offset="0.59" stop-color="#CBA7F4"/>
<stop offset="0.78" stop-color="#C39BF3"/>
<stop offset="0.97" stop-color="#C197F2"/>
</linearGradient>
<clipPath id="clip0_257_1600">
<rect width="1280" height="832" fill="white"/>
</clipPath>
</defs>
</svg>
