<svg width="1280" height="832" viewBox="0 0 1280 832" fill="none" xmlns="http://www.w3.org/2000/svg">
<g clip-path="url(#clip0_299_2)">
<path d="M782.563 534.63C785.818 532.892 787.197 528.309 790.967 527.62C794.605 526.955 797.833 531.877 801.26 529.773C803.47 528.418 804.344 524.702 805.74 522.636C808.563 518.486 812.965 515.089 817.904 514.14C820.014 507.396 826.309 502.501 833.745 502.501C841.292 502.501 847.653 507.535 849.674 514.425C850.378 514.419 851.097 514.463 851.817 514.568C856.811 515.297 861.484 518.378 864.574 522.286C866.069 524.176 867.276 527.882 869.513 528.975C872.896 530.629 876.024 525.957 879.451 527.214C883.936 528.859 882.17 534.27 885.033 535.611C887.236 536.641 889.8 535.861 892.064 536.593C894.822 537.486 896.787 539.945 899.633 540.876C900.746 541.242 901.898 541.478 903.033 541.787C903.42 541.893 903.802 542.022 904.201 542.099C904.223 542.104 904.688 542.182 904.688 542.186C904.672 542.225 885.005 541.861 861.922 541.418C831.414 540.863 760.255 539.456 760.277 539.415C760.36 539.263 765.72 538.496 766.196 538.425C771.522 537.628 777.729 537.215 782.563 534.63" fill="#E6F5F3"/>
</g>
<defs>
<clipPath id="clip0_299_2">
<rect width="1280" height="832" fill="white"/>
</clipPath>
</defs>
</svg>
