<svg width="393" height="852" viewBox="0 0 393 852" fill="none" xmlns="http://www.w3.org/2000/svg">
<g clip-path="url(#clip0_259_2)">
<path d="M-76.4514 609.457C-68.4731 602.574 -58.0064 592.711 -47.0266 591.086C-21.7414 587.343 49.9631 637.6 72.2233 649.353C81.3515 654.169 94.0059 663.327 105.056 661.234C126.656 657.14 148.586 633.954 165.215 621.195C213.679 584.013 293.566 513.168 348.712 494.98C385.974 482.69 550.005 589.728 581.471 609.386C588.98 614.077 684.356 661.98 691.849 666.704C724.826 689.574 633.388 700.558 627.347 742.839H627.346C625.857 753.261 624.219 762.96 622.941 771.286C625.641 827.152 -220.079 761.164 -212.955 730.317C-212.059 726.436 -88.3216 619.698 -76.4514 609.457" fill="#8ED0CB"/>
<path d="M223.398 685.071C231.363 678.212 241.824 668.382 252.788 666.763C278.047 663.032 349.67 713.121 371.911 724.835C381.024 729.634 393.672 738.762 404.706 736.675C426.283 732.595 448.19 709.487 464.8 696.771C513.21 659.713 593.009 589.107 648.095 570.976C685.316 558.727 849.168 665.408 880.599 685.001C888.1 689.677 983.372 737.418 990.857 742.127C1023.8 764.921 932.46 775.867 926.426 818.005H926.425C924.937 828.393 923.3 838.059 922.024 846.358C924.721 902.038 79.9265 836.272 87.0447 805.526C87.9371 801.658 211.541 695.279 223.398 685.071Z" fill="#8ED0CB"/>
<path d="M32.6031 711.118C43.4022 699.108 144.794 631.712 161.381 618.975C209.72 581.857 289.404 511.134 344.412 492.977C350.259 491.049 359.234 492.067 370.322 495.225C371.588 496.634 372.618 498.067 373.37 499.51C381.069 514.306 341.836 519.307 348.438 535.81C357.232 557.795 417.435 556.743 433.111 575.957C442.664 587.668 397.584 600.767 425.049 622.698C456.135 647.517 500.537 660.274 536.145 677.359C539.705 679.068 572.984 693.868 569.463 699.402C566.453 704.133 450.844 702.071 437.934 702.314C390.77 703.202 342.021 701.81 295.246 709.234C268.118 713.54 242.664 727.028 215.74 732.884C173.962 741.972 133.504 739.202 91.2509 738.593C71.4345 738.306 -19.5304 752.665 -27.0441 722.609C-28.7646 715.72 28.6954 715.462 32.6031 711.118Z" fill="#61BDB7"/>
<path d="M474.018 932.615C434.891 933.774 235.021 945.238 210.275 920.159C196.513 906.208 203.008 860.454 208.917 826.198C209.006 816.41 210.829 804.036 215.727 793.999C219.328 786.621 224.588 780.505 232.041 777.605C250.546 770.45 269.102 763.453 287.683 756.625C454.649 695.268 607.989 676.631 785.873 696.323C801.977 698.106 861.109 705.541 902.803 715.768C903.036 728.145 903.49 740.477 905.635 753.172C906.164 755.818 905.635 758.2 905.9 760.846C906.694 765.874 908.017 770.902 908.017 775.93C908.546 786.515 908.811 796.835 909.075 807.42C909.34 826.209 912.515 845.527 906.429 863.521C903.518 872.519 900.342 881.251 896.108 889.984C892.668 897.129 889.757 904.274 886.317 911.683C885.628 913.128 884.928 914.562 884.217 915.983C857.597 918.196 829.378 917.291 815.582 917.701C701.649 921.096 587.934 929.246 474.018 932.615Z" fill="#459C75"/>
<path d="M658.017 799.709C691.515 813.247 789.803 848.432 803.89 882.13C809.428 895.377 797.307 908.279 781.665 918.529C717.117 920.927 652.622 924.538 588.096 927.64C572.227 919.534 555.751 909.561 537.515 898.215C495.267 871.935 452.175 847.055 408.256 823.679C403.438 818.427 387.986 809.992 369.195 800.279C342.177 786.312 308.257 769.707 289.124 756.126C314.31 746.956 339.185 738.755 363.905 731.499C462.931 739.088 556.305 758.603 658.017 799.709Z" fill="#3C8766"/>
<path d="M-91.0427 758.351C-75.3924 740.137 43.4379 725.023 67.3517 722.376C245.236 702.684 398.576 721.32 565.543 782.678C584.124 789.505 602.679 796.502 621.183 803.657C628.637 806.56 633.898 812.676 637.498 820.051H637.499C642.398 830.088 644.221 842.462 644.309 852.251C650.22 886.507 656.712 932.26 642.949 946.212C618.204 971.29 418.336 959.827 379.208 958.668C265.29 955.299 151.578 947.148 37.6421 943.753C10.9359 942.957 -69.8117 947.101 -88.3883 923.996C-101.53 907.656 -96.2136 798.235 -94.4602 773.831C-94.1193 769.073 -94.3871 762.238 -91.0427 758.351Z" fill="#64BA94"/>
<path d="M-211.416 972.547C-212.212 968.313 -213.535 964.609 -215.653 960.375C-222.533 945.291 -224.647 928.619 -230.208 912.742C-231.531 908.508 -233.382 904.538 -234.441 899.775C-238.147 883.104 -241.32 867.226 -242.38 850.819C-244.166 816.873 -244.312 782.927 -243.606 748.982C-210.349 746.068 -177.481 745.102 -166.105 744.934C11.966 742.3 161.334 778.74 319.209 863.061C336.776 872.444 354.3 882.008 371.755 891.738C378.785 895.679 383.274 902.882 385.975 911.281H385.975C389.651 922.71 390.016 936.352 388.966 947.003C390.831 984.863 391.936 1035.29 376.715 1049C349.351 1073.65 153.168 1040.1 114.639 1034.71C7.87896 1019.78 -98.1989 1000.17 -204.902 984.765C-206.184 982.175 -207.39 979.523 -208.506 976.781C-209.038 975.194 -211.152 974.135 -211.416 972.547" fill="#50B186"/>
<path d="M167.93 721.121V780.497C167.93 787.156 162.545 792.625 155.814 792.625H99.1929C92.5408 792.625 87.0762 787.234 87.0762 780.497V720.407C87.0762 709.151 91.7485 698.449 99.9844 690.76C101.093 689.65 102.361 688.698 103.628 687.748C107.983 684.497 112.971 682.277 118.198 681.009C119.307 680.771 120.416 680.533 121.603 680.375C122.078 680.296 122.554 680.217 123.029 680.217C123.742 680.137 124.454 680.058 125.088 680.058H125.642C126.275 680.058 126.91 679.979 127.543 679.979H128.255C128.652 679.979 128.969 679.979 129.285 680.058H129.76C130.156 680.058 130.631 680.137 131.027 680.137C131.423 680.137 131.74 680.217 132.136 680.217C132.294 680.217 132.452 680.217 132.611 680.296L134.274 680.533C134.828 680.613 135.62 680.771 136.253 680.93C140.688 681.961 144.965 683.705 148.845 686.162C150.135 686.961 151.378 687.835 152.567 688.778C162.307 696.785 167.93 708.596 167.93 721.121V721.121Z" fill="#C197F2"/>
<path d="M112.021 697.657L104.576 669.515C106.002 667.929 105.843 665.472 104.26 664.045C102.676 662.618 100.221 662.776 98.7952 664.362C97.3703 665.948 97.5284 668.405 99.1115 669.832C99.4287 670.149 99.8252 670.387 100.221 670.545L107.744 698.766L112.02 697.657H112.021Z" fill="url(#paint0_linear_259_2)"/>
<path d="M157.16 665.313C156.763 663.173 154.705 661.667 152.566 662.064C150.429 662.46 148.924 664.521 149.32 666.661C149.478 667.375 149.716 668.009 150.191 668.563L141.639 698.687L145.914 699.876L154.467 669.673C156.289 669.039 157.476 667.216 157.16 665.313V665.313Z" fill="url(#paint1_linear_259_2)"/>
<path d="M104.893 697.26C105.174 697.26 105.452 697.205 105.711 697.098C105.97 696.99 106.206 696.832 106.405 696.634C106.603 696.435 106.761 696.199 106.868 695.94C106.976 695.68 107.031 695.402 107.031 695.121C107.031 694.84 106.976 694.561 106.869 694.302C106.761 694.042 106.604 693.806 106.405 693.607C106.207 693.408 105.971 693.251 105.712 693.143C105.452 693.036 105.174 692.98 104.894 692.98C104.327 692.98 103.783 693.206 103.382 693.607C102.981 694.008 102.756 694.553 102.756 695.12C102.756 695.688 102.981 696.232 103.382 696.633C103.783 697.035 104.327 697.26 104.894 697.26H104.893ZM111.703 690.68C111.901 690.68 112.096 690.641 112.279 690.566C112.461 690.49 112.627 690.379 112.767 690.239C112.907 690.1 113.018 689.934 113.093 689.751C113.169 689.568 113.208 689.372 113.208 689.175C113.208 688.977 113.169 688.781 113.094 688.598C113.018 688.415 112.907 688.249 112.768 688.11C112.628 687.97 112.462 687.859 112.28 687.783C112.097 687.707 111.901 687.668 111.704 687.668C111.305 687.668 110.922 687.827 110.64 688.109C110.358 688.392 110.199 688.775 110.199 689.174C110.199 689.574 110.358 689.957 110.64 690.239C110.922 690.521 111.305 690.68 111.704 690.68H111.703Z" fill="white"/>
<path d="M264.463 736.421V787.156C264.463 792.863 259.87 797.46 254.167 797.46H205.861C204.509 797.463 203.169 797.198 201.919 796.681C200.668 796.165 199.533 795.406 198.576 794.448C197.62 793.491 196.861 792.354 196.345 791.102C195.829 789.851 195.564 788.51 195.567 787.156V735.866C195.567 726.274 199.526 717.157 206.574 710.578C207.525 709.627 208.554 708.834 209.663 708.041C213.384 705.267 217.581 703.364 222.095 702.334C223.046 702.096 223.996 701.937 225.026 701.778L226.293 701.62C226.847 701.541 227.481 701.462 228.035 701.462H231.915C232.311 701.462 232.628 701.541 233.024 701.541L233.974 701.62L234.37 701.7L235.795 701.937C236.271 702.016 236.904 702.096 237.459 702.254C241.26 703.126 244.902 704.633 248.149 706.773C249.236 707.467 250.293 708.208 251.317 708.993C259.632 715.651 264.463 725.719 264.463 736.421V736.421Z" fill="#C197F2"/>
<path d="M216.711 716.365L210.295 692.345C211.484 690.998 211.404 688.857 209.979 687.668C208.633 686.48 206.495 686.558 205.307 687.986C204.119 689.333 204.198 691.473 205.624 692.663C205.94 692.901 206.257 693.138 206.574 693.297L212.988 717.395L216.711 716.365Z" fill="url(#paint2_linear_259_2)"/>
<path d="M255.197 688.698C254.88 686.876 253.138 685.607 251.316 685.924C249.496 686.242 248.228 687.986 248.545 689.808C248.703 690.364 248.941 690.918 249.337 691.394L242.051 717.157L245.694 718.188L252.98 692.425C254.564 691.949 255.513 690.364 255.197 688.698Z" fill="url(#paint3_linear_259_2)"/>
<path d="M210.613 716.048C210.852 716.048 211.089 716.001 211.31 715.909C211.531 715.818 211.731 715.683 211.9 715.514C212.07 715.345 212.204 715.144 212.295 714.923C212.387 714.702 212.434 714.465 212.434 714.225C212.434 713.986 212.387 713.749 212.296 713.528C212.204 713.307 212.07 713.106 211.901 712.937C211.732 712.767 211.531 712.633 211.31 712.541C211.089 712.45 210.853 712.402 210.614 712.402C210.131 712.402 209.668 712.594 209.326 712.936C208.985 713.278 208.793 713.741 208.792 714.225C208.792 714.708 208.984 715.172 209.325 715.514C209.667 715.855 210.13 716.048 210.613 716.048V716.048ZM216.471 710.34C216.807 710.34 217.129 710.207 217.367 709.969C217.604 709.731 217.738 709.408 217.738 709.072C217.738 708.736 217.604 708.413 217.367 708.175C217.129 707.938 216.807 707.804 216.471 707.804C216.135 707.804 215.813 707.938 215.575 708.175C215.337 708.413 215.204 708.736 215.204 709.072C215.204 709.408 215.337 709.731 215.575 709.969C215.813 710.207 216.135 710.34 216.471 710.34Z" fill="white"/>
<path d="M159.058 721.121V780.497C159.058 787.156 153.674 792.625 146.942 792.625H99.2705C92.6177 792.625 87.1538 787.234 87.1538 780.497V720.407C87.1538 709.151 91.8253 698.45 100.062 690.76C101.171 689.65 102.438 688.699 103.704 687.748C108.06 684.497 113.049 682.277 118.275 681.009C119.384 680.771 120.493 680.533 121.682 680.375C122.156 680.296 122.63 680.217 123.106 680.217H123.344C123.502 680.217 123.66 680.217 123.819 680.296L125.482 680.533C126.195 680.613 126.828 680.771 127.462 680.93C131.896 681.961 136.172 683.705 140.053 686.162C141.343 686.961 142.586 687.835 143.775 688.778C153.357 696.785 159.058 708.596 159.058 721.121V721.121ZM256.86 736.421V787.156C256.86 792.863 252.267 797.461 246.565 797.461H205.861C204.508 797.463 203.168 797.198 201.918 796.681C200.668 796.165 199.532 795.406 198.576 794.448C197.619 793.491 196.861 792.354 196.345 791.102C195.828 789.851 195.564 788.51 195.567 787.156V735.866C195.567 726.274 199.526 717.157 206.574 710.578C207.524 709.627 208.553 708.834 209.662 708.041C213.384 705.267 217.581 703.364 222.095 702.334C223.046 702.096 223.995 701.937 225.025 701.778L226.292 701.62H226.45L226.847 701.7L228.272 701.937C228.747 702.016 229.381 702.096 229.935 702.254C233.759 703.125 237.403 704.654 240.705 706.773C241.792 707.468 242.849 708.208 243.873 708.993C252.029 715.572 256.86 725.719 256.86 736.421V736.421Z" fill="#8B4FD1"/>
<path d="M124.453 783.587V806.181C124.533 810.699 121.998 814.9 118.039 817.041C116.549 817.823 114.891 818.231 113.208 818.23C106.952 818.23 101.963 812.84 101.963 806.181V783.587H124.453ZM151.458 783.587V806.181C151.537 810.699 149.003 814.9 145.043 817.041C143.553 817.823 141.895 818.231 140.213 818.23C133.957 818.23 128.968 812.84 128.968 806.181V783.587H151.458ZM227.399 789.771V809.034C227.479 812.918 225.341 816.486 221.936 818.309C220.669 818.943 219.243 819.339 217.818 819.261C212.512 819.261 208.236 814.663 208.236 808.955V789.692H227.399V789.771ZM250.445 789.771V809.034C250.525 812.918 248.308 816.486 244.902 818.309C243.635 818.943 242.21 819.261 240.785 819.261C235.479 819.261 231.202 814.663 231.202 808.955V789.692H250.445V789.771Z" fill="#F78F08"/>
<path d="M167.93 758.696V782.319C167.93 788.027 162.545 792.625 155.814 792.625H99.1929C98.2423 792.625 97.2132 792.545 96.2626 792.308C90.9569 791.198 87.0762 787.155 87.0762 782.319V758.696H167.93ZM264.462 768.447V788.582C264.462 793.417 259.87 797.381 254.167 797.381H205.861C204.99 797.381 204.198 797.302 203.406 797.144C198.893 796.192 195.567 792.705 195.567 788.582V768.447H264.462V768.447Z" fill="#F78F08"/>
<path d="M118.831 796.577V824.64C118.831 826.464 118.593 828.287 118.039 830.031C116.549 830.813 114.891 831.221 113.208 831.219C106.952 831.219 101.963 825.829 101.963 819.171V796.577H118.831V796.577ZM145.835 796.657V824.72C145.835 826.542 145.598 828.366 145.043 830.11C143.553 830.892 141.896 831.301 140.213 831.299C133.957 831.299 128.968 825.908 128.968 819.249V796.657H145.835Z" fill="#B8306F"/>
<path d="M162.228 758.696V782.319C162.228 788.027 156.842 792.625 150.111 792.625H96.2631V792.308C90.9574 791.198 87.0767 787.155 87.0767 782.319V758.696H162.228H162.228ZM222.569 789.771V813.712C222.563 815.265 222.35 816.812 221.935 818.309C220.668 818.943 219.243 819.339 217.818 819.261C212.512 819.261 208.235 814.663 208.235 808.955V789.692H222.569V789.771V789.771ZM245.615 789.771V813.712C245.609 815.265 245.396 816.812 244.981 818.309C243.714 818.943 242.289 819.261 240.864 819.261C235.558 819.261 231.281 814.663 231.281 808.955V789.692H245.615V789.771V789.771Z" fill="#B8306F"/>
<path d="M259.632 768.447V788.582C259.632 793.417 255.038 797.381 249.337 797.381H203.406V797.144C198.893 796.192 195.567 792.705 195.567 788.582V768.447H259.632V768.447Z" fill="#B8306F"/>
<path d="M167.929 737.53V742.128C164.603 737.372 160.723 732.615 153.358 733.487C145.914 734.359 139.262 745.933 139.262 745.933L127.542 741.336C127.542 741.336 137.282 729.365 151.457 729.365C160.327 729.365 164.286 734.439 167.929 737.53V737.53ZM264.462 750.372V754.336C261.611 750.294 258.285 746.171 252.029 746.964C245.694 747.757 239.992 757.587 239.992 757.587L230.014 753.623C230.014 753.623 238.329 743.397 250.445 743.397C257.968 743.397 261.374 747.836 264.462 750.372Z" fill="#5A2489"/>
<path d="M141.638 737.452H91.4297V777.405H141.637V737.452H141.638Z" fill="#8342BD"/>
<path d="M123.741 737.452H71V777.405H123.741V737.452Z" fill="#5A2489"/>
<path d="M143.603 698.891C143.641 698.441 143.59 697.987 143.452 697.557C143.314 697.127 143.092 696.728 142.798 696.385C142.505 696.041 142.146 695.759 141.743 695.556C141.34 695.352 140.901 695.231 140.45 695.199C140 695.167 139.548 695.225 139.12 695.369C138.692 695.514 138.297 695.742 137.958 696.041C137.619 696.339 137.343 696.702 137.146 697.109C136.948 697.515 136.834 697.957 136.808 698.408C136.758 699.303 137.061 700.181 137.652 700.853C138.243 701.525 139.075 701.938 139.968 702.001C140.86 702.065 141.742 701.774 142.422 701.192C143.102 700.61 143.526 699.784 143.603 698.891Z" fill="#6A2AA1"/>
<path d="M117.723 695.199C118.017 695.199 118.299 695.082 118.507 694.874C118.715 694.666 118.832 694.384 118.832 694.089C118.832 693.795 118.715 693.513 118.507 693.304C118.299 693.096 118.017 692.979 117.723 692.979C117.429 692.979 117.147 693.096 116.939 693.304C116.731 693.513 116.614 693.795 116.614 694.089C116.614 694.384 116.731 694.666 116.939 694.874C117.147 695.082 117.429 695.199 117.723 695.199Z" fill="#8836CF"/>
<path d="M122.949 722.152C123.978 722.152 124.965 721.743 125.693 721.014C126.421 720.286 126.83 719.298 126.83 718.267C126.83 717.237 126.421 716.249 125.693 715.52C124.965 714.792 123.978 714.383 122.949 714.383C121.92 714.383 120.933 714.792 120.205 715.52C119.477 716.249 119.068 717.237 119.068 718.267C119.068 719.298 119.477 720.286 120.205 721.014C120.933 721.743 121.92 722.152 122.949 722.152Z" fill="#6A2AA1"/>
<path d="M75.6723 742.129H88.8182C89.1345 742.129 89.4516 742.445 89.4516 742.763V744.189C89.4516 744.507 89.1353 744.824 88.8182 744.824H75.7518C75.4355 744.824 75.1184 744.507 75.1184 744.189V742.763C75.0389 742.445 75.356 742.129 75.6723 742.129ZM76.3041 747.678H88.1832C88.896 747.678 89.3713 748.232 89.3713 748.866V753.464C89.3713 754.178 88.8166 754.653 88.1832 754.653H76.3049C75.592 754.653 75.0381 754.099 75.0381 753.464V748.866C75.0381 748.232 75.592 747.678 76.3049 747.678H76.3041Z" fill="#8836CF"/>
<path d="M242.052 750.294H199.21V784.381H242.052V750.294Z" fill="#8342BD"/>
<path d="M226.846 750.294H181.788V784.381H226.846V750.294Z" fill="#5A2489"/>
<path d="M215.6 721.755C215.975 721.755 216.346 721.681 216.691 721.538C217.037 721.395 217.352 721.185 217.616 720.92C217.881 720.655 218.091 720.34 218.235 719.994C218.378 719.648 218.452 719.277 218.452 718.902C218.452 718.527 218.378 718.156 218.235 717.81C218.092 717.464 217.882 717.149 217.618 716.884C217.353 716.619 217.039 716.409 216.693 716.265C216.347 716.122 215.976 716.048 215.602 716.048C214.846 716.047 214.121 716.348 213.586 716.883C213.051 717.418 212.751 718.144 212.75 718.901C212.75 719.657 213.05 720.383 213.585 720.919C214.119 721.454 214.844 721.755 215.6 721.755V721.755ZM221.621 714.304C221.873 714.304 222.114 714.204 222.292 714.025C222.47 713.847 222.57 713.605 222.57 713.353C222.57 713.101 222.47 712.859 222.292 712.681C222.114 712.503 221.873 712.402 221.621 712.402C221.369 712.402 221.127 712.503 220.949 712.681C220.771 712.859 220.671 713.101 220.671 713.353C220.671 713.605 220.771 713.847 220.949 714.025C221.127 714.204 221.369 714.304 221.621 714.304ZM245.377 729.445C246.259 729.445 247.105 729.094 247.729 728.47C248.353 727.845 248.703 726.999 248.703 726.116C248.703 725.233 248.353 724.386 247.729 723.761C247.105 723.137 246.259 722.786 245.377 722.786C244.495 722.786 243.649 723.137 243.025 723.761C242.402 724.386 242.051 725.233 242.051 726.116C242.051 726.999 242.402 727.845 243.025 728.47C243.649 729.094 244.495 729.445 245.377 729.445V729.445Z" fill="#722DAD"/>
<path d="M185.826 754.337H196.834C197.151 754.337 197.467 754.653 197.467 754.971V756.001C197.467 756.319 197.151 756.635 196.834 756.635H185.826C185.509 756.635 185.193 756.319 185.193 756.001V754.971C185.192 754.887 185.207 754.804 185.239 754.727C185.27 754.649 185.317 754.579 185.376 754.52C185.435 754.461 185.505 754.414 185.583 754.383C185.66 754.351 185.743 754.336 185.826 754.337ZM186.38 759.093H196.2C196.913 759.093 197.388 759.647 197.388 760.282V763.849C197.388 764.562 196.834 765.038 196.2 765.038H186.38C185.668 765.038 185.193 764.483 185.193 763.849V760.282C185.193 759.647 185.747 759.093 186.38 759.093Z" fill="#8836CF"/>
<path d="M118.196 681.089C119.304 680.851 120.413 680.613 121.601 680.455C122.077 680.375 122.552 680.296 123.027 680.296C123.739 680.217 124.452 680.137 125.085 680.137H125.64C126.273 680.137 126.907 680.058 127.54 680.058H128.253C128.649 680.058 128.966 680.058 129.283 680.137H129.758C130.154 680.137 130.629 680.217 131.025 680.217C131.421 680.217 131.738 680.296 132.134 680.296C132.292 680.296 132.45 680.296 132.608 680.375L134.271 680.613C134.826 680.693 135.617 680.851 136.252 681.009C140.686 682.04 144.962 683.784 148.843 686.242C150.133 687.041 151.375 687.914 152.565 688.858C162.305 696.705 167.928 708.517 167.928 721.042V780.417C167.928 787.076 162.543 792.545 155.812 792.545M226.213 701.54C226.767 701.462 227.401 701.382 227.955 701.382H231.836C232.231 701.382 232.548 701.462 232.944 701.462L233.894 701.54L234.29 701.62L235.715 701.858C236.191 701.937 236.824 702.016 237.379 702.175C241.179 703.047 244.822 704.553 248.069 706.693C249.156 707.388 250.213 708.128 251.237 708.913C259.551 715.651 264.383 725.719 264.303 736.421V787.155C264.306 788.509 264.042 789.85 263.525 791.102C263.009 792.353 262.251 793.491 261.294 794.448C260.338 795.406 259.201 796.165 257.951 796.682C256.701 797.199 255.361 797.463 254.008 797.46" stroke="white" stroke-width="0.613" stroke-linecap="round" stroke-linejoin="round"/>
<path d="M170.86 778.753L169.672 779.228L168.484 779.545C164.842 780.417 161.199 778.197 160.328 774.63C160.328 774.55 160.328 774.472 160.248 774.392L152.805 743.317C151.854 739.671 153.992 735.866 157.635 734.836L158.586 734.598L158.981 734.518C162.545 733.646 166.109 735.786 166.98 739.354C166.98 739.433 166.98 739.512 167.059 739.592L174.582 770.667C175.374 773.758 173.869 777.167 170.86 778.753V778.753Z" fill="#C197F2"/>
<path d="M170.859 778.753L169.671 779.228L168.483 779.545C164.84 780.417 161.197 778.197 160.326 774.63C160.326 774.551 160.326 774.472 160.248 774.392L151.536 743.873C150.665 740.147 153.991 735.786 157.555 734.836L158.505 734.598C160.723 735.39 162.385 737.214 162.94 739.512L171.255 773.996C171.73 775.582 171.572 777.246 170.859 778.753V778.753Z" fill="#8B4FD1"/>
<path d="M266.996 785.57C266.679 785.728 266.283 785.887 265.966 785.966L265.016 786.204C261.928 786.996 258.839 785.094 258.047 782.003C258.047 781.923 258.047 781.844 257.968 781.844L251.554 755.287C250.761 752.196 252.583 748.946 255.671 747.994L256.463 747.757L256.86 747.678C259.868 746.964 262.957 748.788 263.67 751.8C263.67 751.879 263.67 751.958 263.748 752.038L270.164 778.594C270.797 781.289 269.529 784.222 266.996 785.57Z" fill="#C197F2"/>
<path d="M266.996 785.57C266.679 785.728 266.283 785.887 265.966 785.966L265.016 786.204C261.928 786.996 258.84 785.094 258.047 782.003C258.047 781.923 258.047 781.843 257.968 781.843L250.524 755.763C249.733 752.592 252.662 748.866 255.672 748.074L256.463 747.836C258.364 748.47 259.789 750.056 260.265 752.038L267.392 781.447C267.702 782.829 267.563 784.273 266.996 785.57V785.57Z" fill="#8B4FD1"/>
<path d="M158.823 734.518C162.387 733.646 165.951 735.786 166.822 739.354C166.822 739.433 166.822 739.512 166.901 739.592L174.424 770.667C175.216 773.916 173.711 777.325 170.781 778.831L169.593 779.307M255.514 748.153L256.306 747.915L256.702 747.836C259.711 747.123 262.8 748.946 263.513 751.958C263.513 752.038 263.513 752.116 263.591 752.116L270.006 778.673C270.718 781.447 269.452 784.301 266.917 785.649C266.588 785.815 266.244 785.948 265.888 786.046L264.938 786.283" stroke="white" stroke-width="0.613" stroke-linecap="round" stroke-linejoin="round"/>
<path d="M-24.2064 635.432C-20.0052 633.187 -18.2222 627.267 -13.3575 626.377C-8.6556 625.517 -4.48705 631.875 -0.0579238 629.157C2.7917 627.408 3.92345 622.608 5.73092 619.94C10.5101 612.899 18.8269 607.531 27.5956 608.809C34.0439 609.749 40.0811 613.73 44.0705 618.778C46.0001 621.218 47.5633 626.006 50.4537 627.419C54.8258 629.554 58.8682 623.519 63.2892 625.142C69.082 627.268 66.7983 634.258 70.4987 635.989C73.3402 637.319 76.6539 636.311 79.5768 637.258C83.1429 638.411 85.675 641.587 89.351 642.79C90.7961 643.262 92.282 643.568 93.7475 643.968C94.2482 644.104 94.7449 644.27 95.2578 644.37C95.2863 644.376 95.8888 644.477 95.8847 644.483C95.8359 644.602 -53.0364 641.68 -52.9998 641.611C-52.894 641.416 -45.9653 640.424 -45.3546 640.333C-38.4748 639.304 -30.4593 638.77 -24.2064 635.432" fill="white"/>
<path d="M272.415 606.759C276.619 604.514 278.398 598.595 283.267 597.704C287.969 596.845 292.138 603.203 296.563 600.485C299.414 598.736 300.544 593.936 302.355 591.268C307.134 584.227 315.449 578.858 324.217 580.137C330.668 581.078 336.705 585.057 340.696 590.106C342.627 592.548 344.188 597.334 347.076 598.746C351.447 600.882 355.49 594.848 359.912 596.47C365.704 598.595 363.422 605.586 367.121 607.317C369.964 608.647 373.277 607.639 376.202 608.585C379.766 609.74 382.3 612.915 385.978 614.117C387.419 614.59 388.908 614.896 390.371 615.295C390.871 615.433 391.371 615.598 391.881 615.699C391.913 615.704 392.509 615.805 392.509 615.811C392.461 615.93 243.589 613.008 243.626 612.939C243.727 612.744 250.66 611.753 251.269 611.662C258.151 610.633 266.166 610.099 272.415 606.759" fill="white"/>
<path d="M86.3049 579.417C88.4899 578.25 89.4152 575.174 91.9458 574.712C94.3872 574.265 96.5536 577.569 98.8538 576.157C100.337 575.247 100.924 572.753 101.86 571.367C103.755 568.582 106.71 566.301 110.024 565.665C111.44 561.138 115.665 557.853 120.656 557.853C125.721 557.853 129.99 561.232 131.347 565.856C131.819 565.852 132.302 565.882 132.785 565.952C136.137 566.441 139.273 568.509 141.347 571.132C142.35 572.4 143.16 574.888 144.661 575.622C146.932 576.731 149.031 573.596 151.331 574.439C154.341 575.543 153.156 579.175 155.077 580.075C156.556 580.766 158.277 580.242 159.797 580.734C161.647 581.333 162.966 582.984 164.876 583.608C165.623 583.854 166.396 584.013 167.158 584.22C167.418 584.291 167.674 584.378 167.942 584.43C167.957 584.433 168.269 584.485 168.269 584.488C168.258 584.514 155.059 584.27 139.567 583.972C119.091 583.599 71.3331 582.656 71.3479 582.628C71.4037 582.526 75.0007 582.011 75.3203 581.963C78.8951 581.429 83.0608 581.151 86.3049 579.417" fill="#E6F5F3"/>
</g>
<defs>
<linearGradient id="paint0_linear_259_2" x1="101.15" y1="665.214" x2="110.092" y2="698.853" gradientUnits="userSpaceOnUse">
<stop stop-color="white"/>
<stop offset="0.1" stop-color="#F0E6FC"/>
<stop offset="0.24" stop-color="#DFCAF8"/>
<stop offset="0.39" stop-color="#D2B3F6"/>
<stop offset="0.56" stop-color="#C8A3F4"/>
<stop offset="0.74" stop-color="#C39AF2"/>
<stop offset="1" stop-color="#C197F2"/>
</linearGradient>
<linearGradient id="paint1_linear_259_2" x1="152.918" y1="664.443" x2="145.99" y2="700.035" gradientUnits="userSpaceOnUse">
<stop stop-color="white"/>
<stop offset="0.02" stop-color="#FDFBFF"/>
<stop offset="0.21" stop-color="#E7D7FA"/>
<stop offset="0.4" stop-color="#D7BBF7"/>
<stop offset="0.59" stop-color="#CBA7F4"/>
<stop offset="0.78" stop-color="#C39BF3"/>
<stop offset="0.97" stop-color="#C197F2"/>
</linearGradient>
<linearGradient id="paint2_linear_259_2" x1="207.467" y1="688.663" x2="215.101" y2="717.38" gradientUnits="userSpaceOnUse">
<stop stop-color="white"/>
<stop offset="0.1" stop-color="#F0E6FC"/>
<stop offset="0.24" stop-color="#DFCAF8"/>
<stop offset="0.39" stop-color="#D2B3F6"/>
<stop offset="0.56" stop-color="#C8A3F4"/>
<stop offset="0.74" stop-color="#C39AF2"/>
<stop offset="1" stop-color="#C197F2"/>
</linearGradient>
<linearGradient id="paint3_linear_259_2" x1="251.64" y1="688.014" x2="245.73" y2="718.392" gradientUnits="userSpaceOnUse">
<stop stop-color="white"/>
<stop offset="0.02" stop-color="#FDFBFF"/>
<stop offset="0.21" stop-color="#E7D7FA"/>
<stop offset="0.4" stop-color="#D7BBF7"/>
<stop offset="0.59" stop-color="#CBA7F4"/>
<stop offset="0.78" stop-color="#C39BF3"/>
<stop offset="0.97" stop-color="#C197F2"/>
</linearGradient>
<clipPath id="clip0_259_2">
<rect width="393" height="852" fill="white"/>
</clipPath>
</defs>
</svg>
