<svg width="1920" height="717" viewBox="0 0 1920 717" fill="none" xmlns="http://www.w3.org/2000/svg">
<g clipPath="url(#clip0_44_15)">
<path d="M1944.16 236.855C1944.16 247.863 1943.36 258.871 1941.86 269.879C1940.7 278.403 1939.01 286.924 1936.88 295.358C1904.64 422.307 1775.81 498.922 1649.18 466.606C1595.35 452.872 1548.04 420.598 1515.56 375.434C1495.71 347.825 1481.98 316.309 1475.42 282.93C1475.33 282.574 1475.24 282.131 1475.15 281.775L1474.62 278.846L1474.18 276.093L1474.09 275.65C1473.91 274.762 1473.82 273.874 1473.65 272.986C1473.47 272.099 1473.38 271.3 1473.29 270.411C1473.29 270.235 1473.2 269.968 1473.2 269.79C1473.11 269.346 1473.03 268.902 1473.03 268.459C1473.03 268.015 1472.94 267.572 1472.85 267.127L1472.58 264.731C1472.58 264.464 1472.49 264.198 1472.49 263.931C1472.41 263.221 1472.32 262.422 1472.23 261.712C1472.05 260.469 1471.96 259.227 1471.87 257.895C1471.87 257.45 1471.79 256.918 1471.79 256.474C1471.7 254.876 1471.52 253.279 1471.43 251.681C1471.34 250.97 1471.34 250.171 1471.25 249.371V248.75C1471.25 247.773 1471.16 246.798 1471.16 245.821V242.802C1471.16 241.827 1471.16 240.85 1471.08 239.873C1470.99 238.896 1471.08 237.919 1471.08 236.944C1471.08 227.71 1471.61 218.389 1472.67 209.245C1473.38 203.12 1474.36 197.082 1475.51 191.134C1475.77 189.626 1476.13 188.027 1476.48 186.519C1477.09 183.698 1477.74 180.886 1478.43 178.084C1479.67 173.291 1481 168.586 1482.51 163.969C1483.13 161.928 1483.84 159.975 1484.54 158.021C1487.47 149.676 1490.93 141.509 1494.74 133.519C1496.24 130.412 1497.84 127.394 1499.43 124.375C1540.72 47.7621 1620.73 0 1707.66 0C1709.26 0 1710.76 -8.88854e-06 1712.35 0.0883239C1725.91 0.354621 1739.47 1.77575 1752.76 4.35039C1771.28 7.90189 1789.37 13.7605 1806.46 21.661C1831.71 33.2911 1854.76 49.3598 1874.5 69.0671C1876.82 71.3768 1879.02 73.6838 1881.25 76.0818C1885.97 81.17 1890.47 86.4726 1894.7 91.9713C1896.67 94.4576 1898.61 97.0323 1900.38 99.6069C1903.39 103.868 1906.24 108.128 1908.98 112.568L1909.33 113.189C1910.76 115.498 1912.18 117.806 1913.5 120.203C1918.09 128.257 1922.16 136.587 1925.72 145.149C1926.96 148.256 1928.2 151.275 1929.36 154.471C1930.34 157.044 1931.22 159.62 1932.1 162.195C1933.26 165.833 1934.41 169.473 1935.47 173.113C1936.18 175.777 1936.88 178.44 1937.51 181.103C1937.86 182.612 1938.22 184.21 1938.57 185.72C1939.19 188.561 1939.81 191.49 1940.35 194.42L1940.61 195.929C1940.7 196.373 1940.79 196.905 1940.87 197.348C1941.05 198.415 1941.23 199.48 1941.4 200.545C1943.36 212.264 1944.23 224.515 1944.16 236.855Z" fill="#381956"/>
<path d="M1946.73 237.388C1946.73 248.396 1945.92 259.404 1944.42 270.411C1943.27 278.934 1941.58 287.457 1939.45 295.89C1919.16 375.434 1855 438.732 1776.94 463.5C1665.73 461.28 1575.46 381.915 1553.84 272.631C1553.75 272.277 1553.66 271.832 1553.57 271.478L1553.04 268.547L1552.6 265.795L1552.5 265.352C1552.34 264.465 1552.25 263.576 1552.06 262.689C1551.88 261.8 1551.8 261.003 1551.71 260.114C1551.71 259.936 1551.62 259.67 1551.62 259.493C1551.53 259.049 1551.44 258.605 1551.44 258.16C1551.44 257.717 1551.36 257.273 1551.27 256.829L1551 254.432C1551 254.166 1550.91 253.9 1550.91 253.633C1550.83 252.923 1550.74 252.124 1550.65 251.415C1550.47 250.172 1550.39 248.928 1550.3 247.597C1550.3 247.153 1550.21 246.62 1550.21 246.177C1550.11 244.578 1549.93 242.98 1549.85 241.382C1549.76 240.672 1549.76 239.873 1549.67 239.074V238.453C1549.67 237.476 1549.58 236.499 1549.58 235.523V232.505C1549.58 231.528 1549.58 230.551 1549.49 229.574C1549.41 228.599 1549.49 227.622 1549.49 226.646C1549.49 217.413 1550.02 208.091 1551.09 198.948C1551.8 192.821 1552.78 186.785 1553.92 180.837C1554.19 179.327 1554.54 177.73 1554.9 176.22C1555.51 173.4 1556.16 170.588 1556.84 167.787C1558.09 162.992 1559.42 158.287 1560.92 153.672C1561.55 151.63 1562.26 149.676 1562.96 147.724C1565.88 139.379 1569.34 131.212 1573.16 123.222C1574.67 120.114 1576.25 117.096 1577.85 114.078C1607.09 59.8351 1656.27 19.1748 1714.93 0.53266C1728.48 0.798958 1742.04 2.22008 1755.33 4.79472C1773.86 8.34492 1791.93 14.2034 1809.02 22.1053C1834.29 33.7341 1857.32 49.8029 1877.08 69.5115C1879.39 71.8198 1881.6 74.1282 1883.8 76.5248C1888.53 81.6144 1893.03 86.9169 1897.28 92.4156C1899.22 94.9019 1901.19 97.4766 1902.95 100.05C1905.95 104.282 1908.81 108.604 1911.55 113.011L1911.9 113.634C1913.32 115.942 1914.73 118.25 1916.07 120.647C1920.58 128.726 1924.66 137.07 1928.2 145.592C1929.45 148.699 1930.69 151.718 1931.84 154.914C1932.82 157.49 1933.7 160.064 1934.58 162.638C1935.74 166.277 1936.88 169.917 1937.95 173.557C1938.66 176.22 1939.38 178.884 1939.99 181.547C1940.35 183.055 1940.7 184.655 1941.05 186.163C1941.68 189.004 1942.3 191.934 1942.82 194.863L1943.09 196.373C1943.18 196.817 1943.27 197.348 1943.36 197.794C1943.53 198.858 1943.72 199.924 1943.88 200.99C1945.77 213.03 1946.73 225.199 1946.73 237.388Z" fill="#201240"/>
<path d="M1931.22 164.236C1863.42 170.007 1786.52 179.15 1705.36 191.756C1619.31 205.072 1538.94 220.52 1469.83 236.589C1325.85 269.968 1230.33 305.657 1232.81 329.359V329.803C1233.25 332.733 1235.29 335.397 1238.65 337.794L1239.45 338.326C1239.72 338.504 1239.98 338.681 1240.25 338.77C1240.52 338.859 1240.78 339.125 1241.14 339.303L1241.58 339.569C1241.76 339.658 1242.02 339.834 1242.2 339.924C1242.38 340.014 1242.64 340.19 1242.91 340.28L1243.62 340.634C1244.33 340.989 1245.21 341.344 1246.01 341.7H1246.1C1247.78 342.41 1249.64 343.031 1251.68 343.652L1252.57 343.918L1254.52 344.451C1254.87 344.541 1255.14 344.629 1255.49 344.719L1257.44 345.251C1258.86 345.606 1260.28 345.96 1261.78 346.228L1262.93 346.583H1263.02C1263.91 346.759 1264.88 346.937 1265.86 347.115L1266.48 347.204L1267.9 347.47L1270.55 347.913L1270.91 348.002C1272.24 348.179 1273.57 348.447 1274.99 348.625C1276.58 348.89 1278.17 349.068 1279.86 349.334L1283.05 349.69C1285.79 350.045 1288.63 350.311 1291.55 350.577L1294.57 350.843C1341.09 354.838 1411.09 353.24 1495.44 346.228H1495.62C1495.18 345.428 1494.82 344.541 1494.38 343.742C1494.11 343.297 1493.94 342.853 1493.67 342.41L1493.23 341.522V341.255C1491.9 338.574 1490.66 335.851 1489.51 333.088C1488.51 330.832 1487.56 328.554 1486.67 326.252L1486.49 325.897L1483.04 326.163L1478.43 326.608L1475.42 326.874C1471.16 327.229 1467 327.585 1462.92 327.851L1456.99 328.294C1445.73 329.093 1435.28 329.803 1425.62 330.248C1413.3 330.868 1402.31 331.135 1392.92 331.223H1384.24L1382.2 331.135H1380.96L1378.3 331.046C1377.06 330.958 1375.82 330.958 1374.67 330.868L1372.9 330.692L1371.21 330.602C1369.53 330.426 1367.93 330.336 1366.43 330.158L1365.28 329.981C1364.12 329.803 1363.06 329.715 1362.09 329.449L1361.47 329.359H1361.29L1360.58 329.182C1360.14 329.093 1359.69 329.004 1359.34 328.916L1358.37 328.648C1358.1 328.561 1357.75 328.472 1357.48 328.382C1357.21 328.294 1356.86 328.206 1356.59 328.117L1355.97 327.851L1354.91 327.318L1354.47 327.052C1354.29 326.962 1354.11 326.874 1353.93 326.696C1353.85 326.608 1353.76 326.608 1353.67 326.518C1353.58 326.43 1353.49 326.341 1353.4 326.252C1353.31 326.163 1353.23 326.075 1353.14 325.985C1353.05 325.897 1352.96 325.809 1352.96 325.72C1352.96 325.72 1352.87 325.631 1352.87 325.543C1352.78 325.365 1352.69 325.275 1352.69 325.098C1352.69 325.01 1352.69 324.92 1352.61 324.92V324.744C1352.16 322.081 1356.77 318.706 1365.63 314.8L1366.25 314.533C1385.3 306.278 1423.32 295.713 1474.35 284.261C1539.57 269.614 1626.15 253.457 1721.48 238.719C1803.36 226.024 1879.39 216.348 1941.4 210.223C1958.24 208.535 1974.01 207.116 1988.64 206.049V160.064C1970.29 161.129 1951.07 162.549 1931.22 164.236ZM1942.21 257.095C1941.77 262.777 1941.13 268.37 1940.26 273.964C1940.17 274.585 1940.08 275.117 1939.99 275.738C1939.81 276.626 1939.71 277.514 1939.55 278.313L1941.86 277.781L1944.51 277.16L1946.46 276.715C1960.9 273.431 1974.9 270.146 1988.47 266.861V246.886C1974.19 250.171 1958.68 253.633 1942.21 257.095Z" fill="url(#paint0_linear_44_15)"/>
<path d="M1936.8 171.162C1869.02 176.93 1792.11 186.076 1710.93 198.681C1624.9 211.997 1544.53 227.533 1475.42 243.513C1334.8 276.094 1240.52 310.895 1238.39 334.597C1238.3 335.307 1238.3 336.018 1238.48 336.727L1238.75 337.794L1239.54 338.326C1239.81 338.504 1240.07 338.681 1240.34 338.77C1240.61 338.859 1240.87 339.125 1241.23 339.303L1241.67 339.568C1241.85 339.658 1242.11 339.834 1242.29 339.924C1242.47 340.014 1242.73 340.19 1243 340.279L1243.71 340.635C1244.42 340.989 1245.3 341.344 1246.1 341.698H1246.19C1247.87 342.409 1249.73 343.031 1251.77 343.652L1252.66 343.918L1254.61 344.451C1254.96 344.541 1255.23 344.629 1255.58 344.717L1256.56 344.985L1257.53 345.251C1258.95 345.606 1260.37 345.961 1261.87 346.227L1262.94 346.493H1263.02C1263.91 346.671 1264.89 346.849 1265.86 347.026L1266.48 347.115L1267.9 347.382L1270.56 347.825L1270.91 347.913C1272.24 348.092 1273.57 348.358 1274.99 348.535C1276.58 348.801 1278.18 348.979 1279.86 349.246L1283.05 349.6C1285.8 349.956 1288.63 350.223 1291.56 350.489L1294.57 350.754C1341.09 354.75 1411.09 353.151 1495.44 346.138H1495.62C1495.18 345.34 1494.82 344.451 1494.38 343.652C1494.11 343.208 1493.94 342.765 1493.67 342.321L1493.23 341.433V341.167C1491.9 338.486 1490.66 335.762 1489.51 332.999L1486.05 333.265C1456.81 335.752 1431.56 337.349 1411.35 337.882C1400.9 338.148 1391.86 338.148 1384.33 337.882C1378.83 337.704 1374.23 337.261 1370.42 336.727L1369.44 336.551C1362.44 335.485 1358.54 333.799 1358.19 331.579C1358.1 330.513 1358.54 329.449 1359.34 328.738C1367.05 320.037 1411.89 306.455 1479.85 291.185C1545.06 276.537 1631.63 260.38 1726.98 245.643C1808.85 232.948 1884.87 223.273 1946.9 217.147C1961.6 215.727 1975.52 214.394 1988.54 213.417V167.52C1971.98 168.409 1954.7 169.652 1936.8 171.162ZM1943.94 264.5C1943.94 264.5 1940.62 285.701 1940.44 286.5C1948.33 284.724 1960.81 281.687 1968.53 279.912L1971.18 279.29L1973.14 278.846C1978.27 277.603 1983.4 276.449 1988.47 275.206V255.143C1975.79 257.984 1943.94 264.5 1943.94 264.5Z" fill="url(#paint1_linear_44_15)"/>
<path d="M1988.19 180.926C1920.41 186.697 1843.5 195.84 1762.32 208.446C1676.29 221.762 1595.92 237.21 1526.81 253.279C1390.26 284.884 1297.31 318.618 1290.14 342.232V342.321C1289.69 343.652 1289.61 345.072 1289.78 346.493V346.671C1289.96 347.558 1290.23 348.535 1290.67 349.334C1290.85 349.689 1291.11 350.045 1291.29 350.399L1291.38 350.577L1294.39 350.844C1340.91 354.838 1410.91 353.24 1495.26 346.228C1476.48 347.382 1460.35 347.913 1447.24 347.913C1438.64 347.913 1431.38 347.558 1425.53 347.026C1419.5 346.405 1415.07 345.518 1412.42 344.363C1410.56 343.564 1409.58 342.587 1409.4 341.434C1409.23 340.279 1409.85 339.214 1411.18 337.97C1413.66 335.663 1418.44 333.089 1425.35 330.248C1413.04 330.869 1402.05 331.135 1392.66 331.223H1384.15L1382.11 331.135H1380.87L1378.21 331.047C1376.97 330.958 1375.73 330.958 1374.58 330.869L1372.81 330.692L1371.13 330.602C1369.44 330.426 1367.85 330.336 1366.34 330.158L1365.19 329.981C1364.04 329.803 1362.97 329.715 1362 329.449L1361.38 329.359H1361.2L1360.49 329.183C1360.05 329.093 1359.61 329.005 1359.25 328.916L1358.28 328.649L1357.39 328.382C1357.12 328.294 1356.77 328.206 1356.5 328.116L1355.88 327.851L1354.82 327.318L1354.38 327.052C1354.2 326.963 1354.02 326.874 1353.85 326.696C1353.76 326.608 1353.67 326.608 1353.58 326.518L1353.05 325.986C1352.96 325.897 1352.87 325.809 1352.87 325.721C1352.87 325.721 1352.78 325.631 1352.78 325.543C1352.69 325.365 1352.61 325.275 1352.61 325.098C1352.61 325.009 1352.61 324.921 1352.52 324.921V324.744C1352.07 322.081 1356.68 318.706 1365.54 314.8L1366.16 314.534C1385.21 306.278 1423.23 295.713 1474.26 284.261C1539.48 269.614 1626.05 253.455 1721.39 238.719C1803.27 226.024 1879.3 216.348 1941.31 210.223C1958.15 208.536 1973.92 207.116 1988.54 206.049V180.926H1988.19Z" fill="url(#paint2_linear_44_15)"/>
<path d="M1316.54 325.1C1316.76 325.104 1316.97 325.066 1317.17 324.988C1317.36 324.91 1317.54 324.793 1317.7 324.645C1317.85 324.496 1317.97 324.318 1318.05 324.121C1318.13 323.924 1318.18 323.714 1318.18 323.501C1318.18 323.288 1318.13 323.076 1318.05 322.88C1317.97 322.683 1317.85 322.506 1317.7 322.357C1317.54 322.208 1317.36 322.091 1317.16 322.013C1316.97 321.935 1316.76 321.898 1316.54 321.903C1316.13 321.913 1315.73 322.086 1315.44 322.385C1315.15 322.683 1314.99 323.084 1314.99 323.502C1314.99 323.919 1315.15 324.319 1315.44 324.618C1315.73 324.916 1316.13 325.089 1316.54 325.1Z" fill="white"/>
<path d="M1411.71 310.184C1411.97 310.184 1412.21 310.082 1412.4 309.899C1412.58 309.715 1412.68 309.466 1412.68 309.208C1412.68 308.949 1412.58 308.7 1412.4 308.516C1412.21 308.333 1411.97 308.231 1411.71 308.231C1411.45 308.231 1411.2 308.333 1411.02 308.516C1410.84 308.7 1410.73 308.949 1410.73 309.208C1410.73 309.466 1410.84 309.715 1411.02 309.899C1411.2 310.082 1411.45 310.184 1411.71 310.184ZM1475.24 281.332C1475.55 281.332 1475.84 281.21 1476.05 280.994C1476.27 280.777 1476.39 280.484 1476.39 280.179C1476.39 279.872 1476.27 279.578 1476.05 279.363C1475.84 279.146 1475.55 279.024 1475.24 279.024C1474.93 279.024 1474.64 279.146 1474.43 279.363C1474.21 279.578 1474.09 279.872 1474.09 280.179C1474.09 280.484 1474.21 280.777 1474.43 280.994C1474.64 281.21 1474.93 281.332 1475.24 281.332ZM1365.81 315.067C1365.9 315.067 1365.99 315.03 1366.06 314.963C1366.13 314.896 1366.17 314.806 1366.17 314.711C1366.17 314.618 1366.13 314.527 1366.06 314.461C1365.99 314.393 1365.9 314.357 1365.81 314.357C1365.72 314.357 1365.63 314.393 1365.56 314.461C1365.49 314.527 1365.46 314.618 1365.46 314.711C1365.46 314.806 1365.49 314.896 1365.56 314.963C1365.63 315.03 1365.72 315.067 1365.81 315.067ZM1457.61 326.874C1457.79 326.874 1457.97 326.799 1458.11 326.666C1458.24 326.532 1458.32 326.352 1458.32 326.163C1458.32 325.975 1458.24 325.795 1458.11 325.662C1457.97 325.528 1457.79 325.454 1457.61 325.454C1457.42 325.454 1457.24 325.528 1457.1 325.662C1456.97 325.795 1456.9 325.975 1456.9 326.163C1456.9 326.352 1456.97 326.532 1457.1 326.666C1457.24 326.799 1457.42 326.874 1457.61 326.874ZM1510.86 258.96C1511 258.96 1511.14 258.905 1511.24 258.803C1511.34 258.703 1511.39 258.568 1511.39 258.427C1511.39 258.285 1511.34 258.149 1511.24 258.049C1511.14 257.949 1511 257.893 1510.86 257.893C1510.72 257.894 1510.58 257.95 1510.48 258.05C1510.38 258.15 1510.33 258.286 1510.33 258.428C1510.33 258.569 1510.38 258.704 1510.48 258.805C1510.58 258.905 1510.72 258.96 1510.86 258.96ZM1677.44 250.171C1678.03 250.171 1678.51 249.695 1678.51 249.106C1678.51 248.518 1678.03 248.041 1677.44 248.041C1676.85 248.041 1676.38 248.518 1676.38 249.106C1676.38 249.695 1676.85 250.171 1677.44 250.171ZM1708.28 230.729C1708.57 230.729 1708.82 230.491 1708.82 230.196C1708.82 230.055 1708.75 229.92 1708.66 229.82C1708.56 229.721 1708.43 229.664 1708.28 229.664C1707.98 229.664 1707.74 229.902 1707.74 230.196C1707.74 230.491 1707.98 230.729 1708.28 230.729ZM1936.27 211.732C1936.47 211.732 1936.62 211.574 1936.62 211.378C1936.62 211.283 1936.58 211.193 1936.52 211.127C1936.45 211.059 1936.36 211.022 1936.27 211.02C1936.08 211.02 1935.92 211.18 1935.92 211.378C1935.92 211.574 1936.08 211.732 1936.27 211.732Z" fill="white"/>
<path d="M1459.82 331.49C1460.22 331.498 1460.62 331.425 1460.99 331.275C1461.36 331.127 1461.7 330.906 1461.99 330.625C1462.27 330.344 1462.5 330.009 1462.65 329.64C1462.81 329.27 1462.89 328.873 1462.89 328.472C1462.89 328.071 1462.81 327.674 1462.65 327.304C1462.5 326.935 1462.27 326.6 1461.99 326.318C1461.7 326.038 1461.36 325.817 1460.99 325.668C1460.62 325.519 1460.22 325.447 1459.82 325.453C1459.03 325.466 1458.28 325.791 1457.73 326.355C1457.17 326.92 1456.86 327.68 1456.86 328.471C1456.86 329.263 1457.17 330.023 1457.73 330.587C1458.28 331.152 1459.03 331.477 1459.82 331.49ZM1371.12 279.912C1371.28 279.912 1371.43 279.883 1371.57 279.824C1371.7 279.767 1371.83 279.681 1371.94 279.575C1372.05 279.468 1372.13 279.341 1372.19 279.201C1372.25 279.06 1372.28 278.911 1372.28 278.759C1372.28 278.607 1372.25 278.458 1372.19 278.317C1372.13 278.177 1372.05 278.05 1371.94 277.943C1371.83 277.835 1371.71 277.751 1371.57 277.693C1371.43 277.634 1371.28 277.604 1371.13 277.604C1370.82 277.604 1370.53 277.725 1370.31 277.942C1370.1 278.158 1369.97 278.451 1369.97 278.758C1369.97 279.063 1370.1 279.357 1370.31 279.573C1370.53 279.79 1370.82 279.911 1371.12 279.912ZM1476.84 328.65C1477.05 328.655 1477.26 328.618 1477.46 328.54C1477.65 328.462 1477.84 328.345 1477.99 328.195C1478.14 328.047 1478.26 327.869 1478.34 327.672C1478.43 327.476 1478.47 327.265 1478.47 327.052C1478.47 326.838 1478.42 326.628 1478.34 326.431C1478.26 326.235 1478.14 326.057 1477.99 325.908C1477.84 325.76 1477.65 325.643 1477.46 325.565C1477.26 325.487 1477.05 325.449 1476.83 325.454C1476.42 325.464 1476.02 325.636 1475.73 325.935C1475.44 326.234 1475.28 326.635 1475.28 327.052C1475.28 327.471 1475.44 327.871 1475.73 328.169C1476.02 328.468 1476.42 328.641 1476.84 328.65Z" fill="white"/>
<path d="M1930.5 164.681C1950.98 162.904 1970.55 161.574 1989.17 160.419V222.208C1983.67 222.739 1978.09 223.273 1972.33 223.806C1910.3 229.93 1834.29 239.696 1752.41 252.302C1657.06 267.039 1570.5 283.285 1505.28 297.844C1446.97 310.984 1405.68 322.79 1390.26 331.401H1400.1L1404.09 331.313C1411 331.116 1417.91 330.848 1424.82 330.514C1442.54 329.626 1463.01 328.116 1485.7 326.164L1486.49 328.028C1487.2 329.804 1487.91 331.579 1488.71 333.354L1490.3 337.083C1490.48 337.528 1490.75 337.971 1490.92 338.415C1491.37 339.303 1491.81 340.279 1492.25 341.167C1492.34 341.434 1492.52 341.612 1492.61 341.878C1492.87 342.409 1493.14 342.855 1493.32 343.386L1494.91 346.583H1494.38C1479.92 347.788 1465.44 348.854 1450.96 349.779C1442.54 350.311 1434.39 350.844 1426.42 351.2C1372.72 353.951 1327.53 354.039 1294.3 351.2L1290.85 350.932H1290.49C1289.49 350.848 1288.48 350.759 1287.48 350.666H1287.21C1280.75 349.957 1274.72 349.246 1269.32 348.269C1268.16 348.092 1266.92 347.826 1265.77 347.648H1265.24C1263.11 347.221 1260.98 346.778 1258.86 346.315H1258.68C1256.05 345.745 1253.44 345.035 1250.88 344.185H1250.8L1249.82 343.83L1249.56 343.742H1249.47C1248.23 343.298 1246.99 342.855 1245.83 342.409L1245.66 342.321L1244.33 341.788L1244.15 341.699C1243.44 341.434 1242.82 341.078 1242.2 340.811C1241.93 340.723 1241.76 340.545 1241.49 340.457L1241.4 340.545L1240.34 340.014L1240.07 339.835C1239.81 339.658 1239.45 339.48 1239.19 339.303L1239.01 339.214L1238.92 339.125C1238.57 338.947 1238.21 338.681 1237.95 338.504C1236.15 337.321 1234.61 335.78 1233.43 333.976C1232.73 332.938 1232.28 331.753 1232.1 330.514C1228.47 306.811 1324.25 270.857 1469.13 237.388C1538.24 221.319 1618.61 205.873 1704.65 192.557C1785.81 179.683 1862.63 170.451 1930.5 164.681Z" fill="url(#paint3_linear_44_15)"/>
<path d="M1500.41 352.796C1462.3 355.37 1334.8 359.899 1293.24 350.489C1290.32 350.222 1287.48 349.956 1284.73 349.601L1283.05 349.422L1281.46 349.245C1279.77 349.067 1278.18 348.801 1276.58 348.535C1275.16 348.358 1273.83 348.092 1272.51 347.914L1272.15 347.824L1269.49 347.381L1268.08 347.115L1267.46 347.025L1264.62 346.494H1264.53L1263.38 346.228C1261.87 345.872 1260.45 345.606 1259.04 345.251L1257.09 344.718C1256.73 344.629 1256.38 344.54 1256.11 344.451L1254.16 343.918L1253.28 343.652C1251.24 343.031 1249.38 342.32 1247.7 341.7H1247.61C1246.39 341.27 1245.18 340.827 1243.97 340.368L1243.8 340.28L1242.47 339.746L1242.29 339.657C1241.58 339.391 1240.96 339.037 1240.34 338.77L1241.94 338.859C1249.38 339.48 1257.8 340.19 1266.21 340.811C1274.71 341.496 1283.22 342.029 1291.73 342.41C1298.82 342.676 1305.11 342.765 1310.16 342.41C1329.39 341.257 1352.25 339.924 1371.04 336.64C1378.39 335.485 1385.57 333.709 1392.57 331.224C1393.99 330.692 1395.76 330.158 1397.71 329.537C1416.94 319.949 1462.57 313.025 1481.98 310.361C1486.23 323.144 1494.29 341.077 1500.41 352.796Z" fill="url(#paint4_linear_44_15)"/>
<path d="M1944.16 236.855C1944.16 247.863 1943.36 258.871 1941.86 269.879C1940.7 278.403 1939.01 286.924 1936.88 295.358C1904.64 422.307 1775.81 498.922 1649.18 466.606C1595.35 452.872 1548.04 420.598 1515.56 375.434C1495.71 347.825 1481.98 316.309 1475.42 282.93C1475.33 282.574 1475.24 282.131 1475.15 281.775L1474.62 278.846L1474.18 276.093L1474.09 275.65C1473.91 274.762 1473.82 273.874 1473.65 272.986C1473.47 272.099 1473.38 271.3 1473.29 270.411C1473.29 270.235 1473.2 269.968 1473.2 269.79C1473.11 269.346 1473.03 268.902 1473.03 268.459C1473.03 268.015 1472.94 267.572 1472.85 267.127L1472.58 264.731C1472.58 264.464 1472.49 264.198 1472.49 263.931C1472.41 263.221 1472.32 262.422 1472.23 261.712C1472.05 260.469 1471.96 259.227 1471.87 257.895C1471.87 257.45 1471.79 256.918 1471.79 256.474C1471.7 254.876 1471.52 253.279 1471.43 251.681C1471.34 250.97 1471.34 250.171 1471.25 249.371V248.75C1471.25 247.773 1471.16 246.798 1471.16 245.821V242.802C1471.16 241.827 1471.16 240.85 1471.08 239.873C1470.99 238.896 1471.08 237.919 1471.08 236.944C1471.08 227.71 1471.61 218.389 1472.67 209.245C1473.38 203.12 1474.36 197.082 1475.51 191.134C1475.77 189.626 1476.13 188.027 1476.48 186.519C1477.09 183.698 1477.74 180.886 1478.43 178.084C1479.67 173.291 1481 168.586 1482.51 163.969C1483.13 161.928 1483.84 159.975 1484.54 158.021C1487.47 149.676 1490.93 141.509 1494.74 133.519C1496.24 130.412 1497.84 127.394 1499.43 124.375C1540.72 47.7621 1620.73 0 1707.66 0C1709.26 0 1710.76 -8.88854e-06 1712.35 0.0883239C1725.91 0.354621 1739.47 1.77575 1752.76 4.35039C1771.28 7.90189 1789.37 13.7605 1806.46 21.661C1831.71 33.2911 1854.76 49.3598 1874.5 69.0671C1876.82 71.3768 1879.02 73.6838 1881.25 76.0818C1885.97 81.17 1890.47 86.4726 1894.7 91.9713C1896.67 94.4576 1898.61 97.0323 1900.38 99.6069C1903.39 103.868 1906.24 108.128 1908.98 112.568L1909.33 113.189C1910.76 115.498 1912.18 117.806 1913.5 120.203C1918.09 128.257 1922.16 136.587 1925.72 145.149C1926.96 148.256 1928.2 151.275 1929.36 154.471C1930.34 157.044 1931.22 159.62 1932.1 162.195C1933.26 165.833 1934.41 169.473 1935.47 173.113C1936.18 175.777 1936.88 178.44 1937.51 181.103C1937.86 182.612 1938.22 184.21 1938.57 185.72C1939.19 188.561 1939.81 191.49 1940.35 194.42L1940.61 195.929C1940.7 196.373 1940.79 196.905 1940.87 197.348C1941.05 198.415 1941.23 199.48 1941.4 200.545C1943.36 212.264 1944.23 224.515 1944.16 236.855Z" fill="#381956"/>
<path d="M1946.73 237.388C1946.73 248.396 1945.92 259.404 1944.42 270.411C1943.27 278.934 1941.58 287.457 1939.45 295.89C1919.16 375.434 1857 437.732 1778.94 462.5C1667.73 460.28 1575.46 381.915 1553.84 272.631C1553.75 272.277 1553.66 271.832 1553.57 271.478L1553.04 268.547L1552.6 265.795L1552.5 265.352C1552.34 264.465 1552.25 263.576 1552.06 262.689C1551.88 261.8 1551.8 261.003 1551.71 260.114C1551.71 259.936 1551.62 259.67 1551.62 259.493C1551.53 259.049 1551.44 258.605 1551.44 258.16C1551.44 257.717 1551.36 257.273 1551.27 256.829L1551 254.432C1551 254.166 1550.91 253.9 1550.91 253.633C1550.83 252.923 1550.74 252.124 1550.65 251.415C1550.47 250.172 1550.39 248.928 1550.3 247.597C1550.3 247.153 1550.21 246.62 1550.21 246.177C1550.11 244.578 1549.93 242.98 1549.85 241.382C1549.76 240.672 1549.76 239.873 1549.67 239.074V238.453C1549.67 237.476 1549.58 236.499 1549.58 235.523V232.505C1549.58 231.528 1549.58 230.551 1549.49 229.574C1549.41 228.599 1549.49 227.622 1549.49 226.646C1549.49 217.413 1550.02 208.091 1551.09 198.948C1551.8 192.821 1552.78 186.785 1553.92 180.837C1554.19 179.327 1554.54 177.73 1554.9 176.22C1555.51 173.4 1556.16 170.588 1556.84 167.787C1558.09 162.992 1559.42 158.287 1560.92 153.672C1561.55 151.63 1562.26 149.676 1562.96 147.724C1565.88 139.379 1569.34 131.212 1573.16 123.222C1574.67 120.114 1576.25 117.096 1577.85 114.078C1607.09 59.8351 1656.27 19.1748 1714.93 0.53266C1728.48 0.798958 1742.04 2.22008 1755.33 4.79472C1773.86 8.34492 1791.93 14.2034 1809.02 22.1053C1834.29 33.7341 1857.32 49.8029 1877.08 69.5115C1879.39 71.8198 1881.6 74.1282 1883.8 76.5248C1888.53 81.6144 1893.03 86.9169 1897.28 92.4156C1899.22 94.9019 1901.19 97.4766 1902.95 100.05C1905.95 104.282 1908.81 108.604 1911.55 113.011L1911.9 113.634C1913.32 115.942 1914.73 118.25 1916.07 120.647C1920.58 128.726 1924.66 137.07 1928.2 145.592C1929.45 148.699 1930.69 151.718 1931.84 154.914C1932.82 157.49 1933.7 160.064 1934.58 162.638C1935.74 166.277 1936.88 169.917 1937.95 173.557C1938.66 176.22 1939.38 178.884 1939.99 181.547C1940.35 183.055 1940.7 184.655 1941.05 186.163C1941.68 189.004 1942.3 191.934 1942.82 194.863L1943.09 196.373C1943.18 196.817 1943.27 197.348 1943.36 197.794C1943.53 198.858 1943.72 199.924 1943.88 200.99C1945.77 213.03 1946.73 225.199 1946.73 237.388Z" fill="#201240"/>
<path d="M1930.5 167.681C1950.98 165.904 1970.55 164.574 1989.17 163.419V225.208C1983.67 225.739 1978.09 226.273 1972.33 226.805C1910.3 232.93 1834.29 242.696 1752.41 255.302C1657.06 270.039 1570.5 286.285 1505.28 300.844C1446.97 313.983 1405.68 325.79 1390.26 334.401H1400.1L1404.09 334.313C1411 334.116 1417.91 333.848 1424.82 333.514C1442.54 332.626 1463.01 331.116 1485.7 329.164L1486.49 331.028C1487.2 332.804 1487.91 334.579 1488.71 336.354L1490.3 340.083C1490.48 340.527 1490.75 340.97 1490.92 341.415C1491.37 342.303 1491.81 343.279 1492.25 344.167C1492.34 344.434 1492.52 344.612 1492.61 344.878C1492.87 345.409 1493.14 345.855 1493.32 346.386L1494.91 349.583H1494.38C1479.92 350.788 1465.44 351.854 1450.96 352.778C1442.54 353.311 1434.39 353.844 1426.42 354.2C1372.72 356.951 1327.53 357.039 1294.3 354.2L1290.85 353.932H1290.49C1289.49 353.848 1288.48 353.759 1287.48 353.666H1287.21C1280.75 352.956 1274.72 352.246 1269.32 351.269C1268.16 351.092 1266.92 350.826 1265.77 350.648H1265.24C1263.11 350.221 1260.98 349.778 1258.86 349.315H1258.68C1256.05 348.745 1253.44 348.034 1250.88 347.185H1250.8L1249.82 346.83L1249.56 346.742H1249.47C1248.23 346.298 1246.99 345.855 1245.83 345.409L1245.66 345.321L1244.33 344.788L1244.15 344.699C1243.44 344.434 1242.82 344.078 1242.2 343.811C1241.93 343.723 1241.76 343.545 1241.49 343.457L1241.4 343.545L1240.34 343.014L1240.07 342.834C1239.81 342.658 1239.45 342.48 1239.19 342.303L1239.01 342.214L1238.92 342.125C1238.57 341.947 1238.21 341.681 1237.95 341.504C1236.15 340.321 1234.61 338.78 1233.43 336.976C1232.73 335.938 1232.28 334.753 1232.1 333.514C1228.47 309.811 1324.25 273.857 1469.13 240.388C1538.24 224.319 1618.61 208.873 1704.65 195.556C1785.81 182.683 1862.63 173.451 1930.5 167.681Z" fill="url(#paint5_linear_44_15)"/>
<path d="M1501.44 353C1463.34 355.575 1334.8 359.899 1293.24 350.489C1290.32 350.222 1287.48 349.956 1284.73 349.601L1283.05 349.422L1281.46 349.245C1279.77 349.067 1278.18 348.801 1276.58 348.535C1275.16 348.358 1273.83 348.092 1272.51 347.914L1272.15 347.824L1269.49 347.381L1268.08 347.115L1267.46 347.025L1264.62 346.494H1264.53L1263.38 346.228C1261.87 345.872 1260.45 345.606 1259.04 345.251L1257.09 344.718C1256.73 344.629 1256.38 344.54 1256.11 344.451L1254.16 343.918L1253.28 343.652C1251.24 343.031 1249.38 342.32 1247.7 341.7H1247.61C1246.39 341.27 1245.18 340.827 1243.97 340.368L1243.8 340.28L1242.47 339.746L1242.29 339.657C1241.58 339.391 1240.96 339.037 1240.34 338.77L1241.94 338.859C1249.38 339.48 1257.8 340.19 1266.21 340.811C1274.71 341.496 1283.22 342.029 1291.73 342.41C1298.82 342.676 1305.11 342.765 1310.16 342.41C1329.39 341.257 1352.25 339.924 1371.04 336.64C1378.39 335.485 1385.57 333.709 1392.57 331.224C1393.99 330.692 1395.76 330.158 1397.71 329.537C1416.94 319.949 1463.04 312.664 1482.44 310C1486.69 322.784 1495.33 341.282 1501.44 353Z" fill="url(#paint6_linear_44_15)"/>
<path opacity="0.2" d="M1129.65 711.562L1153 711.908C1145.33 713.422 1137.54 713.22 1129.65 711.562L-13.6837 694.589L-13.6822 639.647V603.498L-14.7386 603.752L-17 604.259L-15.7934 595.709L-13.5318 579.202L-10.9683 560.323C-10.9683 560.323 118.255 509.613 277.935 504.365C381.827 500.979 508.487 547.116 601.519 544.915C694.556 542.714 736.323 489.126 834.935 474.566C925.979 461.122 1034.81 691.619 1129.65 711.562Z" fill="#5A2489"/>
<path opacity="0.2" d="M1152.57 672.593L1179 673.105C1170.75 675.23 1161.9 674.922 1152.57 672.593L-17 649.907L-16.9985 580.966L-12.2143 534.331L-11.054 522.328L-9.4587 506.819C-9.4587 506.819 130.752 434.478 284.3 440.745C410.157 445.844 488.599 504.056 578.062 501.295C667.523 498.532 717.257 428.954 812.229 410.789C898.912 394.087 1053.27 647.799 1152.57 672.593Z" fill="#5A2878"/>
<path d="M950.381 712.328C950.381 712.328 1070.77 713.339 1055.39 709.298C1189.96 643.976 853.21 725.629 821.944 722.934C676.146 710.477 143.363 721.833 -3 721.083C-3 721.083 2.42889 686.224 29.6614 679.318C47.3081 674.842 74.4162 720.822 74.4162 720.822L-3 721.083V684.031V575.288V503.403L2.69971 501.381C66.7895 480.507 140.552 507.779 177.174 535.053C240.743 582.359 264.236 623.775 324.871 631.519C335.929 632.865 347.09 633.202 358.211 632.529C445.448 627.814 426.962 571.923 510.054 528.991C514.199 526.804 518.518 524.951 522.837 523.267C602.472 491.954 686.773 544.481 686.773 544.481L945.2 709.298L950.381 712.328Z" fill="url(#paint7_linear_44_15)"/>
<path d="M1920 675.167V736.356L-17 718.578C296.689 651.592 623.646 636.268 947.058 626.683C1008.71 624.9 1070.37 623.897 1132.15 624.008C1161.43 624.008 1190.48 624.231 1219.52 624.565C1424.31 627.352 1622.42 640.17 1811.1 661.68C1847.76 665.805 1884.07 670.262 1920 675.167Z" fill="url(#paint8_linear_44_15)"/>
</g>
<defs>
<linearGradient id="paint0_linear_44_15" x1="1231.91" y1="236.903" x2="1989.08" y2="236.903" gradientUnits="userSpaceOnUse">
<stop offset="0.05" stopColor="#F9730A"/>
<stop offset="0.45" stopColor="#743495"/>
<stop offset="0.51" stopColor="#5A2878"/>
<stop offset="0.58" stopColor="#3F1C59"/>
<stop offset="0.66" stopColor="#2C1343"/>
<stop offset="0.73" stopColor="#200E36"/>
<stop offset="0.79" stopColor="#1C0C31"/>
</linearGradient>
<linearGradient id="paint1_linear_44_15" x1="1232" y1="236.844" x2="1989.18" y2="236.844" gradientUnits="userSpaceOnUse">
<stop offset="0.05" stopColor="#F973BE"/>
<stop offset="0.45" stopColor="#743495"/>
<stop offset="0.51" stopColor="#5A2878"/>
<stop offset="0.58" stopColor="#3F1C59"/>
<stop offset="0.66" stopColor="#2C1343"/>
<stop offset="0.73" stopColor="#200E36"/>
<stop offset="0.79" stopColor="#1C0C31"/>
</linearGradient>
<linearGradient id="paint2_linear_44_15" x1="1231.98" y1="236.917" x2="1989.13" y2="236.917" gradientUnits="userSpaceOnUse">
<stop offset="0.05" stopColor="#F97B45"/>
<stop offset="0.45" stopColor="#743495"/>
<stop offset="0.51" stopColor="#5A2878"/>
<stop offset="0.58" stopColor="#3F1C59"/>
<stop offset="0.66" stopColor="#2C1343"/>
<stop offset="0.73" stopColor="#200E36"/>
<stop offset="0.79" stopColor="#1C0C31"/>
</linearGradient>
<linearGradient id="paint3_linear_44_15" x1="1231.96" y1="512.672" x2="2072.37" y2="416.419" gradientUnits="userSpaceOnUse">
<stop offset="0.05" stopColor="#F97B45" stop-opacity="0"/>
<stop offset="0.37" stopColor="#743495" stop-opacity="0.3"/>
<stop offset="0.45" stopColor="#572774" stop-opacity="0.53"/>
<stop offset="0.79" stopColor="#1C0C31"/>
</linearGradient>
<linearGradient id="paint4_linear_44_15" x1="1256.16" y1="722.357" x2="2039.59" y2="660.303" gradientUnits="userSpaceOnUse">
<stop offset="0.05" stopColor="#F97B45" stop-opacity="0"/>
<stop offset="0.37" stopColor="#743495" stop-opacity="0.3"/>
<stop offset="0.45" stopColor="#572774" stop-opacity="0.53"/>
<stop offset="0.79" stopColor="#1C0C31"/>
</linearGradient>
<linearGradient id="paint5_linear_44_15" x1="1231.96" y1="512.672" x2="2072.37" y2="416.419" gradientUnits="userSpaceOnUse">
<stop offset="0.05" stopColor="#F97B45" stop-opacity="0"/>
<stop offset="0.37" stopColor="#743495" stop-opacity="0.3"/>
<stop offset="0.45" stopColor="#572774" stop-opacity="0.53"/>
<stop offset="0.79" stopColor="#1C0C31"/>
</linearGradient>
<linearGradient id="paint6_linear_44_15" x1="1248.64" y1="380.177" x2="1499.53" y2="309.555" gradientUnits="userSpaceOnUse">
<stop offset="0.05" stopColor="#F97B45" stop-opacity="0"/>
<stop offset="0.37" stopColor="#743495" stop-opacity="0.3"/>
<stop offset="0.45" stopColor="#572774" stop-opacity="0.53"/>
<stop offset="0.79" stopColor="#1C0C31"/>
</linearGradient>
<linearGradient id="paint7_linear_44_15" x1="373.343" y1="282.47" x2="629.085" y2="1497.26" gradientUnits="userSpaceOnUse">
<stop offset="0.05" stopColor="#9133C2"/>
<stop offset="0.37" stopColor="#26163A"/>
</linearGradient>
<linearGradient id="paint8_linear_44_15" x1="935.269" y1="1.31293" x2="959.993" y2="1302.85" gradientUnits="userSpaceOnUse">
<stop offset="0.43" stopColor="#9133C2"/>
<stop offset="0.54" stopColor="#26163A"/>
</linearGradient>
<clipPath id="clip0_44_15">
<rect width="1920" height="717" fill="white"/>
</clipPath>
</defs>
</svg>
