<svg width="1920" height="717" viewBox="0 0 1920 717" fill="none" xmlns="http://www.w3.org/2000/svg">
<path d="M1408.01 102.608C1408.01 130.014 1385.87 152.192 1358.51 152.192C1354.47 152.192 1350.5 151.741 1346.63 150.75C1320.09 144.169 1303.89 117.302 1310.46 90.706C1317.03 64.1112 1343.85 47.8825 1370.39 54.464C1392.43 59.9637 1407.92 79.7976 1408.01 102.608Z" fill="#381441"/>
<path d="M1408.01 102.606C1408.01 130.014 1385.87 152.192 1358.51 152.192C1354.47 152.192 1350.5 151.741 1346.63 150.75C1324.5 134.702 1319.47 103.688 1335.48 81.5113C1341.24 73.488 1349.26 67.3788 1358.52 63.9714C1367.77 60.5639 1377.83 60.0164 1387.4 62.3976C1400.27 71.6833 1408.01 86.6482 1408.01 102.606Z" fill="#211038"/>
</svg>
