<svg width="1920" height="717" viewBox="0 0 1920 717" fill="none" xmlns="http://www.w3.org/2000/svg">
<g clip-path="url(#clip0_53_10)">
<path d="M1656 671.469L1569.18 556.725C1569.18 556.725 1480.58 449.061 1465.27 432.693C1420.64 384.994 1336.95 295 1336.95 295C1336.95 295 1024.47 561.281 995.5 586.5C1002.39 580.44 988.584 592.517 995.5 586.5C965.133 615.84 701 671.469 701 671.469H1656Z" fill="#8B0152"/>
<path d="M1597 581L1848.98 362L1918.43 461.42C1918.43 461.42 1962.35 617.3 1965.97 621.777C1968.11 635.055 1857.83 653.166 1708.24 669L1597 581Z" fill="#C8588E"/>
<path d="M1573.61 551.795C1573.61 551.795 1480.11 448.467 1464.79 432.14C1420.13 384.56 1367.99 327.782 1367.99 327.782L1336.82 295L1353.22 354.555L1304 373.678L1374.55 427.222L1312.21 498.251L1336.82 569.5L1304 653.5H1760.5L1573.61 551.795Z" fill="#C8588E"/>
<path d="M481 624C481 624 278.037 463.835 260.772 448.774C210.461 404.882 64.8857 276 64.8857 276C64.8857 276 -138.698 411.628 -171.363 434.834C-179.161 440.371 -334 510.873 -334 510.873V624H481Z" fill="#6E286E"/>
<path d="M497 611.474C497 611.474 295.823 477.959 278.588 462.971C228.356 419.297 82.482 292 82.482 292L81.5324 306.544L60.6403 329.113L92.9281 354.691C92.9281 354.691 87.844 376.719 71.5612 399.327C61.6371 413.106 107.647 454.997 107.647 454.997L35 506.153C35 506.153 75.2241 567.339 74.4101 573.358C73.5961 579.376 45.4461 620 45.4461 620L497 611.474Z" fill="#B34F7F"/>
<path d="M1849 362L1877 401.5L1932.5 481.5V690.5L1867 588.5L1877 545.5L1852.5 492L1859.5 434L1835.5 417L1849 362Z" fill="#8B0152"/>
<path d="M668.321 832.887C668.321 832.887 649.606 762.141 665.213 733.014C680.821 703.887 1381.66 518.646 1706.56 554.613C1735.98 557.869 1843.98 571.448 1920.13 590.127C1920.56 612.734 1920.13 814.387 1920.13 814.387L668.321 832.887Z" fill="#BB3976"/>
<path d="M-61.5 613C-61.5 613 1239.51 557.96 1881 664C2053 692.433 2045.5 762.184 2045.5 762.184V993.733L-61.4999 784.605L-61.5 613Z" fill="#972E6F"/>
</g>
<defs>
<clipPath id="clip0_53_10">
<rect width="1920" height="717" fill="white"/>
</clipPath>
</defs>
</svg>
