<svg width="393" height="852" viewBox="0 0 393 852" fill="none" xmlns="http://www.w3.org/2000/svg">
<g clip-path="url(#clip0_249_163)">
<path opacity="0.18" d="M424.379 352.218C424.379 366.702 412.68 378.424 398.219 378.424C396.081 378.424 393.987 378.185 391.941 377.661C377.914 374.183 369.352 359.984 372.824 345.928C376.297 331.872 390.47 323.295 404.497 326.774C416.148 329.681 424.33 340.163 424.379 352.218V352.218Z" fill="#BA3687"/>
<path opacity="0.54" d="M424.379 352.217C424.379 366.703 412.68 378.424 398.219 378.424C396.081 378.424 393.987 378.185 391.941 377.661C380.242 369.18 377.583 352.789 386.048 341.068C389.089 336.828 393.33 333.599 398.221 331.799C403.113 329.998 408.431 329.708 413.488 330.967C420.288 335.874 424.379 343.784 424.379 352.217V352.217Z" fill="#0E0C30"/>
<path opacity="0.38" d="M505.225 545.237C505.225 551.145 504.796 557.053 503.988 562.961C503.369 567.536 502.463 572.11 501.323 576.636C484.014 644.772 414.867 685.892 346.908 668.548C318.012 661.176 292.624 643.854 275.19 619.614C264.537 604.796 257.166 587.881 253.646 569.966C253.598 569.775 253.551 569.537 253.504 569.346L253.218 567.774L252.98 566.297L252.933 566.059C252.838 565.582 252.79 565.106 252.695 564.629C252.6 564.153 252.552 563.724 252.505 563.247C252.505 563.152 252.457 563.009 252.457 562.914C252.41 562.675 252.362 562.437 252.362 562.199C252.362 561.961 252.315 561.723 252.267 561.485L252.125 560.198C252.125 560.055 252.077 559.912 252.077 559.769C252.029 559.388 251.982 558.959 251.934 558.578C251.839 557.911 251.791 557.244 251.744 556.529C251.744 556.291 251.697 556.005 251.697 555.767C251.649 554.909 251.554 554.052 251.506 553.194C251.459 552.813 251.459 552.384 251.411 551.955V551.622C251.411 551.097 251.363 550.573 251.363 550.049V548.429C251.363 547.905 251.363 547.381 251.316 546.857C251.268 546.333 251.316 545.808 251.316 545.284C251.316 540.329 251.601 535.326 252.172 530.418C252.552 527.131 253.075 523.891 253.694 520.698C253.837 519.889 254.027 519.031 254.217 518.221C254.543 516.707 254.892 515.198 255.263 513.694C255.929 511.121 256.643 508.596 257.451 506.118C257.784 505.023 258.164 503.974 258.544 502.926C260.114 498.447 261.969 494.063 264.014 489.775C264.822 488.108 265.678 486.488 266.534 484.868C288.696 443.748 331.639 418.114 378.294 418.114C379.151 418.114 379.96 418.114 380.812 418.161C388.088 418.304 395.365 419.067 402.5 420.449C412.441 422.355 422.143 425.499 431.319 429.74C444.874 435.981 457.24 444.606 467.843 455.183C469.081 456.422 470.269 457.661 471.457 458.948C473.995 461.679 476.407 464.525 478.685 467.476C479.732 468.811 480.78 470.192 481.729 471.574C483.346 473.861 484.871 476.148 486.342 478.531L486.532 478.864C487.296 480.103 488.056 481.342 488.767 482.628C491.23 486.951 493.423 491.422 495.333 496.017C495.995 497.685 496.662 499.305 497.281 501.02C497.807 502.402 498.279 503.784 498.757 505.166C499.375 507.119 499.994 509.072 500.564 511.026C500.944 512.456 501.323 513.885 501.655 515.314C501.845 516.124 502.039 516.982 502.229 517.792C502.561 519.317 502.892 520.889 503.179 522.462L503.32 523.271C503.369 523.509 503.418 523.795 503.462 524.034C503.559 524.606 503.656 525.177 503.749 525.749C504.796 532.039 505.269 538.614 505.225 545.237Z" fill="#662D91"/>
<path opacity="0.57" d="M506.603 545.523C506.603 551.431 506.174 557.339 505.366 563.248C504.747 567.822 503.846 572.396 502.702 576.922C491.811 619.614 459.71 653.634 417.813 666.928C358.13 665.737 307.338 623.093 295.734 564.439C295.687 564.248 295.639 564.01 295.592 563.819L295.306 562.247L295.069 560.77L295.021 560.531C294.926 560.055 294.879 559.579 294.783 559.102C294.688 558.626 294.64 558.197 294.593 557.72C294.593 557.625 294.545 557.482 294.545 557.387C294.498 557.149 294.45 556.911 294.45 556.672C294.45 556.434 294.403 556.196 294.355 555.957L294.213 554.671C294.213 554.528 294.165 554.385 294.165 554.242C294.117 553.861 294.07 553.432 294.022 553.051C293.927 552.384 293.88 551.717 293.832 551.002C293.832 550.764 293.785 550.478 293.785 550.24C293.737 549.382 293.642 548.524 293.594 547.667C293.547 547.286 293.547 546.857 293.499 546.428V546.094C293.499 545.57 293.452 545.046 293.452 544.522V542.902C293.452 542.378 293.452 541.854 293.404 541.33C293.357 540.805 293.404 540.281 293.404 539.758C293.404 534.802 293.69 529.799 294.26 524.892C294.64 521.604 295.164 518.364 295.782 515.172C295.925 514.361 296.115 513.504 296.305 512.694C296.631 511.18 296.98 509.671 297.351 508.167C298.017 505.594 298.731 503.069 299.539 500.592C299.872 499.495 300.252 498.447 300.633 497.399C302.202 492.92 304.057 488.537 306.102 484.248C306.91 482.581 307.766 480.961 308.622 479.341C324.319 450.228 350.712 428.405 382.195 418.4C389.472 418.542 396.748 419.305 403.879 420.687C413.819 422.593 423.521 425.737 432.698 429.978C446.252 436.22 458.619 444.844 469.222 455.421C470.459 456.661 471.647 457.899 472.836 459.186C475.373 461.917 477.785 464.763 480.063 467.714C481.111 469.049 482.158 470.43 483.108 471.812C484.717 474.083 486.257 476.403 487.725 478.769L487.915 479.102C488.675 480.341 489.434 481.58 490.15 482.867C492.571 487.202 494.763 491.681 496.662 496.255C497.329 497.923 497.997 499.543 498.615 501.258C499.136 502.64 499.614 504.022 500.086 505.404C500.705 507.357 501.323 509.311 501.893 511.264C502.273 512.694 502.658 514.123 502.989 515.553C503.179 516.362 503.369 517.22 503.559 518.03C503.89 519.555 504.226 521.127 504.509 522.7L504.655 523.51C504.699 523.748 504.747 524.034 504.796 524.272C504.889 524.844 504.986 525.416 505.079 525.987C506.092 532.45 506.602 538.981 506.603 545.523V545.523Z" fill="#0E0C30"/>
<path opacity="0.18" d="M506.506 530.609C473.216 533.897 432.415 539.138 388.473 545.904C337.299 553.813 290.836 562.533 255.834 570.347C255.787 570.156 255.739 569.918 255.739 569.727L255.454 568.155C255.359 567.631 255.264 567.154 255.216 566.678L255.168 566.44C255.073 565.964 255.026 565.487 254.931 565.01C254.836 564.534 254.788 564.105 254.74 563.629C254.74 563.534 254.693 563.391 254.693 563.295C254.645 563.057 254.597 562.819 254.597 562.58C254.597 562.342 254.55 562.104 254.502 561.866L254.36 560.579C254.36 560.436 254.313 560.293 254.313 560.15C254.265 559.769 254.217 559.34 254.17 558.959C254.074 558.292 254.027 557.625 253.979 556.91C253.979 556.672 253.932 556.386 253.932 556.148C253.837 555.29 253.789 554.433 253.742 553.575C253.742 553.194 253.694 552.765 253.694 552.336V552.003C253.694 551.479 253.647 550.954 253.647 550.43C253.647 550.097 253.647 549.811 253.599 549.477V548.858C253.599 548.334 253.599 547.81 253.551 547.286C253.504 546.762 253.551 546.237 253.551 545.713V544.856C290.646 536.231 333.782 527.941 379.96 520.794C416.435 515.124 451.293 510.74 483.015 507.643C487.769 507.167 492.43 506.738 496.998 506.356L501.182 505.975C501.752 507.739 502.273 509.501 502.799 511.312C503.179 512.741 503.559 514.171 503.89 515.6C504.08 516.41 504.27 517.268 504.465 518.078C505.317 522.176 505.985 526.321 506.506 530.609V530.609Z" fill="#A738E8"/>
<g opacity="0.08">
<path opacity="0.08" d="M489.863 468.477L496.803 482.867C494.763 481.199 491.003 480.055 485.869 479.436C445.156 474.433 316.612 499.877 252.98 521.318C253.123 520.508 253.313 519.65 253.503 518.84C253.83 517.326 254.178 515.817 254.55 514.314C255.215 511.741 255.929 509.215 256.737 506.738C333.256 482.39 407.541 466.285 477.974 468C481.968 468.143 485.913 468.286 489.863 468.477V468.477Z" fill="url(#paint0_linear_249_163)"/>
</g>
<path d="M498.279 506.262C461.896 509.358 420.619 514.266 377.057 521.032C330.879 528.179 287.743 536.47 250.649 545.094C173.369 563.009 122.102 582.164 123.434 594.885V595.124C123.671 596.696 124.765 598.126 126.572 599.412L127 599.698C127.143 599.793 127.286 599.888 127.428 599.936C127.571 599.984 127.714 600.127 127.904 600.222L128.142 600.365C128.237 600.413 128.38 600.508 128.475 600.556C128.57 600.603 128.712 600.699 128.855 600.746L129.235 600.937C129.616 601.128 130.092 601.318 130.52 601.509H130.567C131.471 601.89 132.469 602.223 133.563 602.557L134.039 602.7L134.562 602.843L135.085 602.986C135.275 603.033 135.418 603.081 135.608 603.129L136.131 603.272L136.655 603.415C137.415 603.605 138.176 603.796 138.985 603.939L139.603 604.129H139.65C140.126 604.224 140.649 604.32 141.172 604.415L141.505 604.462L142.266 604.605L143.693 604.844L143.883 604.891C144.596 604.987 145.31 605.13 146.071 605.225C146.927 605.368 147.783 605.463 148.686 605.606L149.542 605.702L150.398 605.797C151.873 605.988 153.395 606.13 154.964 606.273L156.581 606.416C181.548 608.56 219.119 607.703 264.393 603.939H264.488C264.25 603.51 264.06 603.033 263.822 602.604C263.679 602.366 263.584 602.128 263.442 601.89L263.204 601.413V601.27C262.49 599.832 261.824 598.37 261.207 596.887C260.67 595.676 260.163 594.453 259.685 593.218L259.59 593.027L257.735 593.17L255.262 593.409L253.645 593.552C251.362 593.742 249.127 593.933 246.939 594.076L243.753 594.314C237.713 594.742 232.101 595.124 226.918 595.362C220.307 595.696 214.41 595.839 209.369 595.886H204.709L203.615 595.839H202.949L201.522 595.791C200.856 595.743 200.191 595.743 199.573 595.696L199.097 595.648L198.621 595.6L197.718 595.553C196.814 595.457 195.958 595.41 195.15 595.314L194.532 595.219C193.913 595.124 193.343 595.076 192.819 594.933L192.486 594.885H192.391L192.011 594.79C191.773 594.742 191.535 594.695 191.345 594.647L190.822 594.504C190.679 594.457 190.489 594.409 190.346 594.361C190.204 594.314 190.014 594.266 189.871 594.219L189.538 594.076L189.252 593.933L188.967 593.79L188.729 593.647C188.634 593.599 188.539 593.552 188.444 593.456C188.397 593.409 188.349 593.409 188.301 593.361C188.254 593.313 188.206 593.266 188.159 593.218C188.111 593.17 188.064 593.123 188.016 593.075C187.969 593.027 187.921 592.98 187.921 592.932C187.921 592.932 187.874 592.884 187.874 592.837C187.826 592.741 187.778 592.694 187.778 592.598C187.778 592.551 187.778 592.503 187.731 592.503V592.408C187.493 590.979 189.966 589.168 194.722 587.071L195.055 586.928C205.279 582.497 225.682 576.827 253.074 570.681C288.076 562.819 334.542 554.147 385.712 546.237C429.654 539.424 470.459 534.23 503.749 530.943C512.784 530.038 521.249 529.275 529.095 528.703V504.022C519.252 504.594 508.931 505.356 498.279 506.262V506.262ZM504.177 556.1C503.939 559.15 503.603 562.152 503.13 565.154C503.082 565.487 503.033 565.773 502.989 566.107C502.892 566.583 502.843 567.06 502.75 567.488L503.988 567.203L505.415 566.869L506.457 566.631C514.211 564.868 521.726 563.105 529.003 561.342V550.621C521.346 552.384 513.022 554.242 504.177 556.1Z" fill="url(#paint1_linear_249_163)"/>
<path d="M501.275 509.978C464.897 513.075 423.614 517.983 380.052 524.749C333.875 531.896 290.74 540.234 253.646 548.81C178.172 566.297 127.571 584.975 126.43 597.697C126.383 598.078 126.383 598.459 126.478 598.84L126.62 599.412L127.048 599.698C127.191 599.793 127.334 599.888 127.476 599.936C127.619 599.984 127.762 600.127 127.952 600.222L128.19 600.365C128.285 600.413 128.428 600.508 128.523 600.556C128.618 600.603 128.76 600.699 128.903 600.746L129.283 600.937C129.664 601.127 130.14 601.318 130.568 601.508H130.615C131.519 601.889 132.517 602.223 133.611 602.557L134.087 602.7L134.61 602.843L135.133 602.986C135.323 603.033 135.466 603.081 135.656 603.129L136.179 603.272L136.702 603.415C137.464 603.605 138.224 603.796 139.033 603.939L139.604 604.081H139.651C140.127 604.177 140.65 604.272 141.173 604.367L141.506 604.415L142.267 604.558L143.693 604.796L143.883 604.844C144.597 604.939 145.31 605.082 146.071 605.177C146.927 605.32 147.783 605.416 148.687 605.559L149.543 605.654L150.399 605.749C151.873 605.94 153.395 606.083 154.964 606.226L156.581 606.368C181.549 608.513 219.119 607.655 264.393 603.891H264.488C264.251 603.462 264.06 602.986 263.823 602.557C263.68 602.318 263.585 602.08 263.442 601.842L263.205 601.366V601.223C262.491 599.784 261.824 598.322 261.207 596.839L259.352 596.982C243.659 598.316 230.105 599.174 219.262 599.459C213.65 599.602 208.799 599.602 204.757 599.459C201.808 599.364 199.335 599.126 197.29 598.84L196.767 598.745C193.01 598.173 190.918 597.268 190.727 596.077C190.68 595.505 190.918 594.933 191.346 594.552C195.483 589.882 219.547 582.592 256.023 574.397C291.026 566.535 337.488 557.863 388.658 549.954C432.605 543.14 473.405 537.947 506.696 534.659C514.591 533.897 522.057 533.182 529.046 532.658V508.025C520.158 508.501 510.884 509.168 501.275 509.978V509.978ZM507.173 559.817C507.032 562.104 506.793 564.391 506.457 566.631C506.37 567.38 506.26 568.127 506.126 568.87L505.984 569.823C505.887 570.299 505.843 570.776 505.746 571.205C509.978 570.252 514.162 569.299 518.302 568.346L519.729 568.012L520.776 567.774C523.533 567.107 526.29 566.488 529.003 565.82V555.052C522.198 556.577 514.922 558.197 507.173 559.817V559.817Z" fill="url(#paint2_linear_249_163)"/>
<path d="M528.857 515.219C492.479 518.316 451.196 523.224 407.634 529.99C361.456 537.137 318.322 545.428 281.228 554.052C207.943 571.014 158.055 589.12 154.203 601.794V601.842C153.965 602.557 153.918 603.319 154.013 604.081V604.177C154.108 604.653 154.251 605.177 154.488 605.606C154.583 605.797 154.726 605.988 154.821 606.178L154.869 606.273L156.486 606.416C181.453 608.56 219.023 607.703 264.297 603.939C254.215 604.558 245.56 604.844 238.522 604.844C233.909 604.844 230.009 604.653 226.87 604.367C223.636 604.034 221.259 603.558 219.832 602.938C218.833 602.509 218.31 601.985 218.215 601.366C218.12 600.746 218.453 600.174 219.166 599.507C220.498 598.269 223.066 596.887 226.775 595.362C220.165 595.696 214.267 595.839 209.226 595.886H204.661L203.567 595.839H202.902L201.475 595.791C200.809 595.743 200.143 595.743 199.525 595.696L199.049 595.648L198.574 595.6L197.67 595.553C196.767 595.457 195.91 595.41 195.102 595.314L194.484 595.219C193.866 595.124 193.295 595.076 192.772 594.933L192.439 594.885H192.344L191.963 594.79C191.726 594.742 191.488 594.695 191.297 594.647L190.774 594.504L190.299 594.361C190.156 594.314 189.966 594.266 189.823 594.218L189.491 594.076L189.205 593.933L188.92 593.79L188.682 593.647C188.587 593.599 188.492 593.552 188.397 593.456C188.349 593.409 188.302 593.409 188.254 593.361L188.111 593.218L187.968 593.075C187.921 593.027 187.873 592.98 187.873 592.932C187.873 592.932 187.826 592.884 187.826 592.837C187.779 592.741 187.731 592.694 187.731 592.598C187.731 592.551 187.731 592.503 187.683 592.503V592.408C187.445 590.979 189.919 589.168 194.674 587.071L195.007 586.928C205.232 582.497 225.634 576.827 253.027 570.68C288.029 562.819 334.493 554.147 385.663 546.237C429.605 539.424 470.41 534.23 503.7 530.943C512.735 530.038 521.2 529.275 529.047 528.703V515.219H528.857V515.219Z" fill="url(#paint3_linear_249_163)"/>
<path d="M168.376 592.599C168.49 592.602 168.603 592.581 168.71 592.539C168.816 592.498 168.913 592.435 168.994 592.355C169.076 592.275 169.141 592.179 169.185 592.074C169.229 591.969 169.252 591.855 169.252 591.741C169.252 591.626 169.229 591.513 169.185 591.408C169.141 591.302 169.076 591.207 168.994 591.127C168.912 591.047 168.816 590.984 168.709 590.943C168.603 590.901 168.489 590.881 168.375 590.883C168.152 590.889 167.939 590.982 167.783 591.142C167.627 591.302 167.54 591.517 167.54 591.741C167.54 591.965 167.627 592.18 167.784 592.341C167.94 592.501 168.152 592.594 168.376 592.599Z" fill="white"/>
<path d="M219.452 584.594C219.59 584.594 219.723 584.539 219.821 584.44C219.92 584.342 219.975 584.209 219.975 584.07C219.975 583.931 219.92 583.797 219.821 583.699C219.723 583.601 219.59 583.546 219.452 583.546C219.313 583.546 219.18 583.601 219.082 583.699C218.984 583.797 218.928 583.931 218.928 584.07C218.928 584.209 218.984 584.342 219.082 584.44C219.18 584.539 219.313 584.594 219.452 584.594V584.594ZM253.55 569.108C253.714 569.108 253.871 569.043 253.987 568.927C254.103 568.811 254.168 568.653 254.168 568.489C254.168 568.325 254.103 568.167 253.987 568.051C253.871 567.935 253.714 567.87 253.55 567.87C253.386 567.87 253.229 567.935 253.113 568.051C252.997 568.167 252.932 568.325 252.932 568.489C252.932 568.653 252.997 568.811 253.113 568.927C253.229 569.043 253.386 569.108 253.55 569.108V569.108ZM194.818 587.215C194.868 587.215 194.917 587.195 194.953 587.159C194.988 587.123 195.008 587.074 195.008 587.024C195.008 586.973 194.988 586.925 194.953 586.889C194.917 586.853 194.868 586.833 194.818 586.833C194.767 586.833 194.719 586.853 194.683 586.889C194.648 586.925 194.627 586.973 194.627 587.024C194.627 587.074 194.648 587.123 194.683 587.159C194.719 587.195 194.767 587.215 194.818 587.215V587.215ZM244.086 593.552C244.187 593.552 244.283 593.511 244.355 593.44C244.426 593.368 244.466 593.271 244.466 593.17C244.466 593.069 244.426 592.972 244.355 592.901C244.283 592.829 244.187 592.789 244.086 592.789C243.985 592.789 243.888 592.829 243.817 592.901C243.745 592.972 243.705 593.069 243.705 593.17C243.705 593.271 243.745 593.368 243.817 593.44C243.888 593.511 243.985 593.552 244.086 593.552V593.552ZM272.668 557.101C272.744 557.101 272.816 557.071 272.87 557.017C272.924 556.963 272.954 556.89 272.953 556.814C272.953 556.739 272.923 556.666 272.869 556.612C272.816 556.558 272.743 556.528 272.667 556.529C272.591 556.529 272.518 556.559 272.465 556.613C272.411 556.667 272.381 556.74 272.382 556.815C272.382 556.891 272.412 556.964 272.466 557.018C272.519 557.072 272.592 557.102 272.668 557.101ZM362.075 552.384C362.391 552.384 362.645 552.128 362.645 551.812C362.645 551.497 362.391 551.24 362.075 551.24C361.758 551.24 361.505 551.497 361.505 551.812C361.505 552.128 361.758 552.384 362.075 552.384ZM378.625 541.949C378.781 541.949 378.912 541.822 378.912 541.663C378.912 541.587 378.881 541.515 378.827 541.461C378.773 541.408 378.701 541.378 378.625 541.377C378.469 541.377 378.338 541.505 378.338 541.663C378.338 541.822 378.469 541.949 378.625 541.949ZM500.992 531.754C501.094 531.754 501.182 531.668 501.182 531.563C501.182 531.512 501.162 531.464 501.126 531.428C501.091 531.392 501.042 531.372 500.992 531.371C500.885 531.371 500.802 531.457 500.802 531.563C500.802 531.668 500.885 531.754 500.992 531.754Z" fill="white" stroke="white" stroke-width="0.613" stroke-miterlimit="10"/>
<path d="M245.276 596.029C245.49 596.033 245.704 595.994 245.903 595.914C246.102 595.834 246.284 595.715 246.437 595.565C246.59 595.414 246.712 595.234 246.795 595.036C246.878 594.837 246.921 594.624 246.921 594.409C246.921 594.194 246.878 593.981 246.795 593.782C246.712 593.584 246.591 593.404 246.438 593.253C246.284 593.103 246.103 592.984 245.903 592.904C245.704 592.824 245.491 592.785 245.276 592.789C244.852 592.796 244.448 592.97 244.151 593.273C243.854 593.576 243.687 593.984 243.687 594.409C243.687 594.833 243.853 595.241 244.15 595.544C244.448 595.847 244.852 596.021 245.276 596.029V596.029ZM197.67 568.346C197.751 568.346 197.832 568.33 197.907 568.299C197.982 568.268 198.05 568.223 198.107 568.165C198.165 568.108 198.21 568.039 198.241 567.964C198.273 567.889 198.289 567.809 198.289 567.727C198.289 567.646 198.273 567.565 198.242 567.49C198.211 567.415 198.165 567.347 198.108 567.289C198.051 567.232 197.983 567.186 197.908 567.155C197.833 567.124 197.752 567.108 197.671 567.107C197.507 567.107 197.35 567.172 197.234 567.289C197.118 567.405 197.053 567.562 197.052 567.726C197.052 567.891 197.117 568.048 197.233 568.164C197.349 568.281 197.506 568.346 197.67 568.346V568.346ZM254.406 594.505C254.521 594.507 254.634 594.487 254.74 594.445C254.847 594.403 254.943 594.341 255.025 594.261C255.107 594.181 255.171 594.085 255.216 593.98C255.26 593.874 255.283 593.761 255.283 593.647C255.283 593.532 255.26 593.419 255.216 593.314C255.171 593.208 255.106 593.113 255.025 593.033C254.943 592.953 254.846 592.89 254.74 592.848C254.634 592.807 254.52 592.786 254.406 592.789C254.182 592.795 253.97 592.887 253.814 593.048C253.658 593.208 253.57 593.423 253.57 593.647C253.57 593.871 253.658 594.086 253.814 594.247C253.97 594.407 254.183 594.499 254.406 594.505Z" fill="white" stroke="white" stroke-width="0.613" stroke-miterlimit="10"/>
<path d="M497.899 506.5C508.883 505.547 519.393 504.832 529.383 504.213V537.375C526.431 537.661 523.436 537.947 520.348 538.233C487.058 541.52 446.252 546.762 402.31 553.527C351.136 561.437 304.674 570.156 269.672 577.971C238.38 585.022 216.218 591.36 207.943 595.982H213.222L215.362 595.934C219.073 595.828 222.782 595.685 226.491 595.505C236.002 595.028 246.988 594.218 259.162 593.17L259.59 594.171C259.971 595.124 260.351 596.077 260.779 597.029L261.207 598.03L261.635 599.031C261.73 599.269 261.873 599.507 261.968 599.745C262.206 600.222 262.443 600.746 262.682 601.223C262.729 601.366 262.824 601.461 262.871 601.604C263.014 601.889 263.157 602.128 263.252 602.414L264.108 604.129H263.823C256.061 604.776 248.293 605.348 240.52 605.845C236.002 606.13 231.627 606.416 227.346 606.607C198.527 608.084 174.273 608.132 156.439 606.607L154.584 606.464H154.394C153.855 606.418 153.316 606.371 152.777 606.321H152.634C149.163 605.94 145.929 605.559 143.028 605.034C142.41 604.939 141.744 604.796 141.125 604.701H140.84C139.697 604.472 138.555 604.234 137.416 603.986H137.321C135.906 603.68 134.509 603.298 133.136 602.843H133.088L132.565 602.652L132.423 602.604H132.375C131.709 602.366 131.043 602.128 130.425 601.889L130.33 601.842L129.617 601.556L129.521 601.508C129.141 601.366 128.808 601.175 128.475 601.032C128.332 600.985 128.237 600.889 128.095 600.842L128.047 600.889L127.477 600.603L127.334 600.508C127.191 600.413 127.001 600.317 126.858 600.222L126.763 600.174L126.716 600.127C126.525 600.031 126.335 599.888 126.192 599.793C125.226 599.158 124.401 598.331 123.767 597.363C123.392 596.806 123.148 596.17 123.054 595.505C121.104 582.783 172.513 563.486 250.269 545.523C287.363 536.899 330.499 528.608 376.677 521.461C420.239 514.552 461.468 509.597 497.899 506.5Z" fill="url(#paint4_linear_249_163)"/>
<path d="M267.057 607.464C246.607 608.846 178.172 611.276 155.868 606.226C154.299 606.083 152.777 605.94 151.303 605.749L150.399 605.654L149.543 605.559C148.64 605.463 147.784 605.32 146.928 605.177C146.167 605.082 145.453 604.939 144.74 604.844L144.55 604.796L143.123 604.558L142.362 604.415L142.029 604.367L140.508 604.082H140.46L139.841 603.939C139.033 603.748 138.272 603.605 137.511 603.415L136.988 603.272L136.465 603.129C136.275 603.081 136.085 603.033 135.942 602.986L135.419 602.843L134.896 602.7L134.42 602.557C133.326 602.223 132.328 601.842 131.424 601.509H131.376C130.724 601.278 130.074 601.04 129.427 600.794L129.331 600.746L128.618 600.46L128.523 600.413C128.142 600.27 127.81 600.079 127.477 599.936L128.333 599.984C132.328 600.317 136.846 600.699 141.363 601.032C145.923 601.399 150.49 601.685 155.06 601.89C158.865 602.033 162.241 602.08 164.952 601.89C175.272 601.271 187.541 600.556 197.623 598.793C201.571 598.173 205.423 597.22 209.18 595.886C209.941 595.6 210.892 595.314 211.938 594.981C222.258 589.835 246.75 586.119 257.165 584.689C259.448 591.55 263.775 601.175 267.057 607.464V607.464Z" fill="url(#paint5_linear_249_163)"/>
<path d="M589.465 910.199L604.359 910.593C599.464 912.315 594.495 912.085 589.465 910.199L-139.885 890.894L-139.883 828.404V787.289L-140.557 787.578L-142 788.155L-141.23 778.43L-139.788 759.655L-138.152 738.182C-138.152 738.182 -55.719 680.506 46.1433 674.536C112.417 670.685 193.215 723.161 252.562 720.657C311.911 718.154 338.555 657.204 401.461 640.643C459.539 625.353 528.963 887.516 589.465 910.199Z" fill="#5A2489"/>
<path d="M635.995 911.457L653.526 911.921C648.05 913.848 642.183 913.568 635.995 911.457L-139.885 890.893L-139.883 828.404L-136.71 786.133L-135.94 775.253L-134.882 761.195C-134.882 761.195 -41.8678 695.623 59.9944 701.304C143.486 705.926 195.523 758.691 254.872 756.188C314.219 753.684 347.212 690.616 410.215 674.151C467.719 659.012 570.118 888.983 635.995 911.457Z" fill="#5A2878"/>
<path d="M286.5 851C286.5 851 -191.502 851.306 -273 850.877L-273 829.686L-273 767.492V726.378L-269.826 725.221C-234.14 713.283 -193.068 728.881 -172.676 744.48C-137.279 771.536 -124.198 795.223 -90.4355 799.652C-84.2788 800.422 -78.0637 800.615 -71.8711 800.23C-23.296 797.533 -33.5892 765.567 12.6777 741.013C14.9859 739.762 17.3909 738.702 19.796 737.739C64.138 719.83 111.078 749.871 111.078 749.871L286.5 851Z" fill="#3F1C59"/>
<path d="M1286.98 826.203V879.065L-227 867.605C18.1823 809.736 273.736 792.599 526.518 784.319C574.707 782.778 622.898 781.911 671.185 782.007C694.077 782.007 716.778 782.2 739.477 782.489C899.538 784.896 1054.39 795.97 1201.85 814.552C1230.52 818.115 1258.9 821.967 1286.98 826.203Z" fill="url(#paint6_linear_249_163)"/>
<path d="M167.93 721.121V780.497C167.93 787.156 162.545 792.625 155.814 792.625H99.1929C92.5408 792.625 87.0762 787.234 87.0762 780.497V720.407C87.0762 709.151 91.7485 698.449 99.9844 690.76C101.093 689.65 102.361 688.698 103.628 687.748C107.983 684.497 112.971 682.277 118.198 681.009C119.307 680.771 120.416 680.533 121.603 680.375C122.078 680.296 122.554 680.217 123.029 680.217C123.742 680.137 124.454 680.058 125.088 680.058H125.642C126.275 680.058 126.91 679.979 127.543 679.979H128.255C128.652 679.979 128.969 679.979 129.285 680.058H129.76C130.156 680.058 130.631 680.137 131.027 680.137C131.423 680.137 131.74 680.217 132.136 680.217C132.294 680.217 132.452 680.217 132.611 680.296L134.274 680.533C134.828 680.613 135.62 680.771 136.253 680.93C140.688 681.961 144.965 683.705 148.845 686.162C150.135 686.961 151.378 687.835 152.567 688.778C162.307 696.785 167.93 708.596 167.93 721.121V721.121Z" fill="#C197F2"/>
<path d="M112.021 697.657L104.576 669.515C106.002 667.929 105.843 665.472 104.26 664.045C102.676 662.618 100.221 662.776 98.7952 664.362C97.3703 665.948 97.5284 668.405 99.1115 669.832C99.4287 670.149 99.8252 670.387 100.221 670.545L107.744 698.766L112.02 697.657H112.021Z" fill="url(#paint7_linear_249_163)"/>
<path d="M157.16 665.313C156.763 663.173 154.705 661.667 152.566 662.064C150.428 662.46 148.924 664.521 149.32 666.661C149.478 667.375 149.715 668.009 150.191 668.563L141.638 698.687L145.914 699.876L154.467 669.673C156.289 669.039 157.476 667.216 157.16 665.313V665.313Z" fill="url(#paint8_linear_249_163)"/>
<path d="M104.893 697.26C105.173 697.26 105.451 697.205 105.711 697.098C105.97 696.99 106.206 696.832 106.404 696.634C106.603 696.435 106.761 696.199 106.868 695.94C106.976 695.68 107.031 695.402 107.031 695.121C107.031 694.84 106.976 694.561 106.868 694.302C106.761 694.042 106.604 693.806 106.405 693.607C106.207 693.408 105.971 693.251 105.712 693.143C105.452 693.036 105.174 692.98 104.893 692.98C104.326 692.98 103.783 693.206 103.382 693.607C102.981 694.008 102.756 694.553 102.756 695.12C102.756 695.688 102.981 696.232 103.382 696.633C103.783 697.035 104.326 697.26 104.893 697.26H104.893ZM111.703 690.68C111.9 690.68 112.096 690.641 112.279 690.566C112.461 690.49 112.627 690.379 112.767 690.239C112.906 690.1 113.017 689.934 113.093 689.751C113.169 689.568 113.208 689.372 113.208 689.175C113.208 688.977 113.169 688.781 113.093 688.598C113.018 688.415 112.907 688.249 112.767 688.11C112.628 687.97 112.462 687.859 112.279 687.783C112.097 687.707 111.901 687.668 111.704 687.668C111.305 687.668 110.922 687.827 110.64 688.109C110.358 688.392 110.199 688.775 110.199 689.174C110.199 689.574 110.358 689.957 110.64 690.239C110.922 690.521 111.305 690.68 111.704 690.68H111.703Z" fill="white"/>
<path d="M264.462 736.421V787.156C264.462 792.863 259.869 797.46 254.167 797.46H205.861C204.508 797.463 203.169 797.198 201.918 796.681C200.668 796.165 199.532 795.406 198.576 794.448C197.619 793.491 196.861 792.354 196.345 791.102C195.828 789.851 195.564 788.51 195.567 787.156V735.866C195.567 726.274 199.526 717.157 206.574 710.578C207.524 709.627 208.554 708.834 209.662 708.041C213.384 705.267 217.581 703.364 222.095 702.334C223.046 702.096 223.995 701.937 225.025 701.778L226.292 701.62C226.847 701.541 227.48 701.462 228.034 701.462H231.915C232.311 701.462 232.628 701.541 233.024 701.541L233.973 701.62L234.37 701.7L235.795 701.937C236.27 702.016 236.904 702.096 237.458 702.254C241.26 703.126 244.902 704.633 248.149 706.773C249.236 707.467 250.292 708.208 251.316 708.993C259.632 715.651 264.462 725.719 264.462 736.421V736.421Z" fill="#C197F2"/>
<path d="M216.711 716.365L210.296 692.345C211.484 690.998 211.404 688.857 209.979 687.668C208.633 686.48 206.495 686.558 205.307 687.986C204.119 689.333 204.198 691.473 205.624 692.663C205.94 692.901 206.258 693.138 206.574 693.297L212.988 717.395L216.711 716.365Z" fill="url(#paint9_linear_249_163)"/>
<path d="M255.197 688.698C254.88 686.876 253.138 685.607 251.316 685.924C249.496 686.242 248.228 687.986 248.545 689.808C248.703 690.364 248.941 690.918 249.337 691.394L242.051 717.157L245.694 718.188L252.98 692.425C254.564 691.949 255.513 690.364 255.197 688.698Z" fill="url(#paint10_linear_249_163)"/>
<path d="M210.613 716.048C210.852 716.048 211.089 716.001 211.31 715.909C211.531 715.818 211.731 715.683 211.9 715.514C212.07 715.345 212.204 715.144 212.295 714.923C212.387 714.702 212.434 714.465 212.434 714.225C212.434 713.986 212.387 713.749 212.296 713.528C212.204 713.307 212.07 713.106 211.901 712.937C211.732 712.767 211.531 712.633 211.31 712.541C211.089 712.45 210.853 712.402 210.614 712.402C210.131 712.402 209.668 712.594 209.326 712.936C208.985 713.278 208.793 713.741 208.792 714.225C208.792 714.708 208.984 715.172 209.325 715.514C209.667 715.855 210.13 716.048 210.613 716.048V716.048ZM216.471 710.34C216.807 710.34 217.129 710.207 217.367 709.969C217.604 709.731 217.738 709.408 217.738 709.072C217.738 708.736 217.604 708.413 217.367 708.175C217.129 707.938 216.807 707.804 216.471 707.804C216.135 707.804 215.813 707.938 215.575 708.175C215.337 708.413 215.204 708.736 215.204 709.072C215.204 709.408 215.337 709.731 215.575 709.969C215.813 710.207 216.135 710.34 216.471 710.34Z" fill="white"/>
<path d="M159.059 721.121V780.497C159.059 787.156 153.674 792.625 146.943 792.625H99.2707C92.6179 792.625 87.1541 787.234 87.1541 780.497V720.407C87.1541 709.151 91.8255 698.45 100.062 690.76C101.171 689.65 102.438 688.699 103.705 687.748C108.06 684.497 113.049 682.277 118.275 681.009C119.384 680.771 120.494 680.533 121.682 680.375C122.156 680.296 122.631 680.217 123.107 680.217H123.344C123.502 680.217 123.661 680.217 123.819 680.296L125.482 680.533C126.195 680.613 126.828 680.771 127.462 680.93C131.897 681.961 136.172 683.705 140.053 686.162C141.343 686.961 142.586 687.835 143.776 688.778C153.357 696.785 159.059 708.596 159.059 721.121V721.121ZM256.86 736.421V787.156C256.86 792.863 252.267 797.461 246.566 797.461H205.861C204.508 797.463 203.169 797.198 201.918 796.681C200.668 796.165 199.532 795.406 198.576 794.448C197.62 793.491 196.861 792.354 196.345 791.102C195.829 789.851 195.564 788.51 195.567 787.156V735.866C195.567 726.274 199.526 717.157 206.574 710.578C207.525 709.627 208.554 708.834 209.662 708.041C213.384 705.267 217.581 703.364 222.095 702.334C223.046 702.096 223.996 701.937 225.026 701.778L226.292 701.62H226.451L226.847 701.7L228.272 701.937C228.747 702.016 229.381 702.096 229.936 702.254C233.76 703.125 237.404 704.654 240.705 706.773C241.792 707.468 242.849 708.208 243.873 708.993C252.029 715.572 256.86 725.719 256.86 736.421V736.421Z" fill="#8B4FD1"/>
<path d="M124.453 783.587V806.181C124.532 810.699 121.998 814.9 118.038 817.041C116.548 817.823 114.891 818.231 113.208 818.23C106.952 818.23 101.963 812.84 101.963 806.181V783.587H124.453ZM151.457 783.587V806.181C151.537 810.699 149.002 814.9 145.043 817.041C143.553 817.823 141.895 818.231 140.213 818.23C133.956 818.23 128.968 812.84 128.968 806.181V783.587H151.457ZM227.399 789.771V809.034C227.479 812.918 225.341 816.486 221.935 818.309C220.669 818.943 219.243 819.339 217.818 819.261C212.512 819.261 208.236 814.663 208.236 808.955V789.692H227.399V789.771ZM250.445 789.771V809.034C250.525 812.918 248.307 816.486 244.902 818.309C243.635 818.943 242.21 819.261 240.784 819.261C235.479 819.261 231.202 814.663 231.202 808.955V789.692H250.445V789.771Z" fill="#F78F08"/>
<path d="M167.93 758.696V782.319C167.93 788.027 162.545 792.625 155.814 792.625H99.1929C98.2423 792.625 97.2132 792.545 96.2626 792.308C90.9569 791.198 87.0762 787.155 87.0762 782.319V758.696H167.93ZM264.462 768.447V788.582C264.462 793.417 259.87 797.381 254.167 797.381H205.861C204.99 797.381 204.198 797.302 203.406 797.144C198.893 796.192 195.567 792.705 195.567 788.582V768.447H264.462V768.447Z" fill="#F78F08"/>
<path d="M118.831 796.577V824.64C118.831 826.464 118.593 828.287 118.038 830.031C116.548 830.813 114.891 831.221 113.208 831.219C106.952 831.219 101.963 825.829 101.963 819.171V796.577H118.831V796.577ZM145.835 796.657V824.72C145.835 826.542 145.598 828.366 145.043 830.11C143.553 830.892 141.895 831.301 140.213 831.299C133.956 831.299 128.968 825.908 128.968 819.249V796.657H145.835Z" fill="#B8306F"/>
<path d="M162.228 758.696V782.319C162.228 788.027 156.843 792.625 150.111 792.625H96.2634V792.308C90.9576 791.198 87.0769 787.155 87.0769 782.319V758.696H162.229H162.228ZM222.569 789.771V813.712C222.564 815.265 222.351 816.812 221.935 818.309C220.669 818.943 219.243 819.339 217.818 819.261C212.512 819.261 208.236 814.663 208.236 808.955V789.692H222.569V789.771V789.771ZM245.615 789.771V813.712C245.61 815.265 245.397 816.812 244.981 818.309C243.715 818.943 242.289 819.261 240.864 819.261C235.558 819.261 231.282 814.663 231.282 808.955V789.692H245.615V789.771V789.771Z" fill="#B8306F"/>
<path d="M259.632 768.447V788.582C259.632 793.417 255.038 797.381 249.337 797.381H203.406V797.144C198.893 796.192 195.567 792.705 195.567 788.582V768.447H259.632V768.447Z" fill="#B8306F"/>
<path d="M167.93 737.53V742.128C164.604 737.372 160.723 732.615 153.358 733.487C145.914 734.359 139.262 745.933 139.262 745.933L127.542 741.336C127.542 741.336 137.283 729.365 151.458 729.365C160.327 729.365 164.286 734.439 167.93 737.53V737.53ZM264.462 750.372V754.336C261.612 750.294 258.286 746.171 252.029 746.964C245.695 747.757 239.992 757.587 239.992 757.587L230.014 753.623C230.014 753.623 238.33 743.397 250.446 743.397C257.969 743.397 261.374 747.836 264.462 750.372Z" fill="#5A2489"/>
<path d="M141.638 737.452H91.4297V777.405H141.637V737.452H141.638Z" fill="#8342BD"/>
<path d="M123.741 737.452H71V777.405H123.741V737.452Z" fill="#5A2489"/>
<path d="M143.603 698.891C143.641 698.441 143.59 697.987 143.452 697.557C143.314 697.127 143.092 696.728 142.798 696.385C142.505 696.041 142.146 695.759 141.743 695.556C141.34 695.352 140.901 695.231 140.45 695.199C140 695.167 139.548 695.225 139.12 695.369C138.692 695.514 138.297 695.742 137.958 696.041C137.619 696.339 137.343 696.702 137.146 697.109C136.948 697.515 136.834 697.957 136.808 698.408C136.758 699.303 137.061 700.181 137.652 700.853C138.243 701.525 139.075 701.938 139.968 702.001C140.86 702.065 141.742 701.774 142.422 701.192C143.102 700.61 143.526 699.784 143.603 698.891Z" fill="#6A2AA1"/>
<path d="M117.723 695.199C118.017 695.199 118.299 695.082 118.507 694.874C118.715 694.666 118.832 694.384 118.832 694.089C118.832 693.795 118.715 693.513 118.507 693.304C118.299 693.096 118.017 692.979 117.723 692.979C117.429 692.979 117.147 693.096 116.939 693.304C116.731 693.513 116.614 693.795 116.614 694.089C116.614 694.384 116.731 694.666 116.939 694.874C117.147 695.082 117.429 695.199 117.723 695.199Z" fill="#8836CF"/>
<path d="M122.949 722.152C123.978 722.152 124.965 721.743 125.693 721.014C126.421 720.286 126.83 719.298 126.83 718.267C126.83 717.237 126.421 716.249 125.693 715.52C124.965 714.792 123.978 714.383 122.949 714.383C121.92 714.383 120.933 714.792 120.205 715.52C119.477 716.249 119.068 717.237 119.068 718.267C119.068 719.298 119.477 720.286 120.205 721.014C120.933 721.743 121.92 722.152 122.949 722.152Z" fill="#6A2AA1"/>
<path d="M75.6723 742.129H88.8182C89.1345 742.129 89.4516 742.445 89.4516 742.763V744.189C89.4516 744.507 89.1353 744.824 88.8182 744.824H75.7518C75.4355 744.824 75.1184 744.507 75.1184 744.189V742.763C75.0389 742.445 75.356 742.129 75.6723 742.129ZM76.3041 747.678H88.1832C88.896 747.678 89.3713 748.232 89.3713 748.866V753.464C89.3713 754.178 88.8166 754.653 88.1832 754.653H76.3049C75.592 754.653 75.0381 754.099 75.0381 753.464V748.866C75.0381 748.232 75.592 747.678 76.3049 747.678H76.3041Z" fill="#8836CF"/>
<path d="M242.052 750.294H199.21V784.381H242.052V750.294Z" fill="#8342BD"/>
<path d="M226.846 750.294H181.787V784.381H226.846V750.294Z" fill="#5A2489"/>
<path d="M215.6 721.755C215.975 721.755 216.346 721.681 216.691 721.538C217.037 721.395 217.352 721.185 217.616 720.92C217.881 720.655 218.091 720.34 218.235 719.994C218.378 719.648 218.452 719.277 218.452 718.902C218.452 718.527 218.378 718.156 218.235 717.81C218.092 717.464 217.882 717.149 217.618 716.884C217.353 716.619 217.039 716.409 216.693 716.265C216.347 716.122 215.976 716.048 215.602 716.048C214.846 716.047 214.121 716.348 213.586 716.883C213.051 717.418 212.751 718.144 212.75 718.901C212.75 719.657 213.05 720.383 213.585 720.919C214.119 721.454 214.844 721.755 215.6 721.755V721.755ZM221.621 714.304C221.873 714.304 222.114 714.204 222.292 714.025C222.47 713.847 222.57 713.605 222.57 713.353C222.57 713.101 222.47 712.859 222.292 712.681C222.114 712.503 221.873 712.402 221.621 712.402C221.369 712.402 221.127 712.503 220.949 712.681C220.771 712.859 220.671 713.101 220.671 713.353C220.671 713.605 220.771 713.847 220.949 714.025C221.127 714.204 221.369 714.304 221.621 714.304ZM245.377 729.445C246.259 729.445 247.105 729.094 247.729 728.47C248.353 727.845 248.703 726.999 248.703 726.116C248.703 725.233 248.353 724.386 247.729 723.761C247.105 723.137 246.259 722.786 245.377 722.786C244.495 722.786 243.649 723.137 243.025 723.761C242.402 724.386 242.051 725.233 242.051 726.116C242.051 726.999 242.402 727.845 243.025 728.47C243.649 729.094 244.495 729.445 245.377 729.445V729.445Z" fill="#722DAD"/>
<path d="M185.826 754.337H196.834C197.151 754.337 197.467 754.653 197.467 754.971V756.001C197.467 756.319 197.151 756.635 196.834 756.635H185.826C185.509 756.635 185.193 756.319 185.193 756.001V754.971C185.192 754.887 185.207 754.804 185.239 754.727C185.27 754.649 185.317 754.579 185.376 754.52C185.435 754.461 185.505 754.414 185.583 754.383C185.66 754.351 185.743 754.336 185.826 754.337ZM186.38 759.093H196.2C196.913 759.093 197.388 759.647 197.388 760.282V763.849C197.388 764.562 196.834 765.038 196.2 765.038H186.38C185.668 765.038 185.193 764.483 185.193 763.849V760.282C185.193 759.647 185.747 759.093 186.38 759.093Z" fill="#8836CF"/>
<path d="M118.196 681.089C119.304 680.851 120.413 680.613 121.601 680.455C122.077 680.375 122.552 680.296 123.027 680.296C123.739 680.217 124.452 680.137 125.085 680.137H125.64C126.273 680.137 126.907 680.058 127.54 680.058H128.253C128.649 680.058 128.966 680.058 129.283 680.137H129.758C130.154 680.137 130.629 680.217 131.025 680.217C131.421 680.217 131.738 680.296 132.134 680.296C132.292 680.296 132.45 680.296 132.608 680.375L134.271 680.613C134.826 680.693 135.617 680.851 136.252 681.009C140.686 682.04 144.962 683.784 148.843 686.242C150.133 687.041 151.375 687.914 152.565 688.858C162.305 696.705 167.928 708.517 167.928 721.042V780.417C167.928 787.076 162.543 792.545 155.812 792.545M226.213 701.54C226.767 701.462 227.401 701.382 227.955 701.382H231.836C232.231 701.382 232.548 701.462 232.944 701.462L233.894 701.54L234.29 701.62L235.715 701.858C236.191 701.937 236.824 702.016 237.379 702.175C241.179 703.047 244.822 704.553 248.069 706.693C249.156 707.388 250.213 708.128 251.237 708.913C259.551 715.651 264.383 725.719 264.303 736.421V787.155C264.306 788.509 264.042 789.85 263.525 791.102C263.009 792.353 262.251 793.491 261.294 794.448C260.338 795.406 259.201 796.165 257.951 796.682C256.701 797.199 255.361 797.463 254.008 797.46" stroke="white" stroke-width="0.613" stroke-linecap="round" stroke-linejoin="round"/>
<path d="M170.86 778.753L169.672 779.228L168.484 779.545C164.842 780.417 161.199 778.197 160.328 774.63C160.328 774.55 160.328 774.472 160.248 774.392L152.805 743.317C151.854 739.671 153.992 735.866 157.635 734.836L158.586 734.598L158.981 734.518C162.545 733.646 166.109 735.786 166.98 739.354C166.98 739.433 166.98 739.512 167.059 739.592L174.582 770.667C175.374 773.758 173.869 777.167 170.86 778.753V778.753Z" fill="#C197F2"/>
<path d="M170.859 778.753L169.671 779.228L168.483 779.545C164.84 780.417 161.197 778.197 160.326 774.63C160.326 774.551 160.326 774.472 160.248 774.392L151.536 743.873C150.665 740.147 153.991 735.786 157.555 734.836L158.505 734.598C160.723 735.39 162.385 737.214 162.94 739.512L171.255 773.996C171.73 775.582 171.572 777.246 170.859 778.753V778.753Z" fill="#8B4FD1"/>
<path d="M266.996 785.57C266.679 785.728 266.283 785.887 265.966 785.966L265.016 786.204C261.928 786.996 258.839 785.094 258.047 782.003C258.047 781.923 258.047 781.844 257.968 781.844L251.554 755.287C250.762 752.196 252.583 748.946 255.672 747.994L256.463 747.757L256.86 747.678C259.869 746.964 262.957 748.788 263.67 751.8C263.67 751.879 263.67 751.958 263.749 752.038L270.164 778.594C270.797 781.289 269.53 784.222 266.996 785.57Z" fill="#C197F2"/>
<path d="M266.996 785.57C266.679 785.728 266.283 785.887 265.966 785.966L265.016 786.204C261.928 786.996 258.84 785.094 258.047 782.003C258.047 781.923 258.047 781.843 257.968 781.843L250.524 755.763C249.733 752.592 252.662 748.866 255.672 748.074L256.463 747.836C258.364 748.47 259.789 750.056 260.265 752.038L267.392 781.447C267.702 782.829 267.563 784.273 266.996 785.57V785.57Z" fill="#8B4FD1"/>
<path d="M158.823 734.518C162.387 733.646 165.951 735.786 166.822 739.354C166.822 739.433 166.822 739.512 166.901 739.592L174.424 770.667C175.216 773.916 173.711 777.325 170.781 778.831L169.593 779.307M255.514 748.153L256.306 747.915L256.702 747.836C259.711 747.123 262.8 748.946 263.513 751.958C263.513 752.038 263.513 752.116 263.591 752.116L270.006 778.673C270.718 781.447 269.452 784.301 266.917 785.649C266.588 785.815 266.244 785.948 265.888 786.046L264.938 786.283" stroke="white" stroke-width="0.613" stroke-linecap="round" stroke-linejoin="round"/>
</g>
<defs>
<linearGradient id="paint0_linear_249_163" x1="253.938" y1="491.173" x2="496.312" y2="498.753" gradientUnits="userSpaceOnUse">
<stop offset="0.05" stop-color="#F973E4"/>
<stop offset="0.45" stop-color="#743495"/>
<stop offset="0.51" stop-color="#5A2878"/>
<stop offset="0.58" stop-color="#3F1C59"/>
<stop offset="0.66" stop-color="#2C1343"/>
<stop offset="0.73" stop-color="#200E36"/>
<stop offset="0.79" stop-color="#1C0C31"/>
</linearGradient>
<linearGradient id="paint1_linear_249_163" x1="123.361" y1="555.774" x2="529.046" y2="555.774" gradientUnits="userSpaceOnUse">
<stop offset="0.05" stop-color="#F9730A"/>
<stop offset="0.45" stop-color="#743495"/>
<stop offset="0.51" stop-color="#5A2878"/>
<stop offset="0.58" stop-color="#3F1C59"/>
<stop offset="0.66" stop-color="#2C1343"/>
<stop offset="0.73" stop-color="#200E36"/>
<stop offset="0.79" stop-color="#1C0C31"/>
</linearGradient>
<linearGradient id="paint2_linear_249_163" x1="126.398" y1="557.74" x2="529.056" y2="557.74" gradientUnits="userSpaceOnUse">
<stop offset="0.05" stop-color="#F973BE"/>
<stop offset="0.45" stop-color="#743495"/>
<stop offset="0.51" stop-color="#5A2878"/>
<stop offset="0.58" stop-color="#3F1C59"/>
<stop offset="0.66" stop-color="#2C1343"/>
<stop offset="0.73" stop-color="#200E36"/>
<stop offset="0.79" stop-color="#1C0C31"/>
</linearGradient>
<linearGradient id="paint3_linear_249_163" x1="153.958" y1="561.378" x2="529.027" y2="561.378" gradientUnits="userSpaceOnUse">
<stop offset="0.05" stop-color="#F97B45"/>
<stop offset="0.45" stop-color="#743495"/>
<stop offset="0.51" stop-color="#5A2878"/>
<stop offset="0.58" stop-color="#3F1C59"/>
<stop offset="0.66" stop-color="#2C1343"/>
<stop offset="0.73" stop-color="#200E36"/>
<stop offset="0.79" stop-color="#1C0C31"/>
</linearGradient>
<linearGradient id="paint4_linear_249_163" x1="122.977" y1="616.179" x2="546.406" y2="496.998" gradientUnits="userSpaceOnUse">
<stop offset="0.05" stop-color="#F97B45" stop-opacity="0"/>
<stop offset="0.37" stop-color="#743495" stop-opacity="0.3"/>
<stop offset="0.45" stop-color="#572774" stop-opacity="0.53"/>
<stop offset="0.79" stop-color="#1C0C31"/>
</linearGradient>
<linearGradient id="paint5_linear_249_163" x1="131.931" y1="622.16" x2="266.589" y2="584.257" gradientUnits="userSpaceOnUse">
<stop offset="0.05" stop-color="#F97B45" stop-opacity="0"/>
<stop offset="0.37" stop-color="#743495" stop-opacity="0.3"/>
<stop offset="0.45" stop-color="#572774" stop-opacity="0.53"/>
<stop offset="0.79" stop-color="#1C0C31"/>
</linearGradient>
<linearGradient id="paint6_linear_249_163" x1="517.304" y1="244.06" x2="540.909" y2="1368.37" gradientUnits="userSpaceOnUse">
<stop offset="0.43" stop-color="#9133C2"/>
<stop offset="0.54" stop-color="#26163A"/>
</linearGradient>
<linearGradient id="paint7_linear_249_163" x1="101.15" y1="665.214" x2="110.092" y2="698.853" gradientUnits="userSpaceOnUse">
<stop stop-color="white"/>
<stop offset="0.1" stop-color="#F0E6FC"/>
<stop offset="0.24" stop-color="#DFCAF8"/>
<stop offset="0.39" stop-color="#D2B3F6"/>
<stop offset="0.56" stop-color="#C8A3F4"/>
<stop offset="0.74" stop-color="#C39AF2"/>
<stop offset="1" stop-color="#C197F2"/>
</linearGradient>
<linearGradient id="paint8_linear_249_163" x1="152.918" y1="664.443" x2="145.99" y2="700.035" gradientUnits="userSpaceOnUse">
<stop stop-color="white"/>
<stop offset="0.02" stop-color="#FDFBFF"/>
<stop offset="0.21" stop-color="#E7D7FA"/>
<stop offset="0.4" stop-color="#D7BBF7"/>
<stop offset="0.59" stop-color="#CBA7F4"/>
<stop offset="0.78" stop-color="#C39BF3"/>
<stop offset="0.97" stop-color="#C197F2"/>
</linearGradient>
<linearGradient id="paint9_linear_249_163" x1="207.468" y1="688.663" x2="215.101" y2="717.38" gradientUnits="userSpaceOnUse">
<stop stop-color="white"/>
<stop offset="0.1" stop-color="#F0E6FC"/>
<stop offset="0.24" stop-color="#DFCAF8"/>
<stop offset="0.39" stop-color="#D2B3F6"/>
<stop offset="0.56" stop-color="#C8A3F4"/>
<stop offset="0.74" stop-color="#C39AF2"/>
<stop offset="1" stop-color="#C197F2"/>
</linearGradient>
<linearGradient id="paint10_linear_249_163" x1="251.64" y1="688.014" x2="245.73" y2="718.392" gradientUnits="userSpaceOnUse">
<stop stop-color="white"/>
<stop offset="0.02" stop-color="#FDFBFF"/>
<stop offset="0.21" stop-color="#E7D7FA"/>
<stop offset="0.4" stop-color="#D7BBF7"/>
<stop offset="0.59" stop-color="#CBA7F4"/>
<stop offset="0.78" stop-color="#C39BF3"/>
<stop offset="0.97" stop-color="#C197F2"/>
</linearGradient>
<clipPath id="clip0_249_163">
<rect width="393" height="852" fill="white"/>
</clipPath>
</defs>
</svg>
