<svg width="1920" height="717" viewBox="0 0 1920 717" fill="none" xmlns="http://www.w3.org/2000/svg">
<path d="M1265.42 280.871C1270.45 277.617 1272.57 269.035 1278.39 267.743C1284.02 266.498 1289 275.716 1294.29 271.776C1297.7 269.239 1299.05 262.28 1301.22 258.413C1306.93 248.204 1316.87 240.421 1327.35 242.274C1335.07 243.639 1342.29 249.407 1347.05 256.729C1349.36 260.268 1351.23 267.207 1354.68 269.255C1359.91 272.351 1364.74 263.603 1370.03 265.954C1376.95 269.035 1374.22 279.171 1378.65 281.68C1382.05 283.609 1386.01 282.147 1389.51 283.519C1393.77 285.193 1396.8 289.796 1401.19 291.539C1402.92 292.225 1404.7 292.669 1406.45 293.247C1407.04 293.447 1407.64 293.686 1408.25 293.832C1408.29 293.84 1409 293.987 1409 293.995C1408.94 294.168 1230.95 289.931 1231 289.831C1231.12 289.549 1239.41 288.111 1240.14 287.981C1248.36 286.488 1257.95 285.713 1265.42 280.871Z" fill="white"/>
</svg>
