<svg width="1920" height="717" viewBox="0 0 1920 717" fill="none" xmlns="http://www.w3.org/2000/svg">
<path d="M764.988 356.552C774.615 350.987 778.702 336.312 789.852 334.105C800.626 331.972 810.179 347.734 820.331 340.997C826.862 336.659 829.455 324.759 833.597 318.145C844.55 300.69 863.61 287.383 883.706 290.55C898.484 292.883 912.319 302.75 921.464 315.265C925.886 321.315 929.468 333.185 936.091 336.688C946.112 341.982 955.376 327.021 965.507 331.044C978.783 336.312 973.55 353.642 982.03 357.935C988.542 361.233 996.136 358.734 1002.83 361.08C1011.01 363.938 1016.81 371.813 1025.24 374.795C1028.55 375.965 1031.95 376.723 1035.31 377.713C1036.46 378.053 1037.6 378.462 1038.77 378.712C1038.84 378.727 1040.22 378.976 1040.21 378.991C1040.1 379.287 698.915 372.043 699 371.873C699.243 371.387 715.121 368.928 716.521 368.704C732.288 366.153 750.658 364.828 764.988 356.552Z" fill="white"/>
<path d="M1444.77 285.467C1454.41 279.904 1458.49 265.228 1469.64 263.02C1480.42 260.891 1489.97 276.654 1500.13 269.915C1506.65 265.578 1509.25 253.678 1513.4 247.066C1524.35 229.608 1543.41 216.299 1563.5 219.469C1578.28 221.803 1592.12 231.667 1601.26 244.185C1605.69 250.237 1609.26 262.104 1615.88 265.604C1625.9 270.899 1635.16 255.941 1645.29 259.96C1658.57 265.228 1653.34 282.561 1661.83 286.852C1668.33 290.149 1675.93 287.65 1682.64 289.996C1690.81 292.858 1696.61 300.73 1705.03 303.71C1708.34 304.883 1711.76 305.642 1715.11 306.63C1716.25 306.973 1717.4 307.382 1718.57 307.632C1718.65 307.645 1720 307.896 1720 307.91C1719.89 308.206 1378.71 300.961 1378.8 300.79C1379.03 300.307 1394.92 297.848 1396.32 297.625C1412.08 295.073 1430.45 293.748 1444.77 285.467Z" fill="white"/>
</svg>
