<svg width="1920" height="717" viewBox="0 0 1920 717" fill="none" xmlns="http://www.w3.org/2000/svg">
<g clipPath="url(#clip0_49_144)">
<path d="M1547.89 408.408C1559.04 398.787 1573.69 384.999 1589.04 382.727C1624.39 377.494 1724.62 447.753 1755.75 464.184C1768.5 470.916 1786.2 483.719 1801.65 480.793C1831.85 475.07 1862.51 442.655 1885.76 424.819C1953.51 372.839 2065.19 273.801 2142.29 248.369C2194.38 231.189 2423.7 380.827 2467.69 408.31C2478.19 414.869 2611.53 481.835 2622.01 488.44C2668.1 520.413 2540.27 535.767 2531.83 594.873C2529.75 609.443 2527.45 623.002 2525.67 634.643C2529.44 712.745 1347.1 620.495 1357.06 577.368C1358.31 571.944 1531.31 422.727 1547.89 408.408Z" fill="#89C8C3"/>
<path d="M1128.03 300.917C1139.18 291.269 1153.8 277.444 1169.14 275.166C1204.46 269.92 1304.62 340.364 1335.71 356.838C1348.46 363.588 1366.14 376.425 1381.57 373.491C1411.74 367.753 1442.38 335.253 1465.61 317.369C1533.3 265.253 1644.88 165.951 1721.92 140.457C1773.96 123.23 1903.59 263.521 2034.39 310.068C2100.43 333.565 2192.13 350.728 2207.66 356.838C2219.61 361.537 2317 420.021 2317 420.021V622L672 666.5C672 666.5 1111.45 315.271 1128.03 300.917Z" fill="#8ED0CB"/>
<path d="M972 691.5C972 691.5 1436.61 333.158 1459.84 315.331C1527.53 263.381 1639.09 164.395 1716.12 138.982C1724.3 136.283 1740.76 140.004 1740.76 140.004C1740.76 140.004 1752.43 143.991 1757.49 149.561C1773.5 167.18 1712.51 175.834 1721.76 198.932C1734.07 229.702 1818.37 228.231 1840.31 255.122C1853.69 271.512 1790.57 289.847 1829.03 320.541C1872.56 355.279 1931.22 355.404 1984.59 397.046C2043.25 442.824 2122 628 2122 628L972 691.5Z" fill="#61BDB7"/>
<path d="M1559.65 981.585C1488.19 983.573 1123.13 1003.21 1077.93 960.252C1052.8 936.358 1064.66 857.99 1075.45 799.318C1075.61 782.552 1078.95 761.358 1087.89 744.167C1094.47 731.53 1104.08 721.057 1117.69 716.089C1151.49 703.833 1185.38 691.85 1219.32 680.155C1524.27 575.063 1804.34 543.144 2129.24 576.872C2158.66 579.925 2266.66 592.659 2342.81 610.175C2343.24 631.375 2344.07 652.498 2347.99 674.24C2348.95 678.773 2347.99 682.853 2348.47 687.385C2349.92 695.996 2352.34 704.607 2352.34 713.22C2353.3 731.349 2353.79 749.026 2354.27 767.155C2354.75 799.336 2360.55 832.423 2349.44 863.241C2344.12 878.658 2338.32 893.615 2330.59 908.572C2324.3 920.81 2318.99 933.047 2312.7 945.735C2311.44 948.211 2310.16 950.668 2308.87 953.097C2260.25 956.885 2208.7 955.338 2183.51 956.041C1975.41 961.855 1767.71 975.818 1559.65 981.585Z" fill="#459C75"/>
<path d="M1895.72 753.949C1956.9 777.135 2136.42 837.4 2162.15 895.115C2172.27 917.809 2150.13 939.902 2121.56 957.457C2003.66 961.564 1885.86 967.753 1768.01 973.061C1739.02 959.182 1708.93 942.097 1675.62 922.666C1598.46 877.654 1519.75 835.041 1439.54 795.003C1430.74 786.008 1402.51 771.56 1368.19 754.924C1318.85 731.002 1256.89 702.561 1221.95 679.299C1267.95 663.595 1313.38 649.547 1358.53 637.119C1539.4 650.118 1709.94 683.542 1895.72 753.949Z" fill="#3C8766"/>
<path d="M159.23 681.528C196.528 650.316 479.729 624.415 536.721 619.878C960.661 586.132 1326.11 618.069 1724.03 723.217C1768.31 734.917 1812.54 746.906 1856.63 759.169C1874.4 764.143 1886.94 774.623 1895.51 787.262C1907.19 804.462 1911.54 825.667 1911.75 842.441C1925.84 901.141 1941.31 979.55 1908.51 1003.46C1849.53 1046.44 1373.2 1026.79 1279.95 1024.81C1008.45 1019.03 737.451 1005.07 465.916 999.244C402.269 997.883 209.829 1004.99 165.556 965.392C134.236 937.385 146.907 749.877 151.085 708.056C151.898 699.903 151.26 688.189 159.23 681.528Z" fill="#64BA94"/>
<path d="M60.342 1050.02C58.5026 1042.28 55.4433 1035.52 50.5445 1027.78C34.6376 1000.22 29.7482 969.77 16.8912 940.767C13.8319 933.036 9.55246 925.785 7.10309 917.084C-1.46514 886.631 -8.80388 857.628 -11.2533 827.658C-15.3824 765.65 -15.7204 703.642 -14.0876 641.636C62.81 636.315 138.807 634.55 165.112 634.243C576.853 629.431 922.225 695.994 1287.27 850.017C1327.89 867.159 1368.41 884.631 1408.77 902.403C1425.02 909.603 1435.4 922.755 1441.65 938.096C1450.15 958.978 1450.99 983.901 1448.57 1003.35C1452.87 1072.51 1455.43 1164.62 1420.24 1189.66C1356.97 1234.7 903.344 1173.4 814.256 1163.56C567.402 1136.3 322.126 1100.47 75.4044 1072.33C72.4389 1067.6 69.6515 1062.76 67.0707 1057.75C65.8414 1054.85 60.952 1052.92 60.342 1050.02Z" fill="#50B186"/>
<path d="M1092.5 329.5C1092.5 329.5 1148.99 277.78 1169.23 274.35C1195.24 269.943 1270.5 317.5 1270.5 317.5L1234.5 309.5L1220 321.5L1184.5 305L1150.5 324.5L1141 309.5L1092.5 329.5Z" fill="#FAFDFF"/>
<path d="M1582 218.408C1582 218.408 1675.31 145.037 1719.68 137.532C1764.04 130.026 1867.5 214.5 1867.5 214.5L1815.44 192.038L1813.24 218.408L1767.02 192.038L1747.21 218.408L1704.66 197.165L1648.17 225L1637.16 197.165L1582 218.408Z" fill="#FAFDFF"/>
</g>
<defs>
<clipPath id="clip0_49_144">
<rect width="1920" height="717" fill="white"/>
</clipPath>
</defs>
</svg>
