<svg width="1167" height="492" viewBox="0 0 1167 492" fill="none" xmlns="http://www.w3.org/2000/svg">
<path opacity="0.2" d="M543.015 483.718L554.072 484.01C550.438 485.287 546.75 485.116 543.015 483.718L1.57046 469.401L1.57125 423.058V392.568L1.07095 392.782L0 393.21L0.571434 385.998L1.64238 372.074L2.85638 356.15C2.85638 356.15 64.0521 313.378 139.671 308.95C188.871 306.094 248.853 345.011 292.91 343.154C336.968 341.297 356.748 296.097 403.447 283.816C446.562 272.476 498.101 466.896 543.015 483.718Z" fill="#5A2489"/>
<path opacity="0.2" d="M577.557 484.65L590.572 484.995C586.507 486.424 582.152 486.216 577.557 484.65L1.57043 469.401L1.57122 423.058L3.9273 391.711L4.49874 383.642L5.28436 373.216C5.28436 373.216 74.3348 324.588 149.954 328.802C211.935 332.229 250.566 371.36 294.624 369.503C338.682 367.647 363.174 320.875 409.946 308.665C452.635 297.438 528.652 467.984 577.557 484.65Z" fill="#5A2878"/>
<path d="M395.664 481.183C395.664 481.183 445.427 481.611 439.072 479.898C494.697 452.191 355.496 486.824 342.572 485.681C282.305 480.398 62.0723 485.214 1.57124 484.896C1.57124 484.896 3.81536 470.111 15.0723 467.181C22.3668 465.283 33.5723 484.785 33.5723 484.785L1.57124 484.896L1.57123 469.181L1.57124 423.058V392.568L3.92732 391.71C30.4196 382.856 60.9104 394.424 76.0483 405.992C102.326 426.057 112.037 443.623 137.101 446.908C141.672 447.479 146.285 447.622 150.883 447.336C186.943 445.337 179.302 421.63 213.649 403.421C215.362 402.493 217.148 401.707 218.933 400.993C251.851 387.712 286.698 409.991 286.698 409.991L393.522 479.898L395.664 481.183Z" fill="url(#paint0_linear_238_4)"/>
<path d="M1167 452.478V491.68L43.0723 483.181C225.087 440.266 414.802 427.556 602.459 421.416C638.233 420.273 674.008 419.631 709.855 419.702C726.849 419.702 743.701 419.845 760.553 420.059C879.376 421.844 994.335 430.056 1103.81 443.837C1125.08 446.479 1146.15 449.336 1167 452.478Z" fill="url(#paint1_linear_238_4)"/>
<path opacity="0.18" d="M1048.07 27.8875C1048.07 43.2943 1035.62 55.7623 1020.22 55.7623C1017.94 55.7623 1015.71 55.5089 1013.54 54.9514C998.6 51.2515 989.482 36.1484 993.18 21.1974C996.878 6.24637 1011.97 -2.87686 1026.91 0.822993C1039.31 3.91495 1048.02 15.0649 1048.07 27.8875V27.8875Z" fill="#BA3687"/>
<path opacity="0.54" d="M1048.07 27.8869C1048.07 43.2948 1035.62 55.7623 1020.22 55.7623C1017.94 55.7623 1015.71 55.5089 1013.54 54.9514C1001.08 45.9299 998.247 28.4953 1007.26 16.0278C1010.5 11.5178 1015.01 8.08328 1020.22 6.16798C1025.43 4.25268 1031.09 3.94454 1036.48 5.28336C1043.72 10.5032 1048.07 18.9163 1048.07 27.8869V27.8869Z" fill="#0E0C30"/>
<path opacity="0.38" d="M1134.16 233.199C1134.16 239.484 1133.7 245.768 1132.84 252.053C1132.18 256.918 1131.22 261.784 1130 266.598C1111.57 339.073 1037.95 382.812 965.585 364.363C934.816 356.522 907.784 338.097 889.22 312.313C877.877 296.551 870.028 278.559 866.281 259.503C866.23 259.3 866.18 259.047 866.129 258.844L865.825 257.172L865.572 255.6L865.521 255.347C865.42 254.84 865.369 254.334 865.268 253.826C865.167 253.32 865.116 252.863 865.066 252.357C865.066 252.255 865.015 252.103 865.015 252.002C864.964 251.748 864.914 251.495 864.914 251.242C864.914 250.988 864.863 250.735 864.812 250.482L864.661 249.113C864.661 248.961 864.61 248.809 864.61 248.657C864.559 248.251 864.509 247.796 864.458 247.39C864.357 246.681 864.306 245.971 864.255 245.211C864.255 244.957 864.205 244.653 864.205 244.399C864.154 243.487 864.053 242.575 864.002 241.663C863.952 241.258 863.952 240.801 863.901 240.345V239.99C863.901 239.433 863.85 238.875 863.85 238.318V236.595C863.85 236.037 863.85 235.48 863.8 234.922C863.749 234.365 863.8 233.807 863.8 233.25C863.8 227.979 864.103 222.657 864.711 217.437C865.116 213.94 865.673 210.493 866.332 207.098C866.484 206.236 866.686 205.324 866.889 204.463C867.236 202.852 867.607 201.247 868.003 199.648C868.712 196.911 869.471 194.225 870.332 191.589C870.686 190.424 871.091 189.309 871.496 188.194C873.168 183.429 875.143 178.767 877.32 174.205C878.181 172.432 879.093 170.709 880.004 168.985C903.601 125.247 949.327 97.9802 999.004 97.9802C999.917 97.9802 1000.78 97.9802 1001.69 98.0306C1009.43 98.1827 1017.18 98.9936 1024.78 100.464C1035.36 102.491 1045.69 105.836 1055.46 110.346C1069.9 116.986 1083.07 126.159 1094.36 137.41C1095.67 138.728 1096.94 140.046 1098.2 141.414C1100.91 144.32 1103.47 147.347 1105.9 150.486C1107.01 151.906 1108.13 153.375 1109.14 154.845C1110.86 157.278 1112.49 159.71 1114.05 162.245L1114.25 162.599C1115.07 163.917 1115.88 165.235 1116.63 166.603C1119.26 171.201 1121.59 175.957 1123.63 180.845C1124.33 182.619 1125.04 184.342 1125.7 186.166C1126.26 187.636 1126.76 189.106 1127.27 190.576C1127.93 192.653 1128.59 194.731 1129.2 196.81C1129.6 198.33 1130 199.851 1130.36 201.371C1130.56 202.232 1130.77 203.145 1130.97 204.006C1131.32 205.628 1131.67 207.301 1131.98 208.973L1132.13 209.835C1132.18 210.088 1132.23 210.392 1132.28 210.645C1132.38 211.254 1132.49 211.862 1132.59 212.47C1133.7 219.16 1134.21 226.154 1134.16 233.199Z" fill="#662D91"/>
<path opacity="0.57" d="M1135.63 233.503C1135.63 239.788 1135.17 246.072 1134.31 252.357C1133.65 257.222 1132.69 262.088 1131.47 266.902C1119.88 312.313 1085.69 348.5 1041.08 362.64C977.534 361.373 923.452 316.013 911.096 253.624C911.045 253.421 910.995 253.168 910.944 252.965L910.64 251.293L910.387 249.721L910.336 249.468C910.235 248.961 910.185 248.454 910.083 247.947C909.982 247.441 909.931 246.985 909.881 246.478C909.881 246.376 909.83 246.224 909.83 246.123C909.779 245.87 909.729 245.616 909.729 245.362C909.729 245.109 909.678 244.856 909.627 244.602L909.476 243.234C909.476 243.082 909.425 242.93 909.425 242.778C909.374 242.372 909.324 241.916 909.273 241.511C909.172 240.801 909.121 240.092 909.07 239.332C909.07 239.078 909.02 238.774 909.02 238.521C908.969 237.608 908.868 236.696 908.817 235.784C908.767 235.379 908.767 234.922 908.716 234.466V234.111C908.716 233.554 908.665 232.996 908.665 232.439V230.716C908.665 230.158 908.665 229.601 908.615 229.043C908.564 228.485 908.615 227.928 908.615 227.371C908.615 222.1 908.919 216.778 909.526 211.558C909.931 208.061 910.488 204.615 911.147 201.219C911.299 200.357 911.501 199.445 911.704 198.583C912.051 196.973 912.422 195.368 912.818 193.768C913.526 191.032 914.286 188.346 915.147 185.711C915.501 184.545 915.906 183.429 916.311 182.314C917.983 177.55 919.958 172.888 922.135 168.326C922.996 166.552 923.907 164.829 924.819 163.106C941.532 132.14 969.635 108.927 1003.16 98.2844C1010.91 98.436 1018.65 99.2474 1026.25 100.717C1036.83 102.744 1047.16 106.089 1056.93 110.6C1071.37 117.239 1084.53 126.413 1095.82 137.664C1097.14 138.982 1098.41 140.299 1099.67 141.668C1102.37 144.573 1104.94 147.6 1107.37 150.74C1108.48 152.159 1109.6 153.629 1110.61 155.098C1112.32 157.514 1113.96 159.982 1115.52 162.498L1115.73 162.853C1116.54 164.171 1117.35 165.488 1118.11 166.857C1120.68 171.469 1123.02 176.233 1125.04 181.098C1125.75 182.872 1126.46 184.595 1127.12 186.42C1127.68 187.89 1128.18 189.359 1128.69 190.829C1129.35 192.907 1130 194.985 1130.61 197.063C1131.02 198.583 1131.43 200.104 1131.78 201.625C1131.98 202.486 1132.18 203.398 1132.38 204.26C1132.74 205.881 1133.1 207.554 1133.4 209.227L1133.55 210.088C1133.6 210.342 1133.65 210.645 1133.7 210.899C1133.8 211.507 1133.9 212.116 1134 212.724C1135.08 219.598 1135.62 226.545 1135.63 233.503V233.503Z" fill="#0E0C30"/>
<path opacity="0.18" d="M1135.52 217.64C1100.08 221.137 1056.63 226.712 1009.84 233.908C955.353 242.322 905.88 251.597 868.61 259.909C868.56 259.706 868.509 259.452 868.509 259.249L868.205 257.577C868.104 257.02 868.003 256.512 867.952 256.006L867.901 255.752C867.8 255.246 867.75 254.739 867.648 254.232C867.547 253.725 867.496 253.269 867.446 252.762C867.446 252.661 867.395 252.509 867.395 252.408C867.344 252.154 867.294 251.9 867.294 251.647C867.294 251.394 867.243 251.14 867.193 250.887L867.041 249.519C867.041 249.367 866.99 249.214 866.99 249.062C866.939 248.657 866.889 248.201 866.838 247.795C866.737 247.086 866.686 246.376 866.636 245.616C866.636 245.363 866.585 245.059 866.585 244.805C866.484 243.893 866.433 242.981 866.382 242.069C866.382 241.663 866.332 241.207 866.332 240.751V240.396C866.332 239.838 866.281 239.281 866.281 238.723C866.281 238.369 866.281 238.065 866.231 237.709V237.051C866.231 236.493 866.231 235.936 866.18 235.379C866.129 234.821 866.18 234.263 866.18 233.706V232.794C905.678 223.62 951.608 214.802 1000.78 207.2C1039.62 201.168 1076.73 196.505 1110.51 193.211C1115.57 192.704 1120.53 192.248 1125.4 191.843L1129.85 191.437C1130.46 193.313 1131.02 195.188 1131.58 197.114C1131.98 198.634 1132.38 200.154 1132.74 201.675C1132.94 202.537 1133.14 203.449 1133.35 204.311C1134.26 208.669 1134.97 213.078 1135.52 217.64V217.64Z" fill="#A738E8"/>
<g opacity="0.08">
<path opacity="0.08" d="M1166.01 284.439L1165.15 282.664C1165.71 283.07 1166.06 283.729 1166.01 284.439Z" fill="url(#paint2_linear_238_4)"/>
<path opacity="0.08" d="M1117.8 151.551L1125.19 166.857C1123.02 165.083 1119.02 163.866 1113.55 163.208C1070.2 157.886 933.326 184.95 865.572 207.757C865.724 206.895 865.927 205.983 866.129 205.121C866.476 203.511 866.848 201.906 867.243 200.306C867.952 197.57 868.712 194.884 869.572 192.248C951.048 166.35 1030.15 149.219 1105.14 151.044C1109.39 151.196 1113.6 151.348 1117.8 151.551V151.551Z" fill="url(#paint3_linear_238_4)"/>
<path opacity="0.08" d="M1141.65 183.835L1139.83 180.034C1140.42 180.472 1140.89 181.047 1141.21 181.709C1141.53 182.371 1141.68 183.101 1141.65 183.835V183.835Z" fill="url(#paint4_linear_238_4)"/>
</g>
<path d="M1126.76 191.742C1088.02 195.036 1044.07 200.256 997.687 207.453C948.517 215.055 902.587 223.874 863.089 233.047C780.802 252.103 726.214 272.478 727.632 286.01V286.263C727.885 287.936 729.05 289.456 730.974 290.824L731.43 291.129C731.582 291.23 731.734 291.331 731.886 291.382C732.038 291.432 732.189 291.584 732.392 291.686L732.645 291.838C732.746 291.889 732.898 291.99 733 292.041C733.101 292.092 733.253 292.193 733.405 292.244L733.81 292.446C734.215 292.649 734.721 292.852 735.177 293.055H735.227C736.19 293.46 737.253 293.815 738.418 294.169L738.924 294.321L739.481 294.473L740.038 294.626C740.241 294.676 740.393 294.727 740.595 294.778L741.152 294.93L741.71 295.082C742.52 295.284 743.33 295.487 744.191 295.639L744.849 295.842H744.9C745.406 295.943 745.963 296.045 746.52 296.146L746.874 296.196L747.684 296.349L749.204 296.602L749.406 296.653C750.166 296.754 750.926 296.906 751.736 297.008C752.647 297.159 753.559 297.261 754.521 297.413L755.432 297.515L756.344 297.616C757.913 297.819 759.534 297.97 761.205 298.122L762.927 298.275C789.512 300.555 829.516 299.643 877.724 295.639H877.825C877.572 295.183 877.369 294.676 877.116 294.22C876.964 293.967 876.863 293.713 876.711 293.46L876.457 292.953V292.801C875.697 291.271 874.988 289.716 874.331 288.139C873.76 286.851 873.22 285.549 872.71 284.236L872.609 284.033L870.634 284.185L868.001 284.439L866.279 284.591C863.848 284.793 861.469 284.996 859.14 285.148L855.747 285.402C849.316 285.857 843.34 286.263 837.821 286.517C830.782 286.871 824.503 287.023 819.135 287.074H814.173L813.008 287.023H812.299L810.78 286.973C810.071 286.922 809.362 286.922 808.704 286.871L808.197 286.82L807.691 286.77L806.729 286.719C805.766 286.618 804.855 286.567 803.994 286.466L803.336 286.365C802.678 286.263 802.07 286.212 801.513 286.06L801.159 286.01H801.058L800.652 285.908C800.399 285.857 800.146 285.807 799.944 285.756L799.386 285.604C799.235 285.554 799.032 285.503 798.88 285.452C798.728 285.402 798.526 285.351 798.374 285.3L798.019 285.148L797.715 284.996L797.411 284.844L797.158 284.692C797.057 284.641 796.956 284.591 796.854 284.489C796.804 284.439 796.753 284.439 796.702 284.388C796.652 284.337 796.601 284.286 796.551 284.236C796.5 284.185 796.449 284.135 796.399 284.084C796.348 284.033 796.297 283.982 796.297 283.932C796.297 283.932 796.247 283.881 796.247 283.83C796.196 283.729 796.145 283.678 796.145 283.577C796.145 283.527 796.145 283.476 796.095 283.476V283.374C795.842 281.854 798.475 279.928 803.539 277.698L803.893 277.546C814.78 272.832 836.504 266.801 865.672 260.263C902.942 251.901 952.417 242.677 1006.9 234.263C1053.69 227.016 1097.14 221.492 1132.59 217.995C1142.21 217.032 1151.22 216.221 1159.58 215.613V189.359C1149.09 189.968 1138.11 190.779 1126.76 191.742V191.742ZM1133.04 244.755C1132.79 247.998 1132.43 251.191 1131.93 254.384C1131.88 254.739 1131.82 255.043 1131.78 255.398C1131.67 255.905 1131.62 256.412 1131.52 256.867L1132.84 256.564L1134.36 256.209L1135.47 255.955C1143.73 254.08 1151.73 252.205 1159.48 250.33V238.926C1151.32 240.801 1142.46 242.778 1133.04 244.755Z" fill="url(#paint5_linear_238_4)"/>
<path d="M1129.95 195.695C1091.22 198.989 1047.26 204.209 1000.88 211.406C951.707 219.008 905.778 227.878 866.28 237C785.917 255.601 732.038 275.468 730.823 289C730.772 289.405 730.772 289.811 730.873 290.216L731.025 290.824L731.481 291.129C731.633 291.23 731.785 291.331 731.937 291.382C732.089 291.432 732.241 291.584 732.443 291.686L732.696 291.838C732.798 291.889 732.95 291.99 733.051 292.041C733.152 292.092 733.304 292.193 733.456 292.243L733.861 292.446C734.266 292.649 734.773 292.852 735.229 293.054H735.279C736.241 293.46 737.305 293.815 738.469 294.169L738.975 294.321L739.532 294.473L740.089 294.626C740.292 294.676 740.444 294.727 740.646 294.778L741.203 294.93L741.76 295.082C742.571 295.284 743.381 295.487 744.242 295.639L744.85 295.791H744.9C745.407 295.893 745.964 295.994 746.521 296.095L746.875 296.146L747.685 296.298L749.205 296.552L749.407 296.602C750.167 296.704 750.926 296.856 751.736 296.957C752.648 297.109 753.559 297.21 754.521 297.362L755.433 297.464L756.345 297.565C757.914 297.768 759.535 297.92 761.206 298.072L762.927 298.224C789.512 300.505 829.517 299.592 877.724 295.589H877.826C877.572 295.132 877.37 294.626 877.117 294.169C876.965 293.916 876.864 293.663 876.712 293.409L876.458 292.903V292.75C875.698 291.22 874.989 289.665 874.332 288.088L872.357 288.24C855.646 289.658 841.214 290.571 829.669 290.875C823.693 291.027 818.528 291.027 814.224 290.875C811.084 290.774 808.451 290.52 806.274 290.216L805.717 290.115C801.716 289.507 799.488 288.544 799.285 287.277C799.235 286.668 799.488 286.06 799.944 285.655C804.35 280.688 829.973 272.934 868.812 264.216C906.082 255.854 955.555 246.63 1010.04 238.217C1056.83 230.969 1100.28 225.445 1135.72 221.948C1144.13 221.137 1152.08 220.377 1159.52 219.819V193.617C1150.06 194.124 1140.18 194.833 1129.95 195.695V195.695ZM1136.23 248.708C1136.08 251.14 1135.83 253.573 1135.47 255.955C1135.38 256.753 1135.26 257.547 1135.12 258.337L1134.97 259.351C1134.86 259.858 1134.82 260.365 1134.71 260.821C1139.22 259.807 1143.67 258.793 1148.08 257.78L1149.6 257.425L1150.72 257.172C1153.65 256.462 1156.59 255.803 1159.48 255.094V243.639C1152.23 245.261 1144.48 246.985 1136.23 248.708V248.708Z" fill="url(#paint6_linear_238_4)"/>
<path d="M1159.32 201.27C1120.59 204.564 1076.63 209.784 1030.25 216.981C981.076 224.583 935.147 233.402 895.65 242.575C817.616 260.618 764.497 279.877 760.395 293.358V293.409C760.142 294.169 760.091 294.98 760.192 295.791V295.893C760.294 296.399 760.446 296.957 760.699 297.413C760.8 297.616 760.952 297.819 761.053 298.021L761.104 298.122L762.826 298.275C789.411 300.555 829.415 299.643 877.622 295.639C866.887 296.298 857.671 296.602 850.177 296.602C845.265 296.602 841.112 296.399 837.77 296.095C834.327 295.741 831.795 295.234 830.276 294.575C829.212 294.119 828.655 293.561 828.554 292.903C828.453 292.243 828.807 291.635 829.567 290.926C830.985 289.608 833.719 288.138 837.669 286.517C830.63 286.871 824.351 287.023 818.983 287.074H814.122L812.958 287.023H812.249L810.73 286.973C810.021 286.922 809.312 286.922 808.653 286.871L808.147 286.82L807.641 286.77L806.678 286.719C805.716 286.618 804.805 286.567 803.944 286.466L803.286 286.365C802.627 286.263 802.02 286.212 801.463 286.06L801.108 286.01H801.007L800.602 285.908C800.349 285.857 800.096 285.807 799.893 285.756L799.336 285.604L798.83 285.452C798.678 285.402 798.475 285.351 798.323 285.3L797.969 285.148L797.665 284.996L797.361 284.844L797.108 284.692C797.007 284.641 796.905 284.591 796.804 284.489C796.753 284.439 796.703 284.439 796.652 284.388L796.5 284.236L796.348 284.084C796.298 284.033 796.247 283.982 796.247 283.932C796.247 283.932 796.196 283.881 796.196 283.83C796.146 283.729 796.095 283.678 796.095 283.577C796.095 283.526 796.095 283.476 796.044 283.476V283.374C795.791 281.854 798.425 279.928 803.488 277.698L803.843 277.546C814.73 272.832 836.454 266.801 865.621 260.263C902.891 251.901 952.366 242.676 1006.85 234.263C1053.64 227.016 1097.09 221.492 1132.54 217.995C1142.16 217.032 1151.17 216.221 1159.52 215.613V201.27H1159.32V201.27Z" fill="url(#paint7_linear_238_4)"/>
<path d="M775.486 283.577C775.608 283.58 775.728 283.559 775.842 283.514C775.955 283.47 776.058 283.403 776.145 283.318C776.232 283.233 776.301 283.131 776.348 283.019C776.395 282.907 776.419 282.786 776.419 282.665C776.419 282.543 776.395 282.423 776.348 282.31C776.3 282.198 776.231 282.097 776.144 282.012C776.057 281.927 775.954 281.86 775.841 281.816C775.728 281.771 775.607 281.75 775.486 281.753C775.248 281.758 775.021 281.857 774.855 282.028C774.689 282.198 774.596 282.427 774.596 282.665C774.596 282.904 774.689 283.132 774.855 283.303C775.022 283.473 775.248 283.572 775.486 283.577Z" fill="white"/>
<path d="M829.871 275.063C830.019 275.063 830.16 275.004 830.265 274.899C830.369 274.795 830.428 274.653 830.428 274.505C830.428 274.357 830.369 274.215 830.265 274.111C830.16 274.006 830.019 273.947 829.871 273.947C829.723 273.947 829.581 274.006 829.477 274.111C829.373 274.215 829.314 274.357 829.314 274.505C829.314 274.653 829.373 274.795 829.477 274.899C829.581 275.004 829.723 275.063 829.871 275.063V275.063ZM866.179 258.591C866.353 258.591 866.521 258.522 866.644 258.398C866.767 258.275 866.837 258.107 866.837 257.932C866.837 257.758 866.767 257.59 866.644 257.466C866.521 257.343 866.353 257.273 866.179 257.273C866.004 257.273 865.837 257.343 865.713 257.466C865.59 257.59 865.521 257.758 865.521 257.932C865.521 258.107 865.59 258.275 865.713 258.398C865.837 258.522 866.004 258.591 866.179 258.591V258.591ZM803.641 277.85C803.695 277.85 803.747 277.829 803.785 277.791C803.823 277.753 803.844 277.701 803.844 277.647C803.844 277.593 803.823 277.542 803.785 277.504C803.747 277.466 803.695 277.444 803.641 277.444C803.587 277.444 803.536 277.466 803.498 277.504C803.46 277.542 803.438 277.593 803.438 277.647C803.438 277.701 803.46 277.753 803.498 277.791C803.536 277.829 803.587 277.85 803.641 277.85V277.85ZM856.101 284.591C856.208 284.591 856.311 284.548 856.387 284.472C856.463 284.396 856.506 284.293 856.506 284.185C856.506 284.078 856.463 283.975 856.387 283.899C856.311 283.823 856.208 283.78 856.101 283.78C855.994 283.78 855.891 283.823 855.815 283.899C855.739 283.975 855.696 284.078 855.696 284.185C855.696 284.293 855.739 284.396 855.815 284.472C855.891 284.548 855.994 284.591 856.101 284.591V284.591ZM886.535 245.819C886.616 245.819 886.693 245.787 886.75 245.73C886.807 245.672 886.839 245.595 886.839 245.514C886.839 245.433 886.807 245.356 886.749 245.299C886.692 245.242 886.615 245.21 886.534 245.21C886.453 245.21 886.376 245.242 886.319 245.299C886.262 245.357 886.23 245.434 886.23 245.515C886.23 245.596 886.262 245.673 886.32 245.73C886.377 245.787 886.454 245.819 886.535 245.819ZM981.734 240.802C982.071 240.802 982.341 240.529 982.341 240.193C982.341 239.858 982.071 239.585 981.734 239.585C981.397 239.585 981.128 239.858 981.128 240.193C981.128 240.529 981.397 240.802 981.734 240.802ZM999.357 229.702C999.523 229.702 999.663 229.566 999.663 229.398C999.662 229.317 999.629 229.24 999.572 229.183C999.515 229.126 999.437 229.094 999.357 229.094C999.191 229.094 999.051 229.23 999.051 229.398C999.051 229.566 999.191 229.702 999.357 229.702ZM1129.65 218.857C1129.76 218.857 1129.85 218.766 1129.85 218.654C1129.85 218.6 1129.83 218.549 1129.79 218.511C1129.76 218.473 1129.71 218.451 1129.65 218.451C1129.54 218.451 1129.45 218.542 1129.45 218.654C1129.45 218.766 1129.54 218.857 1129.65 218.857Z" fill="white" stroke="white" stroke-width="0.613" stroke-miterlimit="10"/>
<path d="M857.368 287.226C857.597 287.23 857.824 287.188 858.036 287.103C858.248 287.019 858.442 286.892 858.605 286.732C858.768 286.572 858.897 286.38 858.986 286.169C859.074 285.958 859.12 285.732 859.12 285.503C859.12 285.274 859.074 285.047 858.986 284.836C858.898 284.625 858.768 284.434 858.605 284.274C858.442 284.113 858.249 283.987 858.037 283.902C857.824 283.817 857.597 283.775 857.369 283.779C856.917 283.787 856.487 283.972 856.17 284.294C855.854 284.617 855.676 285.05 855.676 285.502C855.676 285.954 855.854 286.388 856.17 286.711C856.486 287.033 856.917 287.218 857.368 287.226V287.226ZM806.678 257.78C806.765 257.78 806.85 257.763 806.93 257.73C807.01 257.697 807.083 257.649 807.144 257.588C807.205 257.526 807.253 257.454 807.287 257.374C807.32 257.294 807.337 257.208 807.337 257.122C807.337 257.035 807.32 256.95 807.287 256.87C807.254 256.79 807.206 256.717 807.144 256.656C807.083 256.595 807.011 256.546 806.931 256.513C806.851 256.48 806.766 256.463 806.679 256.463C806.505 256.462 806.337 256.532 806.214 256.655C806.09 256.779 806.021 256.946 806.021 257.121C806.02 257.296 806.09 257.463 806.213 257.587C806.336 257.71 806.504 257.78 806.678 257.78V257.78ZM867.09 285.605C867.212 285.607 867.333 285.586 867.446 285.541C867.559 285.497 867.662 285.43 867.749 285.345C867.836 285.26 867.905 285.158 867.952 285.046C867.999 284.934 868.024 284.814 868.024 284.692C868.024 284.57 867.999 284.45 867.952 284.338C867.905 284.226 867.836 284.124 867.749 284.039C867.662 283.954 867.559 283.887 867.445 283.843C867.332 283.798 867.211 283.777 867.09 283.78C866.852 283.786 866.626 283.884 866.459 284.055C866.293 284.225 866.2 284.454 866.2 284.692C866.2 284.931 866.293 285.16 866.46 285.33C866.626 285.5 866.852 285.599 867.09 285.605Z" fill="white" stroke="white" stroke-width="0.613" stroke-miterlimit="10"/>
<path d="M1126.36 191.995C1138.05 190.981 1149.24 190.221 1159.88 189.562V224.837C1156.74 225.141 1153.55 225.445 1150.26 225.749C1114.81 229.246 1071.37 234.821 1024.58 242.018C970.086 250.431 920.615 259.706 883.345 268.017C850.025 275.518 826.428 282.259 817.617 287.175H823.237L825.516 287.125C829.467 287.012 833.418 286.86 837.366 286.668C847.493 286.162 859.191 285.3 872.154 284.185L872.61 285.25C873.015 286.263 873.42 287.277 873.876 288.29L874.332 289.355L874.788 290.419C874.889 290.672 875.041 290.926 875.142 291.179C875.395 291.686 875.648 292.243 875.902 292.75C875.952 292.903 876.054 293.004 876.104 293.156C876.256 293.46 876.408 293.713 876.509 294.017L877.421 295.842H877.117C868.852 296.53 860.58 297.139 852.304 297.667C847.493 297.97 842.835 298.275 838.277 298.478C807.59 300.048 781.765 300.099 762.775 298.478L760.801 298.325H760.598C760.024 298.277 759.45 298.226 758.877 298.173H758.725C755.028 297.768 751.584 297.362 748.496 296.805C747.837 296.704 747.129 296.552 746.47 296.45H746.166C744.949 296.207 743.733 295.953 742.52 295.69H742.419C740.913 295.364 739.425 294.958 737.963 294.473H737.912L737.355 294.271L737.203 294.22H737.153C736.444 293.967 735.735 293.713 735.077 293.46L734.975 293.409L734.216 293.105L734.114 293.054C733.709 292.903 733.355 292.7 733 292.547C732.848 292.497 732.747 292.395 732.595 292.345L732.545 292.395L731.937 292.092L731.785 291.99C731.633 291.889 731.43 291.787 731.278 291.686L731.177 291.635L731.127 291.584C730.924 291.483 730.721 291.331 730.569 291.23C729.541 290.555 728.662 289.675 727.987 288.645C727.588 288.052 727.328 287.376 727.227 286.668C725.151 273.137 779.891 252.611 862.685 233.503C902.183 224.33 948.113 215.511 997.282 207.909C1043.67 200.56 1087.57 195.29 1126.36 191.995Z" fill="url(#paint8_linear_238_4)"/>
<path d="M880.561 299.39C858.786 300.859 785.917 303.444 762.168 298.072C760.497 297.92 758.877 297.768 757.307 297.565L756.345 297.464L755.433 297.362C754.471 297.261 753.56 297.109 752.648 296.957C751.838 296.856 751.078 296.704 750.319 296.602L750.116 296.552L748.597 296.298L747.787 296.146L747.432 296.095L745.812 295.792H745.761L745.103 295.639C744.242 295.436 743.432 295.284 742.622 295.082L742.065 294.93L741.508 294.778C741.305 294.727 741.103 294.676 740.951 294.626L740.394 294.473L739.837 294.321L739.33 294.169C738.165 293.815 737.102 293.409 736.14 293.055H736.089C735.394 292.809 734.702 292.556 734.013 292.294L733.912 292.244L733.153 291.94L733.051 291.889C732.646 291.737 732.292 291.534 731.937 291.382L732.849 291.433C737.102 291.787 741.913 292.193 746.723 292.547C751.579 292.938 756.441 293.243 761.307 293.46C765.359 293.612 768.954 293.663 771.84 293.46C782.828 292.801 795.893 292.041 806.628 290.166C810.832 289.507 814.933 288.493 818.933 287.074C819.744 286.77 820.757 286.466 821.871 286.111C832.859 280.638 858.938 276.684 870.028 275.164C872.458 282.462 877.066 292.7 880.561 299.39V299.39Z" fill="url(#paint9_linear_238_4)"/>
<path d="M364.554 378.906V425.369C364.554 430.58 360.336 434.86 355.063 434.86H310.71C305.499 434.86 301.218 430.641 301.218 425.369V378.348C301.218 369.539 304.878 361.165 311.33 355.148C312.198 354.279 313.191 353.535 314.184 352.791C317.595 350.247 321.503 348.51 325.597 347.518C326.466 347.332 327.334 347.145 328.264 347.022C328.637 346.959 329.009 346.898 329.381 346.898C329.94 346.835 330.498 346.773 330.994 346.773H331.428C331.924 346.773 332.421 346.712 332.917 346.712H333.475C333.786 346.712 334.034 346.712 334.282 346.773H334.654C334.964 346.773 335.337 346.835 335.647 346.835C335.957 346.835 336.205 346.898 336.515 346.898C336.639 346.898 336.763 346.898 336.887 346.959L338.19 347.145C338.624 347.208 339.244 347.332 339.741 347.455C343.214 348.262 346.564 349.627 349.604 351.55C350.615 352.176 351.588 352.859 352.52 353.597C360.15 359.862 364.554 369.105 364.554 378.906V378.906Z" fill="#C197F2"/>
<path d="M320.759 360.545L314.927 338.523C316.044 337.282 315.919 335.359 314.679 334.243C313.438 333.126 311.515 333.25 310.399 334.491C309.282 335.732 309.406 337.655 310.646 338.772C310.895 339.019 311.205 339.205 311.515 339.329L317.408 361.413L320.758 360.545H320.759Z" fill="url(#paint10_linear_238_4)"/>
<path d="M356.117 335.235C355.807 333.561 354.194 332.382 352.519 332.692C350.844 333.002 349.666 334.615 349.976 336.29C350.1 336.848 350.286 337.345 350.658 337.779L343.959 361.351L347.308 362.282L354.008 338.647C355.435 338.151 356.365 336.724 356.117 335.235V335.235Z" fill="url(#paint11_linear_238_4)"/>
<path d="M315.175 360.235C315.395 360.235 315.612 360.191 315.816 360.107C316.019 360.023 316.203 359.9 316.359 359.744C316.515 359.589 316.638 359.404 316.722 359.201C316.806 358.998 316.85 358.78 316.85 358.56C316.85 358.34 316.806 358.123 316.722 357.919C316.638 357.716 316.515 357.532 316.359 357.376C316.204 357.22 316.019 357.097 315.816 357.013C315.613 356.929 315.395 356.885 315.175 356.885C314.731 356.885 314.305 357.062 313.991 357.376C313.677 357.69 313.501 358.116 313.501 358.56C313.501 359.004 313.677 359.43 313.991 359.744C314.305 360.058 314.731 360.235 315.175 360.235H315.175ZM320.509 355.085C320.664 355.086 320.817 355.055 320.96 354.996C321.103 354.937 321.233 354.85 321.343 354.741C321.452 354.631 321.539 354.501 321.598 354.358C321.658 354.215 321.688 354.062 321.688 353.907C321.688 353.753 321.658 353.599 321.599 353.456C321.539 353.313 321.453 353.183 321.343 353.074C321.234 352.964 321.104 352.878 320.961 352.818C320.818 352.759 320.665 352.729 320.51 352.728C320.197 352.728 319.898 352.853 319.677 353.074C319.456 353.295 319.332 353.594 319.332 353.907C319.332 354.22 319.456 354.519 319.677 354.74C319.898 354.961 320.197 355.085 320.51 355.085H320.509Z" fill="white"/>
<path d="M440.171 390.878V430.58C440.171 435.046 436.573 438.644 432.107 438.644H394.267C393.207 438.646 392.158 438.439 391.178 438.034C390.199 437.63 389.309 437.036 388.56 436.286C387.811 435.537 387.217 434.647 386.812 433.668C386.408 432.689 386.201 431.639 386.203 430.58V390.445C386.203 382.938 389.304 375.805 394.825 370.656C395.57 369.912 396.376 369.291 397.244 368.671C400.16 366.5 403.447 365.011 406.984 364.205C407.728 364.018 408.472 363.895 409.279 363.77L410.271 363.646C410.706 363.585 411.202 363.522 411.636 363.522H414.676C414.986 363.522 415.234 363.585 415.544 363.585L416.288 363.646L416.599 363.708L417.715 363.895C418.087 363.956 418.584 364.018 419.018 364.142C421.996 364.825 424.849 366.004 427.392 367.678C428.243 368.222 429.071 368.801 429.873 369.415C436.387 374.626 440.171 382.504 440.171 390.878V390.878Z" fill="#C197F2"/>
<path d="M402.766 375.185L397.741 356.388C398.671 355.334 398.609 353.659 397.493 352.728C396.438 351.798 394.763 351.86 393.833 352.977C392.902 354.032 392.964 355.706 394.081 356.637C394.329 356.823 394.577 357.009 394.825 357.133L399.85 375.991L402.766 375.185Z" fill="url(#paint12_linear_238_4)"/>
<path d="M432.913 353.535C432.665 352.108 431.3 351.115 429.874 351.364C428.447 351.612 427.454 352.977 427.703 354.403C427.827 354.838 428.013 355.272 428.323 355.644L422.616 375.805L425.47 376.611L431.177 356.451C432.417 356.078 433.161 354.838 432.913 353.535Z" fill="url(#paint13_linear_238_4)"/>
<path d="M397.989 374.936C398.176 374.936 398.362 374.899 398.535 374.828C398.708 374.756 398.865 374.651 398.998 374.519C399.13 374.386 399.235 374.229 399.307 374.056C399.379 373.883 399.415 373.697 399.415 373.51C399.416 373.323 399.379 373.137 399.307 372.964C399.235 372.791 399.13 372.634 398.998 372.502C398.866 372.369 398.708 372.264 398.535 372.192C398.362 372.121 398.177 372.084 397.99 372.084C397.611 372.084 397.248 372.234 396.981 372.501C396.713 372.769 396.563 373.131 396.563 373.51C396.563 373.888 396.713 374.251 396.98 374.518C397.248 374.786 397.611 374.936 397.989 374.936V374.936ZM402.578 370.47C402.841 370.47 403.093 370.365 403.279 370.179C403.466 369.993 403.57 369.741 403.57 369.478C403.57 369.214 403.466 368.962 403.279 368.776C403.093 368.59 402.841 368.485 402.578 368.485C402.315 368.485 402.062 368.59 401.876 368.776C401.69 368.962 401.585 369.214 401.585 369.478C401.585 369.741 401.69 369.993 401.876 370.179C402.062 370.365 402.315 370.47 402.578 370.47Z" fill="white"/>
<path d="M357.605 378.906V425.369C357.605 430.58 353.387 434.86 348.114 434.86H310.771C305.559 434.86 301.279 430.641 301.279 425.369V378.348C301.279 369.539 304.939 361.165 311.391 355.148C312.259 354.279 313.252 353.535 314.244 352.791C317.656 350.247 321.564 348.51 325.658 347.518C326.526 347.332 327.395 347.145 328.326 347.022C328.698 346.959 329.069 346.898 329.442 346.898H329.628C329.752 346.898 329.876 346.898 330 346.959L331.303 347.145C331.862 347.208 332.358 347.332 332.854 347.455C336.328 348.262 339.677 349.627 342.717 351.55C343.728 352.175 344.701 352.859 345.633 353.597C353.138 359.862 357.605 369.105 357.605 378.906V378.906ZM434.216 390.878V430.58C434.216 435.046 430.618 438.644 426.152 438.644H394.267C393.207 438.646 392.158 438.439 391.178 438.034C390.199 437.63 389.309 437.036 388.56 436.286C387.811 435.537 387.217 434.647 386.812 433.668C386.408 432.689 386.201 431.639 386.203 430.58V390.445C386.203 382.938 389.304 375.805 394.825 370.656C395.57 369.912 396.376 369.291 397.244 368.671C400.16 366.5 403.447 365.011 406.984 364.205C407.728 364.018 408.472 363.895 409.279 363.77L410.271 363.646H410.395L410.706 363.708L411.822 363.895C412.194 363.956 412.69 364.018 413.125 364.142C416.121 364.824 418.975 366.02 421.561 367.678C422.413 368.222 423.241 368.801 424.043 369.415C430.432 374.564 434.216 382.505 434.216 390.878V390.878Z" fill="#8B4FD1"/>
<path d="M330.497 427.788V445.467C330.559 449.003 328.574 452.291 325.472 453.966C324.305 454.578 323.007 454.897 321.688 454.896C316.788 454.896 312.88 450.678 312.88 445.467V427.788H330.497ZM351.651 427.788V445.467C351.713 449.003 349.728 452.291 346.626 453.966C345.459 454.578 344.16 454.897 342.842 454.896C337.941 454.896 334.034 450.678 334.034 445.467V427.788H351.651ZM411.138 432.627V447.701C411.201 450.74 409.526 453.531 406.858 454.958C405.866 455.454 404.749 455.764 403.633 455.703C399.477 455.703 396.127 452.105 396.127 447.638V432.564H411.138V432.627ZM429.191 432.627V447.701C429.253 450.74 427.517 453.531 424.849 454.958C423.857 455.454 422.74 455.703 421.624 455.703C417.467 455.703 414.117 452.105 414.117 447.638V432.564H429.191V432.627Z" fill="#F78F08"/>
<path d="M364.554 408.31V426.795C364.554 431.262 360.336 434.86 355.063 434.86H310.71C309.965 434.86 309.159 434.798 308.414 434.611C304.258 433.743 301.218 430.579 301.218 426.795V408.31H364.554ZM440.171 415.94V431.696C440.171 435.48 436.573 438.581 432.107 438.581H394.267C393.584 438.581 392.964 438.52 392.344 438.396C388.808 437.651 386.203 434.922 386.203 431.696V415.94H440.171V415.94Z" fill="#F78F08"/>
<path d="M326.093 437.952V459.912C326.093 461.339 325.907 462.766 325.472 464.131C324.305 464.743 323.007 465.062 321.688 465.061C316.788 465.061 312.88 460.843 312.88 455.632V437.952H326.093V437.952ZM347.246 438.015V459.975C347.246 461.401 347.061 462.828 346.626 464.192C345.459 464.805 344.16 465.124 342.842 465.123C337.941 465.123 334.034 460.905 334.034 455.694V438.015H347.246Z" fill="#B8306F"/>
<path d="M360.087 408.31V426.795C360.087 431.262 355.869 434.86 350.596 434.86H308.415V434.611C304.259 433.743 301.219 430.579 301.219 426.795V408.31H360.088H360.087ZM407.355 432.627V451.361C407.351 452.577 407.184 453.787 406.858 454.958C405.866 455.454 404.749 455.764 403.633 455.703C399.477 455.703 396.127 452.105 396.127 447.638V432.564H407.355V432.627V432.627ZM425.407 432.627V451.361C425.403 452.577 425.236 453.787 424.911 454.958C423.919 455.454 422.802 455.703 421.686 455.703C417.53 455.703 414.18 452.105 414.18 447.638V432.564H425.407V432.627V432.627Z" fill="#B8306F"/>
<path d="M436.387 415.94V431.696C436.387 435.48 432.789 438.581 428.323 438.581H392.344V438.396C388.808 437.651 386.203 434.922 386.203 431.696V415.94H436.387V415.94Z" fill="#B8306F"/>
<path d="M364.554 391.747V395.345C361.948 391.623 358.908 387.901 353.139 388.583C347.308 389.265 342.098 398.322 342.098 398.322L332.917 394.725C332.917 394.725 340.547 385.358 351.651 385.358C358.598 385.358 361.7 389.328 364.554 391.747V391.747ZM440.171 401.796V404.898C437.938 401.734 435.333 398.508 430.432 399.129C425.47 399.749 421.003 407.441 421.003 407.441L413.187 404.34C413.187 404.34 419.7 396.338 429.191 396.338C435.084 396.338 437.752 399.811 440.171 401.796Z" fill="#5A2489"/>
<path d="M343.958 391.685H304.629V422.95H343.958V391.685H343.958Z" fill="#8342BD"/>
<path d="M329.939 391.685H288.625V422.95H329.939V391.685Z" fill="#5A2489"/>
<path d="M345.498 361.511C345.528 361.159 345.488 360.804 345.38 360.467C345.271 360.13 345.097 359.818 344.868 359.549C344.638 359.281 344.357 359.06 344.041 358.901C343.725 358.741 343.381 358.646 343.028 358.621C342.675 358.596 342.321 358.642 341.986 358.755C341.651 358.868 341.342 359.046 341.076 359.28C340.811 359.514 340.594 359.798 340.44 360.116C340.285 360.434 340.195 360.78 340.175 361.133C340.136 361.833 340.373 362.52 340.836 363.046C341.299 363.572 341.951 363.895 342.65 363.945C343.349 363.994 344.04 363.767 344.573 363.311C345.106 362.856 345.438 362.209 345.498 361.511Z" fill="#6A2AA1"/>
<path d="M325.225 358.622C325.455 358.622 325.676 358.53 325.839 358.367C326.002 358.204 326.094 357.983 326.094 357.753C326.094 357.523 326.002 357.302 325.839 357.139C325.676 356.976 325.455 356.885 325.225 356.885C324.995 356.885 324.774 356.976 324.611 357.139C324.448 357.302 324.357 357.523 324.357 357.753C324.357 357.983 324.448 358.204 324.611 358.367C324.774 358.53 324.995 358.622 325.225 358.622Z" fill="#8836CF"/>
<path d="M329.319 379.713C330.125 379.713 330.898 379.393 331.469 378.823C332.039 378.253 332.359 377.479 332.359 376.673C332.359 375.867 332.039 375.094 331.469 374.524C330.898 373.953 330.125 373.633 329.319 373.633C328.513 373.633 327.74 373.953 327.169 374.524C326.599 375.094 326.279 375.867 326.279 376.673C326.279 377.479 326.599 378.253 327.169 378.823C327.74 379.393 328.513 379.713 329.319 379.713Z" fill="#6A2AA1"/>
<path d="M292.285 395.345H302.583C302.831 395.345 303.079 395.593 303.079 395.841V396.958C303.079 397.206 302.831 397.454 302.583 397.454H292.348C292.1 397.454 291.851 397.206 291.851 396.958V395.841C291.789 395.593 292.038 395.345 292.285 395.345ZM292.78 399.688H302.086C302.644 399.688 303.016 400.121 303.016 400.618V404.215C303.016 404.774 302.582 405.146 302.086 405.146H292.781C292.222 405.146 291.789 404.712 291.789 404.215V400.618C291.789 400.121 292.222 399.688 292.781 399.688H292.78Z" fill="#8836CF"/>
<path d="M422.616 401.734H389.057V428.408H422.616V401.734Z" fill="#8342BD"/>
<path d="M410.705 401.734H375.409V428.408H410.705V401.734Z" fill="#5A2489"/>
<path d="M401.896 379.402C402.189 379.402 402.48 379.345 402.751 379.233C403.022 379.12 403.268 378.956 403.475 378.749C403.683 378.541 403.847 378.295 403.96 378.024C404.072 377.753 404.13 377.463 404.13 377.17C404.13 376.877 404.072 376.586 403.96 376.315C403.848 376.044 403.683 375.798 403.476 375.591C403.269 375.383 403.023 375.219 402.752 375.106C402.481 374.994 402.191 374.936 401.897 374.936C401.305 374.936 400.737 375.171 400.318 375.59C399.899 376.008 399.664 376.576 399.664 377.169C399.663 377.761 399.899 378.329 400.317 378.748C400.736 379.167 401.304 379.402 401.896 379.402V379.402ZM406.612 373.571C406.809 373.571 406.998 373.493 407.138 373.354C407.277 373.214 407.356 373.025 407.356 372.828C407.356 372.63 407.277 372.441 407.138 372.302C406.998 372.162 406.809 372.084 406.612 372.084C406.415 372.084 406.225 372.162 406.086 372.302C405.946 372.441 405.868 372.63 405.868 372.828C405.868 373.025 405.946 373.214 406.086 373.354C406.225 373.493 406.415 373.571 406.612 373.571ZM425.221 385.42C425.912 385.42 426.575 385.145 427.063 384.657C427.552 384.168 427.827 383.506 427.827 382.815C427.827 382.124 427.552 381.461 427.063 380.972C426.575 380.484 425.912 380.209 425.221 380.209C424.53 380.209 423.868 380.484 423.379 380.972C422.89 381.461 422.616 382.124 422.616 382.815C422.616 383.506 422.89 384.168 423.379 384.657C423.868 385.145 424.53 385.42 425.221 385.42V385.42Z" fill="#722DAD"/>
<path d="M378.573 404.898H387.195C387.444 404.898 387.691 405.146 387.691 405.394V406.201C387.691 406.449 387.444 406.697 387.195 406.697H378.573C378.324 406.697 378.077 406.449 378.077 406.201V405.394C378.076 405.329 378.088 405.264 378.112 405.204C378.137 405.143 378.174 405.088 378.22 405.042C378.266 404.995 378.321 404.959 378.382 404.934C378.442 404.91 378.507 404.897 378.573 404.898ZM379.007 408.62H386.699C387.257 408.62 387.63 409.054 387.63 409.551V412.342C387.63 412.9 387.195 413.272 386.699 413.272H379.007C378.449 413.272 378.077 412.838 378.077 412.342V409.551C378.077 409.054 378.511 408.62 379.007 408.62Z" fill="#8836CF"/>
<path d="M325.596 347.58C326.464 347.394 327.332 347.208 328.263 347.084C328.636 347.022 329.008 346.959 329.38 346.959C329.938 346.898 330.496 346.835 330.992 346.835H331.427C331.923 346.835 332.419 346.773 332.916 346.773H333.474C333.784 346.773 334.032 346.773 334.281 346.835H334.652C334.962 346.835 335.335 346.898 335.645 346.898C335.955 346.898 336.204 346.959 336.514 346.959C336.638 346.959 336.762 346.959 336.886 347.022L338.188 347.208C338.622 347.27 339.243 347.394 339.739 347.518C343.213 348.325 346.562 349.689 349.602 351.612C350.613 352.238 351.586 352.921 352.518 353.659C360.148 359.8 364.552 369.043 364.552 378.845V425.307C364.552 430.518 360.334 434.798 355.062 434.798M410.209 363.584C410.643 363.522 411.14 363.46 411.574 363.46H414.614C414.924 363.46 415.171 363.522 415.482 363.522L416.226 363.584L416.536 363.646L417.653 363.832C418.025 363.895 418.521 363.956 418.956 364.081C421.933 364.763 424.787 365.942 427.33 367.616C428.181 368.16 429.009 368.739 429.811 369.353C436.324 374.626 440.109 382.504 440.047 390.878V430.579C440.049 431.639 439.842 432.688 439.437 433.668C439.033 434.647 438.439 435.537 437.689 436.286C436.94 437.036 436.05 437.63 435.071 438.034C434.091 438.439 433.042 438.646 431.982 438.644" stroke="white" stroke-width="0.613" stroke-linecap="round" stroke-linejoin="round"/>
<path d="M366.849 424.004L365.919 424.376L364.988 424.624C362.135 425.307 359.281 423.57 358.599 420.778C358.599 420.716 358.599 420.654 358.537 420.592L352.706 396.275C351.961 393.422 353.636 390.445 356.49 389.638L357.234 389.452L357.544 389.39C360.336 388.708 363.127 390.382 363.81 393.174C363.81 393.236 363.81 393.298 363.872 393.36L369.765 417.677C370.385 420.096 369.207 422.764 366.849 424.004V424.004Z" fill="#C197F2"/>
<path d="M366.848 424.004L365.918 424.376L364.988 424.624C362.134 425.307 359.28 423.57 358.598 420.778C358.598 420.716 358.598 420.654 358.536 420.592L351.712 396.71C351.03 393.794 353.635 390.382 356.427 389.638L357.171 389.452C358.908 390.072 360.211 391.499 360.645 393.298L367.158 420.282C367.531 421.523 367.407 422.825 366.848 424.004V424.004Z" fill="#8B4FD1"/>
<path d="M442.156 429.339C441.907 429.463 441.597 429.587 441.349 429.649L440.605 429.835C438.186 430.455 435.767 428.967 435.146 426.547C435.146 426.485 435.146 426.424 435.084 426.424L430.06 405.642C429.439 403.223 430.866 400.68 433.285 399.935L433.905 399.749L434.216 399.688C436.573 399.129 438.992 400.556 439.55 402.913C439.55 402.975 439.55 403.037 439.612 403.099L444.637 423.88C445.134 425.989 444.141 428.284 442.156 429.339Z" fill="#C197F2"/>
<path d="M442.156 429.339C441.907 429.463 441.597 429.587 441.349 429.649L440.605 429.835C438.186 430.455 435.767 428.967 435.146 426.547C435.146 426.485 435.146 426.423 435.084 426.423L429.253 406.015C428.633 403.533 430.927 400.618 433.285 399.998L433.905 399.811C435.394 400.308 436.511 401.548 436.883 403.099L442.466 426.113C442.709 427.194 442.6 428.324 442.156 429.339V429.339Z" fill="#8B4FD1"/>
<path d="M357.42 389.39C360.212 388.708 363.003 390.382 363.686 393.174C363.686 393.236 363.686 393.298 363.748 393.36L369.641 417.677C370.261 420.22 369.083 422.888 366.787 424.066L365.857 424.438M433.162 400.059L433.782 399.873L434.092 399.811C436.45 399.253 438.869 400.68 439.427 403.037C439.427 403.099 439.427 403.161 439.489 403.161L444.513 423.942C445.072 426.113 444.08 428.346 442.094 429.401C441.837 429.531 441.567 429.635 441.288 429.711L440.543 429.897" stroke="white" stroke-width="0.613" stroke-linecap="round" stroke-linejoin="round"/>
<defs>
<linearGradient id="paint0_linear_238_4" x1="157.138" y1="298.86" x2="268.19" y2="812.953" gradientUnits="userSpaceOnUse">
<stop offset="0.05" stop-color="#9133C2"/>
<stop offset="0.37" stop-color="#26163A"/>
</linearGradient>
<linearGradient id="paint1_linear_238_4" x1="595.619" y1="20.7611" x2="613.106" y2="854.548" gradientUnits="userSpaceOnUse">
<stop offset="0.43" stop-color="#9133C2"/>
<stop offset="0.54" stop-color="#26163A"/>
</linearGradient>
<linearGradient id="paint2_linear_238_4" x1="1165.1" y1="283.529" x2="1166.03" y2="283.554" gradientUnits="userSpaceOnUse">
<stop offset="0.05" stop-color="#F973E4"/>
<stop offset="0.45" stop-color="#743495"/>
<stop offset="0.51" stop-color="#5A2878"/>
<stop offset="0.58" stop-color="#3F1C59"/>
<stop offset="0.66" stop-color="#2C1343"/>
<stop offset="0.73" stop-color="#200E36"/>
<stop offset="0.79" stop-color="#1C0C31"/>
</linearGradient>
<linearGradient id="paint3_linear_238_4" x1="866.592" y1="175.692" x2="1124.67" y2="183.772" gradientUnits="userSpaceOnUse">
<stop offset="0.05" stop-color="#F973E4"/>
<stop offset="0.45" stop-color="#743495"/>
<stop offset="0.51" stop-color="#5A2878"/>
<stop offset="0.58" stop-color="#3F1C59"/>
<stop offset="0.66" stop-color="#2C1343"/>
<stop offset="0.73" stop-color="#200E36"/>
<stop offset="0.79" stop-color="#1C0C31"/>
</linearGradient>
<linearGradient id="paint4_linear_238_4" x1="1139.78" y1="181.917" x2="1141.73" y2="181.977" gradientUnits="userSpaceOnUse">
<stop offset="0.05" stop-color="#F973E4"/>
<stop offset="0.45" stop-color="#743495"/>
<stop offset="0.51" stop-color="#5A2878"/>
<stop offset="0.58" stop-color="#3F1C59"/>
<stop offset="0.66" stop-color="#2C1343"/>
<stop offset="0.73" stop-color="#200E36"/>
<stop offset="0.79" stop-color="#1C0C31"/>
</linearGradient>
<linearGradient id="paint5_linear_238_4" x1="727.555" y1="244.408" x2="1159.52" y2="244.408" gradientUnits="userSpaceOnUse">
<stop offset="0.05" stop-color="#F9730A"/>
<stop offset="0.45" stop-color="#743495"/>
<stop offset="0.51" stop-color="#5A2878"/>
<stop offset="0.58" stop-color="#3F1C59"/>
<stop offset="0.66" stop-color="#2C1343"/>
<stop offset="0.73" stop-color="#200E36"/>
<stop offset="0.79" stop-color="#1C0C31"/>
</linearGradient>
<linearGradient id="paint6_linear_238_4" x1="730.789" y1="246.499" x2="1159.53" y2="246.499" gradientUnits="userSpaceOnUse">
<stop offset="0.05" stop-color="#F973BE"/>
<stop offset="0.45" stop-color="#743495"/>
<stop offset="0.51" stop-color="#5A2878"/>
<stop offset="0.58" stop-color="#3F1C59"/>
<stop offset="0.66" stop-color="#2C1343"/>
<stop offset="0.73" stop-color="#200E36"/>
<stop offset="0.79" stop-color="#1C0C31"/>
</linearGradient>
<linearGradient id="paint7_linear_238_4" x1="760.134" y1="250.368" x2="1159.5" y2="250.368" gradientUnits="userSpaceOnUse">
<stop offset="0.05" stop-color="#F97B45"/>
<stop offset="0.45" stop-color="#743495"/>
<stop offset="0.51" stop-color="#5A2878"/>
<stop offset="0.58" stop-color="#3F1C59"/>
<stop offset="0.66" stop-color="#2C1343"/>
<stop offset="0.73" stop-color="#200E36"/>
<stop offset="0.79" stop-color="#1C0C31"/>
</linearGradient>
<linearGradient id="paint8_linear_238_4" x1="727.146" y1="308.659" x2="1177.94" y2="181.645" gradientUnits="userSpaceOnUse">
<stop offset="0.05" stop-color="#F97B45" stop-opacity="0"/>
<stop offset="0.37" stop-color="#743495" stop-opacity="0.3"/>
<stop offset="0.45" stop-color="#572774" stop-opacity="0.53"/>
<stop offset="0.79" stop-color="#1C0C31"/>
</linearGradient>
<linearGradient id="paint9_linear_238_4" x1="736.68" y1="315.021" x2="880.04" y2="274.626" gradientUnits="userSpaceOnUse">
<stop offset="0.05" stop-color="#F97B45" stop-opacity="0"/>
<stop offset="0.37" stop-color="#743495" stop-opacity="0.3"/>
<stop offset="0.45" stop-color="#572774" stop-opacity="0.53"/>
<stop offset="0.79" stop-color="#1C0C31"/>
</linearGradient>
<linearGradient id="paint10_linear_238_4" x1="312.243" y1="335.158" x2="319.234" y2="361.485" gradientUnits="userSpaceOnUse">
<stop stop-color="white"/>
<stop offset="0.1" stop-color="#F0E6FC"/>
<stop offset="0.24" stop-color="#DFCAF8"/>
<stop offset="0.39" stop-color="#D2B3F6"/>
<stop offset="0.56" stop-color="#C8A3F4"/>
<stop offset="0.74" stop-color="#C39AF2"/>
<stop offset="1" stop-color="#C197F2"/>
</linearGradient>
<linearGradient id="paint11_linear_238_4" x1="352.795" y1="334.554" x2="347.378" y2="362.408" gradientUnits="userSpaceOnUse">
<stop stop-color="white"/>
<stop offset="0.02" stop-color="#FDFBFF"/>
<stop offset="0.21" stop-color="#E7D7FA"/>
<stop offset="0.4" stop-color="#D7BBF7"/>
<stop offset="0.59" stop-color="#CBA7F4"/>
<stop offset="0.78" stop-color="#C39BF3"/>
<stop offset="0.97" stop-color="#C197F2"/>
</linearGradient>
<linearGradient id="paint12_linear_238_4" x1="395.525" y1="353.507" x2="401.493" y2="375.982" gradientUnits="userSpaceOnUse">
<stop stop-color="white"/>
<stop offset="0.1" stop-color="#F0E6FC"/>
<stop offset="0.24" stop-color="#DFCAF8"/>
<stop offset="0.39" stop-color="#D2B3F6"/>
<stop offset="0.56" stop-color="#C8A3F4"/>
<stop offset="0.74" stop-color="#C39AF2"/>
<stop offset="1" stop-color="#C197F2"/>
</linearGradient>
<linearGradient id="paint13_linear_238_4" x1="430.127" y1="352.999" x2="425.507" y2="376.773" gradientUnits="userSpaceOnUse">
<stop stop-color="white"/>
<stop offset="0.02" stop-color="#FDFBFF"/>
<stop offset="0.21" stop-color="#E7D7FA"/>
<stop offset="0.4" stop-color="#D7BBF7"/>
<stop offset="0.59" stop-color="#CBA7F4"/>
<stop offset="0.78" stop-color="#C39BF3"/>
<stop offset="0.97" stop-color="#C197F2"/>
</linearGradient>
</defs>
</svg>
